<svg width="360" height="568" viewBox="0 0 360 568" fill="none" xmlns="http://www.w3.org/2000/svg">
<g filter="url(#filter0_d_598_261)">
<path d="M328.401 541H23.8139C18.2727 541 13.7791 535.947 13.7791 529.716V21.2838C13.7791 15.0529 18.2727 10 23.8139 10H328.401C333.942 10 338.436 15.0529 338.436 21.2838V529.716C338.436 535.947 333.942 541 328.401 541Z" fill="#ECA829"/>
<mask id="mask0_598_261" style="mask-type:luminance" maskUnits="userSpaceOnUse" x="13" y="10" width="326" height="531">
<path d="M328.401 541H23.8139C18.2727 541 13.7791 535.947 13.7791 529.716V21.2838C13.7791 15.0529 18.2727 10 23.8139 10H328.401C333.942 10 338.436 15.0529 338.436 21.2838V529.716C338.436 535.947 333.942 541 328.401 541Z" fill="white"/>
</mask>
<g mask="url(#mask0_598_261)">
<g style="mix-blend-mode:screen" opacity="0.17">
<path d="M326.747 196.645C326.747 196.645 326.747 458.031 326.747 485.777C326.747 513.523 300.774 528.126 278.7 528.126C256.625 528.126 202.08 528.126 202.08 528.126C202.08 528.126 268.628 509.612 285.193 477.017C300.774 446.353 307.183 415.539 311.166 355.814C315.058 297.404 326.747 196.645 326.747 196.645Z" fill="#ECA829"/>
</g>
</g>
<mask id="mask1_598_261" style="mask-type:luminance" maskUnits="userSpaceOnUse" x="13" y="10" width="326" height="531">
<path d="M328.401 541H23.8139C18.2727 541 13.7791 535.947 13.7791 529.716V21.2838C13.7791 15.0529 18.2727 10 23.8139 10H328.401C333.942 10 338.436 15.0529 338.436 21.2838V529.716C338.436 535.947 333.942 541 328.401 541Z" fill="white"/>
</mask>
<g mask="url(#mask1_598_261)">
<g style="mix-blend-mode:screen" opacity="0.17">
<path d="M105.98 24.3394C105.98 24.3394 60.5283 21.4213 47.542 24.3394C34.5557 27.2575 25.4675 47.7022 37.1562 66.6819C48.8449 85.6615 48.8449 85.6675 48.8449 85.6675C48.8449 85.6675 42.3518 63.7638 48.8449 50.6203C55.338 37.4769 105.98 24.3394 105.98 24.3394Z" fill="#ECA829"/>
</g>
</g>
<mask id="mask2_598_261" style="mask-type:luminance" maskUnits="userSpaceOnUse" x="13" y="10" width="326" height="531">
<path d="M328.401 541H23.8139C18.2727 541 13.7791 535.947 13.7791 529.716V21.2838C13.7791 15.0529 18.2727 10 23.8139 10H328.401C333.942 10 338.436 15.0529 338.436 21.2838V529.716C338.436 535.947 333.942 541 328.401 541Z" fill="white"/>
</mask>
<g mask="url(#mask2_598_261)">
<g style="mix-blend-mode:screen" opacity="0.17">
<path d="M31.9607 297.404C31.9607 297.404 31.9607 417.142 31.9607 452.189C31.9607 487.236 33.2583 528.12 54.0352 528.12C74.8122 528.12 105.98 528.12 105.98 528.12C105.98 528.12 77.4127 506.216 61.8259 462.408C41.2085 404.447 31.9607 297.404 31.9607 297.404Z" fill="#ECA829"/>
</g>
</g>
<path d="M23.9705 541.914C22.9244 541.908 21.8784 541.746 20.8697 541.422C19.8664 541.075 18.9111 540.553 18.0359 539.894C17.1553 539.241 16.3975 538.395 15.7357 537.472C15.0686 536.549 14.5509 535.494 14.1773 534.379C13.9692 533.828 13.8571 533.246 13.7184 532.665C13.633 532.077 13.5316 531.49 13.5209 530.89C13.4622 529.704 13.4835 528.577 13.4622 527.42L13.3981 520.52L13.1526 492.916L12.7631 437.709L12.4642 382.501L12.2454 327.293L12.0853 272.086L12.0106 216.878L11.9999 161.676C11.9892 143.274 12.0799 124.871 12.1226 106.469L12.3895 51.261L12.5549 23.6572L12.5656 21.9308L12.5709 21.0676L12.5763 20.63L12.5976 20.1445C12.635 18.8437 12.8805 17.555 13.2861 16.3381C13.681 15.1153 14.2414 13.9644 14.9565 12.9453C15.6716 11.9323 16.4935 10.9972 17.4488 10.2779C18.3988 9.54655 19.4395 8.9591 20.5389 8.56947C21.6436 8.19783 22.791 8.00601 23.9384 7.99402L30.0865 8.03598L79.2389 8.38365L128.391 8.59944C161.16 8.66538 193.928 8.66538 226.696 8.56348L251.272 8.48555L275.849 8.34768L325.001 8.06595L328.075 8.04797L329.612 8.03598C330.173 8.06595 330.754 8.05996 331.32 8.17984C331.891 8.25177 332.446 8.42561 333.001 8.58746C333.54 8.80325 334.09 9.00106 334.602 9.30078C335.632 9.86425 336.603 10.5836 337.431 11.4827C338.263 12.3699 338.994 13.3889 339.555 14.5158C340.11 15.6488 340.521 16.8716 340.772 18.1424C341.001 19.4012 341.022 20.7799 341.017 21.8649L341.033 25.3176L341.177 52.9214L341.433 108.129L341.727 218.544L341.946 328.96L341.999 384.167V439.375L341.908 494.583L341.866 522.187L341.855 529.086V529.949V530.381L341.834 530.902C341.812 531.25 341.812 531.598 341.77 531.939L341.625 532.97C341.375 534.337 340.958 535.662 340.371 536.891C339.768 538.108 339.005 539.217 338.124 540.188C337.244 541.165 336.203 541.95 335.104 542.579C334.004 543.215 332.804 543.622 331.581 543.838C330.973 543.964 330.354 543.988 329.74 544.012H328.193L229.888 543.574L131.583 542.915L82.4304 542.465L33.2779 541.932V541.452L82.4304 540.919L131.583 540.469L229.888 539.81L328.193 539.372L329.714 539.36C330.119 539.33 330.53 539.324 330.93 539.234C331.731 539.085 332.515 538.821 333.231 538.389C333.946 537.97 334.629 537.454 335.2 536.807C335.776 536.165 336.267 535.428 336.662 534.637C337.036 533.828 337.303 532.964 337.463 532.077L337.553 531.406C337.585 531.184 337.575 530.95 337.591 530.723L337.607 530.381V529.949V529.086L337.596 522.187L337.553 494.583L337.463 439.375V384.167L337.516 328.96L337.735 218.544L338.028 108.129L338.285 52.9214L338.429 25.3176L338.445 21.8649C338.461 20.654 338.445 19.7189 338.285 18.7119C338.098 17.7288 337.794 16.7817 337.372 15.8885C336.945 15.0014 336.379 14.2041 335.739 13.5028C335.104 12.7895 334.346 12.22 333.54 11.7704C333.145 11.5247 332.713 11.3748 332.297 11.189C331.859 11.0691 331.432 10.9133 330.978 10.8533C330.535 10.7454 330.087 10.7574 329.628 10.7214L328.091 10.7094L325.017 10.6915L275.865 10.4097L251.288 10.2719L226.712 10.1939C193.944 10.092 161.176 10.086 128.407 10.158L79.2549 10.3678L30.1025 10.7154L23.9491 10.7574C23.0472 10.7814 22.1559 10.9492 21.2967 11.2429C20.4428 11.5606 19.6423 12.0282 18.9111 12.6036C18.1693 13.1731 17.5449 13.9104 17.0005 14.7017C16.4508 15.4929 16.0292 16.3921 15.741 17.3392C15.4422 18.2803 15.2607 19.2693 15.25 20.2704L15.234 20.648V21.0736L15.2394 21.9368L15.25 23.6632L15.4155 51.261L15.6823 106.469C15.7304 124.871 15.8157 143.274 15.8051 161.676L15.7944 216.884L15.7197 272.092L15.5596 327.299L15.3408 382.507L15.0419 437.715L14.6523 492.922L14.4068 520.526L14.3428 527.426C14.3428 528.565 14.2947 529.746 14.3268 530.854C14.3214 531.412 14.4068 531.957 14.4762 532.503C14.5936 533.042 14.6843 533.588 14.8658 534.103C15.186 535.146 15.6503 536.147 16.2587 537.029C16.8618 537.91 17.5556 538.725 18.3721 539.366C19.1833 540.008 20.0799 540.529 21.0245 540.889C21.9798 541.225 22.9725 541.404 23.9758 541.44V541.914H23.9705Z" fill="#8C4975"/>
</g>
<defs>
<filter id="filter0_d_598_261" x="-0.000976562" y="0.994019" width="360" height="566.018" filterUnits="userSpaceOnUse" color-interpolation-filters="sRGB">
<feFlood flood-opacity="0" result="BackgroundImageFix"/>
<feColorMatrix in="SourceAlpha" type="matrix" values="0 0 0 0 0 0 0 0 0 0 0 0 0 0 0 0 0 0 127 0" result="hardAlpha"/>
<feMorphology radius="5" operator="dilate" in="SourceAlpha" result="effect1_dropShadow_598_261"/>
<feOffset dx="3" dy="8"/>
<feGaussianBlur stdDeviation="5"/>
<feComposite in2="hardAlpha" operator="out"/>
<feColorMatrix type="matrix" values="0 0 0 0 0.92549 0 0 0 0 0.658824 0 0 0 0 0.160784 0 0 0 0.5 0"/>
<feBlend mode="normal" in2="BackgroundImageFix" result="effect1_dropShadow_598_261"/>
<feBlend mode="normal" in="SourceGraphic" in2="effect1_dropShadow_598_261" result="shape"/>
</filter>
</defs>
</svg>
