<svg width="159" height="44" viewBox="0 0 159 44" fill="none" xmlns="http://www.w3.org/2000/svg">
<path d="M152.892 43.777H8.03228C4.95228 43.777 2.46228 41.287 2.46228 38.207V17.497V11.357C2.46228 8.27705 4.95228 5.78705 8.03228 5.78705H152.892C155.972 5.78705 158.462 8.27705 158.462 11.357V38.217C158.462 41.287 155.972 43.777 152.892 43.777Z" fill="#1D3C51"/>
<path d="M150.892 39.777H6.03228C2.95228 39.777 0.46228 37.287 0.46228 34.207V13.497V7.35705C0.46228 4.27705 2.95228 1.78705 6.03228 1.78705H150.892C153.972 1.78705 156.462 4.27705 156.462 7.35705V34.217C156.462 37.287 153.972 39.777 150.892 39.777Z" fill="#7DA5A5"/>
<path d="M150.892 39.877C143.012 39.937 135.122 39.927 127.242 40.037L103.592 40.407C87.8223 40.667 72.0523 40.707 56.2923 40.607L32.6423 40.337L20.8123 40.187L8.98233 40.127L6.02233 40.117C4.98233 40.097 3.93233 39.837 3.04233 39.287C1.22233 38.237 0.112333 36.157 0.152333 34.087L0.112333 22.257C0.102333 18.317 0.0823331 14.367 0.0323332 10.427L0.00233315 7.47705C-0.0276668 6.42705 0.232333 5.33705 0.742333 4.39705C1.75233 2.49705 3.86233 1.24705 6.03233 1.22705C21.8023 1.03705 37.5723 0.897049 53.3323 0.837049C69.1023 0.767049 84.8723 0.687049 100.632 0.747049C116.402 0.747049 132.172 0.837049 147.932 1.11705L150.892 1.16705C151.982 1.19705 153.072 1.48705 153.992 2.06705C155.872 3.17705 157.002 5.35705 156.912 7.47705L156.732 19.307C156.652 23.247 156.662 27.187 156.632 31.137L156.612 34.097C156.622 35.107 156.362 36.117 155.872 36.997C154.892 38.767 152.902 39.897 150.892 39.877ZM150.892 39.677C152.832 39.667 154.722 38.557 155.632 36.857C156.632 35.157 156.212 33.087 156.282 31.137C156.252 27.197 156.252 23.257 156.182 19.307L156.002 7.47705C156.022 5.63705 155.002 3.89705 153.432 3.03705C152.662 2.58705 151.772 2.38705 150.902 2.38705L147.942 2.43705C132.172 2.71705 116.402 2.81705 100.642 2.80705C84.8723 2.87705 69.1023 2.79705 53.3423 2.71705C37.5723 2.66705 21.8023 2.51705 6.03233 2.32705C4.25233 2.30705 2.48233 3.29705 1.60233 4.87705C1.16233 5.66705 0.922333 6.54705 0.922333 7.47705L0.892333 10.427C0.842333 14.367 0.822333 18.307 0.812333 22.257L0.772333 34.077C0.712333 35.957 1.74233 37.807 3.37233 38.727C4.17233 39.207 5.10233 39.427 6.03233 39.447L8.99233 39.437L20.8223 39.377L32.6523 39.227L56.3023 38.957C72.0723 38.857 87.8423 38.897 103.602 39.157L127.252 39.527C135.122 39.627 143.012 39.627 150.892 39.677Z" fill="#254C4F"/>
<path opacity="0.32" d="M1.96236 20.2771C1.96236 20.2771 -2.03764 6.27706 24.9624 5.27706C51.9624 4.27706 91.9624 3.27706 91.9624 3.27706C91.9624 3.27706 10.9624 2.27706 5.96236 3.27706C0.962362 4.27706 0.962362 16.2771 1.96236 20.2771Z" fill="#FFD9F2" fill-opacity="0.36"/>
<path opacity="0.3" d="M1.96228 24.2771C1.96228 24.2771 19.9623 37.2771 53.9623 37.2771C87.9623 37.2771 89.9623 37.2771 89.9623 37.2771C89.9623 37.2771 7.96228 43.2771 3.96228 36.2771C-0.0377197 29.2771 1.96228 24.2771 1.96228 24.2771Z" fill="#FFD9F2" fill-opacity="0.36"/>
<path opacity="0.3" d="M134.962 6.27705C134.962 6.27705 152.962 2.27705 153.962 11.277C154.962 20.277 153.962 36.277 153.962 36.277C153.962 36.277 157.962 11.277 153.962 5.27705C149.962 -0.722954 134.962 6.27705 134.962 6.27705Z" fill="#FFD9F2" fill-opacity="0.36"/>
</svg>
