<svg width="39" height="39" viewBox="0 0 39 39" fill="none" xmlns="http://www.w3.org/2000/svg">
<g clip-path="url(#clip0_80_580)">
<path d="M37 38.53H1.70999C0.959991 38.53 0.349991 36.04 0.349991 32.96V12.24V6.10003C0.349991 3.02003 0.959991 0.530029 1.70999 0.530029H37C37.75 0.530029 38.36 3.02003 38.36 6.10003V32.96C38.36 36.03 37.75 38.53 37 38.53Z" fill="#ECA829"/>
<path d="M37 38.58L27.74 38.66L18.48 38.84C15.39 38.92 12.31 38.93 9.21999 38.96C7.67999 38.98 6.12999 38.97 4.58999 38.96L2.27999 38.95H1.68999C1.21999 38.91 1.03999 38.62 0.899993 38.44C0.639993 38.03 0.519993 37.64 0.409993 37.25C0.00999334 35.68 -0.0300067 34.1 -6.65803e-06 32.55L0.0699933 27.92C0.129993 24.83 0.169993 21.75 0.179993 18.66C0.209993 15.57 0.189993 12.49 0.179993 9.4C0.189993 7.85 0.129993 6.32 0.179993 4.76C0.219993 3.98 0.289993 3.2 0.439993 2.43C0.509993 2.04 0.609993 1.66 0.749993 1.27C0.829993 1.08 0.909993 0.89 1.03999 0.7C1.16999 0.53 1.32999 0.28 1.70999 0.25C7.87999 0.15 14.05 0.08 20.22 0.05L29.48 0H34.11H36.42H37.01C37.12 0.01 37.25 0.04 37.35 0.08C37.43 0.12 37.52 0.18 37.59 0.23C37.7 0.33 37.81 0.45 37.87 0.56C38.15 0.99 38.26 1.38 38.38 1.78C38.79 3.36 38.86 4.95 38.85 6.51L38.82 11.14C38.78 14.23 38.75 17.31 38.67 20.4L38.48 29.66C38.43 31.2 38.48 32.74 38.39 34.29C38.34 35.06 38.25 35.83 38.08 36.59C38 36.97 37.89 37.35 37.75 37.71C37.68 37.89 37.6 38.07 37.48 38.23C37.38 38.39 37.24 38.57 37 38.58ZM37 38.48C37.35 38.43 37.52 38 37.66 37.67C37.79 37.31 37.89 36.94 37.96 36.57C38.11 35.82 38.19 35.05 38.23 34.28C38.29 32.75 38.24 31.2 38.22 29.66L38.03 20.4C37.95 17.31 37.93 14.23 37.88 11.14L37.85 6.51C37.85 4.99 37.77 3.46 37.4 2.06C37.31 1.72 37.18 1.37 37.03 1.15C36.96 1.03 36.87 1.01 37 1.05H36.43H34.12H29.49L20.23 1C14.06 0.97 7.87999 0.9 1.70999 0.8C1.61999 0.77 1.34999 1.14 1.23999 1.46C1.10999 1.8 0.999993 2.16 0.919993 2.53C0.759993 3.27 0.669993 4.03 0.609993 4.79C0.509993 6.3 0.549993 7.86 0.529993 9.4C0.509993 12.49 0.489993 15.57 0.529993 18.66C0.539993 21.75 0.579993 24.83 0.639993 27.92L0.709993 32.55C0.719993 34.08 0.829993 35.61 1.21999 37.03C1.31999 37.37 1.43999 37.73 1.60999 37.97C1.67999 38.1 1.78999 38.14 1.71999 38.11H2.28999L4.59999 38.1C6.13999 38.09 7.68999 38.08 9.22999 38.1C12.32 38.13 15.4 38.14 18.49 38.22L27.75 38.4L37 38.48Z" fill="#8C4975"/>
<path opacity="0.3" d="M2.86 14.03C2.86 14.03 -1.14 3.03003 6.86 3.03003C14.86 3.03003 18.86 2.03003 18.86 2.03003C18.86 2.03003 3.86 6.03003 2.86 14.03Z" fill="#FFC261"/>
<path opacity="0.3" d="M34.36 24.53C34.36 24.53 40.36 36.53 30.36 36.53C20.36 36.53 18.36 37.53 18.36 37.53C18.36 37.53 34.36 36.53 34.36 24.53Z" fill="#FFC261"/>
<path d="M25.41 9.61002C24.2 10.85 22.88 11.91 21.53 12.93C20.17 13.94 18.79 14.91 17.3 15.72C15.8 16.52 14.21 17.16 12.78 18.05C11.33 18.92 9.97999 19.93 8.66999 21.02L8.64999 20.04C10.17 20.7 11.65 21.43 13.09 22.21C14.55 22.97 15.99 23.76 17.39 24.62C20.18 26.37 22.89 28.23 25.4 30.45L25.3 30.62C22.14 29.5 19.19 28.03 16.31 26.45C14.88 25.64 13.49 24.76 12.11 23.86C10.72 22.98 9.36999 22.04 8.04999 21.03L7.25999 20.43L8.02999 20.05C9.54999 19.3 11.03 18.48 12.42 17.52C13.82 16.57 15.06 15.38 16.4 14.35C17.75 13.32 19.2 12.46 20.67 11.64C22.15 10.83 23.66 10.05 25.29 9.46002L25.41 9.61002Z" fill="#8C4975"/>
</g>
<defs>
<clipPath id="clip0_80_580">
<rect width="38.86" height="38.97" fill="white"/>
</clipPath>
</defs>
</svg>
