<svg width="39" height="39" viewBox="0 0 39 39" fill="none" xmlns="http://www.w3.org/2000/svg">
<g clip-path="url(#clip0_80_616)">
<path d="M1.85999 38.53H37.15C37.9 38.53 38.51 36.04 38.51 32.96V12.24V6.10003C38.51 3.02003 37.9 0.530029 37.15 0.530029H1.85999C1.10999 0.530029 0.499992 3.02003 0.499992 6.10003V32.96C0.499992 36.03 1.10999 38.53 1.85999 38.53Z" fill="#ECA829"/>
<path d="M1.85999 38.58L11.12 38.66L20.38 38.84C23.47 38.92 26.55 38.93 29.64 38.96C31.18 38.98 32.73 38.97 34.27 38.96L36.58 38.95H37.17C37.64 38.91 37.82 38.62 37.96 38.44C38.22 38.03 38.34 37.64 38.45 37.25C38.85 35.68 38.89 34.1 38.86 32.55L38.79 27.92C38.73 24.83 38.69 21.75 38.68 18.66C38.65 15.57 38.67 12.49 38.68 9.4C38.67 7.85 38.73 6.32 38.68 4.76C38.64 3.98 38.57 3.2 38.42 2.43C38.35 2.04 38.25 1.66 38.11 1.27C38.03 1.08 37.95 0.89 37.82 0.7C37.69 0.53 37.53 0.28 37.15 0.25C30.98 0.15 24.81 0.08 18.64 0.05L9.37999 0H4.74999H2.43999H1.84999C1.73999 0.01 1.60999 0.04 1.50999 0.08C1.42999 0.12 1.33999 0.18 1.26999 0.23C1.15999 0.33 1.04999 0.45 0.989994 0.56C0.709994 0.99 0.599992 1.38 0.479992 1.78C0.0699919 3.36 -5.49294e-06 4.95 0.00999451 6.51L0.0399933 11.14C0.0799933 14.23 0.109995 17.31 0.189995 20.4L0.379993 29.66C0.429993 31.2 0.379994 32.74 0.469994 34.29C0.519994 35.06 0.609991 35.83 0.779991 36.59C0.859991 36.97 0.969993 37.35 1.10999 37.71C1.17999 37.89 1.25999 38.07 1.37999 38.23C1.47999 38.39 1.61999 38.57 1.85999 38.58ZM1.85999 38.48C1.50999 38.43 1.33999 38 1.19999 37.67C1.06999 37.31 0.969994 36.94 0.899994 36.57C0.749994 35.82 0.669993 35.05 0.629993 34.28C0.569993 32.75 0.619992 31.2 0.639992 29.66L0.829994 20.4C0.909994 17.31 0.929992 14.23 0.979992 11.14L1.00999 6.51C1.00999 4.99 1.08999 3.46 1.45999 2.06C1.54999 1.72 1.67999 1.37 1.82999 1.15C1.89999 1.03 1.98999 1.01 1.85999 1.05H2.42999H4.73999H9.36999L18.63 1C24.8 0.97 30.98 0.9 37.15 0.8C37.24 0.77 37.51 1.14 37.62 1.46C37.75 1.8 37.86 2.16 37.94 2.53C38.1 3.27 38.19 4.03 38.25 4.79C38.35 6.3 38.31 7.86 38.33 9.4C38.35 12.49 38.37 15.57 38.33 18.66C38.32 21.75 38.28 24.83 38.22 27.92L38.15 32.55C38.14 34.08 38.03 35.61 37.64 37.03C37.54 37.37 37.42 37.73 37.25 37.97C37.18 38.1 37.07 38.14 37.14 38.11H36.57L34.26 38.1C32.72 38.09 31.17 38.08 29.63 38.1C26.54 38.13 23.46 38.14 20.37 38.22L11.11 38.4L1.85999 38.48Z" fill="#8C4975"/>
<path opacity="0.3" d="M36 14.03C36 14.03 40 3.03003 32 3.03003C24 3.03003 20 2.03003 20 2.03003C20 2.03003 35 6.03003 36 14.03Z" fill="#FFC261"/>
<path opacity="0.3" d="M4.49998 24.53C4.49998 24.53 -1.50002 36.53 8.49998 36.53C18.5 36.53 20.5 37.53 20.5 37.53C20.5 37.53 4.49998 36.53 4.49998 24.53Z" fill="#FFC261"/>
<path d="M13.45 9.61002C14.66 10.85 15.98 11.91 17.33 12.93C18.69 13.94 20.07 14.91 21.56 15.72C23.06 16.52 24.65 17.16 26.08 18.05C27.53 18.92 28.88 19.93 30.19 21.02L30.21 20.04C28.69 20.7 27.21 21.43 25.77 22.21C24.31 22.97 22.87 23.76 21.47 24.62C18.68 26.37 15.97 28.23 13.46 30.45L13.56 30.62C16.72 29.5 19.67 28.03 22.55 26.45C23.98 25.64 25.37 24.76 26.75 23.86C28.14 22.98 29.49 22.04 30.81 21.03L31.6 20.43L30.83 20.05C29.31 19.3 27.83 18.48 26.44 17.52C25.04 16.57 23.8 15.38 22.46 14.35C21.11 13.32 19.66 12.46 18.19 11.64C16.71 10.83 15.2 10.05 13.57 9.46002L13.45 9.61002Z" fill="#8C4975"/>
</g>
<defs>
<clipPath id="clip0_80_616">
<rect width="38.86" height="38.97" fill="white" transform="matrix(-1 0 0 1 38.86 0)"/>
</clipPath>
</defs>
</svg>
