<svg width="989" height="453" viewBox="0 0 989 453" fill="none" xmlns="http://www.w3.org/2000/svg">
<g clip-path="url(#clip0_82_821)">
<path d="M951.622 451.162H36.3101C16.8667 451.162 1.10184 421.691 1.10184 385.342V140.605V68.0196C1.10184 31.671 16.8667 2.19958 36.3101 2.19958H951.622C971.065 2.19958 986.83 31.671 986.83 68.0196V385.328C986.83 421.691 971.065 451.162 951.622 451.162Z" fill="#ECA829"/>
<path d="M951.622 451.371L765.393 451.705L579.164 452.471C455.012 453.028 330.859 453.097 206.706 452.889L113.575 452.624L67.0092 452.471L43.7348 452.401L37.9204 452.387C36.0727 452.429 33.7673 452.318 31.784 451.858C27.6818 450.954 24.2067 448.921 21.3419 446.596C15.6462 441.849 11.9169 435.974 9.00123 429.988C6.13643 423.974 4.13615 417.709 2.71223 411.403C1.30526 405.083 0.491586 398.693 0.152557 392.275C-0.135618 385.844 0.0677995 379.495 0.050848 373.119L0.220363 296.65C0.389878 245.67 0.288169 194.69 0.203411 143.71L0.0169451 67.2261C0.0677995 54.4185 1.91551 41.5412 6.57717 29.2209C8.95037 23.0955 12.0016 17.0536 16.5107 11.6661C18.7653 8.97926 21.4436 6.47342 24.7322 4.45483C26.3934 3.48034 28.1733 2.58937 30.1397 2.00468C32.1061 1.41998 34.1911 1.07195 36.3101 1.0441C284.615 0.417644 532.921 -0.167052 781.226 0.0417677L874.34 0.0835317L920.906 0.097453L944.18 0.139217L949.995 0.153138H951.452C951.961 0.16706 952.554 0.194902 953.114 0.222745C953.673 0.236666 954.232 0.320194 954.775 0.403722C955.334 0.48725 955.877 0.556857 956.402 0.69607C960.725 1.64272 964.336 3.77268 967.285 6.15323C973.15 11.0396 976.913 16.9979 979.863 23.0398C982.779 29.1234 984.779 35.4298 986.22 41.7779C987.644 48.14 988.474 54.5716 988.814 61.0172C989.119 67.4906 988.915 73.8387 988.932 80.2147L988.491 156.685L987.525 309.624L987.254 386.094C987.118 398.86 985.186 411.682 980.507 423.877C978.117 429.946 975.049 435.905 970.591 441.181C968.37 443.812 965.726 446.234 962.573 448.155C959.42 450.104 955.589 451.357 951.622 451.371ZM951.622 450.954C955.453 450.926 959.165 449.701 962.234 447.821C965.319 445.942 967.912 443.547 970.082 440.93C974.473 435.71 977.49 429.779 979.829 423.737C984.423 411.598 986.288 398.818 986.355 386.122L986.101 309.652L985.135 156.712L984.694 80.2425C984.626 73.8805 984.779 67.4628 984.423 61.2121C984.033 54.9196 983.186 48.655 981.745 42.4879C980.287 36.3347 978.304 30.251 975.49 24.4876C972.659 18.752 968.997 13.1974 963.878 9.0071C961.318 6.96067 958.335 5.29011 955.131 4.62188C954.741 4.51051 954.334 4.46875 953.927 4.41306C953.52 4.35738 953.114 4.28777 952.707 4.28777L951.452 4.23209H949.995L944.18 4.24601L920.906 4.28777L874.357 4.31562L781.243 4.35738C532.921 4.5662 284.615 3.9815 36.3101 3.34112C32.7672 3.35504 29.2921 4.46875 26.3256 6.25068C23.3591 8.04653 20.8164 10.3575 18.6636 12.9051C14.3409 18.0142 11.2897 23.8612 8.93342 29.8473C4.28872 41.8754 2.35625 54.5855 2.20369 67.24L2.00027 143.71C1.91551 194.69 1.8138 245.67 1.98332 296.65L2.15283 373.119C2.23759 379.495 2.08503 385.885 2.44101 392.192C2.83089 398.512 3.69542 404.818 5.15324 411.027C6.62802 417.222 8.6283 423.348 11.4931 429.181C14.3579 434.972 18.0703 440.61 23.3591 444.94C26.0036 447.056 29.1226 448.81 32.5638 449.534C34.3267 449.909 35.9371 449.979 37.9543 449.937L43.7687 449.923L67.0431 449.854L113.575 449.701L206.689 449.436C330.842 449.227 454.995 449.297 579.147 449.854L765.376 450.619L951.622 450.954Z" fill="#8C4975"/>
<path opacity="0.32" d="M10.5777 220.764C10.5777 220.764 -14.6969 55.3512 155.903 43.5459C326.502 31.7406 579.266 19.9214 579.266 19.9214C579.266 19.9214 67.4499 8.10223 35.8524 19.9214C4.25481 31.7406 4.25481 173.515 10.5777 220.764Z" fill="#FFC261"/>
<path opacity="0.3" d="M10.5777 268.027C10.5777 268.027 124.322 421.621 339.148 421.621C553.974 421.621 566.62 421.621 566.62 421.621C566.62 421.621 48.4982 492.509 23.2235 409.802C-2.05112 327.096 10.5777 268.027 10.5777 268.027Z" fill="#FFC261"/>
<path opacity="0.3" d="M850.981 55.3651C850.981 55.3651 964.726 8.10222 971.031 114.433C977.337 220.764 971.031 409.802 971.031 409.802C971.031 409.802 996.306 114.433 971.031 43.5459C945.757 -27.3415 850.981 55.3651 850.981 55.3651Z" fill="#FFC261"/>
</g>
<defs>
<clipPath id="clip0_82_821">
<rect width="989" height="453" fill="white"/>
</clipPath>
</defs>
</svg>
