<svg width="30" height="30" viewBox="0 0 30 30" fill="none" xmlns="http://www.w3.org/2000/svg">
<g clip-path="url(#clip0_482_15)">
<path d="M14.7259 29.1933C22.5323 29.1933 28.8547 22.8653 28.8547 15.0645C28.8547 7.26367 22.5267 0.935669 14.7259 0.935669C6.92505 0.935669 0.597046 7.25807 0.597046 15.0645C0.597046 22.8709 6.91945 29.1933 14.7259 29.1933ZM11.6011 18.1893C13.3259 19.9141 16.1203 19.9141 17.8451 18.1893C18.3659 17.6685 19.2003 17.6685 19.7155 18.1893C20.2307 18.7101 20.2363 19.5445 19.7155 20.0597C16.9547 22.8205 12.4859 22.8205 9.72505 20.0597C6.96425 17.2989 6.96425 12.8301 9.72505 10.0693C12.4859 7.30847 16.9547 7.30847 19.7155 10.0693C20.2363 10.5901 20.2363 11.4245 19.7155 11.9397C19.1947 12.4549 18.3603 12.4605 17.8451 11.9397C16.1203 10.2149 13.3259 10.2149 11.6011 11.9397C9.87625 13.6645 9.87625 16.4589 11.6011 18.1893Z" fill="#8C4975"/>
<path d="M14.7259 29.1652C16.5683 29.1484 18.4163 28.7844 20.1075 28.0508C21.7931 27.3172 23.3275 26.2476 24.5931 24.9316C27.1355 22.2996 28.6027 18.71 28.6251 15.0644C28.6755 11.43 27.2587 7.74523 24.6491 5.14123C22.0731 2.50363 18.3883 1.02523 14.7259 1.08683C12.8947 1.10923 11.0747 1.49003 9.40025 2.20683C7.72585 2.92363 6.20265 3.97083 4.92025 5.25883C2.35545 7.84043 0.888248 11.4356 0.882648 15.0644C0.871448 18.6932 2.32745 22.294 4.86425 24.926C6.12985 26.242 7.66425 27.3116 9.34985 28.0452C11.0355 28.7788 12.8779 29.1428 14.7259 29.1652ZM14.7259 29.2212C11.0187 29.2436 7.30585 27.7876 4.60665 25.1836C3.24585 23.89 2.16505 22.3052 1.42585 20.5748C0.681047 18.8444 0.317047 16.9516 0.305847 15.0644C0.305847 13.1772 0.664247 11.2844 1.40345 9.54843C2.13145 7.80683 3.21225 6.21643 4.55065 4.88923C7.21625 2.21243 10.9851 0.728431 14.7259 0.778831C16.5963 0.801231 18.4499 1.20443 20.1691 1.91563C21.8883 2.63803 23.4563 3.69643 24.7835 5.00123C26.1051 6.31723 27.1803 7.87963 27.9195 9.59323C28.6587 11.3124 29.0619 13.1772 29.0843 15.0588C29.0843 16.9348 28.7427 18.8276 27.9979 20.558C27.2643 22.2884 26.1891 23.8788 24.8339 25.1724C22.1403 27.7876 18.4331 29.2436 14.7259 29.2212Z" fill="#8C4975"/>
<path d="M11.629 18.1781C12.5362 19.0685 13.8803 19.5445 15.1515 19.3877C15.7843 19.3037 16.3947 19.0853 16.9323 18.7437C17.2011 18.5813 17.4419 18.3741 17.6659 18.1557C17.8843 17.9093 18.2259 17.6909 18.5899 17.6405C19.3235 17.5061 20.1243 18.0269 20.2811 18.7773C20.3707 19.1469 20.3203 19.5445 20.1355 19.8805C19.9395 20.2389 19.6539 20.4125 19.4187 20.6533C18.9035 21.0845 18.3379 21.4653 17.7163 21.7229C17.1059 21.9973 16.4507 22.1877 15.7843 22.2717C14.4515 22.4621 13.0794 22.2381 11.8754 21.6949C10.6658 21.1405 9.62425 20.2613 8.86825 19.1805C8.49305 18.6429 8.19065 18.0493 7.97785 17.4277C7.74825 16.8117 7.61945 16.1565 7.57465 15.5013C7.48505 14.1853 7.74825 12.8469 8.35305 11.6597C8.96905 10.4893 9.88745 9.44767 11.0522 8.77007C12.1946 8.06447 13.5498 7.71727 14.8939 7.73967C15.5715 7.73407 16.2379 7.86847 16.8875 8.04767C17.5371 8.24367 18.1475 8.53487 18.7243 8.89327C18.9987 9.08927 19.2899 9.26847 19.5363 9.50367L19.9115 9.84527C20.0459 9.97967 20.1691 10.1477 20.2475 10.3269C20.6003 11.0493 20.2923 12.0125 19.5867 12.3933C19.2451 12.5893 18.8307 12.6565 18.4443 12.5781C18.2483 12.5389 18.0635 12.4605 17.9011 12.3485C17.8171 12.2925 17.7387 12.2309 17.6715 12.1637L17.4979 12.0069C17.0499 11.5981 16.5123 11.2901 15.9299 11.0941C14.7651 10.7189 13.4322 10.8869 12.3738 11.5421C11.3154 12.2029 10.565 13.3621 10.4082 14.6333C10.2514 15.9045 10.7162 17.2373 11.6178 18.1613L11.629 18.1781ZM11.573 18.2005V18.1837L11.5786 18.2061C10.6322 17.2933 10.1506 15.9437 10.2514 14.6221C10.3466 13.3005 11.0578 12.0237 12.1666 11.2397C13.2699 10.4445 14.7539 10.2093 16.0811 10.5845C16.7475 10.7749 17.3635 11.1221 17.8731 11.5869L18.0579 11.7549C18.1027 11.7997 18.1531 11.8389 18.2091 11.8725C18.3155 11.9397 18.4331 11.9901 18.5619 12.0181C18.8139 12.0685 19.0827 12.0237 19.3011 11.8949C19.7603 11.6485 19.9451 11.0381 19.7155 10.5789C19.6595 10.4613 19.5923 10.3605 19.4971 10.2709L19.1499 9.95727C18.9259 9.74447 18.6627 9.57087 18.4107 9.38607C17.8843 9.05007 17.3243 8.77567 16.7251 8.58527C16.1259 8.41167 15.5099 8.27727 14.8827 8.27167C14.2611 8.26047 13.6282 8.31087 13.0234 8.46767C12.413 8.61327 11.8194 8.84287 11.2762 9.15647C10.173 9.77247 9.25465 10.7021 8.62185 11.8053C7.35625 14.0229 7.49065 16.9909 9.02505 19.0685C10.4922 21.2077 13.2418 22.2437 15.7171 21.8125C16.9659 21.6389 18.1307 21.0621 19.1051 20.2781C19.3291 20.0653 19.6147 19.8749 19.7323 19.6509C19.8667 19.4213 19.9115 19.1357 19.8499 18.8725C19.7435 18.3349 19.2003 17.9149 18.6291 17.9821C18.3435 18.0101 18.0915 18.1389 17.8675 18.3629C17.6155 18.5869 17.3467 18.7885 17.0555 18.9509C16.4731 19.2813 15.8235 19.4773 15.1627 19.5277C13.8411 19.6229 12.5026 19.1581 11.573 18.2005Z" fill="#8C4975"/>
<path opacity="0.4" d="M12.721 2.60436C12.721 2.60436 22.801 0.364358 25.601 9.32436C25.601 9.32436 20.561 3.16436 12.721 2.60436Z" fill="#FFD38D"/>
<path opacity="0.4" d="M4.60101 21.3644C4.60101 21.3644 9.08102 29.7644 19.161 26.4044C19.161 26.4044 9.64102 31.4444 4.60101 21.3644Z" fill="#FFD38D"/>
</g>
<defs>
<clipPath id="clip0_482_15">
<rect width="28.7784" height="28.4424" fill="white" transform="translate(0.305786 0.778809)"/>
</clipPath>
</defs>
</svg>
