<svg width="49" height="49" viewBox="0 0 49 49" fill="none" xmlns="http://www.w3.org/2000/svg">
<g clip-path="url(#clip0_236_53)">
<path d="M47.736 14.4181C47.556 10.5931 46.683 7.20906 43.884 4.41906C41.094 1.62907 37.71 0.756065 33.885 0.567065C29.943 0.342065 18.135 0.342065 14.193 0.567065C10.377 0.747065 6.993 1.62007 4.194 4.41007C1.395 7.20007 0.530998 10.5841 0.341998 14.4091C0.116998 18.3511 0.116998 30.1591 0.341998 34.1011C0.512998 37.9261 1.386 41.3101 4.185 44.1001C6.984 46.8901 10.359 47.7631 14.184 47.9521C18.126 48.1771 29.934 48.1771 33.876 47.9521C37.701 47.7721 41.085 46.8991 43.875 44.1001C46.665 41.3101 47.538 37.9261 47.727 34.1011C47.961 30.1591 47.961 18.3601 47.736 14.4181Z" fill="#DE6A6A"/>
<path d="M47.6912 14.4178C47.6012 12.6898 47.3582 10.9528 46.8092 9.31483C46.2602 7.67683 45.3872 6.14683 44.1902 4.90483C43.0112 3.64483 41.5712 2.65483 39.9872 2.00683C38.4032 1.35883 36.7022 1.04383 34.9922 0.917829C31.5542 0.737829 28.0712 0.773829 24.6062 0.773829C21.1412 0.809829 17.6672 0.764829 14.2112 0.926829C12.5012 0.998829 10.7912 1.19683 9.17123 1.70983C7.55123 2.21383 6.03923 3.05983 4.77023 4.19383C3.49223 5.32783 2.45723 6.73183 1.77323 8.29783C1.08023 9.86383 0.738233 11.5738 0.576233 13.2928C0.297233 16.7398 0.342233 20.2228 0.333233 23.6878C0.342233 27.1528 0.405233 30.6358 0.585233 34.0918C0.684233 35.8108 0.927233 37.5208 1.47623 39.1318C2.01623 40.7428 2.89823 42.2278 4.05023 43.4518C5.20223 44.6938 6.60623 45.6748 8.16323 46.3228C9.72023 46.9708 11.3942 47.3128 13.0952 47.4568C16.5152 47.6908 20.0072 47.6458 23.4722 47.6548C26.9372 47.6278 30.4112 47.6548 33.8582 47.4928C35.5682 47.4118 37.2602 47.1958 38.8622 46.6648C40.4552 46.1428 41.9312 45.2968 43.1822 44.1808C44.4422 43.0648 45.4502 41.6878 46.1342 40.1398C46.8092 38.6008 47.1872 36.9178 47.3762 35.2168C47.6912 31.7878 47.7182 28.2958 47.7992 24.8308C47.8262 21.3658 47.8262 17.8918 47.6912 14.4178ZM47.7812 14.4178C47.9702 17.8918 47.9702 21.3658 48.0242 24.8308C48.0512 28.3048 48.1322 31.7698 47.9432 35.2708C47.8082 37.0168 47.5022 38.7898 46.8002 40.4368C46.1162 42.0838 45.0542 43.5958 43.7402 44.8108C42.4352 46.0438 40.8332 46.9708 39.1322 47.5288C37.4312 48.0958 35.6492 48.3298 33.8942 48.4198C30.4022 48.5818 26.9372 48.6088 23.4542 48.5908C19.9712 48.5458 16.5152 48.5638 13.0052 48.2938C11.2502 48.1228 9.47723 47.7718 7.83923 47.0428C6.20123 46.3228 4.71623 45.2428 3.53723 43.9108C2.34023 42.5878 1.44023 40.9948 0.909233 39.3028C0.369233 37.6108 0.153233 35.8468 0.0902328 34.1008C-0.0447672 30.6178 0.0182328 27.1438 0.00923283 23.6698L0.0722328 18.4588C0.117233 16.7218 0.117233 14.9848 0.261233 13.2478C0.405233 11.5108 0.747233 9.76483 1.43123 8.13583C2.10623 6.50683 3.13223 5.02183 4.43723 3.81583C5.72423 2.61883 7.29023 1.69183 8.97323 1.12483C10.6562 0.548829 12.4202 0.287829 14.1752 0.188829C17.6582 0.0268291 21.1322 -0.0271709 24.6062 0.0088291C28.0802 0.0628291 31.5542 0.0448291 35.0462 0.368829C36.7922 0.557829 38.5382 0.935829 40.1492 1.65583C41.7602 2.37583 43.2092 3.44683 44.3612 4.76083C45.5222 6.07483 46.4222 7.61383 46.9442 9.27883C47.4842 10.9348 47.7092 12.6808 47.7812 14.4178Z" fill="#8C4975"/>
<path d="M42.642 38.331C41.814 40.419 40.203 42.03 38.106 42.867C34.965 44.109 27.513 43.821 24.039 43.821C20.565 43.821 13.104 44.1 9.97199 42.867C7.88399 42.039 6.27299 40.428 5.43599 38.331C4.18499 35.19 4.47299 27.729 4.47299 24.264C4.47299 20.799 4.20299 13.32 5.43599 10.188C6.26399 8.09998 7.87499 6.49798 9.97199 5.65198C13.113 4.40998 20.565 4.69798 24.039 4.69798C27.513 4.69798 34.974 4.41898 38.106 5.65198C40.194 6.47998 41.805 8.09098 42.642 10.188C43.884 13.329 43.596 20.781 43.596 24.255C43.596 27.729 43.893 35.199 42.642 38.331Z" fill="#DE6A6A"/>
<path d="M42.687 38.34C42.156 39.699 41.256 40.932 40.086 41.823C39.51 42.273 38.862 42.642 38.187 42.921C37.494 43.182 36.783 43.362 36.063 43.506C33.174 44.019 30.249 44.073 27.333 44.127L18.603 44.226C17.145 44.226 15.678 44.172 14.211 44.046C12.744 43.911 11.277 43.74 9.82798 43.209C6.97498 42.084 4.94998 39.276 4.65298 36.306C4.42798 34.848 4.35598 33.39 4.31998 31.923C4.27498 30.465 4.27498 29.007 4.29298 27.549C4.30198 26.091 4.35598 24.642 4.32898 23.184C4.31098 21.726 4.28398 20.277 4.29298 18.819C4.31098 17.361 4.33798 15.903 4.43698 14.445C4.54498 12.987 4.69798 11.52 5.19298 10.089C5.73298 8.694 6.65098 7.425 7.84798 6.507C8.44198 6.039 9.09898 5.661 9.80098 5.364C10.512 5.085 11.241 4.905 11.97 4.77C14.895 4.275 17.82 4.239 20.736 4.23C23.652 4.275 26.532 4.185 29.466 4.194C30.924 4.203 32.391 4.248 33.858 4.374C35.325 4.509 36.801 4.671 38.268 5.211C41.148 6.318 43.281 9.144 43.587 12.168C44.01 15.111 43.983 18.036 43.911 20.952C43.794 23.868 43.812 26.766 43.74 29.682C43.686 31.14 43.65 32.598 43.515 34.047C43.389 35.505 43.2 36.972 42.687 38.34ZM42.606 38.313C43.092 36.945 43.254 35.487 43.371 34.047C43.479 32.598 43.524 31.149 43.506 29.691C43.47 26.793 43.344 23.868 43.335 20.961C43.263 18.063 43.245 15.138 42.759 12.33C42.633 11.628 42.453 10.953 42.21 10.323C41.949 9.693 41.607 9.081 41.184 8.541C40.356 7.443 39.213 6.606 37.935 6.093C36.657 5.634 35.217 5.454 33.786 5.337C32.355 5.22 30.906 5.184 29.457 5.157C26.568 5.121 23.634 5.175 20.727 5.103C17.829 5.094 14.913 5.058 12.078 5.472C9.26998 5.76 6.72298 7.641 5.66098 10.278C5.16598 11.592 4.96798 13.05 4.83298 14.481C4.68898 15.921 4.63498 17.37 4.61698 18.828C4.58098 21.735 4.63498 24.651 4.60798 27.558C4.61698 30.456 4.65298 33.39 5.14798 36.225C5.51698 39.069 7.48798 41.544 10.107 42.516C11.403 42.984 12.852 43.155 14.283 43.263C15.723 43.371 17.163 43.407 18.612 43.443C21.501 43.497 24.435 43.434 27.342 43.56C30.24 43.614 33.156 43.677 36.027 43.272C38.916 42.993 41.535 41.022 42.606 38.313Z" fill="#8C4975"/>
<path d="M24.039 36.5039C30.799 36.5039 36.279 31.0239 36.279 24.2639C36.279 17.504 30.799 12.0239 24.039 12.0239C17.279 12.0239 11.799 17.504 11.799 24.2639C11.799 31.0239 17.279 36.5039 24.039 36.5039Z" fill="#DE6A6A"/>
<path d="M24.039 12.069C20.826 12.042 17.703 13.5 15.579 15.804C13.446 18.099 12.213 21.15 12.177 24.264C12.105 27.36 13.248 30.555 15.489 32.814C17.694 35.1 20.898 36.342 24.039 36.252C27.189 36.171 30.231 34.839 32.4 32.625C34.578 30.411 35.793 27.351 35.811 24.264C35.82 21.177 34.614 18.117 32.49 15.813C31.428 14.661 30.123 13.725 28.674 13.068C27.225 12.411 25.632 12.096 24.039 12.069ZM24.039 11.979C27.252 11.952 30.492 13.158 32.904 15.39C35.334 17.613 36.756 20.925 36.738 24.255C36.783 27.585 35.379 30.897 32.994 33.21C30.636 35.55 27.306 36.837 24.039 36.738C20.763 36.675 17.595 35.289 15.273 33.021C14.121 31.878 13.167 30.528 12.501 29.034C11.835 27.54 11.466 25.902 11.43 24.255C11.367 20.952 12.762 17.622 15.183 15.399C17.586 13.14 20.835 11.979 24.039 11.979Z" fill="#8C4975"/>
<path d="M24.039 32.211C19.665 32.211 16.083 28.647 16.083 24.255C16.083 19.863 19.647 16.299 24.039 16.299C28.431 16.299 31.995 19.863 31.995 24.255C31.995 28.647 28.413 32.211 24.039 32.211Z" fill="#DE6A6A"/>
<path d="M24.039 32.256C21.951 32.247 19.827 31.536 18.216 30.078C16.587 28.647 15.642 26.442 15.705 24.255C15.84 19.809 19.728 16.173 24.039 16.056C26.19 15.957 28.395 16.794 29.961 18.333C31.545 19.854 32.499 22.041 32.472 24.255C32.463 26.469 31.491 28.656 29.871 30.087C28.251 31.545 26.127 32.265 24.039 32.256ZM24.039 32.166C26.127 32.175 28.134 31.176 29.448 29.664C30.78 28.161 31.527 26.217 31.509 24.255C31.5 22.302 30.735 20.349 29.358 18.936C27.981 17.514 26.055 16.632 24.039 16.551C22.023 16.461 19.944 17.262 18.522 18.738C17.082 20.214 16.389 22.284 16.461 24.255C16.515 26.244 17.289 28.17 18.621 29.673C19.944 31.185 21.951 32.193 24.039 32.166Z" fill="#8C4975"/>
<path d="M36.774 14.373C38.3497 14.373 39.627 13.0957 39.627 11.52C39.627 9.94432 38.3497 8.66699 36.774 8.66699C35.1983 8.66699 33.921 9.94432 33.921 11.52C33.921 13.0957 35.1983 14.373 36.774 14.373Z" fill="#DE6A6A"/>
<path d="M39.672 11.52C39.663 12.267 39.501 13.068 38.997 13.743C38.511 14.418 37.62 14.814 36.774 14.751C35.919 14.688 35.172 14.22 34.65 13.644C34.119 13.068 33.75 12.339 33.669 11.52C33.417 9.85504 34.983 8.12704 36.765 8.18104C37.638 8.19004 38.511 8.59504 38.997 9.28804C39.501 9.97204 39.672 10.773 39.672 11.52ZM39.582 11.52C39.591 10.773 39.141 10.089 38.583 9.71104C38.016 9.34204 37.404 9.12604 36.774 9.14404C36.153 9.15304 35.532 9.36904 35.055 9.80104C34.587 10.233 34.254 10.836 34.164 11.52C34.083 12.204 34.317 12.96 34.857 13.437C35.388 13.923 36.135 14.067 36.774 13.995C37.422 13.932 38.025 13.716 38.592 13.338C39.15 12.96 39.6 12.276 39.582 11.52Z" fill="#8C4975"/>
<path opacity="0.4" d="M5.12999 17.0189C5.12999 17.0189 4.45499 5.73295 16.083 5.93995C16.083 5.94895 4.28399 7.64995 5.12999 17.0189Z" fill="#FFD38D"/>
<path opacity="0.4" d="M42.939 34.434C42.939 34.434 44.073 41.517 34.623 42.444C25.173 43.371 24.039 42.444 24.039 42.444C24.039 42.444 41.661 42.813 42.939 34.434Z" fill="#FFD38D"/>
<path opacity="0.4" d="M17.514 24.597C17.514 24.597 16.65 18.432 23.769 17.019C23.769 17.019 18.432 19.395 17.514 24.597Z" fill="#FFD38D"/>
</g>
<defs>
<clipPath id="clip0_236_53">
<rect width="48.069" height="48.591" fill="white"/>
</clipPath>
</defs>
</svg>
