<svg width="49" height="49" viewBox="0 0 49 49" fill="none" xmlns="http://www.w3.org/2000/svg">
<g clip-path="url(#clip0_236_88)">
<path d="M44.589 0.405029H3.99902C2.13602 0.405029 0.624023 1.93503 0.624023 3.81603V44.334C0.624023 46.215 2.13602 47.745 3.99902 47.745H44.589C46.452 47.745 47.973 46.215 47.973 44.334V3.81603C47.973 1.93503 46.452 0.405029 44.589 0.405029ZM14.934 40.986H7.91402V18.387H14.943V40.986H14.934ZM11.424 15.3C9.17402 15.3 7.35602 13.473 7.35602 11.232C7.35602 8.99103 9.17402 7.16403 11.424 7.16403C13.665 7.16403 15.492 8.99103 15.492 11.232C15.492 13.482 13.674 15.3 11.424 15.3ZM41.241 40.986H34.221V29.997C34.221 27.378 34.167 24.003 30.576 24.003C26.922 24.003 26.355 26.856 26.355 29.808V40.986H19.335V18.387H26.067V21.474H26.166C27.111 19.701 29.397 17.829 32.817 17.829C39.918 17.829 41.241 22.509 41.241 28.602V40.986Z" fill="#DE6A6A"/>
<path d="M44.589 0.449805L33.123 0.521805L21.648 0.683805C17.823 0.755805 13.998 0.764805 10.173 0.791805C8.26501 0.809805 6.348 0.800805 4.44 0.791805C3.936 0.782805 3.549 0.791805 3.135 0.917805C2.73 1.03481 2.352 1.25981 2.037 1.53881C1.398 2.09681 1.011 2.93381 1.002 3.78881C0.939005 11.4298 0.795005 19.0798 0.786005 26.7208C0.759005 30.5458 0.777005 34.3708 0.786005 38.1958L0.822005 43.9288C0.768005 44.8738 1.029 45.7738 1.641 46.4398C2.235 47.1148 3.117 47.5108 4.008 47.4928L26.949 47.3128L38.424 47.2678H44.157C44.661 47.2768 45.03 47.2678 45.435 47.1418C45.831 47.0248 46.191 46.8088 46.506 46.5388C47.127 45.9898 47.505 45.1798 47.514 44.3518C47.514 36.7108 47.559 29.0608 47.685 21.4108L47.856 9.93581L47.901 4.20281C47.973 3.25781 47.712 2.29481 47.082 1.58381C46.461 0.890805 45.534 0.449805 44.589 0.449805ZM44.589 0.359805C45.561 0.350805 46.524 0.791805 47.163 1.52081C47.829 2.24081 48.108 3.26681 48.045 4.22081L48.09 9.9538L48.261 21.4288C48.387 29.0788 48.432 36.7198 48.423 44.3788C48.423 45.4678 47.928 46.5388 47.109 47.2588C46.704 47.6188 46.218 47.8978 45.696 48.0598C45.183 48.2308 44.58 48.2398 44.139 48.2308H38.406L26.931 48.1858L3.99 48.0058C2.964 48.0058 1.956 47.5198 1.299 46.7458C0.615005 45.9898 0.345005 44.9008 0.426005 43.9378L0.462005 38.2048C0.480005 34.3798 0.498005 30.5548 0.462005 26.7298C0.462005 19.0798 0.309005 11.4298 0.255005 3.7798C0.255005 2.71781 0.732005 1.66481 1.524 0.962805C1.92 0.611805 2.388 0.332805 2.901 0.179805C3.405 0.0088054 3.99 -0.00019461 4.44 0.00880539C6.348 -0.00019461 8.26501 -0.00919461 10.173 0.00880539C13.998 0.0358054 17.823 0.0448054 21.648 0.116805L33.123 0.278805L44.589 0.359805Z" fill="#8C4975"/>
<path d="M14.934 41.031C13.764 41.112 12.594 41.166 11.424 41.22L7.914 41.328L7.581 41.337V40.986C7.563 39.105 7.509 37.224 7.527 35.334C7.527 33.453 7.599 31.572 7.662 29.682C7.743 27.801 7.77 25.92 7.779 24.03C7.77 22.149 7.734 20.268 7.671 18.378L7.662 18.144L7.914 18.135C10.254 18.054 12.603 17.991 14.943 17.964L15.357 17.955L15.366 18.378C15.42 22.14 15.465 25.911 15.384 29.673C15.339 31.554 15.312 33.435 15.24 35.325C15.186 37.206 15.096 39.087 14.988 40.977V41.022H14.943L14.934 41.031ZM14.934 40.941H14.943L14.898 40.986C14.79 39.105 14.7 37.224 14.646 35.334C14.574 33.453 14.556 31.572 14.502 29.682C14.43 25.92 14.466 22.149 14.52 18.387L14.934 18.801C12.594 18.774 10.245 18.711 7.905 18.63L8.148 18.387C8.085 20.268 8.049 22.149 8.04 24.039C8.049 25.92 8.076 27.801 8.157 29.691C8.229 31.572 8.292 33.453 8.292 35.343C8.31 37.224 8.256 39.105 8.238 40.995L7.896 40.653L11.406 40.761C12.594 40.806 13.764 40.86 14.934 40.941Z" fill="#8C4975"/>
<path d="M11.424 15.3449C10.362 15.3359 9.24604 15.0479 8.35504 14.3099C7.45504 13.5989 6.92404 12.4019 6.98704 11.2319C7.05004 10.0619 7.64404 8.99994 8.44504 8.25294C9.24604 7.49694 10.29 6.99294 11.424 6.92094C12.558 6.83094 13.755 7.24494 14.601 8.06394C15.456 8.86494 15.996 10.0439 15.978 11.2409C15.969 12.4289 15.429 13.6169 14.52 14.3279C13.611 15.0569 12.495 15.3449 11.424 15.3449ZM11.424 15.2549C12.495 15.2639 13.485 14.6879 14.088 13.9049C14.691 13.1129 15.024 12.1859 15.006 11.2409C14.997 10.3049 14.655 9.36894 13.989 8.66694C13.332 7.97394 12.414 7.50594 11.415 7.41594C10.416 7.32594 9.34504 7.70394 8.64304 8.46894C7.93204 9.22494 7.65304 10.2869 7.72504 11.2409C7.77904 12.2129 8.13004 13.1309 8.74204 13.9139C9.36304 14.6879 10.362 15.2729 11.424 15.2549Z" fill="#8C4975"/>
<path d="M41.268 41.013C38.982 41.076 36.615 41.157 34.221 41.211H33.996V40.977C33.951 37.773 33.879 34.569 33.87 31.356C33.843 29.754 33.942 28.134 33.555 26.667C33.375 25.938 32.997 25.299 32.448 24.894C31.89 24.507 31.152 24.372 30.405 24.39C29.658 24.399 28.92 24.57 28.335 24.966C27.732 25.344 27.363 26.001 27.111 26.694C26.616 28.125 26.688 29.754 26.652 31.347C26.598 34.551 26.526 37.755 26.526 40.968V41.121H26.373C24.033 41.094 21.693 41.103 19.353 41.121H19.2V40.968C19.191 37.206 19.11 33.435 19.056 29.673L18.93 18.378L18.921 17.964H19.344L26.076 17.919H26.535V18.378L26.553 21.465L26.076 20.988H26.175L25.752 21.24C26.535 19.8 27.831 18.72 29.289 18.072C30.747 17.424 32.403 17.262 33.942 17.406C35.481 17.532 37.101 17.901 38.397 18.909C39.063 19.368 39.576 20.016 40.026 20.673C40.422 21.366 40.764 22.086 40.962 22.842C41.826 25.866 41.52 28.935 41.502 31.986L41.268 41.013ZM41.205 40.95L40.989 31.887C40.881 28.944 41.079 25.875 40.215 23.067C40.017 22.365 39.693 21.726 39.324 21.114C38.91 20.547 38.46 19.989 37.875 19.611C36.741 18.774 35.301 18.441 33.861 18.324C32.394 18.189 30.963 18.351 29.658 18.927C28.371 19.503 27.237 20.475 26.589 21.69L26.454 21.942H26.166H26.067H25.59V21.465L25.608 18.378L26.067 18.837L19.335 18.792L19.758 18.369L19.632 29.664C19.578 33.426 19.497 37.197 19.488 40.959L19.335 40.806C21.675 40.824 24.015 40.833 26.355 40.806L26.202 40.959C26.193 37.755 26.13 34.551 26.076 31.338C26.067 29.754 25.914 28.098 26.409 26.451C26.67 25.65 27.138 24.822 27.894 24.318C28.641 23.805 29.532 23.607 30.378 23.58C31.224 23.553 32.151 23.679 32.916 24.219C33.663 24.777 34.113 25.623 34.302 26.442C34.707 28.107 34.563 29.736 34.581 31.329C34.572 34.533 34.5 37.737 34.455 40.95L34.23 40.725C36.507 40.806 38.82 40.887 41.205 40.95Z" fill="#8C4975"/>
<path opacity="0.4" d="M1.62301 7.83904C1.62301 7.83904 0.723014 0.639036 8.82301 1.53904C8.82301 1.53904 1.62301 4.23904 1.62301 7.83904Z" fill="#FFD38D"/>
<path opacity="0.4" d="M27.273 18.189C27.273 18.189 33.573 15.489 37.173 17.289C40.773 19.089 41.673 22.689 41.673 22.689C41.673 22.689 40.773 10.989 27.273 18.189Z" fill="#FFD38D"/>
</g>
<defs>
<clipPath id="clip0_236_88">
<rect width="48.177" height="48.222" fill="white" transform="translate(0.255005)"/>
</clipPath>
</defs>
</svg>
