<svg width="157" height="41" viewBox="0 0 157 41" fill="none" xmlns="http://www.w3.org/2000/svg">
<path d="M150.892 39.8456H6.03228C2.95228 39.8456 0.46228 37.3556 0.46228 34.2756V13.5656V7.42556C0.46228 4.34556 2.95228 1.85556 6.03228 1.85556H150.892C153.972 1.85556 156.462 4.34556 156.462 7.42556V34.2856C156.462 37.3556 153.972 39.8456 150.892 39.8456Z" fill="#8C4975"/>
<path d="M150.892 39.9456C143.012 40.0056 135.122 39.9956 127.242 40.1056L103.592 40.4756C87.8223 40.7356 72.0523 40.7756 56.2923 40.6756L32.6423 40.4056L20.8123 40.2556L8.98233 40.1956L6.02233 40.1856C4.98233 40.1656 3.93233 39.9056 3.04233 39.3556C1.22233 38.3056 0.112333 36.2256 0.152333 34.1556L0.112333 22.3256C0.102333 18.3856 0.0823331 14.4356 0.0323332 10.4956L0.00233315 7.54556C-0.0276668 6.49556 0.232333 5.40556 0.742333 4.46556C1.75233 2.56556 3.86233 1.31556 6.03233 1.29556C21.8023 1.10556 37.5723 0.965561 53.3323 0.905561C69.1023 0.835561 84.8723 0.755561 100.632 0.815561C116.402 0.815561 132.172 0.905561 147.932 1.18556L150.892 1.23556C151.982 1.26556 153.072 1.55556 153.992 2.13556C155.872 3.24556 157.002 5.42556 156.912 7.54556L156.732 19.3756C156.652 23.3156 156.662 27.2556 156.632 31.2056L156.612 34.1656C156.622 35.1756 156.362 36.1856 155.872 37.0656C154.892 38.8356 152.902 39.9656 150.892 39.9456ZM150.892 39.7456C152.832 39.7356 154.722 38.6256 155.632 36.9256C156.632 35.2256 156.212 33.1556 156.282 31.2056C156.252 27.2656 156.252 23.3256 156.182 19.3756L156.002 7.54556C156.022 5.70556 155.002 3.96556 153.432 3.10556C152.662 2.65556 151.772 2.45556 150.902 2.45556L147.942 2.50556C132.172 2.78556 116.402 2.88556 100.642 2.87556C84.8723 2.94556 69.1023 2.86556 53.3423 2.78556C37.5723 2.73556 21.8023 2.58556 6.03233 2.39556C4.25233 2.37556 2.48233 3.36556 1.60233 4.94556C1.16233 5.73556 0.922333 6.61556 0.922333 7.54556L0.892333 10.4956C0.842333 14.4356 0.822333 18.3756 0.812333 22.3256L0.772333 34.1456C0.712333 36.0256 1.74233 37.8756 3.37233 38.7956C4.17233 39.2756 5.10233 39.4956 6.03233 39.5156L8.99233 39.5056L20.8223 39.4456L32.6523 39.2956L56.3023 39.0256C72.0723 38.9256 87.8423 38.9656 103.602 39.2256L127.252 39.5956C135.122 39.6956 143.012 39.6956 150.892 39.7456Z" fill="#DE6A6A"/>
<path opacity="0.32" d="M1.96236 20.3456C1.96236 20.3456 -2.03764 6.34557 24.9624 5.34557C51.9624 4.34557 91.9624 3.34557 91.9624 3.34557C91.9624 3.34557 10.9624 2.34557 5.96236 3.34557C0.962362 4.34557 0.962362 16.3456 1.96236 20.3456Z" fill="#FFD9F2" fill-opacity="0.36"/>
<path opacity="0.3" d="M1.96228 24.3456C1.96228 24.3456 19.9623 37.3456 53.9623 37.3456C87.9623 37.3456 89.9623 37.3456 89.9623 37.3456C89.9623 37.3456 7.96228 43.3456 3.96228 36.3456C-0.0377197 29.3456 1.96228 24.3456 1.96228 24.3456Z" fill="#FFD9F2" fill-opacity="0.36"/>
<path opacity="0.3" d="M134.962 6.34556C134.962 6.34556 152.962 2.34556 153.962 11.3456C154.962 20.3456 153.962 36.3456 153.962 36.3456C153.962 36.3456 157.962 11.3456 153.962 5.34556C149.962 -0.654442 134.962 6.34556 134.962 6.34556Z" fill="#FFD9F2" fill-opacity="0.36"/>
</svg>
