<svg width="157" height="41" viewBox="0 0 157 41" fill="none" xmlns="http://www.w3.org/2000/svg">
<path d="M150.892 39.9141H6.03228C2.95228 39.9141 0.46228 37.4241 0.46228 34.3441V13.6341V7.49407C0.46228 4.41407 2.95228 1.92407 6.03228 1.92407H150.892C153.972 1.92407 156.462 4.41407 156.462 7.49407V34.3541C156.462 37.4241 153.972 39.9141 150.892 39.9141Z" fill="#DE6A6A"/>
<path d="M150.892 40.0141C143.012 40.0741 135.122 40.0641 127.242 40.1741L103.592 40.5441C87.8223 40.8041 72.0523 40.8441 56.2923 40.7441L32.6423 40.4741L20.8123 40.3241L8.98233 40.2641L6.02233 40.2541C4.98233 40.2341 3.93233 39.9741 3.04233 39.4241C1.22233 38.3741 0.112333 36.2941 0.152333 34.2241L0.112333 22.3941C0.102333 18.4541 0.0823331 14.5041 0.0323332 10.5641L0.00233315 7.61407C-0.0276668 6.56407 0.232333 5.47407 0.742333 4.53407C1.75233 2.63407 3.86233 1.38407 6.03233 1.36407C21.8023 1.17407 37.5723 1.03407 53.3323 0.974073C69.1023 0.904073 84.8723 0.824073 100.632 0.884073C116.402 0.884073 132.172 0.974073 147.932 1.25407L150.892 1.30407C151.982 1.33407 153.072 1.62407 153.992 2.20407C155.872 3.31407 157.002 5.49407 156.912 7.61407L156.732 19.4441C156.652 23.3841 156.662 27.3241 156.632 31.2741L156.612 34.2341C156.622 35.2441 156.362 36.2541 155.872 37.1341C154.892 38.9041 152.902 40.0341 150.892 40.0141ZM150.892 39.8141C152.832 39.8041 154.722 38.6941 155.632 36.9941C156.632 35.2941 156.212 33.2241 156.282 31.2741C156.252 27.3341 156.252 23.3941 156.182 19.4441L156.002 7.61407C156.022 5.77407 155.002 4.03407 153.432 3.17407C152.662 2.72407 151.772 2.52407 150.902 2.52407L147.942 2.57407C132.172 2.85407 116.402 2.95407 100.642 2.94407C84.8723 3.01407 69.1023 2.93407 53.3423 2.85407C37.5723 2.80407 21.8023 2.65407 6.03233 2.46407C4.25233 2.44407 2.48233 3.43407 1.60233 5.01407C1.16233 5.80407 0.922333 6.68407 0.922333 7.61407L0.892333 10.5641C0.842333 14.5041 0.822333 18.4441 0.812333 22.3941L0.772333 34.2141C0.712333 36.0941 1.74233 37.9441 3.37233 38.8641C4.17233 39.3441 5.10233 39.5641 6.03233 39.5841L8.99233 39.5741L20.8223 39.5141L32.6523 39.3641L56.3023 39.0941C72.0723 38.9941 87.8423 39.0341 103.602 39.2941L127.252 39.6641C135.122 39.7641 143.012 39.7641 150.892 39.8141Z" fill="#376692"/>
<path opacity="0.32" d="M1.96236 20.4141C1.96236 20.4141 -2.03764 6.41408 24.9624 5.41408C51.9624 4.41408 91.9624 3.41408 91.9624 3.41408C91.9624 3.41408 10.9624 2.41408 5.96236 3.41408C0.962362 4.41408 0.962362 16.4141 1.96236 20.4141Z" fill="#FFD9F2" fill-opacity="0.36"/>
<path opacity="0.3" d="M1.96228 24.4141C1.96228 24.4141 19.9623 37.4141 53.9623 37.4141C87.9623 37.4141 89.9623 37.4141 89.9623 37.4141C89.9623 37.4141 7.96228 43.4141 3.96228 36.4141C-0.0377197 29.4141 1.96228 24.4141 1.96228 24.4141Z" fill="#FFD9F2" fill-opacity="0.36"/>
<path opacity="0.3" d="M134.962 6.41407C134.962 6.41407 152.962 2.41407 153.962 11.4141C154.962 20.4141 153.962 36.4141 153.962 36.4141C153.962 36.4141 157.962 11.4141 153.962 5.41407C149.962 -0.58593 134.962 6.41407 134.962 6.41407Z" fill="#FFD9F2" fill-opacity="0.36"/>
</svg>
