<svg width="399" height="119" viewBox="0 0 399 119" fill="none" xmlns="http://www.w3.org/2000/svg">
<path d="M56.79 32.54C58.58 41.71 59.15 52.68 53.7 57.53C53.7 56.88 53.48 55.75 53.26 54.62C52.16 48.97 48.92 39.03 44.4 39.91C40.63 40.64 40.55 47.57 42.28 56.49C45.04 70.69 51.44 86.13 54.57 92.83C57.13 98.59 58.3 99.93 65.39 108.2C61.22 108.88 56.17 109.73 50.52 110.83C42.6 112.37 33.73 114.36 26.42 116.3C30.52 103.9 32.61 79.76 28.96 61.04C27.57 53.88 24.73 44.65 20.58 45.46C17.06 46.15 16.47 53.17 17.77 59.83C18.26 62.34 19 64.81 19.67 66.24C11.75 63.74 7.12997 54.08 5.29997 44.65C4.19997 39 3.82997 32.42 4.77997 28.58C20.84 25.32 36.97 21.79 52.56 16.8C53.83 20.73 55.61 26.51 56.79 32.54Z" fill="#8C4975"/>
<path d="M134.53 82.3C135.7 92.22 130 100.75 122.75 101.6C119.32 102 115.31 100.8 111.5 96.86C106.71 102.19 101.6 104.73 96.64 105.31C85.2 106.65 75.71 97.2 74.23 84.62C72.84 72.8 79.09 63.43 85.91 56.83C94.23 48.64 101.7 46.47 100.69 37.82C100.24 34.01 98.46 32.02 94.52 32.49C86.26 33.46 83.91 44.18 82.38 53.12C77.24 52.18 73.9 46.77 73.11 40.03C71.8 28.84 78 13.68 96.69 11.48C113.22 9.53998 119.6 20 120.99 31.82C122.14 41.61 120.71 59.05 121.96 69.72C122.9 77.73 125.53 82.57 129.6 82.1C131 81.93 132.58 81.11 134.08 79.64C134.33 80.52 134.43 81.41 134.53 82.3ZM94.45 80.06C94.84 83.36 96.54 84.71 98.58 84.47C103.79 83.86 104.3 72.84 103.6 66.87C103.41 65.22 103.11 63.83 103.01 62.94C100.25 65.84 93.61 72.94 94.45 80.06Z" fill="#8C4975"/>
<path d="M229.17 20.52C229.2 33.7 225.4 47.41 212.73 47.44C212.22 47.44 211.58 47.44 211.07 47.32C213.49 43.09 214.37 37.97 214.36 34.51C214.35 29.01 212.16 25.04 209.34 25.05C204.6 25.06 200.28 35.44 199.81 53.11C207.87 52.07 215.04 51.15 219.26 51.14C221.56 51.13 222.2 51.39 222.21 52.8C222.22 54.85 220.69 60.36 213.02 61.91C209.44 62.56 203.55 62.58 199.45 62.97C200.12 75 203.48 85.49 208.5 96.36C197.88 96.52 186.36 96.8 176.89 97.59C179.41 82.73 180.9 65.19 180.86 48.55C180.82 32.68 179.37 17.7 175.76 6.18998C183.95 6.93998 192.53 7.29998 200.6 7.27998C209.82 7.25998 218.65 6.71998 227.48 5.28998C228.37 8.99998 229.15 14.63 229.17 20.52Z" fill="#8C4975"/>
<path d="M294.15 84.42C293.44 94.38 286.25 101.7 278.97 101.18C275.52 100.94 271.81 99 268.8 94.43C263.1 98.77 257.6 100.31 252.62 99.96C241.13 99.15 233.57 88.09 234.47 75.45C235.31 63.57 243.2 55.54 251.14 50.32C260.84 43.82 268.59 43.09 269.21 34.4C269.48 30.57 268.1 28.29 264.14 28.01C255.84 27.42 251.53 37.51 248.36 46.01C243.49 44.12 241.21 38.19 241.69 31.42C242.49 20.18 251.42 6.43996 270.19 7.76996C286.79 8.94996 291.11 20.42 290.27 32.29C289.57 42.12 284.91 58.99 284.15 69.71C283.58 77.75 285.26 83.01 289.35 83.3C290.75 83.4 292.46 82.88 294.21 81.72C294.27 82.63 294.21 83.53 294.15 84.42ZM255.18 74.73C254.95 78.05 256.37 79.69 258.41 79.84C263.65 80.21 266.2 69.48 266.63 63.48C266.75 61.82 266.72 60.41 266.78 59.51C263.53 61.85 255.69 67.58 255.18 74.73Z" fill="#8C4975"/>
<path d="M328.68 16.28C331.72 16.69 334.64 17.08 337.72 17.23C332.63 27.27 328.95 41.24 326.98 55.95C324.58 73.84 324.64 92.7 327.47 106.25C323.57 105.47 319.91 104.85 316.61 104.41C310.9 103.64 305.52 103.31 299.47 103.15C304.05 89.17 307.27 75.78 309.05 62.46C311.26 45.97 311.39 29.58 309.63 12.82C315.92 14.18 322.34 15.43 328.68 16.28Z" fill="#8C4975"/>
<path d="M354.34 19.03C361.24 20.41 372.34 20.41 379.75 21.89C392.93 24.53 400.16 32.76 397.65 45.31C395.72 54.98 389.09 62 380.53 65.64C380.38 72.27 380.95 85.7 384.49 94.11C385.8 97.37 387.58 99.56 389.84 100.01C393.23 100.69 395.74 97.27 396.27 94.64C396.42 93.89 396.35 93.61 396.42 93.23C398.4 95.72 398.7 99.43 397.95 103.2C396.04 112.74 387.61 120.32 378.32 118.46C369.03 116.6 360.52 105.63 361.58 77.51C361.15 79.64 360.58 81.88 360.05 84.51C358.17 93.92 358.14 101.88 360.7 112.58C356.06 111 349.35 109.26 343.45 108.08C339.94 107.38 336.77 106.87 334.34 106.65C339.19 93.52 344.33 76.27 347.75 59.2C350.74 44.26 352.37 29.58 351.62 18.33C352.46 18.66 353.34 18.83 354.34 19.03ZM368.5 49.41C367.97 52.05 367.65 54.98 367.8 57.49C372.14 54.05 376.56 48.93 377.52 44.16C377.97 41.9 377.47 39.84 375.21 39.39C374.08 39.16 373.13 39.36 372.47 40.02C370.73 41.5 369.33 45.27 368.5 49.41Z" fill="#8C4975"/>
<path d="M52.79 27.54C54.58 36.71 55.15 47.68 49.7 52.53C49.7 51.88 49.48 50.75 49.26 49.62C48.16 43.97 44.92 34.03 40.4 34.91C36.63 35.64 36.55 42.57 38.28 51.49C41.04 65.69 47.44 81.13 50.57 87.83C53.13 93.59 54.3 94.93 61.39 103.2C57.22 103.88 52.17 104.73 46.52 105.83C38.6 107.37 29.73 109.36 22.42 111.3C26.52 98.9 28.61 74.76 24.96 56.04C23.57 48.88 20.73 39.65 16.58 40.46C13.06 41.15 12.47 48.17 13.77 54.83C14.26 57.34 15 59.81 15.67 61.24C7.74997 58.74 3.12997 49.08 1.29997 39.65C0.199974 34 -0.170031 27.42 0.779969 23.58C16.84 20.32 32.97 16.79 48.56 11.8C49.83 15.73 51.61 21.51 52.79 27.54Z" fill="#FFF1D7"/>
<path d="M130.53 77.3C131.7 87.22 126 95.75 118.75 96.6C115.32 97 111.31 95.8 107.5 91.86C102.71 97.19 97.6 99.73 92.64 100.31C81.2 101.65 71.71 92.2 70.23 79.62C68.84 67.8 75.09 58.43 81.91 51.83C90.23 43.64 97.7 41.47 96.69 32.82C96.24 29.01 94.46 27.02 90.52 27.49C82.26 28.46 79.91 39.18 78.38 48.12C73.24 47.18 69.9 41.77 69.11 35.03C67.8 23.84 74 8.67998 92.69 6.47998C109.22 4.53998 115.6 15 116.99 26.82C118.14 36.61 116.71 54.05 117.96 64.72C118.9 72.73 121.53 77.57 125.6 77.1C127 76.93 128.58 76.11 130.08 74.64C130.33 75.52 130.43 76.41 130.53 77.3ZM90.45 75.06C90.84 78.36 92.54 79.71 94.58 79.47C99.79 78.86 100.3 67.84 99.6 61.87C99.41 60.22 99.11 58.83 99.01 57.94C96.25 60.84 89.61 67.94 90.45 75.06Z" fill="#FFF1D7"/>
<path d="M225.17 15.52C225.2 28.7 221.4 42.41 208.73 42.44C208.22 42.44 207.58 42.44 207.07 42.32C209.49 38.09 210.37 32.97 210.36 29.51C210.35 24.01 208.16 20.04 205.34 20.05C200.6 20.06 196.28 30.44 195.81 48.11C203.87 47.07 211.04 46.15 215.26 46.14C217.56 46.13 218.2 46.39 218.21 47.8C218.22 49.85 216.69 55.36 209.02 56.91C205.44 57.56 199.55 57.58 195.45 57.97C196.12 70 199.48 80.49 204.5 91.36C193.88 91.52 182.36 91.8 172.89 92.59C175.41 77.73 176.9 60.19 176.86 43.55C176.82 27.68 175.37 12.7 171.76 1.18998C179.95 1.93998 188.53 2.29998 196.6 2.27998C205.82 2.25998 214.65 1.71998 223.48 0.289978C224.37 3.99998 225.15 9.62998 225.17 15.52Z" fill="#FFF1D7"/>
<path d="M290.15 79.42C289.44 89.38 282.25 96.7 274.97 96.18C271.52 95.94 267.81 94 264.8 89.43C259.1 93.77 253.6 95.31 248.62 94.96C237.13 94.15 229.57 83.09 230.47 70.45C231.31 58.57 239.2 50.54 247.14 45.32C256.84 38.82 264.59 38.09 265.21 29.4C265.48 25.57 264.1 23.29 260.14 23.01C251.84 22.42 247.53 32.51 244.36 41.01C239.49 39.12 237.21 33.19 237.69 26.42C238.49 15.18 247.42 1.43996 266.19 2.76996C282.79 3.94996 287.11 15.42 286.27 27.29C285.57 37.12 280.91 53.99 280.15 64.71C279.58 72.75 281.26 78.01 285.35 78.3C286.75 78.4 288.46 77.88 290.21 76.72C290.27 77.63 290.21 78.53 290.15 79.42ZM251.18 69.73C250.95 73.05 252.37 74.69 254.41 74.84C259.65 75.21 262.2 64.48 262.63 58.48C262.75 56.82 262.72 55.41 262.78 54.51C259.53 56.85 251.69 62.58 251.18 69.73Z" fill="#FFF1D7"/>
<path d="M324.68 11.28C327.72 11.69 330.64 12.08 333.72 12.23C328.63 22.27 324.95 36.24 322.98 50.95C320.58 68.84 320.64 87.7 323.47 101.25C319.57 100.47 315.91 99.85 312.61 99.41C306.9 98.64 301.52 98.31 295.47 98.15C300.05 84.17 303.27 70.78 305.05 57.46C307.26 40.97 307.39 24.58 305.63 7.82001C311.92 9.18001 318.34 10.43 324.68 11.28Z" fill="#FFF1D7"/>
<path d="M350.34 14.03C357.24 15.41 368.34 15.41 375.75 16.89C388.93 19.53 396.16 27.76 393.65 40.31C391.72 49.98 385.09 57 376.53 60.64C376.38 67.27 376.95 80.7 380.49 89.11C381.8 92.37 383.58 94.56 385.84 95.01C389.23 95.69 391.74 92.27 392.27 89.64C392.42 88.89 392.35 88.61 392.42 88.23C394.4 90.72 394.7 94.43 393.95 98.2C392.04 107.74 383.61 115.32 374.32 113.46C365.03 111.6 356.52 100.63 357.58 72.51C357.15 74.64 356.58 76.88 356.05 79.51C354.17 88.92 354.14 96.88 356.7 107.58C352.06 106 345.35 104.26 339.45 103.08C335.94 102.38 332.77 101.87 330.34 101.65C335.19 88.52 340.33 71.27 343.75 54.2C346.74 39.26 348.37 24.58 347.62 13.33C348.46 13.66 349.34 13.83 350.34 14.03ZM364.5 44.41C363.97 47.05 363.65 49.98 363.8 52.49C368.14 49.05 372.56 43.93 373.52 39.16C373.97 36.9 373.47 34.84 371.21 34.39C370.08 34.16 369.13 34.36 368.47 35.02C366.73 36.5 365.33 40.27 364.5 44.41Z" fill="#FFF1D7"/>
</svg>
