<svg width="1417" height="2396" viewBox="0 0 1417 2396" fill="none" xmlns="http://www.w3.org/2000/svg">
<path d="M1362.6 47.0235H67.3918V63.5318H1362.6V47.0235Z" fill="#9E303A"/>
<path d="M1430 0H0V47.5238H1430V0Z" fill="#B8454C"/>
<path d="M130 95H81V2396H130V95Z" fill="#B8454C"/>
<path d="M1331 96H1282V2396H1331V96Z" fill="#B8454C"/>
<path opacity="0.32" d="M7.203 37.5187C7.203 37.5187 9.29689 5.50274 63.738 7.50374C118.179 9.50474 186.23 7.50374 186.23 7.50374C186.23 7.50374 26.048 -7.50376 14.5316 7.50374C3.01523 22.5112 7.203 37.5187 7.203 37.5187Z" fill="#FFEACC"/>
<path opacity="0.32" d="M1274.01 8.50424C1278.19 8.50424 1420.58 -0.500261 1421.62 12.5062C1422.67 25.5127 1421.62 38.5192 1421.62 38.5192C1421.62 38.5192 1420.58 19.5097 1403.83 16.5082C1387.08 13.5067 1274.01 8.50424 1274.01 8.50424Z" fill="#FFEACC"/>
<path opacity="0.32" d="M193.559 37.5187C193.559 37.5187 295.113 32.5162 345.366 32.5162C395.619 32.5162 427.028 37.5187 445.873 33.5167C464.718 29.5147 474.14 37.5187 474.14 37.5187C474.14 37.5187 402.948 41.5207 364.211 39.5197C325.474 37.5187 339.084 35.5177 308.723 37.5187C278.362 39.5197 193.559 37.5187 193.559 37.5187Z" fill="#FFEACC"/>
<path opacity="0.32" d="M730.641 11.5058C730.641 11.5058 782.989 2.50128 835.336 11.5058C887.683 20.5103 923.279 19.5098 971.439 17.5088C1019.6 15.5078 1034.26 19.5098 1046.82 17.5088C1059.38 15.5078 1059.38 13.5068 1059.38 13.5068C1059.38 13.5068 965.157 23.5118 926.42 23.5118C887.683 23.5118 893.965 28.5143 856.275 23.5118C818.585 18.5093 730.641 11.5058 730.641 11.5058Z" fill="#FFEACC"/>
<path opacity="0.32" d="M80.4891 84.5423C80.4891 84.5423 68.9727 60.5303 96.1932 58.5293C123.414 56.5283 183.09 51.5258 193.559 51.5258C204.028 51.5258 99.3341 60.5303 90.9585 70.5353C82.583 80.5403 80.4891 84.5423 80.4891 84.5423Z" fill="#FFEACC"/>
<path d="M129.695 94.5473H80.489V101.551H129.695V94.5473Z" fill="#9E303A"/>
<path d="M1331.59 93.5468H1282.38V100.55H1331.59V93.5468Z" fill="#9E303A"/>
<path d="M96.1932 122.561C96.1932 122.561 99.334 159.58 96.1932 215.608C93.0524 271.636 98.2871 363.682 100.381 406.703C102.475 449.725 105.616 465.733 105.616 465.733C105.616 465.733 113.991 354.677 110.85 328.664C107.71 302.651 101.428 213.607 105.616 192.596C109.803 171.586 96.1932 122.561 96.1932 122.561Z" fill="#9E303A"/>
<path opacity="0.32" d="M103.522 163.582C103.522 163.582 103.522 169.585 100.381 184.592C97.2401 199.6 102.475 217.609 103.522 227.614C104.569 237.619 103.522 293.647 103.522 293.647C103.522 293.647 89.0111 273.217 95.2195 259.92C101.428 246.623 93.0523 216.608 95.1462 208.604C97.2401 200.6 103.522 163.582 103.522 163.582Z" fill="#FFEACC"/>
<path d="M96.1932 122.561C96.1932 122.561 99.334 159.58 96.1932 215.608C93.0524 271.636 98.2871 363.682 100.381 406.703C102.475 449.725 105.616 465.733 105.616 465.733C105.616 465.733 113.991 354.677 110.85 328.664C107.71 302.651 101.428 213.607 105.616 192.596C109.803 171.586 96.1932 122.561 96.1932 122.561Z" fill="#9E303A"/>
<path opacity="0.32" d="M103.522 163.582C103.522 163.582 103.522 169.585 100.381 184.592C97.2401 199.6 102.475 217.609 103.522 227.614C104.569 237.619 103.522 293.647 103.522 293.647C103.522 293.647 89.0111 273.217 95.2195 259.92C101.428 246.623 93.0523 216.608 95.1462 208.604C97.2401 200.6 103.522 163.582 103.522 163.582Z" fill="#FFEACC"/>
<path d="M96.5184 1536C96.5184 1536 99.6592 1573.02 96.5184 1629.05C93.3776 1685.07 98.6123 1777.12 100.706 1820.14C102.8 1863.16 105.941 1879.17 105.941 1879.17C105.941 1879.17 114.316 1768.12 111.176 1742.1C108.035 1716.09 101.753 1627.05 105.941 1606.04C110.129 1585.02 96.5184 1536 96.5184 1536Z" fill="#9E303A"/>
<path opacity="0.32" d="M103.847 1577.02C103.847 1577.02 103.847 1583.02 100.706 1598.03C97.5653 1613.04 102.8 1631.05 103.847 1641.05C104.894 1651.06 103.847 1707.09 103.847 1707.09C103.847 1707.09 89.3363 1686.66 95.5447 1673.36C101.753 1660.06 93.3775 1630.05 95.4714 1622.04C97.5653 1614.04 103.847 1577.02 103.847 1577.02Z" fill="#FFEACC"/>
<path opacity="0.32" d="M111.897 664.832C111.897 664.832 108.757 706.853 105.616 735.868C102.475 764.882 102.475 787.894 103.522 806.903C104.569 825.913 117.132 844.922 111.897 876.938C106.663 908.954 95.1462 945.973 95.1462 945.973C95.1462 945.973 119.226 880.94 119.226 850.925C119.226 820.91 109.803 822.911 111.897 797.899C113.991 772.886 111.897 659.83 111.897 659.83" fill="#FFEACC"/>
<path opacity="0.32" d="M1307.75 1049C1307.75 1049 1304.61 1091.02 1301.47 1120.04C1298.33 1149.05 1298.33 1172.06 1299.38 1191.07C1300.42 1210.08 1312.99 1229.09 1307.75 1261.11C1302.52 1293.12 1291 1330.14 1291 1330.14C1291 1330.14 1315.08 1265.11 1315.08 1235.1C1315.08 1205.08 1305.66 1207.08 1307.75 1182.07C1309.84 1157.06 1307.75 1044 1307.75 1044" fill="#FFEACC"/>
<path opacity="0.32" d="M115.751 2072C115.751 2072 112.61 2114.02 109.469 2143.04C106.329 2172.05 106.329 2195.06 107.376 2214.07C108.422 2233.08 120.986 2252.09 115.751 2284.11C110.516 2316.12 99 2353.14 99 2353.14C99 2353.14 123.08 2288.11 123.08 2258.1C123.08 2228.08 113.657 2230.08 115.751 2205.07C117.845 2180.06 115.751 2067 115.751 2067" fill="#FFEACC"/>
<path d="M1297.04 130.565C1297.04 130.565 1300.18 167.584 1297.04 223.612C1293.9 279.64 1299.13 371.686 1301.23 414.707C1303.32 457.729 1306.46 473.737 1306.46 473.737C1306.46 473.737 1314.84 362.681 1311.7 336.668C1308.55 310.655 1302.27 221.611 1306.46 200.6C1310.65 179.59 1297.04 130.565 1297.04 130.565Z" fill="#9E303A"/>
<path d="M1305.98 1744C1305.98 1744 1309.12 1781.02 1305.98 1837.05C1302.84 1893.07 1308.07 1985.12 1310.17 2028.14C1312.26 2071.16 1315.4 2087.17 1315.4 2087.17C1315.4 2087.17 1323.78 1976.12 1320.64 1950.1C1317.5 1924.09 1311.21 1835.05 1315.4 1814.04C1319.59 1793.02 1305.98 1744 1305.98 1744Z" fill="#9E303A"/>
<path opacity="0.32" d="M1304.37 171.586C1304.37 171.586 1304.37 177.589 1301.23 192.596C1298.08 207.604 1303.32 225.613 1304.37 235.618C1305.41 245.623 1304.37 301.651 1304.37 301.651C1304.37 301.651 1289.86 281.221 1296.06 267.924C1302.27 254.627 1293.9 224.612 1295.99 216.608C1298.08 208.604 1304.37 171.586 1304.37 171.586Z" fill="#FFEACC"/>
<path opacity="0.32" d="M1312.74 672.836C1312.74 672.836 1309.6 714.857 1306.46 743.872C1303.32 772.886 1303.32 795.898 1304.37 814.907C1305.41 833.917 1317.98 852.926 1312.74 884.942C1307.51 916.958 1295.99 953.977 1295.99 953.977C1295.99 953.977 1320.07 888.944 1320.07 858.929C1320.07 828.914 1310.65 830.915 1312.74 805.903C1314.84 780.89 1312.74 667.834 1312.74 667.834" fill="#FFEACC"/>
<path d="M1362.6 47.0235H67.3918V94.5473H1362.6V47.0235Z" fill="#B8454C"/>
</svg>
