<svg width="40" height="46" viewBox="0 0 40 46" fill="none" xmlns="http://www.w3.org/2000/svg">
<g clip-path="url(#clip0_236_98)">
<path d="M39.789 18.765C35.937 18.774 32.175 17.568 29.043 15.327V30.969C29.043 38.826 22.671 45.198 14.805 45.189C6.94803 45.189 0.576031 38.817 0.585031 30.951C0.594031 23.085 6.95703 16.74 14.814 16.74C15.462 16.74 16.119 16.785 16.767 16.875V24.741C13.329 23.661 9.65703 25.569 8.57703 29.016C7.49703 32.463 9.40503 36.126 12.852 37.206C16.29 38.286 19.962 36.378 21.042 32.931C21.24 32.301 21.339 31.635 21.339 30.969V0.386963H29.043C29.034 1.03496 29.088 1.68296 29.205 2.33096C29.745 5.21996 31.455 7.75796 33.921 9.35096C35.658 10.503 37.701 11.115 39.789 11.115V18.765Z" fill="#DE6A6A"/>
<path d="M39.816 18.7919C38.799 18.8369 37.881 18.7649 36.918 18.6389C35.964 18.5039 35.028 18.3059 34.101 18.0269C32.256 17.4689 30.492 16.6319 28.908 15.5159L29.268 15.3359L29.376 25.9109C29.385 27.6749 29.403 29.4299 29.394 31.2029C29.385 33.0119 29.025 34.8209 28.341 36.4949C26.982 39.8519 24.336 42.6779 21.033 44.1989C17.748 45.7289 13.896 45.9989 10.449 44.8739C7.00201 43.7669 4.05001 41.3189 2.29501 38.1869C0.531014 35.0639 0.00901444 31.3019 0.783014 27.8189C1.55701 24.3359 3.69001 21.1859 6.62401 19.1519C9.54901 17.0909 13.239 16.2269 16.794 16.6589L16.974 16.6769V16.8659L17.037 24.7319V25.1189L16.668 25.0019C14.238 24.2189 11.421 25.1459 9.91801 27.1619C9.15301 28.1429 8.70301 29.3759 8.64901 30.6179C8.56801 31.8599 8.91901 33.1109 9.56701 34.1639C10.845 36.3059 13.518 37.4669 15.948 36.9539C17.154 36.7019 18.288 36.0989 19.143 35.2079C20.007 34.3259 20.565 33.1739 20.781 31.9679C20.889 31.3739 20.853 30.7439 20.862 30.0689L20.853 28.0889L20.862 24.1289L20.871 16.2089C20.871 10.9259 20.889 5.65193 20.943 0.368934V-0.0180664H21.321L29.025 0.0449336H29.358L29.349 0.368934C29.286 3.09593 30.42 5.82293 32.364 7.76693C34.308 9.71093 37.008 10.8989 39.78 10.9349H39.951V11.0969L39.816 18.7919ZM39.753 18.7289L39.618 11.1149L39.78 11.2769C38.358 11.2949 36.918 11.0339 35.595 10.4849C34.272 9.93593 33.048 9.13493 32.013 8.13593C29.943 6.13793 28.701 3.28493 28.71 0.377934L29.034 0.701934L21.33 0.764934L21.717 0.377934C21.771 5.66093 21.798 10.9349 21.789 16.2179L21.798 24.1379L21.807 28.0979L21.798 30.0779C21.789 30.7169 21.825 31.4189 21.69 32.1299C21.438 33.5159 20.781 34.8389 19.782 35.8379C18.792 36.8549 17.496 37.5299 16.119 37.8089C14.733 38.0699 13.275 37.8989 11.988 37.3319C10.71 36.7559 9.60301 35.7929 8.88301 34.5959C8.16301 33.3989 7.79401 31.9769 7.90201 30.5819C7.98301 29.1869 8.50501 27.8279 9.37801 26.7479C11.088 24.5339 14.202 23.5799 16.839 24.4799L16.479 24.7499L16.542 16.8839L16.731 17.0999L15.435 17.0009L14.787 16.9559L14.139 16.9829C13.707 16.9919 13.266 17.0099 12.843 17.0909C12.411 17.1539 11.979 17.1989 11.556 17.3159C9.85501 17.7029 8.23501 18.4229 6.80401 19.4129C5.36401 20.4029 4.11301 21.6629 3.13201 23.1029C2.15101 24.5519 1.46701 26.1899 1.09801 27.8909C0.351014 31.3019 0.909014 34.9739 2.70001 37.9619C4.45501 40.9589 7.35301 43.2449 10.656 44.2349C13.959 45.2159 17.604 44.9729 20.7 43.4879C23.796 42.0209 26.334 39.4019 27.648 36.2159C28.314 34.6319 28.674 32.9219 28.692 31.2029L28.728 25.9199L28.836 15.3449V14.9039L29.187 15.1649C30.717 16.2719 32.4 17.1719 34.2 17.7749C35.1 18.0809 36.018 18.3149 36.963 18.4769C37.872 18.6209 38.862 18.6929 39.753 18.7289Z" fill="#8C4975"/>
</g>
<defs>
<clipPath id="clip0_236_98">
<rect width="39.519" height="45.558" fill="white" transform="translate(0.432007)"/>
</clipPath>
</defs>
</svg>
