<svg width="482" height="140" viewBox="0 0 482 140" fill="none" xmlns="http://www.w3.org/2000/svg">
<mask id="mask0_745_933" style="mask-type:luminance" maskUnits="userSpaceOnUse" x="0" y="0" width="482" height="140">
<path d="M52.5102 44.03C55.7102 52.81 58.0002 63.55 53.3802 69.19C53.2802 68.55 52.8902 67.46 52.4902 66.38C50.5202 60.97 45.7602 51.67 41.4302 53.25C37.8202 54.57 38.8302 61.42 41.9402 69.96C46.9002 83.55 55.6402 97.8 59.7802 103.92C63.2102 109.21 64.5802 110.34 72.8702 117.4C68.8602 118.73 64.0002 120.36 58.5902 122.34C51.0102 125.1 42.5702 128.46 35.6502 131.53C37.7602 118.63 36.0202 94.47 29.4802 76.55C26.9802 69.7 22.7302 61.03 18.7602 62.48C15.3902 63.71 15.9202 70.74 18.2402 77.11C19.1202 79.52 20.2402 81.83 21.1202 83.14C12.9102 81.91 6.83019 73.1 3.54019 64.08C1.56019 58.67 0.170194 52.23 0.500194 48.29C15.8502 42.55 31.2302 36.53 45.8402 29.15C47.7402 32.83 50.4002 38.26 52.5102 44.03ZM78.0702 22.83C81.0302 22 83.8602 21.2 86.7502 20.12C86.0602 31.35 88.2202 45.64 92.2402 59.93C97.1302 77.3 104.66 94.59 112.64 105.91C108.75 106.74 105.14 107.62 101.94 108.52C96.4002 110.08 91.3302 111.91 85.7102 114.16C84.3802 99.51 82.0202 85.95 78.3802 73.01C73.8702 56.99 67.4902 41.9 59.2302 27.21C65.5202 25.96 71.9102 24.56 78.0702 22.83ZM152.88 4.98C157.57 4.3 162.78 5.48 165.55 13.87C169.39 7.36 173.78 1.93999 181.38 0.839993C186.95 0.0299932 193.15 1.72 195.02 14.64C196.62 25.66 195.24 45.52 197.85 63.51C199.21 72.88 201.7 81.96 206.55 89.54C193 91.51 184.69 93.1 176.55 94.93C179.04 78.27 177.46 49.53 174.92 32.05C174.35 28.12 173.86 25.61 171.96 25.88C168.67 26.36 168.16 34.45 168.47 43.72C168.69 50.54 169.74 66.69 171.26 77.2C172.11 83.03 173.37 89.05 175.1 93.84C161.42 95.83 157.37 96.42 149.23 98.25C151.6 81.61 148.89 53.16 146.62 37.58C145.94 32.89 145.35 29.75 143.2 30.06C138.26 30.78 136.87 47.92 140.39 72.11C141.83 81.99 143.6 89.75 145.74 98.24C136.89 99.66 127.86 101.61 119.78 103.82C122.11 92.23 122.09 76.97 119.9 61.9C117.31 44.04 111.63 26.37 103.24 14.91C108 12.93 117.92 9.15999 124.51 8.19999C131.6 7.16999 133.51 9.61 134.23 14.55C134.71 17.84 134.52 20.98 134.3 23.08C139.09 13.33 144.14 6.25 152.88 4.98ZM261.89 42.13C261.74 44.69 261.59 47.37 261.2 49.65C251.57 49.86 236.53 55.02 236.01 63.97C235.77 68.06 238.83 70.67 242.41 70.88C248.67 71.24 256.77 64.27 257.41 59.82C260.03 61.13 260.12 66.13 259.92 69.58C259.26 81.08 253.66 95.89 238.45 95.01C216.85 93.76 212.08 63.1 213.05 46.36C214.16 27.19 224.49 -0.810003 242.76 0.249997C261.16 1.32 262.56 30.5 261.89 42.13ZM235.11 35.07C235.02 36.6 234.93 38.14 234.98 39.55C237.53 37.64 240.73 35.52 242.84 34.49C243.14 33.74 243.33 32.72 243.4 31.45C243.61 27.87 242.75 22.69 240.19 22.55C238.53 22.45 237.11 24.81 236.67 25.81C235.62 28.44 235.27 32.26 235.11 35.07ZM294.88 10.2C302.56 11.63 309.42 12.52 315.8 12.54C309.63 22.59 295.63 48.1 292.62 64.2C290.81 73.89 292.91 80.79 296.56 81.47C299.83 82.08 302.78 77.42 303.72 72.39C304.28 69.37 304.22 66.23 303.33 63.33C315.54 65.61 315.37 78.34 313.19 90.04C312.11 95.83 310.6 101.14 310.01 104.29C304.12 103.06 295.03 100.84 286.09 99.18C278.92 97.84 271.45 96.71 265.06 96.04C270.65 82.11 275.08 67.44 277.85 52.6C280.71 37.25 281.79 21.7 280.87 7.07C285.59 8.34 290.6 9.39999 294.88 10.2ZM355.16 23.24C358.15 23.96 361.01 24.65 364.05 25.13C357.95 34.59 352.84 48.1 349.35 62.53C345.11 80.07 343.21 98.84 344.62 112.61C340.82 111.43 337.24 110.43 334.01 109.65C328.41 108.3 323.09 107.41 317.1 106.62C323.11 93.19 327.7 80.21 330.86 67.15C334.77 50.98 336.6 34.69 336.59 17.83C342.69 19.83 348.94 21.74 355.16 23.24ZM422.9 38.18C428.48 39.61 433.67 43.58 430.41 56.35C427.68 67.01 418.77 84.82 414.27 102.43C411.92 111.61 410.73 120.94 412.3 129.8C398.91 126.38 390.5 124.63 382.16 123.15C390.87 108.73 400.63 81.37 404.78 65.12C406.08 60.04 406.31 58.11 404.45 57.64C401.97 57.01 399.53 59.82 398.5 61.27C393.81 67.73 387.98 84.87 385 96.53C382.97 104.47 381.5 112.81 380.21 121.46C371.37 119.33 362.16 117.64 353.72 116.54C360.45 106.77 366.29 92.67 370.06 77.91C374.53 60.43 376.08 41.93 372.62 28.1C377.77 28.1 388.76 28.53 395.21 30.17C402.15 31.95 403.1 34.96 401.87 39.8C401.05 43.02 399.54 45.81 398.54 47.67C406.84 40.55 414.22 35.96 422.9 38.18ZM481.39 87.63C481.09 90.17 480.78 92.84 480.26 95.1C470.64 94.75 455.32 99.02 454.28 107.92C453.8 111.99 456.7 114.78 460.26 115.19C466.49 115.92 474.98 109.43 475.88 105.03C478.42 106.49 478.22 111.49 477.82 114.92C476.48 126.36 470.03 140.82 454.9 139.05C433.41 136.54 430.45 105.65 432.39 89C434.62 69.93 446.57 42.59 464.75 44.71C483.06 46.85 482.75 76.06 481.39 87.63ZM455.08 79.02C454.9 80.55 454.72 82.07 454.69 83.48C457.34 81.73 460.66 79.8 462.83 78.89C463.17 78.16 463.42 77.15 463.57 75.88C463.99 72.32 463.44 67.1 460.89 66.8C459.24 66.61 457.68 68.87 457.18 69.85C455.98 72.42 455.41 76.22 455.08 79.02Z" fill="white"/>
</mask>
<g mask="url(#mask0_745_933)">
<path d="M19 -22.32C19 -22.32 148 -136.32 303 -86.32C458 -36.32 523 5.68002 540 -2.31998C557 -10.32 469 102.68 469 102.68C469 102.68 -28 120.68 -34 116.68" fill="#F9D4D6"/>
</g>
<mask id="mask1_745_933" style="mask-type:luminance" maskUnits="userSpaceOnUse" x="0" y="0" width="482" height="140">
<path d="M52.5102 44.03C55.7102 52.81 58.0002 63.55 53.3802 69.19C53.2802 68.55 52.8902 67.46 52.4902 66.38C50.5202 60.97 45.7602 51.67 41.4302 53.25C37.8202 54.57 38.8302 61.42 41.9402 69.96C46.9002 83.55 55.6402 97.8 59.7802 103.92C63.2102 109.21 64.5802 110.34 72.8702 117.4C68.8602 118.73 64.0002 120.36 58.5902 122.34C51.0102 125.1 42.5702 128.46 35.6502 131.53C37.7602 118.63 36.0202 94.47 29.4802 76.55C26.9802 69.7 22.7302 61.03 18.7602 62.48C15.3902 63.71 15.9202 70.74 18.2402 77.11C19.1202 79.52 20.2402 81.83 21.1202 83.14C12.9102 81.91 6.83019 73.1 3.54019 64.08C1.56019 58.67 0.170194 52.23 0.500194 48.29C15.8502 42.55 31.2302 36.53 45.8402 29.15C47.7402 32.83 50.4002 38.26 52.5102 44.03ZM78.0702 22.83C81.0302 22 83.8602 21.2 86.7502 20.12C86.0602 31.35 88.2202 45.64 92.2402 59.93C97.1302 77.3 104.66 94.59 112.64 105.91C108.75 106.74 105.14 107.62 101.94 108.52C96.4002 110.08 91.3302 111.91 85.7102 114.16C84.3802 99.51 82.0202 85.95 78.3802 73.01C73.8702 56.99 67.4902 41.9 59.2302 27.21C65.5202 25.96 71.9102 24.56 78.0702 22.83ZM152.88 4.98C157.57 4.3 162.78 5.48 165.55 13.87C169.39 7.36 173.78 1.93999 181.38 0.839993C186.95 0.0299932 193.15 1.72 195.02 14.64C196.62 25.66 195.24 45.52 197.85 63.51C199.21 72.88 201.7 81.96 206.55 89.54C193 91.51 184.69 93.1 176.55 94.93C179.04 78.27 177.46 49.53 174.92 32.05C174.35 28.12 173.86 25.61 171.96 25.88C168.67 26.36 168.16 34.45 168.47 43.72C168.69 50.54 169.74 66.69 171.26 77.2C172.11 83.03 173.37 89.05 175.1 93.84C161.42 95.83 157.37 96.42 149.23 98.25C151.6 81.61 148.89 53.16 146.62 37.58C145.94 32.89 145.35 29.75 143.2 30.06C138.26 30.78 136.87 47.92 140.39 72.11C141.83 81.99 143.6 89.75 145.74 98.24C136.89 99.66 127.86 101.61 119.78 103.82C122.11 92.23 122.09 76.97 119.9 61.9C117.31 44.04 111.63 26.37 103.24 14.91C108 12.93 117.92 9.15999 124.51 8.19999C131.6 7.16999 133.51 9.61 134.23 14.55C134.71 17.84 134.52 20.98 134.3 23.08C139.09 13.33 144.14 6.25 152.88 4.98ZM261.89 42.13C261.74 44.69 261.59 47.37 261.2 49.65C251.57 49.86 236.53 55.02 236.01 63.97C235.77 68.06 238.83 70.67 242.41 70.88C248.67 71.24 256.77 64.27 257.41 59.82C260.03 61.13 260.12 66.13 259.92 69.58C259.26 81.08 253.66 95.89 238.45 95.01C216.85 93.76 212.08 63.1 213.05 46.36C214.16 27.19 224.49 -0.810003 242.76 0.249997C261.16 1.32 262.56 30.5 261.89 42.13ZM235.11 35.07C235.02 36.6 234.93 38.14 234.98 39.55C237.53 37.64 240.73 35.52 242.84 34.49C243.14 33.74 243.33 32.72 243.4 31.45C243.61 27.87 242.75 22.69 240.19 22.55C238.53 22.45 237.11 24.81 236.67 25.81C235.62 28.44 235.27 32.26 235.11 35.07ZM294.88 10.2C302.56 11.63 309.42 12.52 315.8 12.54C309.63 22.59 295.63 48.1 292.62 64.2C290.81 73.89 292.91 80.79 296.56 81.47C299.83 82.08 302.78 77.42 303.72 72.39C304.28 69.37 304.22 66.23 303.33 63.33C315.54 65.61 315.37 78.34 313.19 90.04C312.11 95.83 310.6 101.14 310.01 104.29C304.12 103.06 295.03 100.84 286.09 99.18C278.92 97.84 271.45 96.71 265.06 96.04C270.65 82.11 275.08 67.44 277.85 52.6C280.71 37.25 281.79 21.7 280.87 7.07C285.59 8.34 290.6 9.39999 294.88 10.2ZM355.16 23.24C358.15 23.96 361.01 24.65 364.05 25.13C357.95 34.59 352.84 48.1 349.35 62.53C345.11 80.07 343.21 98.84 344.62 112.61C340.82 111.43 337.24 110.43 334.01 109.65C328.41 108.3 323.09 107.41 317.1 106.62C323.11 93.19 327.7 80.21 330.86 67.15C334.77 50.98 336.6 34.69 336.59 17.83C342.69 19.83 348.94 21.74 355.16 23.24ZM422.9 38.18C428.48 39.61 433.67 43.58 430.41 56.35C427.68 67.01 418.77 84.82 414.27 102.43C411.92 111.61 410.73 120.94 412.3 129.8C398.91 126.38 390.5 124.63 382.16 123.15C390.87 108.73 400.63 81.37 404.78 65.12C406.08 60.04 406.31 58.11 404.45 57.64C401.97 57.01 399.53 59.82 398.5 61.27C393.81 67.73 387.98 84.87 385 96.53C382.97 104.47 381.5 112.81 380.21 121.46C371.37 119.33 362.16 117.64 353.72 116.54C360.45 106.77 366.29 92.67 370.06 77.91C374.53 60.43 376.08 41.93 372.62 28.1C377.77 28.1 388.76 28.53 395.21 30.17C402.15 31.95 403.1 34.96 401.87 39.8C401.05 43.02 399.54 45.81 398.54 47.67C406.84 40.55 414.22 35.96 422.9 38.18ZM481.39 87.63C481.09 90.17 480.78 92.84 480.26 95.1C470.64 94.75 455.32 99.02 454.28 107.92C453.8 111.99 456.7 114.78 460.26 115.19C466.49 115.92 474.98 109.43 475.88 105.03C478.42 106.49 478.22 111.49 477.82 114.92C476.48 126.36 470.03 140.82 454.9 139.05C433.41 136.54 430.45 105.65 432.39 89C434.62 69.93 446.57 42.59 464.75 44.71C483.06 46.85 482.75 76.06 481.39 87.63ZM455.08 79.02C454.9 80.55 454.72 82.07 454.69 83.48C457.34 81.73 460.66 79.8 462.83 78.89C463.17 78.16 463.42 77.15 463.57 75.88C463.99 72.32 463.44 67.1 460.89 66.8C459.24 66.61 457.68 68.87 457.18 69.85C455.98 72.42 455.41 76.22 455.08 79.02Z" fill="white"/>
</mask>
<g mask="url(#mask1_745_933)">
<path d="M11 120.77C11 120.77 140 6.76998 295 56.77C450 106.77 515 148.77 532 140.77C549 132.77 461 245.77 461 245.77C461 245.77 -36 263.77 -42 259.77" fill="#DF6A6B"/>
</g>
</svg>
