<svg id="Layer_1" data-name="Layer 1" xmlns="http://www.w3.org/2000/svg" viewBox="0 0 726.85 202.79"><defs><style>.cls-1{fill:#0b67b2;}.cls-2{fill:#da2429;}.cls-3{fill:#1168b2;}</style></defs><title>tribun jabar</title><path class="cls-1" d="M429.68,16.56h-8.24V11.71h40.72v4.85h-5.82V91.21a78.81,78.81,0,0,1-3.88,28.11c-3.88,11.64-10.66,17.45-19.87,17.45a21.26,21.26,0,0,1-15-6.3,31.92,31.92,0,0,1-7.75-24.23,38.24,38.24,0,0,1,2.42-14.55c1.45-3.87,3.39-5.81,6.3-5.81,3.39,0,6.79,2.91,7.76,6.3a25.36,25.36,0,0,1,1.94,10.18v1.94c0,3.87-.49,7.75-2.43,11.14a13.7,13.7,0,0,1-4.36,4.85c-1.45,1-2.42,1.94-2.42,2.43v1.45c0,2.91,1,4.36,3.39,4.85q5.82-.74,8.72-10.18a52.92,52.92,0,0,0-1-31.51V16.56Z"/><path class="cls-1" d="M515,71.82v48c0,2.91.49,4.36,1.46,4.84s2.42-1.93,3.39-4.84v6.3a14.56,14.56,0,0,1-14.06,11.15,7.82,7.82,0,0,1-6.3-2.91,27,27,0,0,1-4.36-9.21c-3.88,8.24-9.21,12.12-16,12.12S468,133.38,466,125.62a36.84,36.84,0,0,1-1.46-10.18c0-11.63,3.39-19.87,9.7-24.23a35.31,35.31,0,0,1,17-4.36h3.39V57.28a5.14,5.14,0,0,0-4.84-4.36,4.11,4.11,0,0,0-3.4,1.93c0,.49,1,1.46,1.94,3.88a9.08,9.08,0,0,1,1,3.88l.49,4.85a12.33,12.33,0,0,1-3.88,10.66c-2.42,1-4.36,1.94-6.79,2.91a9.86,9.86,0,0,1-7.27-2.91c-1.94-2.42-2.91-4.85-2.42-7.75l-.49-3.4c-.48-12.12,7.27-18.42,23.27-18.42A36.89,36.89,0,0,1,502.39,50a45.23,45.23,0,0,1,6.79,3.39A27.1,27.1,0,0,1,515,71.82m-20.84,39.26V90.72h-3.39c-2.91,0-4.37,4.37-4.37,13.58v9.21c0,7.75,1,12.11,2.91,12.6l1-.49c2.91.49,3.88-4.36,3.88-14.54"/><path class="cls-1" d="M547,61.16c3.4-8.73,7.76-12.61,12.12-12.61H561c5.82,1,10.66,6.79,13.57,18.42a107.54,107.54,0,0,1,2.91,24.72c0,21.33-3.88,35.39-11.15,41.69a10.25,10.25,0,0,1-2.91,1.94,14.21,14.21,0,0,1-4.36,1c-6.3,0-10.66-5.33-12.6-16v16c-3.88-.49-9.7-1.46-17.45-2.43h-6.79V129.5h4.85V16.08h-4.85V12.2a212.74,212.74,0,0,0,25.21-2.91V61.16Zm8.24,10.66c0-8.73-1-12.6-3.39-12.6-3.39,0-4.85,5.81-4.85,17v31c0,12.12,1.46,18.42,4.85,18.42,1.94,0,2.91-2.9,3.39-8.72V71.82Z"/><path class="cls-1" d="M631.33,71.82v48c0,2.91.48,4.36,1.93,4.84s2.43-1.93,3.4-4.84v6.3a14.56,14.56,0,0,1-14.06,11.15,7.81,7.81,0,0,1-6.3-2.91,27,27,0,0,1-4.36-9.21c-3.88,8.24-9.21,12.12-16,12.12s-11.15-3.88-13.09-11.64a36.83,36.83,0,0,1-1.45-10.18c0-11.63,2.91-19.87,9.21-24.23a35.34,35.34,0,0,1,17-4.36H611V57.28a5.27,5.27,0,0,0-5.33-4.36,4.11,4.11,0,0,0-3.4,1.93c0,.49,1,1.46,1.94,3.88a9.08,9.08,0,0,1,1,3.88l.49,4.85a12.33,12.33,0,0,1-3.88,10.66c-2.43,1-4.85,1.94-6.79,2.91a9.86,9.86,0,0,1-7.27-2.91c-1.94-2.42-2.91-4.85-2.42-7.75l-.49-3.4c0-12.12,7.76-18.42,23.75-18.42,3.4,0,6.79,1,10.18,1.46a44.31,44.31,0,0,1,6.79,3.39c3.39,3.39,5.82,9.7,5.82,18.42m-20.85,39.26V90.72h-3.39c-2.91,0-4.36,4.37-4.36,13.58v9.21c0,7.75,1,12.11,2.91,12.6l1-.49c2.91.49,3.88-4.36,3.88-14.54"/><path class="cls-1" d="M643.44,54.85h-4.36V50.49l25.21-1.94V66.49c3.39-11.64,7.75-17,13.57-17h1q5.82,0,8.72,8.73a40.64,40.64,0,0,1,1.94,13.09,28.31,28.31,0,0,1-1.94,11.14c-1.93,4.37-4.36,6.79-8.24,6.79-6.78-1.45-10.18-7.76-10.18-19.87l.49-7.76a.48.48,0,0,0-.49-.48l-.48-.49c-1.45,0-2.42,3.39-3.39,10.67a72.93,72.93,0,0,0-.49,14.54V130h6.3v4.36h-32V130h4.36Z"/><path class="cls-2" d="M681.25,115.93c7.76-1.45,8.24,12.6,1.94,14.06-3.88,1-6.3-2.91-6.79-5.82a9.86,9.86,0,0,1,1.94-7.27,6.82,6.82,0,0,1,2.91-1"/><path class="cls-2" d="M699.19,89.27h-4.85V82.48h4.85Zm-.49,43.63h-4.36V95.57h4.36Z"/><path class="cls-2" d="M725.36,132.41H721v-3.88L719.55,131a6.76,6.76,0,0,1-1.94,1.45,3.67,3.67,0,0,1-1.94,1,4.35,4.35,0,0,1-2.43.49,5.5,5.5,0,0,1-3.87-1.46,7.47,7.47,0,0,1-2.91-3.88,23.73,23.73,0,0,1-1.94-6.3c-.49-2.91-1-5.33-.49-8.24a53.75,53.75,0,0,1,1-8.72A24.52,24.52,0,0,1,707.43,99a13.15,13.15,0,0,1,3.39-3.87,7.82,7.82,0,0,1,4.36-1.46,8.2,8.2,0,0,1,3.4.49,10,10,0,0,1,2.9,1.94v-16h4.37ZM721,123.69V101.87l-2.91-1.45a6.1,6.1,0,0,0-2.91-.49,5.68,5.68,0,0,0-5.33,3.88A25.42,25.42,0,0,0,707.91,114a36.89,36.89,0,0,0,1.46,10.18,4.8,4.8,0,0,0,4.84,3.39,7,7,0,0,0,3.4-1,21.24,21.24,0,0,0,3.39-2.9"/><path class="cls-3" d="M222.7,49.52a8.29,8.29,0,0,0,7.76-5.81,22.57,22.57,0,0,0,1.94-10.18C232.4,22.86,229,18,222.22,18c-7.27,0-10.66,4.84-10.66,14.54V34c0,10.18,3.87,15.51,11.14,15.51"/><path class="cls-1" d="M273.6,55.34h-1.45c-3.88,0-7.76,3.88-11.15,11.63V20a120.86,120.86,0,0,1-22.78,2.43v3.39h4.36V128.53h-4.36v3.88h6.3c7.27,1,12.11,1.45,16,2.42V120.29q2.91,14.55,11.64,14.54a9,9,0,0,0,3.87-1,10,10,0,0,0,2.91-1.93c6.79-5.82,9.7-18.42,9.7-37.81a85.21,85.21,0,0,0-2.91-22.3c-2.91-10.18-6.79-16-12.12-16.48m-5.82,62c-.48,5.34-1.45,7.76-2.91,7.76-2.9,0-4.36-5.33-4.36-16.48V80.55C260.51,70.37,262,65,264.87,65q2.91,0,2.91,11.64v32a25.87,25.87,0,0,1,0,8.72"/><path class="cls-1" d="M397.69,128.53V83.45c0-15-2.42-24.23-7.27-26.66l-2.91-1.45a6.1,6.1,0,0,1-2.91-.49c-5.81,0-10.18,5.34-13.57,15V55.34c-2.91,0-8.24.48-15,1a47.59,47.59,0,0,1-7.75.48v3.88h3.88v67.38h-3.88v3.88h26.17v-3.88h-2.91v-48A36.89,36.89,0,0,1,373,69.88c1-2.91,1.94-4.36,3.39-4.36h.49c1.94,0,2.9,2.91,2.9,9.21v52.83h-2.9v3.88h25.69v-3.88Z"/><path class="cls-1" d="M341,128.53V55.82c-2.43,0-6.31.49-11.64,1a92.91,92.91,0,0,1-11.63,1v3.88h4.36v46.53a93.22,93.22,0,0,1-1,11.64c-1,3.39-1.94,4.84-3.39,4.84a2.65,2.65,0,0,1-2.42-1.45,37.31,37.31,0,0,1-1-7.76V55.34a188.2,188.2,0,0,1-23.27,1.94v3.88h3.88v44.11a76.54,76.54,0,0,0,2.42,20.84c1.94,5.33,4.36,8.24,8.73,8.72H308c5.81,0,10.66-4.84,14.54-15v15l10.66-1.45a50.78,50.78,0,0,1,12.12-.49V129Z"/><path class="cls-1" d="M196,55.82h-1c-5.34,0-9.21,5.34-12.12,15.52v-16l-22.79,1.94v3.88h3.88v67.37h-3.88v3.88h29.09v-3.88h-5.33V88.79a133,133,0,0,1,.48-13.58c1-6.3,1.94-9.69,3.39-9.69l.49.48.48.49-.48,7.27c0,10.66,2.91,17,9.21,17.93,3.39,0,5.82-1.93,7.27-6.3a37.67,37.67,0,0,0,1.94-10.18,35.28,35.28,0,0,0-1.94-12.11q-3.63-7.27-8.73-7.28"/><path class="cls-1" d="M231.91,128.53V55.34l-10.66,1a119.32,119.32,0,0,1-13.09.48v3.88H212v67.38h-3.88v3.88h27.63v-3.88Z"/><path class="cls-1" d="M165.51,160a77.83,77.83,0,0,1-28.6,13.57V44.19h7.75a51.18,51.18,0,0,0,33.45-10.66A40.81,40.81,0,0,0,191.68,3l-2.42-.49c-2.43,4.85-6.3,8.73-10.67,12.12A21.88,21.88,0,0,1,165,18a155.41,155.41,0,0,1-33.44-5.34c-7.76-1.93-14.06-2.9-17.94-3.87C104,6.87,96.68,5.9,90.86,4.93c-5.33-.49-10.18-1-15.51-1C54.5,4,37.54,8.81,24.94,18A63.05,63.05,0,0,0,2.15,59.22H5.06A64.42,64.42,0,0,1,25.42,38.37a51.63,51.63,0,0,1,26.66-6.3,36.29,36.29,0,0,1,7.27.49c2.43.48,5.82.48,8.73,1.45A137.77,137.77,0,0,0,28.81,73.27a84.93,84.93,0,0,0-13.08,46.05,88.59,88.59,0,0,0,5.81,31.51,72.52,72.52,0,0,0,17.94,25.69A94.78,94.78,0,0,0,70,195.42a102.44,102.44,0,0,0,38.29,6.31c19.39.48,38.29-5.34,53.32-17a86.84,86.84,0,0,0,29.08-49l-2.91-1A90.78,90.78,0,0,1,165.51,160m-95-3.88a71.44,71.44,0,0,1-17.93-23.75c-3.88-9.69-6.31-19.87-5.82-30A93.59,93.59,0,0,1,54,66,95.37,95.37,0,0,1,76.8,35l3.88.49v96.94a47,47,0,0,1-1.94,14.06,54,54,0,0,1-8.24,9.69m59.14,18.42h-7.76c-8.72,0-17.45-1-25.69-3.88A52.55,52.55,0,0,1,76.32,160,113.13,113.13,0,0,0,103,131.93c4.84-10.18,7.75-21.33,7.27-32.48V40.31l19.39,3.88Z"/></svg>