<svg width="56" height="45" viewBox="0 0 56 45" fill="none" xmlns="http://www.w3.org/2000/svg">
<g clip-path="url(#clip0_236_72)">
<path d="M49.281 11.286C49.317 11.763 49.317 12.24 49.317 12.717C49.317 27.279 38.229 44.064 17.97 44.064C11.724 44.064 5.92799 42.255 1.04999 39.123C1.94099 39.222 2.78699 39.258 3.71399 39.258C8.86199 39.258 13.605 37.521 17.394 34.551C12.552 34.452 8.49299 31.275 7.09799 26.91C7.78199 27.009 8.46599 27.081 9.17699 27.081C10.167 27.081 11.157 26.946 12.075 26.703C7.02599 25.677 3.23699 21.249 3.23699 15.894V15.75C4.70399 16.569 6.40499 17.082 8.21399 17.145C5.25299 15.174 3.30899 11.79 3.30899 7.97403C3.30899 5.93103 3.85799 4.05003 4.81199 2.41203C10.239 9.09903 18.384 13.464 27.528 13.941C27.357 13.122 27.258 12.267 27.258 11.421C27.258 5.34603 32.172 0.405029 38.274 0.405029C41.442 0.405029 44.313 1.73703 46.32 3.88803C48.813 3.41103 51.198 2.49303 53.313 1.22403C52.494 3.78003 50.757 5.93103 48.471 7.29903C50.685 7.05603 52.836 6.44403 54.816 5.59803C53.304 7.76703 51.432 9.71103 49.281 11.286Z" fill="#DE6A6A"/>
<path d="M49.326 11.2772C49.425 12.7082 49.335 14.1392 49.281 15.5702C49.101 16.9922 48.966 18.4232 48.606 19.8182C48.462 20.5202 48.309 21.2222 48.075 21.9062C47.859 22.5902 47.661 23.2832 47.418 23.9582C46.86 25.2812 46.356 26.6402 45.636 27.8912C45.015 29.1962 44.169 30.3752 43.404 31.5902C42.972 32.1662 42.513 32.7242 42.072 33.3002C41.847 33.5792 41.631 33.8762 41.397 34.1462L40.65 34.9292C38.706 37.0802 36.357 38.8172 33.882 40.3112C28.851 43.1822 23.028 44.6222 17.241 44.4332C11.454 44.3162 5.721 42.5162 0.897 39.3392L0.0690002 38.7902L1.086 38.8442C2.517 38.9162 3.948 39.0692 5.379 38.9522C6.81 38.8622 8.232 38.6282 9.627 38.2502C12.408 37.5122 15.018 36.1802 17.295 34.4162L17.385 34.6862C15.072 34.6322 12.795 33.8402 10.932 32.4812C9.069 31.1222 7.638 29.1602 6.918 26.9552L6.837 26.7032L7.116 26.7212L8.349 26.8202C8.763 26.8472 9.168 26.9012 9.582 26.8742C10.401 26.8382 11.22 26.7122 12.012 26.5052L12.021 26.9012C9.474 26.4062 7.125 24.9842 5.487 22.9682C4.668 21.9602 4.02 20.8172 3.588 19.5842C3.156 18.3602 2.949 17.0462 2.949 15.7502V15.2552L3.381 15.4982C4.866 16.3172 6.54 16.7762 8.232 16.8212L8.034 17.4242C6.846 16.6322 5.793 15.6242 4.974 14.4542C4.155 13.2842 3.543 11.9522 3.219 10.5482C2.544 7.74921 2.976 4.69821 4.443 2.20521L4.749 1.67421L5.136 2.14221C7.863 5.48121 11.301 8.23521 15.153 10.1702C19.005 12.0962 23.244 13.2482 27.546 13.4732L27.069 14.0402C26.529 11.6102 26.781 8.98221 27.816 6.69621C28.833 4.40121 30.66 2.50221 32.856 1.31421C35.079 0.162211 37.671 -0.260789 40.119 0.162211C42.576 0.576211 44.871 1.82721 46.554 3.65421L46.248 3.55521C48.669 3.10521 51.027 2.23221 53.16 0.981211L53.808 0.603211L53.583 1.31421C52.746 3.89721 50.919 6.12921 48.588 7.48821L48.453 7.07421C50.613 6.84921 52.746 6.28221 54.762 5.45421L55.257 5.24721L54.933 5.67021C54.159 6.75921 53.295 7.78521 52.359 8.73021C51.891 9.20721 51.396 9.65721 50.892 10.0892C50.388 10.5032 49.83 10.9712 49.326 11.2772ZM49.236 11.2862C49.803 10.8092 50.289 10.4492 50.793 9.98121C51.288 9.54021 51.765 9.07221 52.215 8.59521C53.124 7.63221 53.952 6.59721 54.681 5.49921L54.87 5.72421C52.854 6.62421 50.703 7.26321 48.489 7.51521L47.463 7.63221L48.345 7.10121C50.568 5.76021 52.278 3.60021 53.034 1.13421L53.448 1.46721C51.279 2.78121 48.876 3.71721 46.374 4.21221L46.194 4.24821L46.068 4.11321C44.457 2.42121 42.297 1.28721 40.002 0.936211C37.707 0.576211 35.313 1.00821 33.279 2.09721C31.272 3.21321 29.58 4.95921 28.653 7.07421C27.708 9.18021 27.474 11.5742 27.987 13.8422L28.122 14.4362L27.51 14.4002C23.082 14.1662 18.69 13.0232 14.739 10.9982C10.779 8.98221 7.26 6.12921 4.479 2.68221L5.172 2.62821C3.795 4.92321 3.39 7.75821 3.966 10.3682C4.254 11.6732 4.803 12.9242 5.559 14.0402C6.315 15.1562 7.287 16.1102 8.403 16.8752L9.357 17.5232L8.214 17.4692C6.423 17.3882 4.659 16.8752 3.102 15.9932L3.534 15.7412C3.489 18.2252 4.308 20.7092 5.874 22.6532C7.422 24.5972 9.663 25.9922 12.111 26.4872L12.984 26.6672L12.12 26.8832C11.292 27.0902 10.446 27.2162 9.6 27.2432C9.177 27.2702 8.754 27.2072 8.331 27.1802L7.062 27.0722L7.26 26.8382C7.926 28.9802 9.303 30.8972 11.103 32.2472C12.903 33.6062 15.144 34.3442 17.394 34.3802L17.817 34.3892L17.484 34.6502C15.189 36.4592 12.543 37.8092 9.726 38.6102C8.322 39.0152 6.873 39.2852 5.415 39.4022C3.957 39.5552 2.49 39.4202 1.023 39.3752L1.203 38.8802C6 41.9132 11.625 43.5422 17.268 43.6502C22.92 43.7762 28.599 42.4352 33.522 39.6722C35.943 38.2322 38.256 36.5582 40.164 34.4702L40.911 33.7142C41.154 33.4532 41.361 33.1742 41.586 32.8952C42.027 32.3462 42.486 31.8062 42.918 31.2392C43.692 30.0512 44.547 28.9172 45.177 27.6392C45.906 26.4152 46.419 25.0922 46.995 23.7962C47.436 22.4552 47.985 21.1322 48.273 19.7372C48.669 18.3692 48.84 16.9562 49.065 15.5432C49.164 14.1392 49.29 12.7082 49.236 11.2862Z" fill="#8C4975"/>
<path opacity="0.4" d="M4.90198 5.80505C4.90198 5.80505 14.802 15.7051 22.902 14.8051C22.902 14.8051 8.50198 19.3051 4.90198 5.80505Z" fill="#FFD38D"/>
<path opacity="0.4" d="M4.668 18.27C4.668 18.27 17.403 24.075 24.684 20.403C24.684 20.394 12.768 29.655 4.668 18.27Z" fill="#FFD38D"/>
<path opacity="0.4" d="M9.44699 29.601C9.44699 29.601 23.442 29.88 28.662 23.625C28.662 23.616 21.39 36.837 9.44699 29.601Z" fill="#FFD38D"/>
<path opacity="0.4" d="M33.252 4.45505C33.252 4.45505 38.652 -0.0449462 44.052 4.45505C44.052 4.45505 38.652 -0.944946 33.252 4.45505Z" fill="#FFD38D"/>
</g>
<defs>
<clipPath id="clip0_236_72">
<rect width="55.17" height="44.451" fill="white" transform="translate(0.0690002)"/>
</clipPath>
</defs>
</svg>
