<svg width="157" height="41" viewBox="0 0 157 41" fill="none" xmlns="http://www.w3.org/2000/svg">
<path d="M150.892 39.7085H6.03228C2.95228 39.7085 0.46228 37.2185 0.46228 34.1385V13.4285V7.28854C0.46228 4.20854 2.95228 1.71854 6.03228 1.71854H150.892C153.972 1.71854 156.462 4.20854 156.462 7.28854V34.1485C156.462 37.2185 153.972 39.7085 150.892 39.7085Z" fill="#E07F2E"/>
<path d="M150.892 39.8085C143.012 39.8685 135.122 39.8585 127.242 39.9685L103.592 40.3385C87.8223 40.5985 72.0523 40.6385 56.2923 40.5385L32.6423 40.2685L20.8123 40.1185L8.98233 40.0585L6.02233 40.0485C4.98233 40.0285 3.93233 39.7685 3.04233 39.2185C1.22233 38.1685 0.112333 36.0885 0.152333 34.0185L0.112333 22.1885C0.102333 18.2485 0.0823331 14.2985 0.0323332 10.3585L0.00233315 7.40854C-0.0276668 6.35854 0.232333 5.26854 0.742333 4.32854C1.75233 2.42854 3.86233 1.17854 6.03233 1.15854C21.8023 0.968537 37.5723 0.828537 53.3323 0.768537C69.1023 0.698537 84.8723 0.618537 100.632 0.678537C116.402 0.678537 132.172 0.768537 147.932 1.04854L150.892 1.09854C151.982 1.12854 153.072 1.41854 153.992 1.99854C155.872 3.10854 157.002 5.28854 156.912 7.40854L156.732 19.2385C156.652 23.1785 156.662 27.1185 156.632 31.0685L156.612 34.0285C156.622 35.0385 156.362 36.0485 155.872 36.9285C154.892 38.6985 152.902 39.8285 150.892 39.8085ZM150.892 39.6085C152.832 39.5985 154.722 38.4885 155.632 36.7885C156.632 35.0885 156.212 33.0185 156.282 31.0685C156.252 27.1285 156.252 23.1885 156.182 19.2385L156.002 7.40854C156.022 5.56854 155.002 3.82854 153.432 2.96854C152.662 2.51854 151.772 2.31854 150.902 2.31854L147.942 2.36854C132.172 2.64854 116.402 2.74854 100.642 2.73854C84.8723 2.80854 69.1023 2.72854 53.3423 2.64854C37.5723 2.59854 21.8023 2.44854 6.03233 2.25854C4.25233 2.23854 2.48233 3.22854 1.60233 4.80854C1.16233 5.59854 0.922333 6.47854 0.922333 7.40854L0.892333 10.3585C0.842333 14.2985 0.822333 18.2385 0.812333 22.1885L0.772333 34.0085C0.712333 35.8885 1.74233 37.7385 3.37233 38.6585C4.17233 39.1385 5.10233 39.3585 6.03233 39.3785L8.99233 39.3685L20.8223 39.3085L32.6523 39.1585L56.3023 38.8885C72.0723 38.7885 87.8423 38.8285 103.602 39.0885L127.252 39.4585C135.122 39.5585 143.012 39.5585 150.892 39.6085Z" fill="#ECA829"/>
<path opacity="0.32" d="M1.96236 20.2085C1.96236 20.2085 -2.03764 6.20854 24.9624 5.20854C51.9624 4.20854 91.9624 3.20854 91.9624 3.20854C91.9624 3.20854 10.9624 2.20854 5.96236 3.20854C0.962362 4.20854 0.962362 16.2085 1.96236 20.2085Z" fill="#FFD9F2" fill-opacity="0.36"/>
<path opacity="0.3" d="M1.96228 24.2085C1.96228 24.2085 19.9623 37.2085 53.9623 37.2085C87.9623 37.2085 89.9623 37.2085 89.9623 37.2085C89.9623 37.2085 7.96228 43.2085 3.96228 36.2085C-0.0377197 29.2085 1.96228 24.2085 1.96228 24.2085Z" fill="#FFD9F2" fill-opacity="0.36"/>
<path opacity="0.3" d="M134.962 6.20853C134.962 6.20853 152.962 2.20853 153.962 11.2085C154.962 20.2085 153.962 36.2085 153.962 36.2085C153.962 36.2085 157.962 11.2085 153.962 5.20853C149.962 -0.791466 134.962 6.20853 134.962 6.20853Z" fill="#FFD9F2" fill-opacity="0.36"/>
</svg>
