<svg width="157" height="41" viewBox="0 0 157 41" fill="none" xmlns="http://www.w3.org/2000/svg">
<path d="M150.892 39.9826H6.03228C2.95228 39.9826 0.46228 37.4926 0.46228 34.4126V13.7026V7.56258C0.46228 4.48258 2.95228 1.99258 6.03228 1.99258H150.892C153.972 1.99258 156.462 4.48258 156.462 7.56258V34.4226C156.462 37.4926 153.972 39.9826 150.892 39.9826Z" fill="#ECA829"/>
<path d="M150.892 40.0826C143.012 40.1426 135.122 40.1326 127.242 40.2426L103.592 40.6126C87.8223 40.8726 72.0523 40.9126 56.2923 40.8126L32.6423 40.5426L20.8123 40.3926L8.98233 40.3326L6.02233 40.3226C4.98233 40.3026 3.93233 40.0426 3.04233 39.4926C1.22233 38.4426 0.112333 36.3626 0.152333 34.2926L0.112333 22.4626C0.102333 18.5226 0.0823331 14.5726 0.0323332 10.6326L0.00233315 7.68258C-0.0276668 6.63258 0.232333 5.54258 0.742333 4.60258C1.75233 2.70258 3.86233 1.45258 6.03233 1.43258C21.8023 1.24258 37.5723 1.10258 53.3323 1.04258C69.1023 0.972585 84.8723 0.892585 100.632 0.952585C116.402 0.952585 132.172 1.04258 147.932 1.32258L150.892 1.37258C151.982 1.40258 153.072 1.69258 153.992 2.27258C155.872 3.38258 157.002 5.56258 156.912 7.68258L156.732 19.5126C156.652 23.4526 156.662 27.3926 156.632 31.3426L156.612 34.3026C156.622 35.3126 156.362 36.3226 155.872 37.2026C154.892 38.9726 152.902 40.1026 150.892 40.0826ZM150.892 39.8826C152.832 39.8726 154.722 38.7626 155.632 37.0626C156.632 35.3626 156.212 33.2926 156.282 31.3426C156.252 27.4026 156.252 23.4626 156.182 19.5126L156.002 7.68258C156.022 5.84258 155.002 4.10258 153.432 3.24258C152.662 2.79258 151.772 2.59258 150.902 2.59258L147.942 2.64258C132.172 2.92258 116.402 3.02258 100.642 3.01258C84.8723 3.08258 69.1023 3.00258 53.3423 2.92258C37.5723 2.87258 21.8023 2.72258 6.03233 2.53258C4.25233 2.51258 2.48233 3.50258 1.60233 5.08258C1.16233 5.87258 0.922333 6.75258 0.922333 7.68258L0.892333 10.6326C0.842333 14.5726 0.822333 18.5126 0.812333 22.4626L0.772333 34.2826C0.712333 36.1626 1.74233 38.0126 3.37233 38.9326C4.17233 39.4126 5.10233 39.6326 6.03233 39.6526L8.99233 39.6426L20.8223 39.5826L32.6523 39.4326L56.3023 39.1626C72.0723 39.0626 87.8423 39.1026 103.602 39.3626L127.252 39.7326C135.122 39.8326 143.012 39.8326 150.892 39.8826Z" fill="#376692"/>
<path opacity="0.32" d="M1.96236 20.4826C1.96236 20.4826 -2.03764 6.48259 24.9624 5.48259C51.9624 4.48259 91.9624 3.48259 91.9624 3.48259C91.9624 3.48259 10.9624 2.48259 5.96236 3.48259C0.962362 4.48259 0.962362 16.4826 1.96236 20.4826Z" fill="#FFC261"/>
<path opacity="0.3" d="M1.96228 24.4826C1.96228 24.4826 19.9623 37.4826 53.9623 37.4826C87.9623 37.4826 89.9623 37.4826 89.9623 37.4826C89.9623 37.4826 7.96228 43.4826 3.96228 36.4826C-0.0377197 29.4826 1.96228 24.4826 1.96228 24.4826Z" fill="#FFC261"/>
<path opacity="0.3" d="M134.962 6.48258C134.962 6.48258 152.962 2.48258 153.962 11.4826C154.962 20.4826 153.962 36.4826 153.962 36.4826C153.962 36.4826 157.962 11.4826 153.962 5.48258C149.962 -0.517418 134.962 6.48258 134.962 6.48258Z" fill="#FFC261"/>
</svg>
