<svg width="158" height="45" viewBox="0 0 158 45" fill="none" xmlns="http://www.w3.org/2000/svg">
<path d="M152.43 44.99H7.57C4.49 44.99 2 42.5 2 39.42V18.71V12.57C2 9.49 4.49 7 7.57 7H152.43C155.51 7 158 9.49 158 12.57V39.43C158 42.5 155.51 44.99 152.43 44.99Z" fill="#8C4975"/>
<path d="M150.892 39.0511H6.03228C2.95228 39.0511 0.46228 36.5611 0.46228 33.4811V12.7711V6.6311C0.46228 3.5511 2.95228 1.0611 6.03228 1.0611H150.892C153.972 1.0611 156.462 3.5511 156.462 6.6311V33.4911C156.462 36.5611 153.972 39.0511 150.892 39.0511Z" fill="#ECA829"/>
<path d="M150.892 39.1511C143.012 39.2111 135.122 39.2011 127.242 39.3111L103.592 39.6811C87.8223 39.9411 72.0523 39.9811 56.2923 39.8811L32.6423 39.6111L20.8123 39.4611L8.98233 39.4011L6.02233 39.3911C4.98233 39.3711 3.93233 39.1111 3.04233 38.5611C1.22233 37.5111 0.112333 35.4311 0.152333 33.3611L0.112333 21.5311C0.102333 17.5911 0.0823331 13.6411 0.0323332 9.7011L0.00233315 6.7511C-0.0276668 5.7011 0.232333 4.6111 0.742333 3.6711C1.75233 1.7711 3.86233 0.521097 6.03233 0.501097C21.8023 0.311097 37.5723 0.171097 53.3323 0.111097C69.1023 0.0410966 84.8723 -0.0389034 100.632 0.0210966C116.402 0.0210966 132.172 0.111097 147.932 0.391097L150.892 0.441097C151.982 0.471097 153.072 0.761097 153.992 1.3411C155.872 2.4511 157.002 4.6311 156.912 6.7511L156.732 18.5811C156.652 22.5211 156.662 26.4611 156.632 30.4111L156.612 33.3711C156.622 34.3811 156.362 35.3911 155.872 36.2711C154.892 38.0411 152.902 39.1711 150.892 39.1511ZM150.892 38.9511C152.832 38.9411 154.722 37.8311 155.632 36.1311C156.632 34.4311 156.212 32.3611 156.282 30.4111C156.252 26.4711 156.252 22.5311 156.182 18.5811L156.002 6.7511C156.022 4.9111 155.002 3.1711 153.432 2.3111C152.662 1.8611 151.772 1.6611 150.902 1.6611L147.942 1.7111C132.172 1.9911 116.402 2.0911 100.642 2.0811C84.8723 2.1511 69.1023 2.0711 53.3423 1.9911C37.5723 1.9411 21.8023 1.7911 6.03233 1.6011C4.25233 1.5811 2.48233 2.5711 1.60233 4.1511C1.16233 4.9411 0.922333 5.8211 0.922333 6.7511L0.892333 9.7011C0.842333 13.6411 0.822333 17.5811 0.812333 21.5311L0.772333 33.3511C0.712333 35.2311 1.74233 37.0811 3.37233 38.0011C4.17233 38.4811 5.10233 38.7011 6.03233 38.7211L8.99233 38.7111L20.8223 38.6511L32.6523 38.5011L56.3023 38.2311C72.0723 38.1311 87.8423 38.1711 103.602 38.4311L127.252 38.8011C135.122 38.9011 143.012 38.9011 150.892 38.9511Z" fill="#8C4975"/>
<path opacity="0.32" d="M1.96236 19.5511C1.96236 19.5511 -2.03764 5.5511 24.9624 4.5511C51.9624 3.5511 91.9624 2.5511 91.9624 2.5511C91.9624 2.5511 10.9624 1.5511 5.96236 2.5511C0.962362 3.5511 0.962362 15.5511 1.96236 19.5511Z" fill="#FFC261"/>
<path opacity="0.3" d="M1.96228 23.5511C1.96228 23.5511 19.9623 36.5511 53.9623 36.5511C87.9623 36.5511 89.9623 36.5511 89.9623 36.5511C89.9623 36.5511 7.96228 42.5511 3.96228 35.5511C-0.0377197 28.5511 1.96228 23.5511 1.96228 23.5511Z" fill="#FFC261"/>
<path opacity="0.3" d="M134.962 5.55109C134.962 5.55109 152.962 1.55109 153.962 10.5511C154.962 19.5511 153.962 35.5511 153.962 35.5511C153.962 35.5511 157.962 10.5511 153.962 4.55109C149.962 -1.44891 134.962 5.55109 134.962 5.55109Z" fill="#FFC261"/>
</svg>
