<svg width="57" height="40" viewBox="0 0 57 40" fill="none" xmlns="http://www.w3.org/2000/svg">
<g clip-path="url(#clip0_236_80)">
<path d="M54.914 6.4979C54.275 4.0859 52.385 2.1869 49.991 1.5389C45.644 0.368897 28.238 0.368896 28.238 0.368896C28.238 0.368896 10.823 0.368897 6.48503 1.5389C4.07303 2.1869 2.19203 4.0859 1.55303 6.4979C0.392029 10.8719 0.392029 19.9889 0.392029 19.9889C0.392029 19.9889 0.392029 29.1059 1.55303 33.4799C2.19203 35.8919 4.08203 37.7099 6.47603 38.3579C10.823 39.5279 28.229 39.5279 28.229 39.5279C28.229 39.5279 45.644 39.5279 49.982 38.3579C52.376 37.7099 54.266 35.8919 54.905 33.4799C56.066 29.1059 56.066 19.9889 56.066 19.9889C56.066 19.9889 56.075 10.8719 54.914 6.4979ZM22.532 28.2689V11.7089L37.085 19.9889L22.532 28.2689Z" fill="#DE6A6A"/>
<path d="M54.869 6.51594C54.41 4.80594 53.267 3.30294 51.764 2.39394C51.008 1.93494 50.171 1.62894 49.298 1.49394C48.434 1.32294 47.543 1.23294 46.661 1.16094C43.124 0.872942 39.569 0.809942 36.014 0.773942C28.904 0.710942 21.803 0.791942 14.711 1.07094C12.938 1.14294 11.165 1.23294 9.41004 1.40394C7.65504 1.59294 5.87304 1.75494 4.46004 2.77194C3.03804 3.71694 1.99404 5.23794 1.63404 6.94794C1.22004 8.65794 1.03104 10.4309 0.869036 12.1949C0.563036 15.7319 0.455036 19.2869 0.599036 22.8329C0.653036 24.6059 0.761036 26.3789 0.941036 28.1429C1.11204 29.9069 1.34604 31.6709 1.77804 33.3629C2.21904 35.0279 3.33504 36.4769 4.81104 37.3319C6.27804 38.2229 8.06904 38.3309 9.82404 38.5199C13.352 38.8259 16.898 38.9069 20.453 38.9969C27.554 39.1499 34.655 39.0509 41.747 38.7449C43.52 38.6639 45.284 38.5469 47.039 38.3669C48.794 38.1689 50.531 37.9709 51.917 37.0079C53.312 36.0809 54.32 34.6229 54.662 32.9399C55.067 31.2479 55.283 29.4839 55.463 27.7199C55.796 24.1919 55.976 20.6369 55.904 17.0909C55.886 15.3179 55.787 13.5359 55.643 11.7719C55.49 10.0079 55.283 8.23494 54.869 6.51594ZM54.95 6.48894C55.796 9.96294 55.94 13.5359 56.138 17.0909C56.327 20.6459 56.255 24.2189 56.039 27.7739C55.913 29.5559 55.769 31.3379 55.373 33.1109C55.04 34.9289 53.942 36.6569 52.385 37.7189C51.611 38.2499 50.729 38.6639 49.82 38.8529C49.37 38.9609 48.92 39.0509 48.47 39.1049C48.02 39.1769 47.579 39.2309 47.129 39.2759C45.347 39.4649 43.565 39.5909 41.783 39.6809C34.664 40.0409 27.536 40.0679 20.417 39.8519C16.862 39.7439 13.298 39.5909 9.74304 39.2219C8.85204 39.1229 7.96104 39.0149 7.07004 38.8259C6.17904 38.6639 5.27904 38.3309 4.49604 37.8449C2.91204 36.8909 1.72404 35.2889 1.29204 33.4979C0.500036 29.9699 0.419036 26.4059 0.275036 22.8509C0.221036 21.0689 0.221036 19.2869 0.284036 17.5049C0.347036 15.7229 0.410036 13.9499 0.554036 12.1679C0.698036 10.3949 0.878036 8.61294 1.27404 6.85794C1.60704 5.07594 2.66904 3.41094 4.17204 2.34894C4.91904 1.81794 5.78304 1.41294 6.67404 1.21494C7.11504 1.10694 7.56504 1.01694 8.00604 0.953942C8.44704 0.872942 8.89704 0.818942 9.33804 0.764942C11.111 0.557942 12.893 0.413942 14.675 0.314942C21.785 -0.0540575 28.913 -0.108058 36.032 0.197942C39.587 0.350942 43.142 0.521942 46.688 0.917942C47.57 1.02594 48.461 1.14294 49.334 1.31394C50.216 1.46694 51.08 1.79094 51.836 2.26794C53.366 3.20394 54.509 4.75194 54.95 6.48894Z" fill="#8C4975"/>
<path d="M22.4871 28.2689C22.2801 25.5059 22.1811 22.7519 22.1541 19.9889C22.1271 18.6119 22.1091 17.2259 22.1541 15.8489L22.3161 11.7089L22.3341 11.3309L22.6401 11.5199C25.0071 13.0049 27.4551 14.3459 29.9301 15.6329C32.4141 16.9019 34.8711 18.2429 37.3101 19.5929L37.9941 19.9709L37.3101 20.3759C34.9071 21.7979 32.4771 23.1659 30.0111 24.4799C28.7781 25.1369 27.5541 25.8029 26.3031 26.4329L24.4401 27.3869L23.5041 27.8549L23.0361 28.0889L22.8021 28.2059L22.6851 28.2599L22.6221 28.2869L22.5951 28.3049L22.5771 28.3139H22.5681C22.5321 28.2959 22.6221 28.3499 22.4871 28.2689ZM22.5771 28.2689C22.4421 28.1879 22.5411 28.2419 22.5141 28.2239L22.5231 28.2149L22.5411 28.2059L22.5681 28.1879L22.6221 28.1519L22.7301 28.0799L22.9461 27.9359L23.3871 27.6479L24.2691 27.0809L26.0421 25.9649C27.2211 25.2179 28.4181 24.4979 29.6151 23.7779C32.0001 22.3289 34.4211 20.9339 36.8691 19.6019V20.3849C34.4571 18.9719 32.0631 17.5499 29.6961 16.0649C27.3201 14.5889 24.9171 13.1669 22.4331 11.8979L22.7481 11.7179L22.9101 15.8579C22.9551 17.2349 22.9371 18.6209 22.9101 19.9979C22.8831 22.7519 22.7931 25.5149 22.5771 28.2689Z" fill="#8C4975"/>
<path opacity="0.4" d="M3.308 14.3281C3.308 14.3281 0.608002 2.62805 13.208 2.62805C25.808 2.62805 24.908 2.62805 24.908 2.62805C24.908 2.62805 5.108 2.62805 3.308 14.3281Z" fill="#FFD38D"/>
<path opacity="0.4" d="M53.258 27.3781C53.258 27.3781 58.658 39.078 27.158 37.278C27.158 37.278 51.458 36.3781 53.258 27.3781Z" fill="#FFD38D"/>
</g>
<defs>
<clipPath id="clip0_236_80">
<rect width="56.016" height="39.987" fill="white" transform="translate(0.239014)"/>
</clipPath>
</defs>
</svg>
