<?xml version="1.0" standalone="no"?>
<!DOCTYPE svg PUBLIC "-//W3C//DTD SVG 20010904//EN"
 "http://www.w3.org/TR/2001/REC-SVG-20010904/DTD/svg10.dtd">
<svg version="1.0" xmlns="http://www.w3.org/2000/svg"
 width="25218.000000pt" height="6313.000000pt" viewBox="0 0 25218.000000 6313.000000"
 preserveAspectRatio="xMidYMid meet">

<g transform="translate(0.000000,6313.000000) scale(0.100000,-0.100000)"
fill="#000000" stroke="none">
<path d="M5950 63123 c-2443 -53 -4617 -1569 -5521 -3852 -202 -508 -330
-1038 -395 -1631 -21 -197 -30 -775 -15 -996 104 -1499 717 -2851 1771 -3904
1046 -1046 2402 -1664 3882 -1770 81 -5 269 -10 418 -10 602 0 1129 73 1691
235 2296 662 4006 2632 4333 4990 45 329 51 428 51 870 -1 439 -8 551 -56 880
-164 1126 -648 2185 -1404 3071 -140 166 -483 509 -649 649 -785 669 -1698
1123 -2686 1334 -335 72 -682 117 -982 126 -90 3 -199 7 -243 8 -44 1 -132 1
-195 0z"/>
<path d="M54550 63119 c-1630 -56 -3190 -789 -4290 -2016 -1293 -1440 -1818
-3383 -1430 -5293 239 -1178 839 -2274 1707 -3121 908 -886 2052 -1460 3298
-1658 362 -57 639 -75 1064 -68 336 5 497 17 776 58 1468 212 2824 972 3782
2119 764 913 1245 2038 1377 3220 44 388 47 936 7 1305 -34 317 -99 670 -172
943 -25 94 -117 396 -129 426 -5 11 -30 76 -54 143 -70 190 -149 370 -255 583
-793 1586 -2241 2751 -3954 3180 -568 143 -1119 200 -1727 179z"/>
<path d="M69550 60254 c-3132 -634 -5696 -1153 -5697 -1154 -2 0 -3 -9540 -3
-21200 l0 -21200 5715 0 5715 0 0 22355 c0 21284 -1 22355 -17 22354 -10 -1
-2581 -520 -5713 -1155z"/>
<path d="M112660 60265 c-3105 -629 -5669 -1149 -5697 -1155 l-53 -11 0
-21200 0 -21199 5720 0 5720 0 2 10078 3 10077 310 118 c2113 801 4300 1531
5998 2001 394 109 465 120 752 113 247 -5 366 -22 622 -87 410 -104 862 -331
1213 -610 129 -101 419 -391 522 -520 501 -629 779 -1390 875 -2390 16 -162
17 -855 20 -9478 l3 -9302 5025 0 5025 0 0 4203 0 4202 -87 19 c-152 33 -441
114 -623 175 -1133 382 -2138 1089 -2885 2031 -646 815 -1082 1787 -1254 2800
-394 2318 525 4627 2404 6038 677 508 1533 906 2318 1078 l127 28 0 1075 c0
1057 -4 1246 -35 1586 -121 1315 -531 2580 -1208 3720 -514 865 -1195 1655
-1980 2298 -858 703 -1900 1253 -2952 1555 -714 206 -1383 305 -2145 319
-1568 27 -3473 -271 -5561 -871 -1695 -487 -3473 -1134 -6055 -2202 -231 -96
-424 -174 -427 -174 -4 0 -7 3787 -7 8415 l0 8415 -22 -1 c-13 -1 -2563 -516
-5668 -1144z"/>
<path d="M36735 47820 c-2244 -104 -4672 -678 -7875 -1862 -1113 -411 -2330
-900 -4435 -1783 -646 -270 -975 -404 -984 -398 -7 5 -458 634 -1000 1398
l-987 1390 -3452 3 -3452 2 0 -14935 0 -14935 5715 0 5715 0 2 10191 3 10192
440 162 c1839 678 3650 1275 5140 1693 534 150 577 158 895 149 228 -6 355
-24 589 -82 654 -165 1267 -553 1710 -1083 567 -680 874 -1558 931 -2662 6
-127 10 -3414 10 -9377 l0 -9183 5025 0 5025 0 0 11373 c0 7526 -4 11429 -10
11542 -95 1598 -586 3081 -1456 4395 -960 1450 -2317 2571 -3894 3215 -775
316 -1573 506 -2440 581 -217 18 -939 27 -1215 14z"/>
<path d="M222345 47823 c-613 -28 -1072 -70 -1590 -144 -2020 -287 -4242 -943
-7175 -2117 -899 -360 -1643 -673 -3439 -1446 -443 -191 -810 -345 -816 -342
-7 2 -446 632 -976 1400 l-964 1396 -3357 0 -3358 0 0 -14940 0 -14940 5560 0
5560 0 0 10194 0 10195 108 41 c981 381 2359 873 3462 1238 1056 349 2182 685
2403 718 151 22 469 15 643 -15 882 -150 1666 -685 2171 -1481 340 -536 557
-1207 633 -1960 6 -58 13 -121 17 -140 3 -19 9 -4254 12 -9410 l6 -9375 4892
-3 4893 -2 2 10122 3 10122 60 23 c1804 704 3711 1370 5255 1835 578 174 916
267 1035 284 149 22 468 15 641 -15 862 -147 1636 -665 2138 -1431 360 -549
591 -1248 666 -2010 6 -63 14 -128 17 -145 4 -16 9 -4249 12 -9405 l6 -9375
4893 -3 4892 -2 -3 11442 c-2 8716 -6 11475 -15 11578 -31 347 -45 482 -77
705 -284 1988 -1213 3810 -2637 5172 -1318 1260 -2978 2035 -4733 2207 -510
50 -1153 47 -1865 -10 -2061 -163 -4484 -802 -7500 -1977 -1102 -429 -1844
-739 -4227 -1763 -6 -3 -56 60 -114 147 -455 676 -1074 1349 -1714 1865 -1315
1061 -2880 1669 -4539 1764 -157 9 -717 11 -881 3z"/>
<path d="M155610 47689 c-3050 -139 -5941 -1124 -8445 -2877 -1226 -858 -2383
-1949 -3327 -3137 -879 -1106 -1613 -2333 -2168 -3624 -130 -303 -310 -760
-310 -787 0 -6 35 -18 78 -28 680 -160 1385 -466 1984 -862 1156 -766 2031
-1906 2468 -3214 903 -2702 -146 -5662 -2553 -7208 -438 -281 -1037 -562
-1480 -692 -71 -21 -78 -25 -73 -45 3 -13 43 -103 90 -201 1931 -4121 5515
-7221 9861 -8529 2808 -846 5865 -893 8705 -135 1037 277 1975 631 2945 1110
1002 495 1914 1071 2795 1764 273 214 512 417 507 429 -3 7 -690 1729 -1527
3827 -838 2098 -1527 3819 -1532 3825 -5 6 -46 -28 -106 -86 -303 -298 -711
-638 -1097 -916 -1045 -751 -2216 -1249 -3345 -1422 -411 -63 -594 -76 -1055
-76 -428 1 -579 10 -924 60 -1498 217 -2872 963 -3885 2110 -959 1085 -1549
2463 -1700 3975 -39 388 -50 932 -26 1285 86 1285 481 2462 1172 3500 1068
1602 2772 2691 4632 2960 354 51 474 59 916 59 424 1 540 -5 845 -45 1431
-186 2790 -842 3985 -1923 79 -72 222 -207 317 -300 96 -93 175 -167 177 -165
3 3 3123 7469 3153 7545 7 19 -500 430 -857 696 -1900 1411 -4083 2380 -6391
2837 -797 158 -1590 253 -2434 291 -253 11 -1136 11 -1395 -1z"/>
<path d="M181785 47690 c-1566 -65 -2959 -258 -4326 -600 -3277 -820 -5984
-2420 -7940 -4696 -2091 -2431 -3275 -5594 -3494 -9334 -54 -936 -47 -1996 20
-2910 157 -2127 626 -4052 1404 -5768 894 -1970 2193 -3650 3856 -4985 1041
-836 2195 -1523 3505 -2084 1852 -795 3969 -1286 6210 -1442 1910 -134 3673
-32 5360 308 2709 546 5133 1698 7063 3356 534 459 1111 1039 1552 1560 1869
2209 3036 4969 3429 8110 118 944 163 1749 153 2765 -7 696 -29 1144 -87 1755
-320 3358 -1490 6299 -3430 8620 -1972 2358 -4685 4014 -7889 4815 -1117 279
-2195 440 -3456 516 -300 18 -1601 27 -1930 14z m995 -9090 c988 -74 1873
-398 2635 -967 1056 -787 1802 -1985 2179 -3498 370 -1483 365 -3336 -13
-4808 -396 -1541 -1181 -2755 -2284 -3529 -893 -627 -1977 -934 -3132 -887
-857 35 -1596 217 -2305 570 -1233 613 -2134 1669 -2660 3116 -402 1106 -573
2552 -470 3988 112 1556 544 2873 1272 3872 337 463 760 881 1213 1198 797
558 1775 886 2825 948 136 8 618 6 740 -3z"/>
<path d="M93195 47220 c-2487 -49 -4795 -310 -7270 -821 -941 -195 -1739 -380
-3435 -799 -1577 -389 -2469 -599 -3145 -738 -122 -25 -140 -31 -139 -48 0
-20 2952 -7675 2963 -7685 3 -3 96 27 206 68 411 151 1077 367 1595 517 2897
838 5278 1048 6830 602 1444 -415 2210 -1391 2258 -2876 4 -113 6 -240 4 -284
l-4 -78 -36 6 c-202 31 -784 94 -1132 121 -1064 82 -2214 93 -3255 29 -2596
-157 -4819 -765 -6500 -1777 -842 -507 -1576 -1137 -2145 -1842 -692 -858
-1170 -1815 -1480 -2960 -302 -1118 -460 -2247 -460 -3295 0 -2368 777 -4473
2279 -6174 164 -186 527 -553 721 -729 1216 -1104 2722 -1911 4335 -2322 484
-123 979 -207 1485 -251 249 -22 1165 -31 1494 -15 2242 109 4045 752 5541
1976 431 353 881 800 1280 1270 112 132 326 397 370 458 18 24 32 29 130 46
l109 19 486 -443 c267 -243 1031 -940 1699 -1548 l1215 -1107 2538 0 2538 0 0
10133 c0 6485 -4 10235 -10 10417 -37 1059 -207 2008 -535 2985 -420 1255
-1065 2402 -1925 3425 -387 460 -879 948 -1340 1330 -1421 1175 -3102 1949
-4883 2250 -741 125 -1350 161 -2382 140z m-1670 -18104 c290 -21 503 -41 765
-72 262 -30 683 -93 691 -102 4 -4 28 -603 53 -1332 25 -729 48 -1361 51
-1405 l6 -80 -198 -132 c-588 -389 -1102 -666 -1652 -890 -319 -130 -764 -261
-1071 -317 -292 -53 -386 -61 -715 -61 -326 0 -412 7 -628 51 -1060 214 -1767
1028 -1767 2034 0 624 281 1206 785 1628 406 341 1029 559 1850 651 155 17
260 26 555 45 149 10 1071 -4 1275 -18z"/>
<path d="M360 31635 l0 -14935 5720 0 5720 0 0 14935 0 14935 -5720 0 -5720 0
0 -14935z"/>
<path d="M49060 31635 l0 -14935 5715 0 5715 0 0 14935 0 14935 -5715 0 -5715
0 0 -14935z"/>
<path d="M120424 11569 c-313 -35 -554 -298 -554 -606 0 -180 53 -307 185
-439 88 -89 177 -141 295 -170 97 -25 282 -15 372 18 190 71 331 215 389 398
30 92 37 254 14 340 -79 303 -373 495 -701 459z"/>
<path d="M128724 11569 c-147 -16 -276 -83 -385 -196 -149 -157 -202 -360
-149 -567 29 -114 73 -189 165 -281 87 -88 177 -140 291 -169 79 -20 239 -20
323 -1 167 40 326 165 400 317 54 110 71 182 71 298 0 175 -49 291 -174 415
-146 145 -329 207 -542 184z"/>
<path d="M131677 11573 c-4 -3 -7 -2058 -7 -4565 l0 -4558 435 0 435 0 0 918
c0 504 4 922 8 928 19 27 1506 1387 1519 1388 7 0 597 -726 1311 -1614 l1297
-1615 533 -3 c292 -1 532 0 532 2 0 3 -667 848 -1481 1878 -815 1030 -1494
1889 -1510 1909 l-28 35 1363 1301 c749 716 1370 1311 1380 1322 l19 21 -539
-1 -539 0 -1924 -1760 c-1058 -967 -1927 -1759 -1932 -1759 -5 0 -9 1330 -9
3090 l0 3090 -428 0 c-236 0 -432 -3 -435 -7z"/>
<path d="M178500 7015 l0 -4565 435 0 435 0 0 1774 c0 1180 4 1818 11 1903 95
1137 744 1860 1813 2024 170 27 525 36 703 20 472 -44 840 -197 1120 -464 293
-280 459 -643 536 -1167 21 -143 21 -171 24 -2117 l4 -1973 434 0 435 0 0
1938 c0 1925 -3 2107 -35 2352 -140 1060 -688 1772 -1596 2074 -563 187 -1292
205 -1914 46 -634 -162 -1145 -506 -1484 -999 l-51 -75 0 1897 0 1897 -435 0
-435 0 0 -4565z"/>
<path d="M198015 11569 c-311 -31 -565 -304 -565 -609 0 -156 71 -322 185
-436 58 -58 91 -81 166 -117 52 -25 118 -50 147 -56 76 -16 226 -13 302 5 175
41 332 166 408 325 53 110 67 173 66 294 0 201 -92 372 -259 484 -138 92 -281
127 -450 110z"/>
<path d="M206320 11569 c-151 -16 -279 -77 -385 -184 -122 -122 -179 -260
-178 -430 2 -265 161 -486 421 -583 90 -33 275 -43 372 -18 179 45 334 168
410 327 70 147 87 290 50 433 -28 110 -74 190 -156 272 -135 137 -335 205
-534 183z"/>
<path d="M209260 7015 l0 -4565 435 0 435 0 0 923 0 923 707 649 c389 358 732
673 763 702 l56 52 1304 -1625 1305 -1624 533 0 534 0 -30 38 c-16 20 -696
880 -1511 1910 -814 1030 -1481 1875 -1481 1877 0 3 2494 2389 2707 2590 l58
54 -540 1 -541 0 -1929 -1764 -1930 -1763 -3 3093 -2 3094 -435 0 -435 0 0
-4565z"/>
<path d="M246220 7015 l0 -4565 435 0 434 0 4 1848 c3 1690 5 1857 20 1962 76
500 221 863 467 1169 321 399 773 640 1365 728 172 25 641 25 805 0 443 -69
747 -212 1011 -476 270 -270 426 -601 498 -1052 39 -244 41 -341 41 -2286 l0
-1893 435 0 435 0 0 1958 c0 1950 -2 2092 -35 2342 -156 1176 -832 1931 -1925
2150 -545 109 -1162 85 -1682 -66 -233 -68 -478 -176 -678 -299 -271 -168
-531 -415 -709 -674 l-51 -75 0 1897 0 1897 -435 0 -435 0 0 -4565z"/>
<path d="M115220 9625 l0 -705 -580 0 -580 0 0 -370 0 -370 580 0 580 0 3
-2107 c2 -1943 4 -2116 20 -2208 129 -748 522 -1205 1196 -1391 216 -59 370
-78 656 -78 281 -1 394 12 620 69 279 70 559 205 717 345 l41 36 -153 311
-152 311 -64 -49 c-244 -184 -550 -279 -903 -279 -221 0 -457 52 -601 132
-279 154 -446 424 -495 795 -13 98 -15 394 -15 2113 l0 2000 983 2 982 3 3
368 2 367 -985 0 -985 0 0 705 0 705 -435 0 -435 0 0 -705z"/>
<path d="M123520 9625 l0 -705 -580 0 -580 0 0 -370 0 -370 580 0 580 0 3
-2097 c2 -1956 4 -2105 20 -2203 73 -428 209 -726 445 -971 267 -279 604 -434
1082 -500 147 -21 547 -18 695 5 258 39 489 112 695 217 116 60 310 194 310
215 0 6 -68 149 -151 318 l-151 306 -46 -39 c-211 -176 -517 -278 -862 -288
-397 -12 -673 84 -885 309 -97 103 -156 204 -206 352 -79 233 -73 47 -76 2334
l-3 2042 985 0 985 0 0 370 0 370 -985 0 -985 0 0 705 0 705 -435 0 -435 0 0
-705z"/>
<path d="M142430 9625 l0 -705 -575 0 -575 0 0 -370 0 -370 575 0 575 0 0
-1927 c0 -1061 5 -2009 10 -2109 18 -357 78 -612 206 -869 243 -489 693 -780
1344 -867 145 -19 548 -16 690 5 139 21 332 68 449 109 178 62 416 194 524
289 l38 34 -152 312 -152 311 -64 -49 c-187 -143 -435 -238 -703 -270 -127
-14 -383 -6 -490 16 -406 83 -661 320 -769 715 -52 190 -51 122 -51 2288 l0
2012 980 0 980 0 0 370 0 370 -980 0 -980 0 0 705 0 705 -440 0 -440 0 0 -705z"/>
<path d="M192800 9625 l0 -705 -575 0 -575 0 0 -370 0 -370 575 0 574 0 4
-2082 c3 -2078 3 -2083 24 -2213 41 -244 86 -398 168 -571 155 -329 377 -555
700 -714 298 -146 575 -204 985 -205 379 0 657 53 959 184 165 72 420 240 413
272 -6 24 -295 609 -301 609 -3 0 -38 -24 -76 -53 -225 -169 -544 -266 -875
-267 -621 -1 -991 289 -1102 865 -22 110 -22 117 -25 2143 l-4 2032 986 0 985
0 0 370 0 370 -985 0 -985 0 0 705 0 705 -435 0 -435 0 0 -705z"/>
<path d="M201100 9625 l0 -705 -575 0 -575 0 0 -370 0 -370 575 0 574 0 4
-2067 c4 -2191 2 -2120 52 -2368 90 -450 320 -815 656 -1040 329 -221 770
-329 1269 -312 349 13 651 83 926 217 105 51 251 144 317 202 l38 33 -153 311
-153 311 -67 -51 c-181 -139 -434 -236 -698 -267 -154 -17 -397 -6 -530 24
-434 102 -693 397 -765 872 -13 86 -15 374 -15 2118 l0 2017 980 0 980 0 0
370 0 370 -980 0 -980 0 0 705 0 705 -440 0 -440 0 0 -705z"/>
<path d="M149306 8960 c-1110 -82 -2032 -679 -2527 -1635 -190 -366 -303 -746
-361 -1215 -18 -143 -18 -709 0 -850 83 -657 293 -1179 665 -1660 103 -132
339 -370 477 -480 622 -496 1439 -751 2330 -727 798 22 1471 251 2020 687 119
94 372 346 368 365 -2 7 -111 137 -242 289 l-240 276 -95 -98 c-518 -531
-1270 -799 -2086 -742 -404 27 -729 112 -1060 275 -473 233 -829 593 -1055
1068 -118 247 -202 555 -225 825 l-8 82 2706 0 2705 0 7 148 c33 641 -129
1351 -426 1875 -485 854 -1298 1385 -2299 1502 -166 19 -495 27 -654 15z m614
-765 c418 -64 794 -225 1100 -472 41 -34 125 -112 186 -174 363 -373 582 -858
647 -1436 l5 -43 -2295 0 -2295 0 7 68 c12 117 53 324 89 448 113 389 300 709
575 985 378 379 842 589 1421 643 95 9 458 -4 560 -19z"/>
<path d="M157560 8964 c-970 -59 -1729 -455 -2184 -1139 l-66 -99 0 597 0 597
-415 0 -415 0 0 -3235 0 -3235 435 0 434 0 4 1858 c3 2036 0 1904 62 2202 121
571 424 1033 865 1318 276 179 632 297 1018 338 182 20 564 14 717 -10 415
-66 734 -212 983 -450 334 -320 513 -769 552 -1386 6 -103 10 -857 10 -2017
l0 -1853 435 0 435 0 0 1918 c0 1909 -3 2116 -36 2367 -164 1283 -942 2062
-2204 2210 -134 15 -504 26 -630 19z"/>
<path d="M165205 8963 c-891 -53 -1636 -369 -2191 -929 -469 -473 -754 -1083
-840 -1794 -24 -198 -24 -590 0 -790 86 -722 374 -1335 856 -1820 510 -513
1156 -813 1960 -912 162 -20 691 -17 855 5 879 118 1575 516 2024 1157 l53 75
-5 -585 c-4 -637 -9 -712 -67 -1002 -138 -688 -505 -1154 -1097 -1392 -246
-98 -525 -159 -868 -187 -183 -15 -686 -6 -855 15 -787 100 -1460 370 -1964
790 l-79 66 -221 -331 -221 -332 55 -49 c269 -241 662 -467 1095 -628 997
-371 2355 -420 3284 -118 1121 364 1709 1234 1801 2663 6 103 10 1209 10 3107
l0 2948 -415 0 -415 0 -2 -622 -3 -621 -46 69 c-347 522 -906 914 -1568 1099
-338 94 -778 140 -1136 118z m485 -763 c381 -29 683 -108 995 -260 694 -337
1142 -978 1240 -1770 9 -74 15 -205 15 -325 0 -120 -6 -251 -15 -325 -123
-995 -796 -1743 -1780 -1975 -227 -54 -370 -69 -660 -69 -290 0 -433 15 -660
69 -878 207 -1521 839 -1720 1690 -53 225 -60 301 -60 615 0 318 11 417 71
650 54 206 157 452 264 625 158 257 390 496 650 670 451 302 1061 450 1660
405z"/>
<path d="M173285 8964 c-863 -53 -1560 -272 -2155 -675 -125 -85 -256 -187
-253 -197 2 -10 374 -625 383 -636 5 -4 43 21 87 56 435 359 1025 595 1683
674 198 24 587 24 760 0 453 -61 778 -203 1020 -446 182 -181 305 -404 374
-676 49 -194 58 -279 63 -631 l5 -332 -1233 -4 c-1323 -4 -1307 -4 -1627 -57
-745 -126 -1262 -453 -1511 -954 -96 -193 -147 -376 -171 -605 -36 -361 22
-704 170 -1006 241 -491 706 -831 1355 -991 547 -135 1241 -122 1771 31 530
154 952 449 1222 855 l57 85 3 -503 2 -502 415 0 416 0 -4 2178 c-3 2390 1
2227 -63 2542 -211 1048 -920 1649 -2096 1775 -139 15 -552 27 -673 19z m1965
-4046 l0 -533 -63 -130 c-122 -250 -251 -431 -433 -605 -302 -291 -656 -460
-1129 -542 -115 -20 -165 -22 -430 -23 -335 0 -424 10 -660 70 -324 83 -574
231 -741 438 -190 237 -270 570 -219 911 79 526 476 835 1180 920 72 9 148 17
170 19 22 2 554 4 1183 5 l1142 2 0 -532z"/>
<path d="M222345 8963 c-33 -2 -127 -10 -210 -19 -805 -83 -1506 -413 -2030
-955 -142 -147 -224 -249 -346 -432 -466 -699 -640 -1625 -478 -2537 158 -891
659 -1649 1399 -2115 144 -91 429 -232 585 -289 642 -237 1367 -290 2040 -150
740 154 1348 549 1730 1124 25 38 44 74 40 79 -6 10 -620 430 -634 434 -4 1
-42 -43 -83 -98 -295 -391 -733 -668 -1230 -779 -206 -46 -336 -59 -573 -60
-368 0 -661 52 -965 171 -317 124 -565 288 -801 529 -416 426 -644 982 -678
1653 -54 1050 385 1924 1196 2380 252 142 568 243 893 287 153 21 510 24 655
5 433 -55 827 -215 1134 -461 116 -93 293 -274 380 -390 35 -47 69 -84 75 -82
20 6 635 427 636 435 0 4 -27 48 -60 97 -284 423 -690 747 -1184 945 -437 175
-960 255 -1491 228z"/>
<path d="M228971 8959 c-638 -46 -1206 -258 -1706 -638 -126 -95 -409 -376
-505 -501 -385 -500 -605 -1062 -682 -1745 -19 -170 -16 -639 5 -815 130
-1059 658 -1892 1520 -2399 499 -292 1084 -450 1742 -468 762 -21 1464 165
2015 532 75 50 172 119 215 155 92 74 279 253 336 321 l39 46 -245 281 -245
281 -88 -91 c-354 -368 -850 -625 -1377 -712 -359 -60 -777 -54 -1118 14 -212
43 -491 137 -660 222 -278 139 -549 352 -735 575 -298 357 -477 778 -537 1262
-8 68 -12 127 -9 132 3 5 1153 9 2705 9 1484 0 2699 3 2699 8 1 4 5 66 9 137
10 151 -2 445 -24 625 -170 1348 -1020 2356 -2255 2672 -350 89 -734 123
-1099 97z m474 -749 c310 -29 550 -94 815 -221 682 -328 1129 -968 1245 -1781
8 -57 15 -111 15 -120 0 -17 -116 -18 -2295 -18 l-2295 0 5 38 c20 154 41 270
65 370 205 835 794 1450 1590 1661 271 72 575 97 855 71z"/>
<path d="M237110 8959 c-329 -22 -675 -95 -931 -194 -509 -200 -876 -518
-1139 -991 l-60 -109 0 628 0 627 -420 0 -420 0 0 -3235 0 -3235 435 0 435 0
0 1688 c0 1058 4 1747 10 1847 43 660 241 1176 593 1541 261 272 538 431 922
529 224 57 339 70 618 70 l247 0 0 423 0 422 -82 -1 c-46 -1 -139 -6 -208 -10z"/>
<path d="M240936 8960 c-852 -56 -1631 -324 -2209 -759 -153 -114 -160 -61 58
-423 104 -172 191 -317 195 -321 4 -5 47 24 96 63 231 186 526 352 829 465
685 256 1486 294 2065 98 426 -144 743 -453 889 -866 85 -242 102 -360 108
-774 l5 -342 -1233 -4 c-1322 -4 -1308 -4 -1624 -57 -845 -143 -1393 -541
-1600 -1162 -163 -492 -108 -1089 140 -1506 375 -630 1139 -982 2131 -982 972
0 1744 349 2162 978 l57 85 3 -501 2 -502 415 0 416 0 -4 2187 c-3 2401 1
2226 -62 2538 -196 970 -836 1568 -1865 1739 -261 44 -698 64 -974 46z m2034
-4042 l0 -533 -44 -96 c-95 -213 -249 -437 -413 -603 -313 -316 -691 -501
-1190 -582 -155 -25 -554 -30 -733 -10 -517 59 -898 248 -1112 551 -164 231
-230 537 -183 849 21 137 49 225 106 336 184 352 584 556 1199 609 52 5 607 9
1233 10 l1137 1 0 -532z"/>
<path d="M120060 5685 l0 -3235 435 0 435 0 0 3235 0 3235 -435 0 -435 0 0
-3235z"/>
<path d="M128360 5685 l0 -3235 440 0 440 0 0 3235 0 3235 -440 0 -440 0 0
-3235z"/>
<path d="M197650 5685 l0 -3235 435 0 435 0 0 3235 0 3235 -435 0 -435 0 0
-3235z"/>
<path d="M205950 5685 l0 -3235 435 0 435 0 0 3235 0 3235 -435 0 -435 0 0
-3235z"/>
<path d="M186790 3716 c-237 -50 -410 -207 -487 -441 -22 -69 -26 -98 -27
-205 0 -89 5 -144 17 -190 50 -184 163 -325 325 -402 50 -23 91 -46 92 -50 0
-4 -92 -400 -205 -881 -113 -481 -205 -877 -205 -881 0 -3 132 -6 293 -6 l293
0 228 753 c126 413 268 874 317 1022 115 351 129 410 136 571 7 161 -10 250
-70 374 -50 103 -158 218 -252 267 -135 71 -316 98 -455 69z"/>
</g>
</svg>
