<svg width="219" height="31" viewBox="0 0 219 31" fill="none" xmlns="http://www.w3.org/2000/svg">
<path d="M19.6 23.84C19.08 24.24 18.56 24.44 18.12 24.44C16.84 24.44 16.2 22.84 16.2 20.32C16.2 16.96 17.28 11.6 17.28 8.52C17.28 4.8 15.68 1.32 10.48 1.32C4.6 1.32 2.12 5.8 2.12 9.32C2.12 11.44 2.96 13.24 4.52 13.72C5.32 11 6.44 7.76 9.04 7.76C10.28 7.76 10.76 8.44 10.76 9.64C10.76 12.36 8.36 12.76 5.48 15C3.12 16.8 0.84 19.48 0.84 23.2C0.84 27.16 3.44 30.44 7.04 30.44C8.6 30.44 10.28 29.84 11.96 28.36C13 29.72 14.2 30.24 15.28 30.24C17.56 30.24 19.64 27.8 19.64 24.68C19.64 24.4 19.64 24.12 19.6 23.84ZM10.56 17.52C10.56 17.8 10.6 18.24 10.6 18.76C10.6 20.64 10.04 24.04 8.4 24.04C7.76 24.04 7.28 23.56 7.28 22.52C7.28 20.28 9.6 18.32 10.56 17.52ZM24.6569 9.8C25.4169 12.28 25.6969 15.44 25.6969 18.72C25.6969 22.92 25.2169 27.08 24.4569 30.16C25.7369 30 27.2169 29.92 28.5769 29.92C30.2969 29.92 32.0569 30.04 33.2569 30.04C31.9369 28.36 30.5369 25.56 30.5369 23.72C30.5369 23.16 30.6969 22.48 31.5769 22.48C31.7769 22.48 31.9769 22.52 32.3769 22.52C32.6569 22.52 34.9769 22.48 36.6169 20.64C37.6969 19.48 38.2969 17.8 38.2969 15.68C38.2969 10.4 34.5769 8.16 30.8169 8.16C28.8569 8.16 26.6169 8.8 24.6569 9.8ZM30.7769 19.6C30.6969 19.04 30.6969 18.28 30.6969 17.52C30.6969 15.04 31.2169 13 32.2569 13C32.9769 13 33.4969 14.08 33.4969 15.56C33.4969 16.96 32.8569 18.68 30.7769 19.6ZM44.2912 9.8C45.0512 12.28 45.3312 15.44 45.3312 18.72C45.3312 22.92 44.8512 27.08 44.0912 30.16C45.3712 30 46.8512 29.92 48.2112 29.92C49.9312 29.92 51.6912 30.04 52.8912 30.04C51.5712 28.36 50.1712 25.56 50.1712 23.72C50.1712 23.16 50.3312 22.48 51.2112 22.48C51.4112 22.48 51.6112 22.52 52.0112 22.52C52.2912 22.52 54.6112 22.48 56.2512 20.64C57.3313 19.48 57.9312 17.8 57.9312 15.68C57.9312 10.4 54.2112 8.16 50.4512 8.16C48.4912 8.16 46.2512 8.8 44.2912 9.8ZM50.4112 19.6C50.3312 19.04 50.3312 18.28 50.3312 17.52C50.3312 15.04 50.8512 13 51.8912 13C52.6112 13 53.1312 14.08 53.1312 15.56C53.1312 16.96 52.4912 18.68 50.4112 19.6ZM69.6347 13.16C69.6747 12.6 69.8347 11.88 69.8347 11.2C69.8347 9.52 68.7547 8.56 67.2747 8.56C65.3947 8.56 63.4747 9.6 62.6347 10.88C64.1147 11.4 64.7147 13.12 64.7147 19.48C64.7147 26.28 63.6747 28.08 62.9147 30.16C64.6347 30.08 66.3547 29.96 68.2747 29.96C69.3547 29.96 70.5147 30 71.6747 30.2C70.2747 27.24 69.7147 24.64 69.7147 22.48C69.7147 17.88 72.0347 15.24 73.5547 15.24C73.9947 15.24 74.3947 15.48 74.3947 16.76C74.3947 17.68 74.1947 18.32 73.5947 19.56C76.8347 18.44 78.0747 15.64 78.0747 13.12C78.0747 10.68 76.8747 8.56 74.9547 8.56C73.0747 8.56 71.5147 9.56 69.6347 13.16ZM89.6912 8.32C85.1712 8.32 82.9712 14.2 82.9712 19.44C82.9712 24.12 84.7312 30.28 89.9712 30.28C93.3312 30.28 95.2512 27.8 95.2512 24.4C95.2512 23.28 95.0112 22.32 94.4512 21.72C94.3312 22.84 92.3712 24.64 90.7312 24.64C89.8512 24.64 88.9712 24.12 88.9712 23.16C88.9712 21.08 92.7712 19.68 95.2112 19.52C95.2912 19 95.2912 18.36 95.2912 17.76C95.2912 15.16 94.5712 8.32 89.6912 8.32ZM88.5312 16.32C88.5312 14.96 88.6912 13.36 89.6512 13.36C90.4112 13.36 90.6112 14.4 90.5312 16.04C89.9312 16.36 89.1712 16.88 88.5712 17.36C88.5312 17.08 88.5312 16.68 88.5312 16.32ZM110.081 17C111.721 17 113.481 16.04 113.481 13.36C113.481 10.48 111.521 8.28 108.201 8.28C102.961 8.28 100.921 13.88 100.921 19.08C100.921 25.04 103.601 30.28 108.361 30.28C111.561 30.28 114.521 28 114.521 24.2C114.521 22.32 113.801 20.52 112.241 20C112.161 22.92 111.081 24.24 109.681 24.24C108.041 24.24 106.401 22.48 106.401 18.32C106.401 15.2 107.321 13.08 108.681 13.08C109.641 13.08 110.201 14.24 110.201 15.8C110.201 16.24 110.161 16.64 110.081 17ZM118.441 10.2C120.481 10.96 121.321 14.76 121.321 19.16C121.321 23.28 120.561 27.8 119.321 30.24C120.521 30.12 121.961 30.04 123.601 30.04C125.161 30.04 127.001 30.12 127.841 30.2C126.801 28.44 126.321 27.2 126.321 23.68C126.321 20.64 127.321 16.8 127.321 13.88C127.321 11.04 126.361 8.96 122.681 8.96C121.081 8.96 119.641 9.32 118.441 10.2ZM120.241 3.88C120.241 5.6 121.561 6.88 123.241 6.88C124.921 6.88 126.281 5.6 126.281 3.88C126.281 2.2 124.921 0.879998 123.241 0.879998C121.561 0.879998 120.241 2.2 120.241 3.88ZM147.794 21.4C147.554 22.4 147.114 22.92 146.674 22.92C146.114 22.92 145.554 22.08 145.554 20.24C145.554 18.4 146.114 16.36 146.114 14.68C146.114 11.44 144.074 8.52 140.394 8.52C136.914 8.52 134.074 11.04 134.074 15.92C134.074 16.92 134.234 17.56 134.434 18.32C135.554 16.64 137.394 14.76 139.594 14.76C140.514 14.76 141.314 15.08 141.314 16C141.314 18.84 133.394 18.4 133.394 24.36C133.394 27.44 135.514 30.32 138.514 30.32C139.794 30.32 141.194 29.8 142.194 28.44C142.834 29.64 143.834 30.12 144.834 30.12C147.074 30.12 148.434 27.48 148.434 24.6C148.434 23.48 148.234 22.4 147.794 21.4ZM138.594 23.92C138.594 22.88 139.474 21.64 141.514 20.28C141.514 22.2 140.714 24.8 139.354 24.8C138.834 24.8 138.594 24.44 138.594 23.92ZM161.29 11.6C161.29 8.24 159.45 7.08 156.25 7.08C154.41 7.08 152.49 7.48 151.45 8.48C154.01 10.4 154.57 13.64 154.57 16.8C154.57 19.24 154.25 22.36 154.25 24C154.25 27.88 156.13 30.64 159.01 30.64C162.17 30.64 163.81 27.36 163.81 24.12C163.81 22.6 163.49 21.4 162.65 20.6C162.25 21.48 161.49 23.8 160.37 23.8C159.49 23.8 159.37 22.52 159.37 21.48C159.37 20.32 159.53 18.44 160.09 17.32C163.53 17.16 164.85 16.24 164.85 13.76C163.69 13.88 162.29 14.24 161.01 14.44C161.13 13.52 161.29 12.6 161.29 11.6ZM168.867 10.2C170.907 10.96 171.747 14.76 171.747 19.16C171.747 23.28 170.987 27.8 169.747 30.24C170.947 30.12 172.387 30.04 174.027 30.04C175.587 30.04 177.427 30.12 178.267 30.2C177.227 28.44 176.747 27.2 176.747 23.68C176.747 20.64 177.747 16.8 177.747 13.88C177.747 11.04 176.787 8.96 173.107 8.96C171.507 8.96 170.067 9.32 168.867 10.2ZM170.667 3.88C170.667 5.6 171.987 6.88 173.667 6.88C175.347 6.88 176.707 5.6 176.707 3.88C176.707 2.2 175.347 0.879998 173.667 0.879998C171.987 0.879998 170.667 2.2 170.667 3.88ZM191.021 8.28C185.861 8.28 183.981 14.24 183.981 19.04C183.981 23 185.261 30.24 190.981 30.24C196.461 30.24 197.661 23.68 197.661 19.12C197.661 13.6 195.901 8.28 191.021 8.28ZM189.301 19.16C189.301 15.36 190.141 13.52 191.101 13.52C191.981 13.52 192.661 15 192.661 19.08C192.661 22.56 192.141 24.84 191.061 24.84C189.941 24.84 189.301 22.44 189.301 19.16ZM202.943 10.2C204.183 11.12 204.543 14.64 204.543 18.44C204.543 23.16 204.023 28.28 203.743 30.2C206.023 29.76 208.143 29.76 210.423 29.76C210.303 28.8 209.983 24.48 209.983 21.64C209.983 18.2 210.463 15.16 211.663 15.16C212.343 15.16 212.463 16.28 212.463 17.76C212.463 20.6 212.063 26.2 211.503 30.12C213.663 29.92 215.823 29.84 218.543 29.76C217.863 28.04 217.623 26.24 217.623 24.32C217.623 21.52 218.143 16.84 218.143 14.08C218.143 10.92 217.463 8.44 214.903 8.44C212.623 8.44 211.263 10.48 210.143 12.72C210.223 12.16 210.343 11.6 210.343 11.04C210.343 9.32 209.343 8.52 207.783 8.52C206.183 8.52 204.023 9.4 202.943 10.2Z" fill="#FFC261"/>
</svg>
