<svg width="141" height="31" viewBox="0 0 141 31" fill="none" xmlns="http://www.w3.org/2000/svg">
<path d="M19.6 23.84C19.08 24.24 18.56 24.44 18.12 24.44C16.84 24.44 16.2 22.84 16.2 20.32C16.2 16.96 17.28 11.6 17.28 8.52C17.28 4.8 15.68 1.32 10.48 1.32C4.6 1.32 2.12 5.8 2.12 9.32C2.12 11.44 2.96 13.24 4.52 13.72C5.32 11 6.44 7.76 9.04 7.76C10.28 7.76 10.76 8.44 10.76 9.64C10.76 12.36 8.36 12.76 5.48 15C3.12 16.8 0.84 19.48 0.84 23.2C0.84 27.16 3.44 30.44 7.04 30.44C8.6 30.44 10.28 29.84 11.96 28.36C13 29.72 14.2 30.24 15.28 30.24C17.56 30.24 19.64 27.8 19.64 24.68C19.64 24.4 19.64 24.12 19.6 23.84ZM10.56 17.52C10.56 17.8 10.6 18.24 10.6 18.76C10.6 20.64 10.04 24.04 8.4 24.04C7.76 24.04 7.28 23.56 7.28 22.52C7.28 20.28 9.6 18.32 10.56 17.52ZM32.0847 13.16C32.1247 12.6 32.2847 11.88 32.2847 11.2C32.2847 9.52 31.2047 8.56 29.7247 8.56C27.8447 8.56 25.9247 9.6 25.0847 10.88C26.5647 11.4 27.1647 13.12 27.1647 19.48C27.1647 26.28 26.1247 28.08 25.3647 30.16C27.0847 30.08 28.8047 29.96 30.7247 29.96C31.8047 29.96 32.9647 30 34.1247 30.2C32.7247 27.24 32.1647 24.64 32.1647 22.48C32.1647 17.88 34.4847 15.24 36.0047 15.24C36.4447 15.24 36.8447 15.48 36.8447 16.76C36.8447 17.68 36.6447 18.32 36.0447 19.56C39.2847 18.44 40.5247 15.64 40.5247 13.12C40.5247 10.68 39.3247 8.56 37.4047 8.56C35.5247 8.56 33.9647 9.56 32.0847 13.16ZM54.1478 11.6C54.1478 8.24 52.3078 7.08 49.1078 7.08C47.2678 7.08 45.3478 7.48 44.3078 8.48C46.8678 10.4 47.4278 13.64 47.4278 16.8C47.4278 19.24 47.1078 22.36 47.1078 24C47.1078 27.88 48.9878 30.64 51.8678 30.64C55.0278 30.64 56.6678 27.36 56.6678 24.12C56.6678 22.6 56.3478 21.4 55.5078 20.6C55.1078 21.48 54.3478 23.8 53.2278 23.8C52.3478 23.8 52.2278 22.52 52.2278 21.48C52.2278 20.32 52.3878 18.44 52.9478 17.32C56.3878 17.16 57.7078 16.24 57.7078 13.76C56.5478 13.88 55.1478 14.24 53.8678 14.44C53.9878 13.52 54.1478 12.6 54.1478 11.6ZM61.725 10.2C63.765 10.96 64.605 14.76 64.605 19.16C64.605 23.28 63.845 27.8 62.605 30.24C63.805 30.12 65.245 30.04 66.885 30.04C68.445 30.04 70.285 30.12 71.125 30.2C70.085 28.44 69.605 27.2 69.605 23.68C69.605 20.64 70.605 16.8 70.605 13.88C70.605 11.04 69.645 8.96 65.965 8.96C64.365 8.96 62.925 9.32 61.725 10.2ZM63.525 3.88C63.525 5.6 64.845 6.88 66.525 6.88C68.205 6.88 69.565 5.6 69.565 3.88C69.565 2.2 68.205 0.879998 66.525 0.879998C64.845 0.879998 63.525 2.2 63.525 3.88ZM86.7584 15.64C87.6784 14.6 88.0784 13.52 88.0784 12.56C88.0784 10.04 85.5584 8.24 82.6384 8.24C79.6384 8.24 77.0384 10.12 77.0384 13.68C77.0384 15.28 77.5584 16.72 78.2384 17.88C79.5184 19.96 81.8784 21.8 81.8784 23.52C81.8784 24.28 81.3984 24.92 80.5184 24.92C79.4384 24.92 78.3184 23.92 77.9584 21.64C76.7984 22.4 76.3984 23.6 76.3984 25C76.3984 28.28 78.7184 30.44 82.1184 30.44C85.7184 30.44 88.3184 28.08 88.3184 24.24C88.3184 22.6 87.8384 21.08 87.1184 19.64C85.5584 16.76 83.4384 15.48 83.4384 13.88C83.4384 13.16 83.8784 12.84 84.4384 12.84C85.6784 12.84 86.5984 14.56 86.7584 15.64ZM101.879 11.6C101.879 8.24 100.039 7.08 96.8391 7.08C94.9991 7.08 93.0791 7.48 92.0391 8.48C94.5991 10.4 95.1591 13.64 95.1591 16.8C95.1591 19.24 94.8391 22.36 94.8391 24C94.8391 27.88 96.7191 30.64 99.5991 30.64C102.759 30.64 104.399 27.36 104.399 24.12C104.399 22.6 104.079 21.4 103.239 20.6C102.839 21.48 102.079 23.8 100.959 23.8C100.079 23.8 99.9591 22.52 99.9591 21.48C99.9591 20.32 100.119 18.44 100.679 17.32C104.119 17.16 105.439 16.24 105.439 13.76C104.279 13.88 102.879 14.24 101.599 14.44C101.719 13.52 101.879 12.6 101.879 11.6ZM109.456 10.2C111.496 10.96 112.336 14.76 112.336 19.16C112.336 23.28 111.576 27.8 110.336 30.24C111.536 30.12 112.976 30.04 114.616 30.04C116.176 30.04 118.016 30.12 118.856 30.2C117.816 28.44 117.336 27.2 117.336 23.68C117.336 20.64 118.336 16.8 118.336 13.88C118.336 11.04 117.376 8.96 113.696 8.96C112.096 8.96 110.656 9.32 109.456 10.2ZM111.256 3.88C111.256 5.6 112.576 6.88 114.256 6.88C115.936 6.88 117.296 5.6 117.296 3.88C117.296 2.2 115.936 0.879998 114.256 0.879998C112.576 0.879998 111.256 2.2 111.256 3.88ZM124.73 1.84C125.65 4.08 126.09 9.92 126.09 14.44C126.09 19.36 125.57 24.56 124.41 29.8C126.85 29.8 129.29 30.04 131.97 30.2C131.25 28.48 130.73 26.48 130.73 24.56C130.73 24.16 130.73 23.72 130.81 23.36C132.09 26.12 134.33 30.88 137.37 30.88C139.53 30.88 140.85 28.44 140.85 25.92C140.85 24.56 140.45 23.28 139.73 22.52C139.61 23.88 139.13 24.36 138.65 24.36C137.33 24.36 135.41 21.36 135.17 19.84C137.45 18.76 139.53 17.16 139.53 14.6C139.53 12.72 138.41 11.96 137.33 11.32C136.01 10.52 134.93 9.84 134.93 8.16C134.93 7.84 134.97 7.4 135.09 7C132.97 8.28 132.37 9.92 132.37 11.24C132.37 13.12 133.57 13.32 133.57 15.36C133.57 17.2 132.49 18.2 130.85 19C131.01 14.12 131.29 12.76 132.17 9.12C132.73 6.72 132.97 5.76 132.97 4.8C132.97 2.12 131.33 1.04 128.53 1.04C127.21 1.04 126.09 1.28 124.73 1.84Z" fill="#FFC261"/>
</svg>
