<svg width="180" height="30" viewBox="0 0 180 30" fill="none" xmlns="http://www.w3.org/2000/svg">
<path d="M1.32 0.559999C2.2 3.76 2.6 8.2 2.6 12.76C2.6 19.08 1.88 25.36 0.8 29.08C2.2 29.16 3.56 29.2 4.76 29.2C13.24 29.2 17.44 27.4 17.44 20.76C17.44 17.36 15.8 14.64 12.64 13.04C14.84 11.88 16.24 9.16 16.24 6.48C16.24 2.04 12.64 0.439998 9.36 0.439998C8.04 0.439998 5.4 0.719999 3.56 0.719999C2.84 0.719999 2.08 0.639998 1.32 0.559999ZM8.36 11.76C8.24 11.08 8.08 10.08 8.08 8.96C8.08 7.2 8.4 5.04 9.6 5.04C10.2 5.04 10.64 5.52 10.64 6.84C10.64 8.92 9.52 10.68 8.36 11.76ZM11.4 20.76C11.4 21.96 11.16 23.24 10.24 23.24C8.8 23.24 8.32 20.4 8.32 17.92C8.32 16.92 8.4 15.84 8.56 15.4C9.92 15.64 11.4 17.88 11.4 20.76ZM29.5772 7.32C25.0572 7.32 22.8572 13.2 22.8572 18.44C22.8572 23.12 24.6172 29.28 29.8572 29.28C33.2172 29.28 35.1372 26.8 35.1372 23.4C35.1372 22.28 34.8972 21.32 34.3372 20.72C34.2172 21.84 32.2572 23.64 30.6172 23.64C29.7372 23.64 28.8572 23.12 28.8572 22.16C28.8572 20.08 32.6572 18.68 35.0972 18.52C35.1772 18 35.1772 17.36 35.1772 16.76C35.1772 14.16 34.4572 7.32 29.5772 7.32ZM28.4172 15.32C28.4172 13.96 28.5772 12.36 29.5372 12.36C30.2972 12.36 30.4972 13.4 30.4172 15.04C29.8172 15.36 29.0572 15.88 28.4572 16.36C28.4172 16.08 28.4172 15.68 28.4172 15.32ZM40.2184 9.2C41.4584 10.12 41.8184 13.64 41.8184 17.44C41.8184 22.16 41.2984 27.28 41.0184 29.2C43.2984 28.76 45.4184 28.76 47.6984 28.76C47.5784 27.8 47.2584 23.48 47.2584 20.64C47.2584 17.2 47.7384 14.16 48.9384 14.16C49.6184 14.16 49.7384 15.28 49.7384 16.76C49.7384 19.6 49.3384 25.2 48.7784 29.12C50.9384 28.92 53.0984 28.84 55.8184 28.76C55.1384 27.04 54.8984 25.24 54.8984 23.32C54.8984 20.52 55.4184 15.84 55.4184 13.08C55.4184 9.92 54.7384 7.44 52.1784 7.44C49.8984 7.44 48.5384 9.48 47.4184 11.72C47.4984 11.16 47.6184 10.6 47.6184 10.04C47.6184 8.32 46.6184 7.52 45.0584 7.52C43.4584 7.52 41.2984 8.4 40.2184 9.2ZM78.9706 22.96C78.5706 23.44 78.2906 23.64 77.8506 23.64C76.4106 23.64 75.8506 20.96 75.8506 18.04C75.8506 12.96 77.4906 8.4 77.4906 4.92C77.4906 1.36 75.8106 0.079998 72.6906 0.079998C70.9306 0.079998 69.3706 0.479998 68.3706 1.08C71.0106 2.2 71.7706 4.48 71.7706 7.12C71.7706 8.4 71.6106 9.6 71.4506 10.68C70.4506 8.8 68.8906 7.72 67.2506 7.72C63.5706 7.72 61.9306 13.4 61.9306 18.36C61.9306 24.28 63.7706 29.36 68.0506 29.36C69.6106 29.36 71.0106 28.64 71.9306 27.36C72.4506 29.04 73.5306 29.72 74.7306 29.72C76.8906 29.72 79.4106 27.52 79.4106 24.92C79.4106 24.28 79.2906 23.6 78.9706 22.96ZM67.6906 19.24C67.6906 15.96 68.2506 13 69.4506 13C70.4906 13 70.8106 15.6 70.8106 17.84C70.8106 20.56 70.3306 24.24 69.0906 24.24C68.2506 24.24 67.6906 22.52 67.6906 19.24ZM98.93 20.4C98.69 21.4 98.25 21.92 97.81 21.92C97.25 21.92 96.69 21.08 96.69 19.24C96.69 17.4 97.25 15.36 97.25 13.68C97.25 10.44 95.21 7.52 91.53 7.52C88.05 7.52 85.21 10.04 85.21 14.92C85.21 15.92 85.37 16.56 85.57 17.32C86.69 15.64 88.53 13.76 90.73 13.76C91.65 13.76 92.45 14.08 92.45 15C92.45 17.84 84.53 17.4 84.53 23.36C84.53 26.44 86.65 29.32 89.65 29.32C90.93 29.32 92.33 28.8 93.33 27.44C93.97 28.64 94.97 29.12 95.97 29.12C98.21 29.12 99.57 26.48 99.57 23.6C99.57 22.48 99.37 21.4 98.93 20.4ZM89.73 22.92C89.73 21.88 90.61 20.64 92.65 19.28C92.65 21.2 91.85 23.8 90.49 23.8C89.97 23.8 89.73 23.44 89.73 22.92ZM104.281 1.2C105.481 2.56 106.401 4.8 106.401 11.68C106.401 17.4 105.761 25.12 104.641 29.08C106.681 28.92 108.681 28.6 110.681 28.6C111.081 28.6 111.481 28.6 111.881 28.64C111.521 27 111.401 25.48 111.401 23.56C111.401 17.32 112.721 14.08 113.521 14.08C113.881 14.08 114.241 14.72 114.241 17.48C114.241 21.16 113.561 25.28 112.801 29.16C113.921 29 115.001 28.92 116.121 28.92C117.281 28.92 119.081 29 120.241 29.2C119.521 27.72 119.281 26.2 119.281 24.6C119.281 21.88 119.961 16.32 119.961 13.52C119.961 10.52 118.601 7.52 116.161 7.52C113.881 7.52 112.401 10.16 111.481 13.2C111.761 11.32 112.601 8.12 112.601 5C112.601 2.04 111.881 0.119998 108.721 0.119998C107.201 0.119998 105.641 0.559999 104.281 1.2ZM139.878 20.4C139.638 21.4 139.198 21.92 138.758 21.92C138.198 21.92 137.638 21.08 137.638 19.24C137.638 17.4 138.198 15.36 138.198 13.68C138.198 10.44 136.158 7.52 132.478 7.52C128.998 7.52 126.158 10.04 126.158 14.92C126.158 15.92 126.318 16.56 126.518 17.32C127.638 15.64 129.478 13.76 131.678 13.76C132.598 13.76 133.398 14.08 133.398 15C133.398 17.84 125.478 17.4 125.478 23.36C125.478 26.44 127.598 29.32 130.598 29.32C131.878 29.32 133.278 28.8 134.278 27.44C134.918 28.64 135.918 29.12 136.918 29.12C139.158 29.12 140.518 26.48 140.518 23.6C140.518 22.48 140.318 21.4 139.878 20.4ZM130.678 22.92C130.678 21.88 131.558 20.64 133.598 19.28C133.598 21.2 132.798 23.8 131.438 23.8C130.918 23.8 130.678 23.44 130.678 22.92ZM151.649 12.16C151.689 11.6 151.849 10.88 151.849 10.2C151.849 8.52 150.769 7.56 149.289 7.56C147.409 7.56 145.489 8.6 144.649 9.88C146.129 10.4 146.729 12.12 146.729 18.48C146.729 25.28 145.689 27.08 144.929 29.16C146.649 29.08 148.369 28.96 150.289 28.96C151.369 28.96 152.529 29 153.689 29.2C152.289 26.24 151.729 23.64 151.729 21.48C151.729 16.88 154.049 14.24 155.569 14.24C156.009 14.24 156.409 14.48 156.409 15.76C156.409 16.68 156.209 17.32 155.609 18.56C158.849 17.44 160.089 14.64 160.089 12.12C160.089 9.68 158.889 7.56 156.969 7.56C155.089 7.56 153.529 8.56 151.649 12.16ZM179.069 20.4C178.829 21.4 178.389 21.92 177.949 21.92C177.389 21.92 176.829 21.08 176.829 19.24C176.829 17.4 177.389 15.36 177.389 13.68C177.389 10.44 175.349 7.52 171.669 7.52C168.189 7.52 165.349 10.04 165.349 14.92C165.349 15.92 165.509 16.56 165.709 17.32C166.829 15.64 168.669 13.76 170.869 13.76C171.789 13.76 172.589 14.08 172.589 15C172.589 17.84 164.669 17.4 164.669 23.36C164.669 26.44 166.789 29.32 169.789 29.32C171.069 29.32 172.469 28.8 173.469 27.44C174.109 28.64 175.109 29.12 176.109 29.12C178.349 29.12 179.709 26.48 179.709 23.6C179.709 22.48 179.509 21.4 179.069 20.4ZM169.869 22.92C169.869 21.88 170.749 20.64 172.789 19.28C172.789 21.2 171.989 23.8 170.629 23.8C170.109 23.8 169.869 23.44 169.869 22.92Z" fill="#FFC261"/>
</svg>
