<svg width="284" height="31" viewBox="0 0 284 31" fill="none" xmlns="http://www.w3.org/2000/svg">
<path d="M0.76 1.32C1.96 5.4 2.6 11.04 2.6 16.6C2.6 21.6 2.08 26.6 1.04 30.4C5.96 29.4 11.96 30.4 15.52 26.04C17.44 23.64 18.28 20 18.28 16.32C18.28 10.88 16.48 6.56 13.68 4.2C10.2 1.24 6.44 2.6 0.76 1.32ZM11.68 17.8C11.68 21.8 11 24.12 10 24.12C8.24 24.12 8.12 15.64 8.12 13.16C8.12 10.76 8.24 7.68 9.4 7.68C11.12 7.68 11.68 14.12 11.68 17.8ZM24.175 10.2C26.215 10.96 27.055 14.76 27.055 19.16C27.055 23.28 26.295 27.8 25.055 30.24C26.255 30.12 27.695 30.04 29.335 30.04C30.895 30.04 32.735 30.12 33.575 30.2C32.535 28.44 32.055 27.2 32.055 23.68C32.055 20.64 33.055 16.8 33.055 13.88C33.055 11.04 32.095 8.96 28.415 8.96C26.815 8.96 25.375 9.32 24.175 10.2ZM25.975 3.88C25.975 5.6 27.295 6.88 28.975 6.88C30.655 6.88 32.015 5.6 32.015 3.88C32.015 2.2 30.655 0.879998 28.975 0.879998C27.295 0.879998 25.975 2.2 25.975 3.88ZM50.2484 6.88C48.3684 7.76 47.2084 10.16 47.2084 12.08C47.2084 14.48 49.0484 16.24 49.0484 19.28C49.0484 21.44 48.1284 22.2 47.1684 24.24C47.7284 22.04 47.8084 20.32 47.8084 19.6C47.8084 17.24 46.9684 16.04 45.4484 14.32C44.6084 13.36 43.6084 12.2 43.6084 10.56C43.6084 9.84 43.8084 9.08 44.1684 8.28C43.9684 8.2 43.8084 8.16 43.5284 8.16C40.6884 8.16 39.1284 11.84 39.1284 14.52C39.1284 16.6 40.0884 19.24 41.3284 21.12C42.9284 23.56 43.8084 24.96 43.8084 26.76C43.8084 28.12 43.2884 29.08 42.6484 30.12C44.0484 29.92 45.4484 29.88 46.8884 29.88C48.2884 29.88 49.6884 29.88 51.0884 29.96C50.4884 28.68 50.1684 27.48 50.1684 26.4C50.1684 22.44 54.3684 20.6 54.3684 15.56C54.3684 10.44 50.0084 10.96 50.0084 8.04C50.0084 7.76 50.0484 7.32 50.2484 6.88ZM58.5609 10.2C60.6009 10.96 61.4409 14.76 61.4409 19.16C61.4409 23.28 60.6809 27.8 59.4409 30.24C60.6409 30.12 62.0809 30.04 63.7209 30.04C65.2809 30.04 67.1209 30.12 67.9609 30.2C66.9209 28.44 66.4409 27.2 66.4409 23.68C66.4409 20.64 67.4409 16.8 67.4409 13.88C67.4409 11.04 66.4809 8.96 62.8009 8.96C61.2009 8.96 59.7609 9.32 58.5609 10.2ZM60.3609 3.88C60.3609 5.6 61.6809 6.88 63.3609 6.88C65.0409 6.88 66.4009 5.6 66.4009 3.88C66.4009 2.2 65.0409 0.879998 63.3609 0.879998C61.6809 0.879998 60.3609 2.2 60.3609 3.88ZM83.5944 15.64C84.5144 14.6 84.9144 13.52 84.9144 12.56C84.9144 10.04 82.3944 8.24 79.4744 8.24C76.4744 8.24 73.8744 10.12 73.8744 13.68C73.8744 15.28 74.3944 16.72 75.0744 17.88C76.3544 19.96 78.7144 21.8 78.7144 23.52C78.7144 24.28 78.2344 24.92 77.3544 24.92C76.2744 24.92 75.1544 23.92 74.7944 21.64C73.6344 22.4 73.2344 23.6 73.2344 25C73.2344 28.28 75.5544 30.44 78.9544 30.44C82.5544 30.44 85.1544 28.08 85.1544 24.24C85.1544 22.6 84.6744 21.08 83.9544 19.64C82.3944 16.76 80.2744 15.48 80.2744 13.88C80.2744 13.16 80.7144 12.84 81.2744 12.84C82.5144 12.84 83.4344 14.56 83.5944 15.64ZM90.2516 10.2C92.2916 10.96 93.1316 14.76 93.1316 19.16C93.1316 23.28 92.3716 27.8 91.1316 30.24C92.3316 30.12 93.7716 30.04 95.4116 30.04C96.9716 30.04 98.8116 30.12 99.6516 30.2C98.6116 28.44 98.1316 27.2 98.1316 23.68C98.1316 20.64 99.1316 16.8 99.1316 13.88C99.1316 11.04 98.1716 8.96 94.4916 8.96C92.8916 8.96 91.4516 9.32 90.2516 10.2ZM92.0516 3.88C92.0516 5.6 93.3716 6.88 95.0516 6.88C96.7316 6.88 98.0916 5.6 98.0916 3.88C98.0916 2.2 96.7316 0.879998 95.0516 0.879998C93.3716 0.879998 92.0516 2.2 92.0516 3.88ZM120.84 1.64C121.32 4.76 121.6 7.96 121.6 11.48C121.6 17.36 120.88 24 119.88 29.92C121.44 29.8 123.04 29.76 124.52 29.76C126.56 29.76 128.04 29.84 129.92 29.84C128.44 27.16 126.92 24.28 126.92 20.4C126.92 19.76 126.96 19.72 129.92 19C133.64 18.04 136.84 15.2 136.84 9.6C136.84 2.56 131.76 1.48 127.2 1.48C125.48 1.48 123.2 1.64 120.84 1.64ZM127.48 14.84C127.36 13.72 127.36 12.48 127.36 11.36C127.36 9.84 127.88 7.36 129 7.36C129.8 7.36 130.44 8.72 130.44 10.4C130.44 12.4 129.52 14.28 127.48 14.84ZM148.268 8.32C143.748 8.32 141.548 14.2 141.548 19.44C141.548 24.12 143.308 30.28 148.548 30.28C151.908 30.28 153.828 27.8 153.828 24.4C153.828 23.28 153.588 22.32 153.028 21.72C152.908 22.84 150.948 24.64 149.308 24.64C148.428 24.64 147.548 24.12 147.548 23.16C147.548 21.08 151.348 19.68 153.788 19.52C153.868 19 153.868 18.36 153.868 17.76C153.868 15.16 153.148 8.32 148.268 8.32ZM147.108 16.32C147.108 14.96 147.268 13.36 148.228 13.36C148.988 13.36 149.188 14.4 149.108 16.04C148.508 16.36 147.748 16.88 147.148 17.36C147.108 17.08 147.108 16.68 147.108 16.32ZM165.527 13.16C165.567 12.6 165.727 11.88 165.727 11.2C165.727 9.52 164.647 8.56 163.167 8.56C161.287 8.56 159.367 9.6 158.527 10.88C160.007 11.4 160.607 13.12 160.607 19.48C160.607 26.28 159.567 28.08 158.807 30.16C160.527 30.08 162.247 29.96 164.167 29.96C165.247 29.96 166.407 30 167.567 30.2C166.167 27.24 165.607 24.64 165.607 22.48C165.607 17.88 167.927 15.24 169.447 15.24C169.887 15.24 170.287 15.48 170.287 16.76C170.287 17.68 170.087 18.32 169.487 19.56C172.727 18.44 173.967 15.64 173.967 13.12C173.967 10.68 172.767 8.56 170.847 8.56C168.967 8.56 167.407 9.56 165.527 13.16ZM178.97 10.2C181.01 10.96 181.85 14.76 181.85 19.16C181.85 23.28 181.09 27.8 179.85 30.24C181.05 30.12 182.49 30.04 184.13 30.04C185.69 30.04 187.53 30.12 188.37 30.2C187.33 28.44 186.85 27.2 186.85 23.68C186.85 20.64 187.85 16.8 187.85 13.88C187.85 11.04 186.89 8.96 183.21 8.96C181.61 8.96 180.17 9.32 178.97 10.2ZM180.77 3.88C180.77 5.6 182.09 6.88 183.77 6.88C185.45 6.88 186.81 5.6 186.81 3.88C186.81 2.2 185.45 0.879998 183.77 0.879998C182.09 0.879998 180.77 2.2 180.77 3.88ZM207.204 8.52C205.044 9 203.044 9.2 200.964 9.2C199.044 9.2 197.044 9.04 195.044 8.72C194.764 9.84 194.484 11.32 194.484 12.92C194.484 15.28 195.004 17.72 196.444 18.76C196.724 16.96 197.604 14.32 199.204 14.32C199.724 14.32 200.084 14.56 200.084 15.32C200.084 16.52 199.124 17.84 196.964 21.32C195.364 23.88 194.284 25.76 193.964 30.08C195.204 29.84 196.524 29.72 197.524 29.72C199.724 29.72 201.804 30.28 203.724 30.28C206.084 30.28 208.204 29.36 208.204 25.36C208.204 22.6 207.204 21.12 205.564 20.32C205.564 22 204.964 25.2 203.404 25.2C202.724 25.2 202.244 24.6 202.244 23.4C202.244 19.48 207.204 14.48 207.204 8.52ZM212.653 10.2C214.693 10.96 215.533 14.76 215.533 19.16C215.533 23.28 214.773 27.8 213.533 30.24C214.733 30.12 216.173 30.04 217.813 30.04C219.373 30.04 221.213 30.12 222.053 30.2C221.013 28.44 220.533 27.2 220.533 23.68C220.533 20.64 221.533 16.8 221.533 13.88C221.533 11.04 220.573 8.96 216.893 8.96C215.293 8.96 213.853 9.32 212.653 10.2ZM214.453 3.88C214.453 5.6 215.773 6.88 217.453 6.88C219.133 6.88 220.493 5.6 220.493 3.88C220.493 2.2 219.133 0.879998 217.453 0.879998C215.773 0.879998 214.453 2.2 214.453 3.88ZM227.447 10.2C228.687 11.12 229.047 14.64 229.047 18.44C229.047 23.16 228.527 28.28 228.247 30.2C230.527 29.76 232.647 29.76 234.927 29.76C234.807 28.8 234.487 24.48 234.487 21.64C234.487 18.2 234.967 15.16 236.167 15.16C236.847 15.16 236.967 16.28 236.967 17.76C236.967 20.6 236.567 26.2 236.007 30.12C238.167 29.92 240.327 29.84 243.047 29.76C242.367 28.04 242.127 26.24 242.127 24.32C242.127 21.52 242.647 16.84 242.647 14.08C242.647 10.92 241.967 8.44 239.407 8.44C237.127 8.44 235.767 10.48 234.647 12.72C234.727 12.16 234.847 11.6 234.847 11.04C234.847 9.32 233.847 8.52 232.287 8.52C230.687 8.52 228.527 9.4 227.447 10.2ZM262.696 21.4C262.456 22.4 262.016 22.92 261.576 22.92C261.016 22.92 260.456 22.08 260.456 20.24C260.456 18.4 261.016 16.36 261.016 14.68C261.016 11.44 258.976 8.52 255.296 8.52C251.816 8.52 248.976 11.04 248.976 15.92C248.976 16.92 249.136 17.56 249.336 18.32C250.456 16.64 252.296 14.76 254.496 14.76C255.416 14.76 256.216 15.08 256.216 16C256.216 18.84 248.296 18.4 248.296 24.36C248.296 27.44 250.416 30.32 253.416 30.32C254.696 30.32 256.096 29.8 257.096 28.44C257.736 29.64 258.736 30.12 259.736 30.12C261.976 30.12 263.336 27.48 263.336 24.6C263.336 23.48 263.136 22.4 262.696 21.4ZM253.496 23.92C253.496 22.88 254.376 21.64 256.416 20.28C256.416 22.2 255.616 24.8 254.256 24.8C253.736 24.8 253.496 24.44 253.496 23.92ZM267.536 10.2C268.776 11.12 269.136 14.64 269.136 18.44C269.136 23.16 268.616 28.28 268.336 30.2C270.616 29.76 272.736 29.76 275.016 29.76C274.896 28.8 274.576 24.48 274.576 21.64C274.576 18.2 275.056 15.16 276.256 15.16C276.936 15.16 277.056 16.28 277.056 17.76C277.056 20.6 276.656 26.2 276.096 30.12C278.256 29.92 280.416 29.84 283.136 29.76C282.456 28.04 282.216 26.24 282.216 24.32C282.216 21.52 282.736 16.84 282.736 14.08C282.736 10.92 282.056 8.44 279.496 8.44C277.216 8.44 275.856 10.48 274.736 12.72C274.816 12.16 274.936 11.6 274.936 11.04C274.936 9.32 273.936 8.52 272.376 8.52C270.776 8.52 268.616 9.4 267.536 10.2Z" fill="#FFC261"/>
</svg>
