<svg width="217" height="31" viewBox="0 0 217 31" fill="none" xmlns="http://www.w3.org/2000/svg">
<path d="M0.76 1.32C1.96 5.4 2.6 11.04 2.6 16.6C2.6 21.6 2.08 26.6 1.04 30.4C5.96 29.4 11.96 30.4 15.52 26.04C17.44 23.64 18.28 20 18.28 16.32C18.28 10.88 16.48 6.56 13.68 4.2C10.2 1.24 6.44 2.6 0.76 1.32ZM11.68 17.8C11.68 21.8 11 24.12 10 24.12C8.24 24.12 8.12 15.64 8.12 13.16C8.12 10.76 8.24 7.68 9.4 7.68C11.12 7.68 11.68 14.12 11.68 17.8ZM31.655 8.28C26.495 8.28 24.615 14.24 24.615 19.04C24.615 23 25.895 30.24 31.615 30.24C37.095 30.24 38.295 23.68 38.295 19.12C38.295 13.6 36.535 8.28 31.655 8.28ZM29.935 19.16C29.935 15.36 30.775 13.52 31.735 13.52C32.615 13.52 33.295 15 33.295 19.08C33.295 22.56 32.775 24.84 31.695 24.84C30.575 24.84 29.935 22.44 29.935 19.16ZM43.6281 1.84C44.5481 4.08 44.9881 9.92 44.9881 14.44C44.9881 19.36 44.4681 24.56 43.3081 29.8C45.7481 29.8 48.1881 30.04 50.8681 30.2C50.1481 28.48 49.6281 26.48 49.6281 24.56C49.6281 24.16 49.6281 23.72 49.7081 23.36C50.9881 26.12 53.2281 30.88 56.2681 30.88C58.4281 30.88 59.7481 28.44 59.7481 25.92C59.7481 24.56 59.3481 23.28 58.6281 22.52C58.5081 23.88 58.0281 24.36 57.5481 24.36C56.2281 24.36 54.3081 21.36 54.0681 19.84C56.3481 18.76 58.4281 17.16 58.4281 14.6C58.4281 12.72 57.3081 11.96 56.2281 11.32C54.9081 10.52 53.8281 9.84 53.8281 8.16C53.8281 7.84 53.8681 7.4 53.9881 7C51.8681 8.28 51.2681 9.92 51.2681 11.24C51.2681 13.12 52.4681 13.32 52.4681 15.36C52.4681 17.2 51.3881 18.2 49.7481 19C49.9081 14.12 50.1881 12.76 51.0681 9.12C51.6281 6.72 51.8681 5.76 51.8681 4.8C51.8681 2.12 50.2281 1.04 47.4281 1.04C46.1081 1.04 44.9881 1.28 43.6281 1.84ZM64.7403 9.32C65.9003 10.44 66.3003 12.08 66.3003 14.08C66.3003 17.16 65.3403 21.04 65.3403 23.96C65.3403 26.92 66.3003 30.28 70.0603 30.28C72.2203 30.28 73.4603 29.16 74.5803 27.52C75.5403 29.6 76.6603 30.4 77.7403 30.4C79.7003 30.4 81.4203 27.84 81.4203 25.12C81.4203 24.4 81.3003 23.6 81.0603 22.92C80.6603 23.56 80.1803 23.92 79.6603 23.92C78.9803 23.92 78.5003 23.16 78.5003 21.76C78.5003 19.32 79.9003 15.68 79.9003 13.08C79.9003 9.84 77.6603 8.52 74.9803 8.52C74.2203 8.52 73.4203 8.64 72.7003 8.88C73.5803 9.88 74.1803 11.64 74.1803 14.64C74.1803 19.2 72.8203 24.44 71.7003 24.44C71.3403 24.44 70.9403 23.8 70.9403 22.84C70.9403 20.68 72.7403 15.28 72.7403 12.44C72.7403 9.56 70.8603 8.52 68.1803 8.52C66.8203 8.52 65.7403 8.8 64.7403 9.32ZM86.1669 10.2C87.4069 11.12 87.7269 14.64 87.7269 18.4C87.7269 23.16 87.2469 28.28 86.9669 30.2C89.2069 29.76 91.3269 29.76 93.5669 29.76C93.4469 28.8 93.2069 24.64 93.2069 21.88C93.2069 18.36 93.6069 15.32 94.8069 15.32C95.4869 15.32 95.6069 16.48 95.6069 17.92C95.6069 20.76 95.2069 25.88 94.6469 29.8C95.6069 29.72 96.7269 29.68 97.6069 29.68C98.9669 29.68 100.047 29.76 100.927 29.8C100.487 28.08 100.327 26.48 100.327 24.04C100.327 22.76 100.367 21.28 100.607 19.6C100.687 18.48 101.127 15.32 102.287 15.32C102.967 15.32 103.127 16.28 103.127 17.92C103.127 20.76 102.727 26.2 102.167 30.12C104.287 29.92 106.447 29.84 109.047 29.76C108.407 28.04 108.127 26.24 108.127 24.32C108.127 21.52 108.687 16.84 108.687 14.08C108.687 10.92 107.967 8.44 105.527 8.44C103.527 8.44 101.887 10.04 100.767 12.2C100.607 10 99.9669 8.44 98.0069 8.44C95.7669 8.44 94.4069 10.48 93.2869 12.72C93.3669 12.16 93.4869 11.6 93.4869 11.04C93.4869 9.32 92.4469 8.52 90.9669 8.52C89.3669 8.52 87.2469 9.4 86.1669 10.2ZM121.513 8.32C116.993 8.32 114.793 14.2 114.793 19.44C114.793 24.12 116.553 30.28 121.793 30.28C125.153 30.28 127.073 27.8 127.073 24.4C127.073 23.28 126.833 22.32 126.273 21.72C126.153 22.84 124.193 24.64 122.553 24.64C121.673 24.64 120.793 24.12 120.793 23.16C120.793 21.08 124.593 19.68 127.033 19.52C127.113 19 127.113 18.36 127.113 17.76C127.113 15.16 126.393 8.32 121.513 8.32ZM120.353 16.32C120.353 14.96 120.513 13.36 121.473 13.36C122.233 13.36 122.433 14.4 122.353 16.04C121.753 16.36 120.993 16.88 120.393 17.36C120.353 17.08 120.353 16.68 120.353 16.32ZM132.154 10.2C133.394 11.12 133.754 14.64 133.754 18.44C133.754 23.16 133.234 28.28 132.954 30.2C135.234 29.76 137.354 29.76 139.634 29.76C139.514 28.8 139.194 24.48 139.194 21.64C139.194 18.2 139.674 15.16 140.874 15.16C141.554 15.16 141.674 16.28 141.674 17.76C141.674 20.6 141.274 26.2 140.714 30.12C142.874 29.92 145.034 29.84 147.754 29.76C147.074 28.04 146.834 26.24 146.834 24.32C146.834 21.52 147.354 16.84 147.354 14.08C147.354 10.92 146.674 8.44 144.114 8.44C141.834 8.44 140.474 10.48 139.354 12.72C139.434 12.16 139.554 11.6 139.554 11.04C139.554 9.32 138.554 8.52 136.994 8.52C135.394 8.52 133.234 9.4 132.154 10.2ZM161.265 11.6C161.265 8.24 159.425 7.08 156.225 7.08C154.385 7.08 152.465 7.48 151.425 8.48C153.985 10.4 154.545 13.64 154.545 16.8C154.545 19.24 154.225 22.36 154.225 24C154.225 27.88 156.105 30.64 158.985 30.64C162.145 30.64 163.785 27.36 163.785 24.12C163.785 22.6 163.465 21.4 162.625 20.6C162.225 21.48 161.465 23.8 160.345 23.8C159.465 23.8 159.345 22.52 159.345 21.48C159.345 20.32 159.505 18.44 160.065 17.32C163.505 17.16 164.825 16.24 164.825 13.76C163.665 13.88 162.265 14.24 160.985 14.44C161.105 13.52 161.265 12.6 161.265 11.6ZM183.991 21.4C183.751 22.4 183.311 22.92 182.871 22.92C182.311 22.92 181.751 22.08 181.751 20.24C181.751 18.4 182.311 16.36 182.311 14.68C182.311 11.44 180.271 8.52 176.591 8.52C173.111 8.52 170.271 11.04 170.271 15.92C170.271 16.92 170.431 17.56 170.631 18.32C171.751 16.64 173.591 14.76 175.791 14.76C176.711 14.76 177.511 15.08 177.511 16C177.511 18.84 169.591 18.4 169.591 24.36C169.591 27.44 171.711 30.32 174.711 30.32C175.991 30.32 177.391 29.8 178.391 28.44C179.031 29.64 180.031 30.12 181.031 30.12C183.271 30.12 184.631 27.48 184.631 24.6C184.631 23.48 184.431 22.4 183.991 21.4ZM174.791 23.92C174.791 22.88 175.671 21.64 177.711 20.28C177.711 22.2 176.911 24.8 175.551 24.8C175.031 24.8 174.791 24.44 174.791 23.92ZM200.204 15.64C201.124 14.6 201.524 13.52 201.524 12.56C201.524 10.04 199.004 8.24 196.084 8.24C193.084 8.24 190.484 10.12 190.484 13.68C190.484 15.28 191.004 16.72 191.684 17.88C192.964 19.96 195.324 21.8 195.324 23.52C195.324 24.28 194.844 24.92 193.964 24.92C192.884 24.92 191.764 23.92 191.404 21.64C190.244 22.4 189.844 23.6 189.844 25C189.844 28.28 192.164 30.44 195.564 30.44C199.164 30.44 201.764 28.08 201.764 24.24C201.764 22.6 201.284 21.08 200.564 19.64C199.004 16.76 196.884 15.48 196.884 13.88C196.884 13.16 197.324 12.84 197.884 12.84C199.124 12.84 200.044 14.56 200.204 15.64ZM206.861 10.2C208.901 10.96 209.741 14.76 209.741 19.16C209.741 23.28 208.981 27.8 207.741 30.24C208.941 30.12 210.381 30.04 212.021 30.04C213.581 30.04 215.421 30.12 216.261 30.2C215.221 28.44 214.741 27.2 214.741 23.68C214.741 20.64 215.741 16.8 215.741 13.88C215.741 11.04 214.781 8.96 211.101 8.96C209.501 8.96 208.061 9.32 206.861 10.2ZM208.661 3.88C208.661 5.6 209.981 6.88 211.661 6.88C213.341 6.88 214.701 5.6 214.701 3.88C214.701 2.2 213.341 0.879998 211.661 0.879998C209.981 0.879998 208.661 2.2 208.661 3.88Z" fill="#FFC261"/>
</svg>
