<svg width="172" height="31" viewBox="0 0 172 31" fill="none" xmlns="http://www.w3.org/2000/svg">
<path d="M9.4 0.96C3.68 0.96 0.96 9.88 0.96 15.88C0.96 21.12 3 30.6 9.76 30.6C14.52 30.6 16 25.88 16 22.28C16 21.2 15.88 19.64 15.04 19.28C14.92 20.68 12.52 23 10.56 23C9.44 23 8.44 22.24 8.44 20.96C8.44 18.16 13.04 16.28 16.04 16.04C16.12 15.32 16.12 14.48 16.12 13.68C16.12 10.04 15.16 0.96 9.4 0.96ZM7.96 9.04C8.08 8.72 8.48 7.96 9 7.96C9.8 7.96 10.16 9.56 10.16 10.68C10.16 11.08 10.12 11.4 10.04 11.64C9.4 12 8.44 12.72 7.68 13.36C7.64 12.92 7.64 12.44 7.64 11.96C7.64 11.08 7.68 9.88 7.96 9.04ZM39.2331 23.96C38.8331 24.44 38.5531 24.64 38.1131 24.64C36.6731 24.64 36.1131 21.96 36.1131 19.04C36.1131 13.96 37.7531 9.4 37.7531 5.92C37.7531 2.36 36.0731 1.08 32.9531 1.08C31.1931 1.08 29.6331 1.48 28.6331 2.08C31.2731 3.2 32.0331 5.48 32.0331 8.12C32.0331 9.4 31.8731 10.6 31.7131 11.68C30.7131 9.8 29.1531 8.72 27.5131 8.72C23.8331 8.72 22.1931 14.4 22.1931 19.36C22.1931 25.28 24.0331 30.36 28.3131 30.36C29.8731 30.36 31.2731 29.64 32.1931 28.36C32.7131 30.04 33.7931 30.72 34.9931 30.72C37.1531 30.72 39.6731 28.52 39.6731 25.92C39.6731 25.28 39.5531 24.6 39.2331 23.96ZM27.9531 20.24C27.9531 16.96 28.5131 14 29.7131 14C30.7531 14 31.0731 16.6 31.0731 18.84C31.0731 21.56 30.5931 25.24 29.3531 25.24C28.5131 25.24 27.9531 23.52 27.9531 20.24ZM44.8325 9.32C45.9925 10.44 46.3925 12.08 46.3925 14.08C46.3925 17.16 45.4325 21.04 45.4325 23.96C45.4325 26.92 46.3925 30.28 50.1525 30.28C52.3125 30.28 53.5525 29.16 54.6725 27.52C55.6325 29.6 56.7525 30.4 57.8325 30.4C59.7925 30.4 61.5125 27.84 61.5125 25.12C61.5125 24.4 61.3925 23.6 61.1525 22.92C60.7525 23.56 60.2725 23.92 59.7525 23.92C59.0725 23.92 58.5925 23.16 58.5925 21.76C58.5925 19.32 59.9925 15.68 59.9925 13.08C59.9925 9.84 57.7525 8.52 55.0725 8.52C54.3125 8.52 53.5125 8.64 52.7925 8.88C53.6725 9.88 54.2725 11.64 54.2725 14.64C54.2725 19.2 52.9125 24.44 51.7925 24.44C51.4325 24.44 51.0325 23.8 51.0325 22.84C51.0325 20.68 52.8325 15.28 52.8325 12.44C52.8325 9.56 50.9525 8.52 48.2725 8.52C46.9125 8.52 45.8325 8.8 44.8325 9.32ZM75.9297 17C77.5697 17 79.3297 16.04 79.3297 13.36C79.3297 10.48 77.3697 8.28 74.0497 8.28C68.8097 8.28 66.7697 13.88 66.7697 19.08C66.7697 25.04 69.4497 30.28 74.2097 30.28C77.4097 30.28 80.3697 28 80.3697 24.2C80.3697 22.32 79.6497 20.52 78.0897 20C78.0097 22.92 76.9297 24.24 75.5297 24.24C73.8897 24.24 72.2497 22.48 72.2497 18.32C72.2497 15.2 73.1697 13.08 74.5297 13.08C75.4897 13.08 76.0497 14.24 76.0497 15.8C76.0497 16.24 76.0097 16.64 75.9297 17ZM100.649 21.4C100.409 22.4 99.9687 22.92 99.5287 22.92C98.9687 22.92 98.4087 22.08 98.4087 20.24C98.4087 18.4 98.9687 16.36 98.9687 14.68C98.9687 11.44 96.9287 8.52 93.2487 8.52C89.7687 8.52 86.9287 11.04 86.9287 15.92C86.9287 16.92 87.0887 17.56 87.2887 18.32C88.4087 16.64 90.2487 14.76 92.4487 14.76C93.3687 14.76 94.1687 15.08 94.1687 16C94.1687 18.84 86.2487 18.4 86.2487 24.36C86.2487 27.44 88.3687 30.32 91.3687 30.32C92.6487 30.32 94.0487 29.8 95.0487 28.44C95.6887 29.64 96.6887 30.12 97.6887 30.12C99.9287 30.12 101.289 27.48 101.289 24.6C101.289 23.48 101.089 22.4 100.649 21.4ZM91.4487 23.92C91.4487 22.88 92.3287 21.64 94.3687 20.28C94.3687 22.2 93.5687 24.8 92.2087 24.8C91.6887 24.8 91.4487 24.44 91.4487 23.92ZM114.145 11.6C114.145 8.24 112.305 7.08 109.105 7.08C107.265 7.08 105.345 7.48 104.305 8.48C106.865 10.4 107.425 13.64 107.425 16.8C107.425 19.24 107.105 22.36 107.105 24C107.105 27.88 108.985 30.64 111.865 30.64C115.025 30.64 116.665 27.36 116.665 24.12C116.665 22.6 116.345 21.4 115.505 20.6C115.105 21.48 114.345 23.8 113.225 23.8C112.345 23.8 112.225 22.52 112.225 21.48C112.225 20.32 112.385 18.44 112.945 17.32C116.385 17.16 117.705 16.24 117.705 13.76C116.545 13.88 115.145 14.24 113.865 14.44C113.985 13.52 114.145 12.6 114.145 11.6ZM121.722 10.2C123.762 10.96 124.602 14.76 124.602 19.16C124.602 23.28 123.842 27.8 122.602 30.24C123.802 30.12 125.242 30.04 126.882 30.04C128.442 30.04 130.282 30.12 131.122 30.2C130.082 28.44 129.602 27.2 129.602 23.68C129.602 20.64 130.602 16.8 130.602 13.88C130.602 11.04 129.642 8.96 125.962 8.96C124.362 8.96 122.922 9.32 121.722 10.2ZM123.522 3.88C123.522 5.6 124.842 6.88 126.522 6.88C128.202 6.88 129.562 5.6 129.562 3.88C129.562 2.2 128.202 0.879998 126.522 0.879998C124.842 0.879998 123.522 2.2 123.522 3.88ZM143.875 8.28C138.715 8.28 136.835 14.24 136.835 19.04C136.835 23 138.115 30.24 143.835 30.24C149.315 30.24 150.515 23.68 150.515 19.12C150.515 13.6 148.755 8.28 143.875 8.28ZM142.155 19.16C142.155 15.36 142.995 13.52 143.955 13.52C144.835 13.52 145.515 15 145.515 19.08C145.515 22.56 144.995 24.84 143.915 24.84C142.795 24.84 142.155 22.44 142.155 19.16ZM155.798 10.2C157.038 11.12 157.398 14.64 157.398 18.44C157.398 23.16 156.878 28.28 156.598 30.2C158.878 29.76 160.998 29.76 163.278 29.76C163.158 28.8 162.838 24.48 162.838 21.64C162.838 18.2 163.318 15.16 164.518 15.16C165.198 15.16 165.318 16.28 165.318 17.76C165.318 20.6 164.918 26.2 164.358 30.12C166.518 29.92 168.678 29.84 171.398 29.76C170.718 28.04 170.478 26.24 170.478 24.32C170.478 21.52 170.998 16.84 170.998 14.08C170.998 10.92 170.318 8.44 167.758 8.44C165.478 8.44 164.118 10.48 162.998 12.72C163.078 12.16 163.198 11.6 163.198 11.04C163.198 9.32 162.198 8.52 160.638 8.52C159.038 8.52 156.878 9.4 155.798 10.2Z" fill="#FFC261"/>
</svg>
