<svg width="244" height="34" viewBox="0 0 244 34" fill="none" xmlns="http://www.w3.org/2000/svg">
<path d="M9.4 3.96C3.68 3.96 0.96 12.88 0.96 18.88C0.96 24.12 3 33.6 9.76 33.6C14.52 33.6 16 28.88 16 25.28C16 24.2 15.88 22.64 15.04 22.28C14.92 23.68 12.52 26 10.56 26C9.44 26 8.44 25.24 8.44 23.96C8.44 21.16 13.04 19.28 16.04 19.04C16.12 18.32 16.12 17.48 16.12 16.68C16.12 13.04 15.16 3.96 9.4 3.96ZM7.96 12.04C8.08 11.72 8.48 10.96 9 10.96C9.8 10.96 10.16 12.56 10.16 13.68C10.16 14.08 10.12 14.4 10.04 14.64C9.4 15 8.44 15.72 7.68 16.36C7.64 15.92 7.64 15.44 7.64 14.96C7.64 14.08 7.68 12.88 7.96 12.04ZM20.7906 4.84C21.7106 7.08 22.1506 12.92 22.1506 17.44C22.1506 22.36 21.6306 27.56 20.4706 32.8C22.9106 32.8 25.3506 33.04 28.0306 33.2C27.3106 31.48 26.7906 29.48 26.7906 27.56C26.7906 27.16 26.7906 26.72 26.8706 26.36C28.1506 29.12 30.3906 33.88 33.4306 33.88C35.5906 33.88 36.9106 31.44 36.9106 28.92C36.9106 27.56 36.5106 26.28 35.7906 25.52C35.6706 26.88 35.1906 27.36 34.7106 27.36C33.3906 27.36 31.4706 24.36 31.2306 22.84C33.5106 21.76 35.5906 20.16 35.5906 17.6C35.5906 15.72 34.4706 14.96 33.3906 14.32C32.0706 13.52 30.9906 12.84 30.9906 11.16C30.9906 10.84 31.0306 10.4 31.1506 10C29.0306 11.28 28.4306 12.92 28.4306 14.24C28.4306 16.12 29.6306 16.32 29.6306 18.36C29.6306 20.2 28.5506 21.2 26.9106 22C27.0706 17.12 27.3506 15.76 28.2306 12.12C28.7906 9.72 29.0306 8.76 29.0306 7.8C29.0306 5.12 27.3906 4.04 24.5906 4.04C23.2706 4.04 22.1506 4.28 20.7906 4.84ZM52.6069 18.64C53.5269 17.6 53.9269 16.52 53.9269 15.56C53.9269 13.04 51.4069 11.24 48.4869 11.24C45.4869 11.24 42.8869 13.12 42.8869 16.68C42.8869 18.28 43.4069 19.72 44.0869 20.88C45.3669 22.96 47.7269 24.8 47.7269 26.52C47.7269 27.28 47.2469 27.92 46.3669 27.92C45.2869 27.92 44.1669 26.92 43.8069 24.64C42.6469 25.4 42.2469 26.6 42.2469 28C42.2469 31.28 44.5669 33.44 47.9669 33.44C51.5669 33.44 54.1669 31.08 54.1669 27.24C54.1669 25.6 53.6869 24.08 52.9669 22.64C51.4069 19.76 49.2869 18.48 49.2869 16.88C49.2869 16.16 49.7269 15.84 50.2869 15.84C51.5269 15.84 52.4469 17.56 52.6069 18.64ZM67.7275 14.6C67.7275 11.24 65.8875 10.08 62.6875 10.08C60.8475 10.08 58.9275 10.48 57.8875 11.48C60.4475 13.4 61.0075 16.64 61.0075 19.8C61.0075 22.24 60.6875 25.36 60.6875 27C60.6875 30.88 62.5675 33.64 65.4475 33.64C68.6075 33.64 70.2475 30.36 70.2475 27.12C70.2475 25.6 69.9275 24.4 69.0875 23.6C68.6875 24.48 67.9275 26.8 66.8075 26.8C65.9275 26.8 65.8075 25.52 65.8075 24.48C65.8075 23.32 65.9675 21.44 66.5275 20.32C69.9675 20.16 71.2875 19.24 71.2875 16.76C70.1275 16.88 68.7275 17.24 67.4475 17.44C67.5675 16.52 67.7275 15.6 67.7275 14.6ZM82.3941 16.16C82.4341 15.6 82.5941 14.88 82.5941 14.2C82.5941 12.52 81.5141 11.56 80.0341 11.56C78.1541 11.56 76.2341 12.6 75.3941 13.88C76.8741 14.4 77.4741 16.12 77.4741 22.48C77.4741 29.28 76.4341 31.08 75.6741 33.16C77.3941 33.08 79.1141 32.96 81.0341 32.96C82.1141 32.96 83.2741 33 84.4341 33.2C83.0341 30.24 82.4741 27.64 82.4741 25.48C82.4741 20.88 84.7941 18.24 86.3141 18.24C86.7541 18.24 87.1541 18.48 87.1541 19.76C87.1541 20.68 86.9541 21.32 86.3541 22.56C89.5941 21.44 90.8341 18.64 90.8341 16.12C90.8341 13.68 89.6341 11.56 87.7141 11.56C85.8341 11.56 84.2741 12.56 82.3941 16.16ZM109.814 24.4C109.574 25.4 109.134 25.92 108.694 25.92C108.134 25.92 107.574 25.08 107.574 23.24C107.574 21.4 108.134 19.36 108.134 17.68C108.134 14.44 106.094 11.52 102.414 11.52C98.9344 11.52 96.0944 14.04 96.0944 18.92C96.0944 19.92 96.2544 20.56 96.4544 21.32C97.5744 19.64 99.4144 17.76 101.614 17.76C102.534 17.76 103.334 18.08 103.334 19C103.334 21.84 95.4144 21.4 95.4144 27.36C95.4144 30.44 97.5344 33.32 100.534 33.32C101.814 33.32 103.214 32.8 104.214 31.44C104.854 32.64 105.854 33.12 106.854 33.12C109.094 33.12 110.454 30.48 110.454 27.6C110.454 26.48 110.254 25.4 109.814 24.4ZM100.614 26.92C100.614 25.88 101.494 24.64 103.534 23.28C103.534 25.2 102.734 27.8 101.374 27.8C100.854 27.8 100.614 27.44 100.614 26.92ZM128.916 0.959998C126.596 2.04 126.076 3.32 126.076 4.76C126.076 6.12 126.556 7.88 126.556 9.32C126.556 11.32 125.636 13.76 123.116 15.88C123.116 12.24 123.596 8.4 124.356 4.76C123.756 4.8 123.156 4.8 122.556 4.8C120.236 4.8 117.956 4.64 115.676 4.4C116.796 8.88 117.276 14.12 117.276 19.48C117.276 24.12 116.916 28.8 116.276 33.12C119.556 33.12 122.596 33.12 125.356 33.32C124.316 30.76 122.796 24.36 122.796 20.6C123.476 23.2 126.316 33.96 132.636 33.96C135.996 33.96 136.876 30.96 136.876 28.88C136.876 26.84 136.036 25 134.516 24.4C134.516 25.88 134.156 27.04 133.196 27.04C131.356 27.04 129.316 22.8 127.796 18.04C131.796 14.64 133.276 12.64 133.276 10.48C133.276 8.6 132.156 7.16 130.156 4.88C129.356 3.96 128.516 2.72 128.916 0.959998ZM156.349 24.4C156.109 25.4 155.669 25.92 155.229 25.92C154.669 25.92 154.109 25.08 154.109 23.24C154.109 21.4 154.669 19.36 154.669 17.68C154.669 14.44 152.629 11.52 148.949 11.52C145.469 11.52 142.629 14.04 142.629 18.92C142.629 19.92 142.789 20.56 142.989 21.32C144.109 19.64 145.949 17.76 148.149 17.76C149.069 17.76 149.869 18.08 149.869 19C149.869 21.84 141.949 21.4 141.949 27.36C141.949 30.44 144.069 33.32 147.069 33.32C148.349 33.32 149.749 32.8 150.749 31.44C151.389 32.64 152.389 33.12 153.389 33.12C155.629 33.12 156.989 30.48 156.989 27.6C156.989 26.48 156.789 25.4 156.349 24.4ZM147.149 26.92C147.149 25.88 148.029 24.64 150.069 23.28C150.069 25.2 149.269 27.8 147.909 27.8C147.389 27.8 147.149 27.44 147.149 26.92ZM161.189 13.2C162.429 14.12 162.749 17.64 162.749 21.4C162.749 26.16 162.269 31.28 161.989 33.2C164.229 32.76 166.349 32.76 168.589 32.76C168.469 31.8 168.229 27.64 168.229 24.88C168.229 21.36 168.629 18.32 169.829 18.32C170.509 18.32 170.629 19.48 170.629 20.92C170.629 23.76 170.229 28.88 169.669 32.8C170.629 32.72 171.749 32.68 172.629 32.68C173.989 32.68 175.069 32.76 175.949 32.8C175.509 31.08 175.349 29.48 175.349 27.04C175.349 25.76 175.389 24.28 175.629 22.6C175.709 21.48 176.149 18.32 177.309 18.32C177.989 18.32 178.149 19.28 178.149 20.92C178.149 23.76 177.749 29.2 177.189 33.12C179.309 32.92 181.469 32.84 184.069 32.76C183.429 31.04 183.149 29.24 183.149 27.32C183.149 24.52 183.709 19.84 183.709 17.08C183.709 13.92 182.989 11.44 180.549 11.44C178.549 11.44 176.909 13.04 175.789 15.2C175.629 13 174.989 11.44 173.029 11.44C170.789 11.44 169.429 13.48 168.309 15.72C168.389 15.16 168.509 14.6 168.509 14.04C168.509 12.32 167.469 11.52 165.989 11.52C164.389 11.52 162.269 12.4 161.189 13.2ZM190.248 12.8C191.008 15.28 191.288 18.44 191.288 21.72C191.288 25.92 190.808 30.08 190.048 33.16C191.328 33 192.808 32.92 194.168 32.92C195.888 32.92 197.648 33.04 198.848 33.04C197.528 31.36 196.128 28.56 196.128 26.72C196.128 26.16 196.288 25.48 197.168 25.48C197.368 25.48 197.568 25.52 197.968 25.52C198.248 25.52 200.568 25.48 202.208 23.64C203.288 22.48 203.888 20.8 203.888 18.68C203.888 13.4 200.168 11.16 196.408 11.16C194.448 11.16 192.208 11.8 190.248 12.8ZM196.368 22.6C196.288 22.04 196.288 21.28 196.288 20.52C196.288 18.04 196.808 16 197.848 16C198.568 16 199.088 17.08 199.088 18.56C199.088 19.96 198.448 21.68 196.368 22.6ZM209.642 12.32C210.802 13.44 211.202 15.08 211.202 17.08C211.202 20.16 210.242 24.04 210.242 26.96C210.242 29.92 211.202 33.28 214.962 33.28C217.122 33.28 218.362 32.16 219.482 30.52C220.442 32.6 221.562 33.4 222.642 33.4C224.602 33.4 226.322 30.84 226.322 28.12C226.322 27.4 226.202 26.6 225.962 25.92C225.562 26.56 225.082 26.92 224.562 26.92C223.882 26.92 223.402 26.16 223.402 24.76C223.402 22.32 224.802 18.68 224.802 16.08C224.802 12.84 222.562 11.52 219.882 11.52C219.122 11.52 218.322 11.64 217.602 11.88C218.482 12.88 219.082 14.64 219.082 17.64C219.082 22.2 217.722 27.44 216.602 27.44C216.242 27.44 215.842 26.8 215.842 25.84C215.842 23.68 217.642 18.28 217.642 15.44C217.642 12.56 215.762 11.52 213.082 11.52C211.722 11.52 210.642 11.8 209.642 12.32ZM241.699 18.64C242.619 17.6 243.019 16.52 243.019 15.56C243.019 13.04 240.499 11.24 237.579 11.24C234.579 11.24 231.979 13.12 231.979 16.68C231.979 18.28 232.499 19.72 233.179 20.88C234.459 22.96 236.819 24.8 236.819 26.52C236.819 27.28 236.339 27.92 235.459 27.92C234.379 27.92 233.259 26.92 232.899 24.64C231.739 25.4 231.339 26.6 231.339 28C231.339 31.28 233.659 33.44 237.059 33.44C240.659 33.44 243.259 31.08 243.259 27.24C243.259 25.6 242.779 24.08 242.059 22.64C240.499 19.76 238.379 18.48 238.379 16.88C238.379 16.16 238.819 15.84 239.379 15.84C240.619 15.84 241.539 17.56 241.699 18.64Z" fill="#FFC261"/>
</svg>
