<svg width="148" height="31" viewBox="0 0 148 31" fill="none" xmlns="http://www.w3.org/2000/svg">
<path d="M9.4 0.96C3.68 0.96 0.96 9.88 0.96 15.88C0.96 21.12 3 30.6 9.76 30.6C14.52 30.6 16 25.88 16 22.28C16 21.2 15.88 19.64 15.04 19.28C14.92 20.68 12.52 23 10.56 23C9.44 23 8.44 22.24 8.44 20.96C8.44 18.16 13.04 16.28 16.04 16.04C16.12 15.32 16.12 14.48 16.12 13.68C16.12 10.04 15.16 0.96 9.4 0.96ZM7.96 9.04C8.08 8.72 8.48 7.96 9 7.96C9.8 7.96 10.16 9.56 10.16 10.68C10.16 11.08 10.12 11.4 10.04 11.64C9.4 12 8.44 12.72 7.68 13.36C7.64 12.92 7.64 12.44 7.64 11.96C7.64 11.08 7.68 9.88 7.96 9.04ZM21.8731 10.2C23.1131 11.12 23.4731 14.64 23.4731 18.44C23.4731 23.16 22.9531 28.28 22.6731 30.2C24.9531 29.76 27.0731 29.76 29.3531 29.76C29.2331 28.8 28.9131 24.48 28.9131 21.64C28.9131 18.2 29.3931 15.16 30.5931 15.16C31.2731 15.16 31.3931 16.28 31.3931 17.76C31.3931 20.6 30.9931 26.2 30.4331 30.12C32.5931 29.92 34.7531 29.84 37.4731 29.76C36.7931 28.04 36.5531 26.24 36.5531 24.32C36.5531 21.52 37.0731 16.84 37.0731 14.08C37.0731 10.92 36.3931 8.44 33.8331 8.44C31.5531 8.44 30.1931 10.48 29.0731 12.72C29.1531 12.16 29.2731 11.6 29.2731 11.04C29.2731 9.32 28.2731 8.52 26.7131 8.52C25.1131 8.52 22.9531 9.4 21.8731 10.2ZM50.9837 11.6C50.9837 8.24 49.1437 7.08 45.9437 7.08C44.1037 7.08 42.1837 7.48 41.1437 8.48C43.7037 10.4 44.2637 13.64 44.2637 16.8C44.2637 19.24 43.9437 22.36 43.9437 24C43.9437 27.88 45.8237 30.64 48.7037 30.64C51.8637 30.64 53.5037 27.36 53.5037 24.12C53.5037 22.6 53.1838 21.4 52.3437 20.6C51.9437 21.48 51.1837 23.8 50.0637 23.8C49.1837 23.8 49.0637 22.52 49.0637 21.48C49.0637 20.32 49.2237 18.44 49.7837 17.32C53.2237 17.16 54.5437 16.24 54.5437 13.76C53.3838 13.88 51.9838 14.24 50.7037 14.44C50.8237 13.52 50.9837 12.6 50.9837 11.6ZM68.3516 17C69.9916 17 71.7516 16.04 71.7516 13.36C71.7516 10.48 69.7916 8.28 66.4716 8.28C61.2316 8.28 59.1916 13.88 59.1916 19.08C59.1916 25.04 61.8716 30.28 66.6316 30.28C69.8316 30.28 72.7916 28 72.7916 24.2C72.7916 22.32 72.0716 20.52 70.5116 20C70.4316 22.92 69.3516 24.24 67.9516 24.24C66.3116 24.24 64.6716 22.48 64.6716 18.32C64.6716 15.2 65.5916 13.08 66.9516 13.08C67.9116 13.08 68.4716 14.24 68.4716 15.8C68.4716 16.24 68.4316 16.64 68.3516 17ZM77.3025 2.2C78.5025 3.56 79.4225 5.8 79.4225 12.68C79.4225 18.4 78.7825 26.12 77.6625 30.08C79.7025 29.92 81.7025 29.6 83.7025 29.6C84.1025 29.6 84.5025 29.6 84.9025 29.64C84.5425 28 84.4225 26.48 84.4225 24.56C84.4225 18.32 85.7425 15.08 86.5425 15.08C86.9025 15.08 87.2625 15.72 87.2625 18.48C87.2625 22.16 86.5825 26.28 85.8225 30.16C86.9425 30 88.0225 29.92 89.1425 29.92C90.3025 29.92 92.1025 30 93.2625 30.2C92.5425 28.72 92.3025 27.2 92.3025 25.6C92.3025 22.88 92.9825 17.32 92.9825 14.52C92.9825 11.52 91.6225 8.52 89.1825 8.52C86.9025 8.52 85.4225 11.16 84.5025 14.2C84.7825 12.32 85.6225 9.12 85.6225 6C85.6225 3.04 84.9025 1.12 81.7425 1.12C80.2225 1.12 78.6625 1.56 77.3025 2.2ZM112.9 21.4C112.66 22.4 112.22 22.92 111.78 22.92C111.22 22.92 110.66 22.08 110.66 20.24C110.66 18.4 111.22 16.36 111.22 14.68C111.22 11.44 109.18 8.52 105.5 8.52C102.02 8.52 99.1803 11.04 99.1803 15.92C99.1803 16.92 99.3403 17.56 99.5403 18.32C100.66 16.64 102.5 14.76 104.7 14.76C105.62 14.76 106.42 15.08 106.42 16C106.42 18.84 98.5003 18.4 98.5003 24.36C98.5003 27.44 100.62 30.32 103.62 30.32C104.9 30.32 106.3 29.8 107.3 28.44C107.94 29.64 108.94 30.12 109.94 30.12C112.18 30.12 113.54 27.48 113.54 24.6C113.54 23.48 113.34 22.4 112.9 21.4ZM103.7 23.92C103.7 22.88 104.58 21.64 106.62 20.28C106.62 22.2 105.82 24.8 104.46 24.8C103.94 24.8 103.7 24.44 103.7 23.92ZM117.386 10.2C119.426 10.96 120.266 14.76 120.266 19.16C120.266 23.28 119.506 27.8 118.266 30.24C119.466 30.12 120.906 30.04 122.546 30.04C124.106 30.04 125.946 30.12 126.786 30.2C125.746 28.44 125.266 27.2 125.266 23.68C125.266 20.64 126.266 16.8 126.266 13.88C126.266 11.04 125.306 8.96 121.626 8.96C120.026 8.96 118.586 9.32 117.386 10.2ZM119.186 3.88C119.186 5.6 120.506 6.88 122.186 6.88C123.866 6.88 125.226 5.6 125.226 3.88C125.226 2.2 123.866 0.879998 122.186 0.879998C120.506 0.879998 119.186 2.2 119.186 3.88ZM138.758 13.16C138.798 12.6 138.958 11.88 138.958 11.2C138.958 9.52 137.878 8.56 136.398 8.56C134.518 8.56 132.598 9.6 131.758 10.88C133.238 11.4 133.838 13.12 133.838 19.48C133.838 26.28 132.798 28.08 132.038 30.16C133.758 30.08 135.478 29.96 137.398 29.96C138.478 29.96 139.638 30 140.798 30.2C139.398 27.24 138.838 24.64 138.838 22.48C138.838 17.88 141.158 15.24 142.678 15.24C143.118 15.24 143.518 15.48 143.518 16.76C143.518 17.68 143.318 18.32 142.718 19.56C145.958 18.44 147.198 15.64 147.198 13.12C147.198 10.68 145.998 8.56 144.078 8.56C142.198 8.56 140.638 9.56 138.758 13.16Z" fill="#FFC261"/>
</svg>
