<svg width="229" height="31" viewBox="0 0 229 31" fill="none" xmlns="http://www.w3.org/2000/svg">
<path d="M9.4 0.96C3.68 0.96 0.96 9.88 0.96 15.88C0.96 21.12 3 30.6 9.76 30.6C14.52 30.6 16 25.88 16 22.28C16 21.2 15.88 19.64 15.04 19.28C14.92 20.68 12.52 23 10.56 23C9.44 23 8.44 22.24 8.44 20.96C8.44 18.16 13.04 16.28 16.04 16.04C16.12 15.32 16.12 14.48 16.12 13.68C16.12 10.04 15.16 0.96 9.4 0.96ZM7.96 9.04C8.08 8.72 8.48 7.96 9 7.96C9.8 7.96 10.16 9.56 10.16 10.68C10.16 11.08 10.12 11.4 10.04 11.64C9.4 12 8.44 12.72 7.68 13.36C7.64 12.92 7.64 12.44 7.64 11.96C7.64 11.08 7.68 9.88 7.96 9.04ZM21.8731 10.2C23.1131 11.12 23.4731 14.64 23.4731 18.44C23.4731 23.16 22.9531 28.28 22.6731 30.2C24.9531 29.76 27.0731 29.76 29.3531 29.76C29.2331 28.8 28.9131 24.48 28.9131 21.64C28.9131 18.2 29.3931 15.16 30.5931 15.16C31.2731 15.16 31.3931 16.28 31.3931 17.76C31.3931 20.6 30.9931 26.2 30.4331 30.12C32.5931 29.92 34.7531 29.84 37.4731 29.76C36.7931 28.04 36.5531 26.24 36.5531 24.32C36.5531 21.52 37.0731 16.84 37.0731 14.08C37.0731 10.92 36.3931 8.44 33.8331 8.44C31.5531 8.44 30.1931 10.48 29.0731 12.72C29.1531 12.16 29.2731 11.6 29.2731 11.04C29.2731 9.32 28.2731 8.52 26.7131 8.52C25.1131 8.52 22.9531 9.4 21.8731 10.2ZM50.9837 11.6C50.9837 8.24 49.1437 7.08 45.9437 7.08C44.1037 7.08 42.1837 7.48 41.1437 8.48C43.7037 10.4 44.2637 13.64 44.2637 16.8C44.2637 19.24 43.9437 22.36 43.9437 24C43.9437 27.88 45.8237 30.64 48.7037 30.64C51.8637 30.64 53.5037 27.36 53.5037 24.12C53.5037 22.6 53.1838 21.4 52.3437 20.6C51.9437 21.48 51.1837 23.8 50.0637 23.8C49.1837 23.8 49.0637 22.52 49.0637 21.48C49.0637 20.32 49.2237 18.44 49.7837 17.32C53.2237 17.16 54.5437 16.24 54.5437 13.76C53.3838 13.88 51.9838 14.24 50.7037 14.44C50.8237 13.52 50.9837 12.6 50.9837 11.6ZM65.6503 13.16C65.6903 12.6 65.8503 11.88 65.8503 11.2C65.8503 9.52 64.7703 8.56 63.2903 8.56C61.4103 8.56 59.4903 9.6 58.6503 10.88C60.1303 11.4 60.7303 13.12 60.7303 19.48C60.7303 26.28 59.6903 28.08 58.9303 30.16C60.6503 30.08 62.3703 29.96 64.2903 29.96C65.3703 29.96 66.5303 30 67.6903 30.2C66.2903 27.24 65.7303 24.64 65.7303 22.48C65.7303 17.88 68.0503 15.24 69.5703 15.24C70.0103 15.24 70.4103 15.48 70.4103 16.76C70.4103 17.68 70.2103 18.32 69.6103 19.56C72.8503 18.44 74.0903 15.64 74.0903 13.12C74.0903 10.68 72.8903 8.56 70.9703 8.56C69.0903 8.56 67.5303 9.56 65.6503 13.16ZM85.7069 8.32C81.1869 8.32 78.9869 14.2 78.9869 19.44C78.9869 24.12 80.7469 30.28 85.9869 30.28C89.3469 30.28 91.2669 27.8 91.2669 24.4C91.2669 23.28 91.0269 22.32 90.4669 21.72C90.3469 22.84 88.3869 24.64 86.7469 24.64C85.8669 24.64 84.9869 24.12 84.9869 23.16C84.9869 21.08 88.7869 19.68 91.2269 19.52C91.3069 19 91.3069 18.36 91.3069 17.76C91.3069 15.16 90.5869 8.32 85.7069 8.32ZM84.5469 16.32C84.5469 14.96 84.7069 13.36 85.6669 13.36C86.4269 13.36 86.6269 14.4 86.5469 16.04C85.9469 16.36 85.1869 16.88 84.5869 17.36C84.5469 17.08 84.5469 16.68 84.5469 16.32ZM96.9834 9.8C97.7434 12.28 98.0234 15.44 98.0234 18.72C98.0234 22.92 97.5434 27.08 96.7834 30.16C98.0634 30 99.5434 29.92 100.903 29.92C102.623 29.92 104.383 30.04 105.583 30.04C104.263 28.36 102.863 25.56 102.863 23.72C102.863 23.16 103.023 22.48 103.903 22.48C104.103 22.48 104.303 22.52 104.703 22.52C104.983 22.52 107.303 22.48 108.943 20.64C110.023 19.48 110.623 17.8 110.623 15.68C110.623 10.4 106.903 8.16 103.143 8.16C101.183 8.16 98.9434 8.8 96.9834 9.8ZM103.103 19.6C103.023 19.04 103.023 18.28 103.023 17.52C103.023 15.04 103.543 13 104.583 13C105.303 13 105.823 14.08 105.823 15.56C105.823 16.96 105.183 18.68 103.103 19.6ZM122.327 13.16C122.367 12.6 122.527 11.88 122.527 11.2C122.527 9.52 121.447 8.56 119.967 8.56C118.087 8.56 116.167 9.6 115.327 10.88C116.807 11.4 117.407 13.12 117.407 19.48C117.407 26.28 116.367 28.08 115.607 30.16C117.327 30.08 119.047 29.96 120.967 29.96C122.047 29.96 123.207 30 124.367 30.2C122.967 27.24 122.407 24.64 122.407 22.48C122.407 17.88 124.727 15.24 126.247 15.24C126.687 15.24 127.087 15.48 127.087 16.76C127.087 17.68 126.887 18.32 126.287 19.56C129.527 18.44 130.767 15.64 130.767 13.12C130.767 10.68 129.567 8.56 127.647 8.56C125.767 8.56 124.207 9.56 122.327 13.16ZM142.383 8.32C137.863 8.32 135.663 14.2 135.663 19.44C135.663 24.12 137.423 30.28 142.663 30.28C146.023 30.28 147.943 27.8 147.943 24.4C147.943 23.28 147.703 22.32 147.143 21.72C147.023 22.84 145.063 24.64 143.423 24.64C142.543 24.64 141.663 24.12 141.663 23.16C141.663 21.08 145.463 19.68 147.903 19.52C147.983 19 147.983 18.36 147.983 17.76C147.983 15.16 147.263 8.32 142.383 8.32ZM141.223 16.32C141.223 14.96 141.383 13.36 142.343 13.36C143.103 13.36 143.303 14.4 143.223 16.04C142.623 16.36 141.863 16.88 141.263 17.36C141.223 17.08 141.223 16.68 141.223 16.32ZM153.025 10.2C154.265 11.12 154.625 14.64 154.625 18.44C154.625 23.16 154.105 28.28 153.825 30.2C156.105 29.76 158.225 29.76 160.505 29.76C160.385 28.8 160.065 24.48 160.065 21.64C160.065 18.2 160.545 15.16 161.745 15.16C162.425 15.16 162.545 16.28 162.545 17.76C162.545 20.6 162.145 26.2 161.585 30.12C163.745 29.92 165.905 29.84 168.625 29.76C167.945 28.04 167.705 26.24 167.705 24.32C167.705 21.52 168.225 16.84 168.225 14.08C168.225 10.92 167.545 8.44 164.985 8.44C162.705 8.44 161.345 10.48 160.225 12.72C160.305 12.16 160.425 11.6 160.425 11.04C160.425 9.32 159.425 8.52 157.865 8.52C156.265 8.52 154.105 9.4 153.025 10.2ZM181.144 8.32C176.624 8.32 174.424 14.2 174.424 19.44C174.424 24.12 176.184 30.28 181.424 30.28C184.784 30.28 186.704 27.8 186.704 24.4C186.704 23.28 186.464 22.32 185.904 21.72C185.784 22.84 183.824 24.64 182.184 24.64C181.304 24.64 180.424 24.12 180.424 23.16C180.424 21.08 184.224 19.68 186.664 19.52C186.744 19 186.744 18.36 186.744 17.76C186.744 15.16 186.024 8.32 181.144 8.32ZM179.984 16.32C179.984 14.96 180.144 13.36 181.104 13.36C181.864 13.36 182.064 14.4 181.984 16.04C181.384 16.36 180.624 16.88 180.024 17.36C179.984 17.08 179.984 16.68 179.984 16.32ZM191.829 9.32C192.989 10.44 193.389 12.08 193.389 14.08C193.389 17.16 192.429 21.04 192.429 23.96C192.429 26.92 193.389 30.28 197.149 30.28C199.309 30.28 200.549 29.16 201.669 27.52C202.629 29.6 203.749 30.4 204.829 30.4C206.789 30.4 208.509 27.84 208.509 25.12C208.509 24.4 208.389 23.6 208.149 22.92C207.749 23.56 207.269 23.92 206.749 23.92C206.069 23.92 205.589 23.16 205.589 21.76C205.589 19.32 206.989 15.68 206.989 13.08C206.989 9.84 204.749 8.52 202.069 8.52C201.309 8.52 200.509 8.64 199.789 8.88C200.669 9.88 201.269 11.64 201.269 14.64C201.269 19.2 199.909 24.44 198.789 24.44C198.429 24.44 198.029 23.8 198.029 22.84C198.029 20.68 199.829 15.28 199.829 12.44C199.829 9.56 197.949 8.52 195.269 8.52C193.909 8.52 192.829 8.8 191.829 9.32ZM219.796 13.16C219.836 12.6 219.996 11.88 219.996 11.2C219.996 9.52 218.916 8.56 217.436 8.56C215.556 8.56 213.636 9.6 212.796 10.88C214.276 11.4 214.876 13.12 214.876 19.48C214.876 26.28 213.836 28.08 213.076 30.16C214.796 30.08 216.516 29.96 218.436 29.96C219.516 29.96 220.676 30 221.836 30.2C220.436 27.24 219.876 24.64 219.876 22.48C219.876 17.88 222.196 15.24 223.716 15.24C224.156 15.24 224.556 15.48 224.556 16.76C224.556 17.68 224.356 18.32 223.756 19.56C226.996 18.44 228.236 15.64 228.236 13.12C228.236 10.68 227.036 8.56 225.116 8.56C223.236 8.56 221.676 9.56 219.796 13.16Z" fill="#FFC261"/>
</svg>
