<svg width="106" height="32" viewBox="0 0 106 32" fill="none" xmlns="http://www.w3.org/2000/svg">
<path d="M11.36 14.32C15.64 14 18.08 11.08 18.08 7.64C18.08 4.04 15.48 1.96 11.84 1.96C4.68 1.96 0.92 10.2 0.92 17.36C0.92 24.16 4.36 31.56 10.44 31.56C16.08 31.56 18.56 25.32 18.56 20.2C18.56 18.84 18.4 17.6 18.04 16.76C17.52 15.64 16.56 15.44 14.68 15.44C13.84 15.44 12.8 15.48 12.32 15.48C10.48 15.48 9.6 14.96 8.24 14.04C7.96 14.84 7.84 15.8 7.84 16.72C7.84 19.04 8.64 21.28 11.08 21.28C11.52 21.28 12.08 21.2 12.68 20.96C12.4 23.12 11.76 24.52 10.56 24.52C8.68 24.52 6.84 21 6.84 17.12C6.84 13.92 8.04 9.04 10.68 9.04C11.6 9.04 12.32 9.64 12.32 11.48C12.32 12.92 11.84 13.76 11.36 14.32ZM29.6628 14.16C29.7028 13.6 29.8628 12.88 29.8628 12.2C29.8628 10.52 28.7828 9.56 27.3028 9.56C25.4228 9.56 23.5028 10.6 22.6628 11.88C24.1428 12.4 24.7428 14.12 24.7428 20.48C24.7428 27.28 23.7028 29.08 22.9428 31.16C24.6628 31.08 26.3828 30.96 28.3028 30.96C29.3828 30.96 30.5428 31 31.7028 31.2C30.3028 28.24 29.7428 25.64 29.7428 23.48C29.7428 18.88 32.0628 16.24 33.5828 16.24C34.0228 16.24 34.4228 16.48 34.4228 17.76C34.4228 18.68 34.2228 19.32 33.6228 20.56C36.8628 19.44 38.1028 16.64 38.1028 14.12C38.1028 11.68 36.9028 9.56 34.9828 9.56C33.1028 9.56 31.5428 10.56 29.6628 14.16ZM57.0831 22.4C56.8431 23.4 56.4031 23.92 55.9631 23.92C55.4031 23.92 54.8431 23.08 54.8431 21.24C54.8431 19.4 55.4031 17.36 55.4031 15.68C55.4031 12.44 53.3631 9.52 49.6831 9.52C46.2031 9.52 43.3631 12.04 43.3631 16.92C43.3631 17.92 43.5231 18.56 43.7231 19.32C44.8431 17.64 46.6831 15.76 48.8831 15.76C49.8031 15.76 50.6031 16.08 50.6031 17C50.6031 19.84 42.6831 19.4 42.6831 25.36C42.6831 28.44 44.8031 31.32 47.8031 31.32C49.0831 31.32 50.4831 30.8 51.4831 29.44C52.1231 30.64 53.1231 31.12 54.1231 31.12C56.3631 31.12 57.7231 28.48 57.7231 25.6C57.7231 24.48 57.5231 23.4 57.0831 22.4ZM47.8831 24.92C47.8831 23.88 48.7631 22.64 50.8031 21.28C50.8031 23.2 50.0031 25.8 48.6431 25.8C48.1231 25.8 47.8831 25.44 47.8831 24.92ZM73.9631 0.239998C73.2431 1.76 72.0031 1.76 69.6431 1.8C66.8831 1.84 62.3231 2.56 62.3231 9.48C62.3231 13.6 63.9631 19.48 63.9631 23.56C63.9631 26.04 63.3631 28.16 62.1631 31.28C64.0831 31.08 66.0431 30.92 68.1231 30.92C69.6431 30.92 71.2431 31 72.7631 31.2C69.2831 26.44 68.5631 21.44 67.9631 15.8C69.2031 15.32 70.4831 15.08 71.8031 14.76C73.0031 14.48 73.8431 12.88 73.8431 12C73.8431 11.56 73.6031 11.28 73.1631 11.28C72.3231 11.28 69.3631 12.36 68.0431 12.76C68.0431 8.8 71.6431 9.2 73.5231 7.4C74.5631 6.4 75.0031 5 75.0031 3.6C75.0031 2.4 74.6431 1.2 73.9631 0.239998ZM79.0156 11.2C81.0556 11.96 81.8956 15.76 81.8956 20.16C81.8956 24.28 81.1356 28.8 79.8956 31.24C81.0956 31.12 82.5356 31.04 84.1756 31.04C85.7356 31.04 87.5756 31.12 88.4156 31.2C87.3756 29.44 86.8956 28.2 86.8956 24.68C86.8956 21.64 87.8956 17.8 87.8956 14.88C87.8956 12.04 86.9356 9.96 83.2556 9.96C81.6556 9.96 80.2156 10.32 79.0156 11.2ZM80.8156 4.88C80.8156 6.6 82.1356 7.88 83.8156 7.88C85.4956 7.88 86.8556 6.6 86.8556 4.88C86.8556 3.2 85.4956 1.88 83.8156 1.88C82.1356 1.88 80.8156 3.2 80.8156 4.88ZM104.049 16.64C104.969 15.6 105.369 14.52 105.369 13.56C105.369 11.04 102.849 9.24 99.9291 9.24C96.9291 9.24 94.3291 11.12 94.3291 14.68C94.3291 16.28 94.8491 17.72 95.5291 18.88C96.8091 20.96 99.1691 22.8 99.1691 24.52C99.1691 25.28 98.6891 25.92 97.8091 25.92C96.7291 25.92 95.6091 24.92 95.2491 22.64C94.0891 23.4 93.6891 24.6 93.6891 26C93.6891 29.28 96.0091 31.44 99.4091 31.44C103.009 31.44 105.609 29.08 105.609 25.24C105.609 23.6 105.129 22.08 104.409 20.64C102.849 17.76 100.729 16.48 100.729 14.88C100.729 14.16 101.169 13.84 101.729 13.84C102.969 13.84 103.889 15.56 104.049 16.64Z" fill="#FFC261"/>
</svg>
