<svg width="220" height="34" viewBox="0 0 220 34" fill="none" xmlns="http://www.w3.org/2000/svg">
<path d="M0.76 4.76C2 9.88 2.64 14.96 2.64 20.16C2.64 24.36 2.2 28.64 1.36 33.16C3.24 32.96 4.92 32.84 6.72 32.84C7.76 32.84 8.92 32.88 10.16 32.96C8.72 28.88 7.92 23.04 7.92 17.4C7.92 12.76 8.48 8.28 9.64 4.96C8.68 5.04 7.76 5.04 6.8 5.04C4.8 5.04 2.76 4.92 0.76 4.76ZM14.9981 13.2C16.2381 14.12 16.5981 17.64 16.5981 21.44C16.5981 26.16 16.0781 31.28 15.7981 33.2C18.0781 32.76 20.1981 32.76 22.4781 32.76C22.3581 31.8 22.0381 27.48 22.0381 24.64C22.0381 21.2 22.5181 18.16 23.7181 18.16C24.3981 18.16 24.5181 19.28 24.5181 20.76C24.5181 23.6 24.1181 29.2 23.5581 33.12C25.7181 32.92 27.8781 32.84 30.5981 32.76C29.9181 31.04 29.6781 29.24 29.6781 27.32C29.6781 24.52 30.1981 19.84 30.1981 17.08C30.1981 13.92 29.5181 11.44 26.9581 11.44C24.6781 11.44 23.3181 13.48 22.1981 15.72C22.2781 15.16 22.3981 14.6 22.3981 14.04C22.3981 12.32 21.3981 11.52 19.8381 11.52C18.2381 11.52 16.0781 12.4 14.9981 13.2ZM44.1087 14.6C44.1087 11.24 42.2687 10.08 39.0687 10.08C37.2287 10.08 35.3087 10.48 34.2687 11.48C36.8287 13.4 37.3887 16.64 37.3887 19.8C37.3887 22.24 37.0687 25.36 37.0687 27C37.0687 30.88 38.9487 33.64 41.8287 33.64C44.9887 33.64 46.6287 30.36 46.6287 27.12C46.6287 25.6 46.3088 24.4 45.4687 23.6C45.0687 24.48 44.3087 26.8 43.1887 26.8C42.3087 26.8 42.1887 25.52 42.1887 24.48C42.1887 23.32 42.3487 21.44 42.9087 20.32C46.3487 20.16 47.6687 19.24 47.6687 16.76C46.5088 16.88 45.1088 17.24 43.8287 17.44C43.9487 16.52 44.1087 15.6 44.1087 14.6ZM58.7753 16.16C58.8153 15.6 58.9753 14.88 58.9753 14.2C58.9753 12.52 57.8953 11.56 56.4153 11.56C54.5353 11.56 52.6153 12.6 51.7753 13.88C53.2553 14.4 53.8553 16.12 53.8553 22.48C53.8553 29.28 52.8153 31.08 52.0553 33.16C53.7753 33.08 55.4953 32.96 57.4153 32.96C58.4953 32.96 59.6553 33 60.8153 33.2C59.4153 30.24 58.8553 27.64 58.8553 25.48C58.8553 20.88 61.1753 18.24 62.6953 18.24C63.1353 18.24 63.5353 18.48 63.5353 19.76C63.5353 20.68 63.3353 21.32 62.7353 22.56C65.9753 21.44 67.2153 18.64 67.2153 16.12C67.2153 13.68 66.0153 11.56 64.0953 11.56C62.2153 11.56 60.6553 12.56 58.7753 16.16ZM86.1956 24.4C85.9556 25.4 85.5156 25.92 85.0756 25.92C84.5156 25.92 83.9556 25.08 83.9556 23.24C83.9556 21.4 84.5156 19.36 84.5156 17.68C84.5156 14.44 82.4756 11.52 78.7956 11.52C75.3156 11.52 72.4756 14.04 72.4756 18.92C72.4756 19.92 72.6356 20.56 72.8356 21.32C73.9556 19.64 75.7956 17.76 77.9956 17.76C78.9156 17.76 79.7156 18.08 79.7156 19C79.7156 21.84 71.7956 21.4 71.7956 27.36C71.7956 30.44 73.9156 33.32 76.9156 33.32C78.1956 33.32 79.5956 32.8 80.5956 31.44C81.2356 32.64 82.2356 33.12 83.2356 33.12C85.4756 33.12 86.8356 30.48 86.8356 27.6C86.8356 26.48 86.6356 25.4 86.1956 24.4ZM76.9956 26.92C76.9956 25.88 77.8756 24.64 79.9156 23.28C79.9156 25.2 79.1156 27.8 77.7556 27.8C77.2356 27.8 76.9956 27.44 76.9956 26.92ZM105.297 0.959998C102.977 2.04 102.457 3.32 102.457 4.76C102.457 6.12 102.937 7.88 102.937 9.32C102.937 11.32 102.017 13.76 99.4969 15.88C99.4969 12.24 99.9769 8.4 100.737 4.76C100.137 4.8 99.5369 4.8 98.9369 4.8C96.6169 4.8 94.3369 4.64 92.0569 4.4C93.1769 8.88 93.6569 14.12 93.6569 19.48C93.6569 24.12 93.2969 28.8 92.6569 33.12C95.9369 33.12 98.9769 33.12 101.737 33.32C100.697 30.76 99.1769 24.36 99.1769 20.6C99.8569 23.2 102.697 33.96 109.017 33.96C112.377 33.96 113.257 30.96 113.257 28.88C113.257 26.84 112.417 25 110.897 24.4C110.897 25.88 110.537 27.04 109.577 27.04C107.737 27.04 105.697 22.8 104.177 18.04C108.177 14.64 109.657 12.64 109.657 10.48C109.657 8.6 108.537 7.16 106.537 4.88C105.737 3.96 104.897 2.72 105.297 0.959998ZM132.73 24.4C132.49 25.4 132.05 25.92 131.61 25.92C131.05 25.92 130.49 25.08 130.49 23.24C130.49 21.4 131.05 19.36 131.05 17.68C131.05 14.44 129.01 11.52 125.33 11.52C121.85 11.52 119.01 14.04 119.01 18.92C119.01 19.92 119.17 20.56 119.37 21.32C120.49 19.64 122.33 17.76 124.53 17.76C125.45 17.76 126.25 18.08 126.25 19C126.25 21.84 118.33 21.4 118.33 27.36C118.33 30.44 120.45 33.32 123.45 33.32C124.73 33.32 126.13 32.8 127.13 31.44C127.77 32.64 128.77 33.12 129.77 33.12C132.01 33.12 133.37 30.48 133.37 27.6C133.37 26.48 133.17 25.4 132.73 24.4ZM123.53 26.92C123.53 25.88 124.41 24.64 126.45 23.28C126.45 25.2 125.65 27.8 124.29 27.8C123.77 27.8 123.53 27.44 123.53 26.92ZM137.57 13.2C138.81 14.12 139.13 17.64 139.13 21.4C139.13 26.16 138.65 31.28 138.37 33.2C140.61 32.76 142.73 32.76 144.97 32.76C144.85 31.8 144.61 27.64 144.61 24.88C144.61 21.36 145.01 18.32 146.21 18.32C146.89 18.32 147.01 19.48 147.01 20.92C147.01 23.76 146.61 28.88 146.05 32.8C147.01 32.72 148.13 32.68 149.01 32.68C150.37 32.68 151.45 32.76 152.33 32.8C151.89 31.08 151.73 29.48 151.73 27.04C151.73 25.76 151.77 24.28 152.01 22.6C152.09 21.48 152.53 18.32 153.69 18.32C154.37 18.32 154.53 19.28 154.53 20.92C154.53 23.76 154.13 29.2 153.57 33.12C155.69 32.92 157.85 32.84 160.45 32.76C159.81 31.04 159.53 29.24 159.53 27.32C159.53 24.52 160.09 19.84 160.09 17.08C160.09 13.92 159.37 11.44 156.93 11.44C154.93 11.44 153.29 13.04 152.17 15.2C152.01 13 151.37 11.44 149.41 11.44C147.17 11.44 145.81 13.48 144.69 15.72C144.77 15.16 144.89 14.6 144.89 14.04C144.89 12.32 143.85 11.52 142.37 11.52C140.77 11.52 138.65 12.4 137.57 13.2ZM166.629 12.8C167.389 15.28 167.669 18.44 167.669 21.72C167.669 25.92 167.189 30.08 166.429 33.16C167.709 33 169.189 32.92 170.549 32.92C172.269 32.92 174.029 33.04 175.229 33.04C173.909 31.36 172.509 28.56 172.509 26.72C172.509 26.16 172.669 25.48 173.549 25.48C173.749 25.48 173.949 25.52 174.349 25.52C174.629 25.52 176.949 25.48 178.589 23.64C179.669 22.48 180.269 20.8 180.269 18.68C180.269 13.4 176.549 11.16 172.789 11.16C170.829 11.16 168.589 11.8 166.629 12.8ZM172.749 22.6C172.669 22.04 172.669 21.28 172.669 20.52C172.669 18.04 173.189 16 174.229 16C174.949 16 175.469 17.08 175.469 18.56C175.469 19.96 174.829 21.68 172.749 22.6ZM186.023 12.32C187.183 13.44 187.583 15.08 187.583 17.08C187.583 20.16 186.623 24.04 186.623 26.96C186.623 29.92 187.583 33.28 191.343 33.28C193.503 33.28 194.743 32.16 195.863 30.52C196.823 32.6 197.943 33.4 199.023 33.4C200.983 33.4 202.703 30.84 202.703 28.12C202.703 27.4 202.583 26.6 202.343 25.92C201.943 26.56 201.463 26.92 200.943 26.92C200.263 26.92 199.783 26.16 199.783 24.76C199.783 22.32 201.183 18.68 201.183 16.08C201.183 12.84 198.943 11.52 196.263 11.52C195.503 11.52 194.703 11.64 193.983 11.88C194.863 12.88 195.463 14.64 195.463 17.64C195.463 22.2 194.103 27.44 192.983 27.44C192.623 27.44 192.223 26.8 192.223 25.84C192.223 23.68 194.023 18.28 194.023 15.44C194.023 12.56 192.143 11.52 189.463 11.52C188.103 11.52 187.023 11.8 186.023 12.32ZM218.08 18.64C219 17.6 219.4 16.52 219.4 15.56C219.4 13.04 216.88 11.24 213.96 11.24C210.96 11.24 208.36 13.12 208.36 16.68C208.36 18.28 208.88 19.72 209.56 20.88C210.84 22.96 213.2 24.8 213.2 26.52C213.2 27.28 212.72 27.92 211.84 27.92C210.76 27.92 209.64 26.92 209.28 24.64C208.12 25.4 207.72 26.6 207.72 28C207.72 31.28 210.04 33.44 213.44 33.44C217.04 33.44 219.64 31.08 219.64 27.24C219.64 25.6 219.16 24.08 218.44 22.64C216.88 19.76 214.76 18.48 214.76 16.88C214.76 16.16 215.2 15.84 215.76 15.84C217 15.84 217.92 17.56 218.08 18.64Z" fill="#FFC261"/>
</svg>
