<svg width="32" height="30" viewBox="0 0 32 30" fill="none" xmlns="http://www.w3.org/2000/svg">
<path d="M0.76 0.759999C2 5.88 2.64 10.96 2.64 16.16C2.64 20.36 2.2 24.64 1.36 29.16C3.24 28.96 4.92 28.84 6.72 28.84C7.76 28.84 8.92 28.88 10.16 28.96C8.72 24.88 7.92 19.04 7.92 13.4C7.92 8.76 8.48 4.28 9.64 0.959999C8.68 1.04 7.76 1.04 6.8 1.04C4.8 1.04 2.76 0.919999 0.76 0.759999ZM30.8353 0.159999C25.7553 0.759999 20.5953 0.88 15.4753 0.919999C14.9553 2.04 14.6753 4.08 14.6753 5.88C14.6753 8.88 15.5153 12.12 17.7953 13.36C17.6753 12.88 17.5953 12.08 17.5953 11.28C17.5953 9.16 18.1953 7.04 19.3153 7.04C20.6353 7.04 20.9553 10.04 20.9553 12.32C20.9553 18.28 18.8753 25.56 16.8753 29.12C19.2353 28.96 22.0753 28.88 24.5953 28.88C26.3953 28.88 27.9953 28.92 29.3153 28.96C27.6353 26 27.3553 25.52 26.9153 23.6C26.3553 21.36 25.3153 16.24 25.3153 11.72C25.3153 8.88 25.7553 6.76 26.9553 6.76C28.3953 6.76 28.7953 10 28.7953 11.8C28.7953 12.16 28.7953 12.52 28.7553 12.72C30.7153 11.56 31.1953 8.16 31.1953 5.24C31.1953 3.32 30.9953 1.44 30.8353 0.159999Z" fill="#FFC261"/>
</svg>
