<svg width="242" height="60" viewBox="0 0 242 60" fill="none" xmlns="http://www.w3.org/2000/svg">
<path d="M14.8763 15.7904C12.8033 17.2909 12.5355 18.6463 12.8086 20.0601C13.0666 21.3954 13.8717 23.0324 14.1448 24.4463C14.5241 26.41 14.0836 28.9802 12.0115 31.5397C11.3211 27.9658 11.064 24.1044 11.1198 20.3863C10.5383 20.5394 9.94919 20.6532 9.36008 20.767C7.08219 21.2071 4.81323 21.4824 2.5291 21.6792C4.47849 25.8655 5.94365 30.9193 6.96027 36.182C7.84034 40.7378 8.37453 45.4011 8.56552 49.7641C11.786 49.142 14.7708 48.5654 17.5186 48.2383C16.012 45.922 13.3057 39.9265 12.5925 36.2347C13.7533 38.6585 18.5826 48.6846 24.7879 47.4858C28.0869 46.8486 28.3819 43.7361 27.9874 41.6939C27.6005 39.6909 26.4267 38.0436 24.8205 37.7428C25.1012 39.1959 24.9678 40.4032 24.0252 40.5852C22.2186 40.9342 19.4114 37.1581 17.0162 32.7728C20.2987 28.6759 21.3725 26.4315 20.9628 24.3107C20.6062 22.4648 19.2334 21.2634 16.8373 19.4041C15.8773 18.6525 14.8174 17.5944 14.8763 15.7904Z" fill="#FFC261"/>
<path d="M47.2199 34.2755C47.1287 35.2999 46.7695 35.8786 46.3343 35.943C45.7803 36.0249 45.1034 35.2758 44.8343 33.4556C44.5652 31.6354 44.8208 29.5355 44.5751 27.8735C44.1012 24.6684 41.656 22.0781 38.0156 22.6164C34.573 23.1254 32.1322 26.0337 32.8459 30.8612C32.9922 31.8504 33.2441 32.4601 33.5531 33.1827C34.4153 31.357 35.9606 29.2281 38.1369 28.9063C39.047 28.7717 39.8852 28.9713 40.0198 29.8814C40.4352 32.6908 32.536 33.414 33.4077 39.3099C33.8582 42.3568 36.3766 44.8957 39.3444 44.4569C40.6106 44.2697 41.9195 43.5505 42.7098 42.0589C43.5184 43.1524 44.5779 43.481 45.5671 43.3347C47.783 43.0071 48.7423 40.1965 48.3211 37.3475C48.1572 36.2396 47.8014 35.2004 47.2199 34.2755ZM38.4874 38.114C38.3353 37.0852 39.0245 35.7299 40.8436 34.0861C41.1244 35.9855 40.7133 38.6745 39.368 38.8734C38.8535 38.9495 38.5635 38.6285 38.4874 38.114Z" fill="#FFC261"/>
<path d="M59.1616 23.7072C59.3267 21.879 60.7857 17.4974 60.52 15.0317C60.22 12.2478 57.8008 11.8246 55.9714 12.0217C54.2613 12.206 52.6154 12.9868 51.393 13.9634C53.3057 15.2861 54.1111 17.5327 54.3853 20.078C54.8353 24.2538 53.9864 29.8168 54.4192 33.8335C55.0277 39.4808 58.2309 41.9519 61.5715 41.5919C66.9802 41.0091 68.5436 33.1162 67.8708 26.8723C67.4037 22.5374 65.9516 19.5156 63.3666 19.7942C61.4974 19.9956 60.0511 21.8814 59.1616 23.7072ZM59.6088 32.7111C59.3474 30.2851 59.7822 25.7323 61.4525 25.5524C62.3672 25.4538 62.7387 26.6609 62.9101 28.2517C63.2529 31.4333 62.6248 35.6851 61.2328 35.8351C60.3977 35.9251 59.7888 34.3814 59.6088 32.7111Z" fill="#FFC261"/>
<path d="M74.8761 20.0454C76.9657 20.6557 78.0787 24.3849 78.3973 28.7733C78.6957 32.8825 78.265 37.4457 77.2049 39.969C78.3931 39.7625 79.8235 39.5784 81.4592 39.4596C83.0151 39.3467 84.8561 39.2932 85.6997 39.3122C84.5349 37.6321 83.9664 36.4301 83.7115 32.9194C83.4914 29.8873 84.2107 25.985 83.9992 23.0727C83.7936 20.2401 82.6855 18.2351 79.0151 18.5016C77.4193 18.6175 76.0092 19.0808 74.8761 20.0454ZM76.2137 13.6116C76.3382 15.3271 77.7475 16.5082 79.423 16.3865C81.0986 16.2648 82.3624 14.8897 82.2378 13.1742C82.1162 11.4987 80.6642 10.2806 78.9886 10.4023C77.313 10.5239 76.092 11.936 76.2137 13.6116Z" fill="#FFC261"/>
<path d="M109.363 32.0149C108.981 32.5089 108.708 32.7188 108.268 32.7345C106.829 32.786 106.174 30.1278 106.069 27.2097C105.888 22.1329 107.364 17.5172 107.239 14.0394C107.112 10.4817 105.387 9.26259 102.269 9.37419C100.51 9.43715 98.9654 9.8927 97.9875 10.5281C100.666 11.5529 101.507 13.8043 101.601 16.4426C101.647 17.7218 101.53 18.9267 101.409 20.0118C100.342 18.1687 98.7447 17.1452 97.1057 17.2039C93.4281 17.3355 91.9923 23.0706 92.1698 28.0274C92.3815 33.9436 94.4021 38.9545 98.6793 38.8014C100.238 38.7456 101.612 37.976 102.485 36.6639C103.065 38.3242 104.169 38.9652 105.368 38.9223C107.527 38.845 109.966 36.5562 109.873 33.9579C109.85 33.3183 109.706 32.643 109.363 32.0149ZM97.9575 28.7008C97.8402 25.4229 98.294 22.4448 99.4932 22.4018C100.533 22.3646 100.945 24.9515 101.025 27.1901C101.123 29.9083 100.775 33.6032 99.5355 33.6475C98.696 33.6776 98.0749 31.9787 97.9575 28.7008Z" fill="#FFC261"/>
<path d="M151.199 32.6205C150.664 33.0002 150.136 33.18 149.697 33.163C148.418 33.1137 147.84 31.4902 147.937 28.9721C148.066 25.6146 149.352 20.3002 149.471 17.2225C149.614 13.5052 148.149 9.96619 142.953 9.76587C137.077 9.53936 134.427 13.9205 134.291 17.4379C134.209 19.5563 134.979 21.3873 136.52 21.9271C137.424 19.2399 138.668 16.0455 141.266 16.1456C142.505 16.1934 142.959 16.8914 142.912 18.0905C142.808 20.8085 140.394 21.1157 137.43 23.2431C135.002 24.9509 132.621 27.541 132.477 31.2583C132.325 35.2153 134.796 38.5931 138.394 38.7317C139.953 38.7918 141.655 38.257 143.39 36.8428C144.377 38.2419 145.556 38.8077 146.635 38.8493C148.914 38.9371 151.086 36.5791 151.206 33.4614C151.217 33.1816 151.228 32.9018 151.199 32.6205ZM142.409 25.9569C142.398 26.2367 142.421 26.6779 142.401 27.1975C142.329 29.0762 141.638 32.4521 139.999 32.3889C139.36 32.3642 138.899 31.8661 138.939 30.8269C139.025 28.5885 141.419 26.7194 142.409 25.9569Z" fill="#FFC261"/>
<path d="M166.975 26.9507C168.61 27.0814 170.441 26.2648 170.655 23.5934C170.884 20.7225 169.106 18.3733 165.796 18.1085C160.573 17.6908 158.093 23.1103 157.679 28.2937C157.203 34.2347 159.457 39.6717 164.202 40.0513C167.392 40.3064 170.524 38.2697 170.827 34.4818C170.977 32.6078 170.403 30.7561 168.889 30.1134C168.577 33.0177 167.395 34.2474 165.999 34.1357C164.364 34.005 162.87 32.1198 163.202 27.9731C163.45 24.863 164.537 22.8231 165.892 22.9315C166.849 23.0081 167.315 24.209 167.191 25.7641C167.155 26.2027 167.084 26.5982 166.975 26.9507Z" fill="#FFC261"/>
<path d="M191.919 34.0168C191.564 34.9818 191.066 35.4467 190.629 35.3951C190.073 35.3295 189.615 34.4297 189.831 32.6024C190.046 30.775 190.841 28.8147 191.038 27.1463C191.418 23.9286 189.734 20.7897 186.079 20.3585C182.623 19.9508 179.508 22.1207 178.936 26.9671C178.819 27.9602 178.903 28.6145 179.012 29.3927C180.321 27.8555 182.369 26.2041 184.554 26.4618C185.467 26.5696 186.224 26.9811 186.117 27.8948C185.784 30.7152 177.97 29.3503 177.272 35.2693C176.911 38.3281 178.679 41.4366 181.658 41.7881C182.929 41.9381 184.381 41.5857 185.533 40.3522C186.028 41.6189 186.965 42.2128 187.958 42.3299C190.183 42.5924 191.843 40.1299 192.18 37.2697C192.311 36.1575 192.239 35.0615 191.919 34.0168ZM182.487 35.4416C182.609 34.4087 183.628 33.2804 185.814 32.1687C185.589 34.0755 184.49 36.5639 183.139 36.4045C182.623 36.3436 182.426 35.958 182.487 35.4416Z" fill="#FFC261"/>
<path d="M207.024 27.9136C207.151 27.3668 207.422 26.6806 207.528 26.009C207.79 24.3496 206.874 23.2326 205.412 23.0014C203.555 22.7077 201.496 23.4349 200.466 24.568C201.847 25.3128 202.171 27.1054 201.177 33.3873C200.115 40.1038 198.806 41.7192 197.731 43.655C199.442 43.8447 201.16 43.9949 203.056 44.2949C204.123 44.4636 205.262 44.6843 206.377 45.0631C205.456 41.9207 205.31 39.2652 205.647 37.1317C206.366 32.5882 209.07 30.3431 210.571 30.5806C211.006 30.6493 211.363 30.9489 211.163 32.2131C211.019 33.1218 210.722 33.7227 209.936 34.8538C213.311 34.2537 214.973 31.6818 215.367 29.1928C215.748 26.7828 214.894 24.5013 212.997 24.2013C211.141 23.9076 209.443 24.6516 207.024 27.9136Z" fill="#FFC261"/>
<path d="M234.62 41.3366C234.19 42.2705 233.657 42.6947 233.225 42.6089C232.676 42.4996 232.291 41.5665 232.649 39.7619C233.008 37.9572 233.956 36.0657 234.283 34.4179C234.915 31.2402 233.484 27.9783 229.875 27.2605C226.462 26.5816 223.185 28.4992 222.233 33.2855C222.038 34.2663 222.07 34.9252 222.118 35.7096C223.544 34.2803 225.715 32.7954 227.873 33.2245C228.775 33.404 229.497 33.8739 229.318 34.7762C228.764 37.5617 221.082 35.5852 219.919 41.4307C219.319 44.4515 220.836 47.6897 223.778 48.2749C225.034 48.5246 226.508 48.2877 227.754 47.1489C228.148 48.4507 229.035 49.1166 230.016 49.3116C232.213 49.7486 234.062 47.4246 234.624 44.5999C234.842 43.5015 234.857 42.4032 234.62 41.3366ZM225.105 42.0135C225.308 40.9935 226.413 39.949 228.679 39.013C228.305 40.8962 227.013 43.2901 225.679 43.0248C225.169 42.9234 225.004 42.5235 225.105 42.0135Z" fill="#FFC261"/>
</svg>
