<svg width="333" height="71" viewBox="0 0 333 71" fill="none" xmlns="http://www.w3.org/2000/svg">
<path d="M14.3462 27.9728C12.5398 29.5998 12.4239 30.9072 12.8249 32.2151C13.2037 33.4503 14.1298 34.9152 14.5308 36.2231C15.0878 38.0397 14.9317 40.512 13.2333 43.1393C12.2196 39.8332 11.5861 36.2118 11.2627 32.6941C10.7289 32.8975 10.184 33.0646 9.639 33.2317C7.53182 33.8778 5.41642 34.3674 3.27874 34.7844C5.54361 38.5415 7.43885 43.1671 8.93154 48.0354C10.2237 52.2498 11.2001 56.6007 11.8218 60.7027C14.8009 59.7892 17.5621 58.9426 20.1246 58.3557C18.467 56.3201 15.3042 50.9305 14.2571 47.5155C15.5987 49.6876 21.1747 58.6696 26.915 56.9096C29.9667 55.9739 29.9306 53.004 29.3513 51.1148C28.7832 49.2619 27.5078 47.8247 25.9602 47.703C26.3723 49.0472 26.3684 50.2011 25.4965 50.4684C23.8253 50.9808 20.7916 47.6979 18.0855 43.7979C20.7717 39.5958 21.5589 37.3671 20.9574 35.4053C20.4338 33.6977 19.0156 32.7017 16.5641 31.1879C15.5813 30.5751 14.473 29.6827 14.3462 27.9728Z" fill="#FFC261"/>
<path d="M47.138 42.0945C47.1537 43.0714 46.8718 43.6539 46.467 43.758C45.9517 43.8904 45.2378 43.25 44.8027 41.557C44.3675 39.864 44.4003 37.8546 44.003 36.3088C43.2368 33.3277 40.6692 31.1235 37.2833 31.9938C34.0814 32.8168 32.0643 35.8071 33.2184 40.2972C33.4549 41.2172 33.7534 41.7683 34.1172 42.4202C34.7504 40.6096 35.9987 38.4447 38.0229 37.9244C38.8694 37.7068 39.6812 37.812 39.8987 38.6585C40.5704 41.2716 33.1792 42.7398 34.5887 48.2236C35.3171 51.0574 37.9488 53.2059 40.7091 52.4964C41.8868 52.1937 43.052 51.3842 43.6504 49.8964C44.5231 50.8491 45.5567 51.0543 46.4768 50.8178C48.5378 50.288 49.1648 47.5373 48.4837 44.8875C48.2188 43.857 47.7794 42.9106 47.138 42.0945ZM39.2691 46.5889C39.0232 45.632 39.5396 44.283 41.095 42.5492C41.549 44.3158 41.4279 46.8972 40.1765 47.2189C39.6981 47.3419 39.3921 47.0674 39.2691 46.5889Z" fill="#FFC261"/>
<path d="M57.456 30.92C57.4328 29.1763 58.3822 24.8931 57.8896 22.5892C57.3334 19.988 55.0058 19.825 53.2965 20.1906C51.6986 20.5322 50.2199 21.4313 49.1605 22.4739C51.0975 23.5363 52.0786 25.5804 52.5871 27.9586C53.4214 31.8604 53.1643 37.2002 53.9668 40.9534C55.0951 46.2301 58.364 48.2512 61.4855 47.5838C66.5392 46.5032 67.2432 38.8917 65.9957 33.0576C65.1296 29.0071 63.4614 26.294 61.046 26.8105C59.2995 27.1839 58.1176 29.1076 57.456 30.92ZM58.7607 39.3843C58.276 37.1175 58.2407 32.7728 59.8015 32.4391C60.6561 32.2564 61.1254 33.3607 61.4433 34.8471C62.0789 37.8199 61.902 41.899 60.6014 42.1771C59.821 42.344 59.0944 40.945 58.7607 39.3843Z" fill="#FFC261"/>
<path d="M72.0752 25.9055C74.1092 26.2796 75.5225 29.6959 76.2491 33.8123C76.9295 37.6667 76.9649 42.0208 76.2078 44.5083C77.3106 44.1979 78.6446 43.8853 80.1788 43.6144C81.6383 43.3568 83.3729 43.1278 84.1719 43.0639C82.9083 41.5891 82.2545 40.5083 81.6732 37.2152C81.1712 34.3712 81.4726 30.6136 80.9905 27.8818C80.5215 25.2249 79.2799 23.4375 75.8371 24.0452C74.3402 24.3094 73.0525 24.884 72.0752 25.9055ZM72.7155 19.6956C72.9995 21.3047 74.4458 22.2843 76.0175 22.0068C77.5892 21.7294 78.6502 20.3073 78.3661 18.6982C78.0887 17.1265 76.5984 16.1162 75.0267 16.3936C73.455 16.671 72.4381 18.1239 72.7155 19.6956Z" fill="#FFC261"/>
<path d="M105.65 33.928C105.336 34.4315 105.098 34.656 104.684 34.713C103.329 34.8996 102.454 32.4499 102.076 29.7018C101.418 24.9208 102.371 20.4169 101.92 17.1417C101.459 13.7913 99.7122 12.8043 96.7759 13.2084C95.1195 13.4364 93.7032 14.0149 92.8398 14.7092C95.4694 15.4212 96.48 17.4686 96.822 19.9532C96.9878 21.1578 96.9926 22.3079 96.9819 23.345C95.7973 21.7052 94.1892 20.8909 92.6458 21.1033C89.1824 21.58 88.3747 27.138 89.0172 31.806C89.784 37.3775 92.1737 41.9201 96.2018 41.3657C97.6699 41.1636 98.8942 40.3047 99.5943 38.9809C100.301 40.4946 101.406 40.9947 102.535 40.8392C104.568 40.5594 106.655 38.1625 106.318 35.7156C106.235 35.1133 106.034 34.4889 105.65 33.928ZM94.5521 31.8881C94.1272 28.8012 94.2708 25.9429 95.4002 25.7875C96.379 25.6528 97.0169 28.0583 97.3071 30.1664C97.6594 32.7263 97.6843 36.2518 96.5173 36.4124C95.7268 36.5212 94.977 34.975 94.5521 31.8881Z" fill="#FFC261"/>
<path d="M135.02 14.2495C135.142 13.6347 135.286 12.7144 135.237 11.7276C135.163 10.2474 134.668 9.47317 132.542 9.57936C130.569 9.67795 127.529 10.5147 126.068 10.9682C128.227 14.5889 129.409 19.9707 129.676 25.322C129.902 29.8383 129.48 34.349 128.469 37.7097C130.921 37.2828 133.644 36.9565 136.299 36.7858C135.904 34.2183 135.597 31.8747 135.449 28.9144C135.087 21.6655 135.977 16.6368 137.457 16.5628C138.102 16.5306 138.187 17.4775 138.258 18.8818C138.491 23.5499 138.496 32.0342 137.331 36.8864C139.788 36.5734 141.003 36.5128 145.102 36.308C144.724 34.843 144.519 33.0269 144.432 31.2811C144.275 28.1311 144.415 23.3301 144.542 21.3072C144.71 18.5594 145.085 16.1817 146.072 16.1324C146.641 16.104 146.717 16.8611 146.776 18.0377C147.038 23.2751 146.703 31.8144 145.5 36.6685C147.958 36.3555 150.457 36.1165 154.518 35.9136C153.296 33.5397 152.816 30.7862 152.675 27.9777C152.406 22.5884 153.37 16.757 153.205 13.4551C153.012 9.58397 151.228 8.91214 149.558 8.99557C147.281 9.10934 145.833 10.5894 144.516 12.4054C143.932 9.84738 142.423 9.35204 141.019 9.42219C138.4 9.55302 136.709 11.5018 135.02 14.2495Z" fill="#FFC261"/>
<path d="M175.133 27.9209C174.901 28.87 174.481 29.3623 174.063 29.3607C173.531 29.3585 173.002 28.5584 173.009 26.8104C173.016 25.0624 173.556 23.1266 173.562 21.5306C173.575 18.4526 171.648 15.6709 168.152 15.6569C164.846 15.6437 162.138 18.027 162.12 22.6629C162.116 23.6129 162.265 24.2215 162.453 24.9443C163.523 23.3525 165.278 21.5735 167.368 21.5819C168.242 21.5854 169.001 21.8924 168.997 22.7664C168.986 25.4644 161.464 25.0163 161.442 30.6783C161.43 33.6042 163.433 36.3483 166.283 36.3596C167.499 36.3645 168.831 35.8758 169.786 34.5876C170.389 35.73 171.338 36.1898 172.288 36.1936C174.416 36.2021 175.718 33.6993 175.729 30.9633C175.733 29.8993 175.547 28.8726 175.133 27.9209ZM166.383 30.28C166.387 29.292 167.228 28.1174 169.171 26.8331C169.164 28.6571 168.394 31.124 167.102 31.1189C166.608 31.1169 166.381 30.774 166.383 30.28Z" fill="#FFC261"/>
<path d="M181.973 17.4258C183.109 18.3529 183.298 21.7091 183.132 25.3153C182.926 29.7946 182.209 34.6307 181.86 36.4406C184.043 36.1225 186.055 36.215 188.218 36.3144C188.146 35.3981 188.031 31.2845 188.155 28.5893C188.305 25.3248 188.893 22.4608 190.032 22.5131C190.677 22.5428 190.742 23.6109 190.678 25.0154C190.554 27.7105 189.93 33.0075 189.228 36.7031C191.286 36.6075 193.339 36.6258 195.924 36.6685C195.354 35.0066 195.205 33.2879 195.288 31.4659C195.41 28.8087 196.108 24.39 196.228 21.7708C196.366 18.772 195.829 16.3888 193.4 16.2771C191.236 16.1777 189.856 18.0543 188.696 20.1312C188.796 19.6033 188.934 19.0771 188.959 18.5457C189.034 16.9134 188.12 16.1106 186.639 16.0425C185.121 15.9727 183.033 16.7137 181.973 17.4258Z" fill="#FFC261"/>
<path d="M217.416 30.4369C217.106 31.3633 216.646 31.8187 216.23 31.782C215.7 31.7353 215.24 30.8937 215.393 29.1525C215.547 27.4112 216.247 25.5274 216.387 23.9375C216.657 20.8714 214.97 17.9381 211.487 17.6313C208.194 17.3412 205.296 19.4893 204.889 24.1074C204.806 25.0537 204.904 25.6727 205.03 26.4086C206.23 24.9121 208.128 23.2864 210.21 23.4698C211.08 23.5464 211.811 23.916 211.734 24.7866C211.497 27.4742 204.039 26.3976 203.542 32.0378C203.286 34.9525 205.052 37.8547 207.891 38.1047C209.102 38.2114 210.47 37.836 211.53 36.6324C212.036 37.8213 212.942 38.3589 213.888 38.4423C216.008 38.629 217.515 36.244 217.755 33.5186C217.849 32.4587 217.749 31.42 217.416 30.4369ZM208.5 32.0548C208.587 31.0706 209.523 29.9705 211.567 28.8536C211.407 30.6705 210.433 33.0643 209.146 32.951C208.654 32.9076 208.457 32.5469 208.5 32.0548Z" fill="#FFC261"/>
<path d="M227.92 30.317C225.168 29.9662 223.282 32.1392 222.932 34.8909C222.566 37.7558 223.854 41.1761 227.925 41.695C232.826 42.3197 235.49 37.9475 236.412 30.7101C237.128 25.0935 236.413 20.7885 232.191 20.2503C230.57 20.0437 228.797 20.4306 227.338 21.6619C230.857 22.3021 231.538 29.2842 231.148 32.3375C230.865 34.5615 229.905 35.7799 228.435 35.5925C227.04 35.4147 226.629 34.1364 226.806 32.7417C226.941 31.6862 227.334 31.0085 227.92 30.317ZM229.668 15.1019C229.428 16.9867 230.702 18.1068 232.135 18.2894C233.529 18.4672 235.082 17.7075 235.322 15.8227C235.558 13.9757 234.25 12.813 232.855 12.6352C231.423 12.4526 229.908 13.2172 229.668 15.1019Z" fill="#FFC261"/>
<path d="M251.351 22.5004C247.115 21.7963 244.137 26.9639 243.321 31.8745C242.592 36.2603 243.281 42.3073 248.192 43.1236C251.341 43.6471 253.526 41.6221 254.056 38.4358C254.231 37.3862 254.155 36.4492 253.724 35.7996C253.437 36.8305 251.32 38.212 249.783 37.9566C248.958 37.8195 248.215 37.1951 248.364 36.2954C248.688 34.3461 252.467 33.6261 254.779 33.8563C254.935 33.3815 255.035 32.7817 255.128 32.2194C255.533 29.7829 255.924 23.2607 251.351 22.5004ZM249.017 29.8168C249.229 28.5423 249.628 27.0678 250.528 27.2174C251.24 27.3358 251.266 28.3415 250.935 29.866C250.323 30.0724 249.53 30.4413 248.893 30.7977C248.899 30.529 248.961 30.1542 249.017 29.8168Z" fill="#FFC261"/>
<path d="M263.91 26.4405C264.877 27.5434 264.468 30.8763 263.714 34.3678C262.76 38.7879 261.287 43.4461 260.642 45.1729C262.811 45.2135 264.779 45.6385 266.859 46.0876C266.94 45.1721 267.552 41.261 268.105 38.6981C268.811 35.4294 269.792 32.6867 270.906 32.9273C271.538 33.0636 271.416 34.1648 271.128 35.502C270.558 38.1392 269.16 42.8135 267.854 46.3413C268.762 46.4595 269.81 46.6469 270.627 46.8234C271.89 47.096 272.877 47.3869 273.686 47.6005C273.622 45.915 273.794 44.3972 274.284 42.1314C274.54 40.9428 274.874 39.5765 275.434 38.0646C275.733 37.0406 276.775 34.1944 277.852 34.427C278.483 34.5633 278.44 35.4869 278.111 37.0098C277.541 39.647 276.079 44.6184 274.773 48.1462C276.782 48.3856 278.804 48.7444 281.234 49.1914C280.985 47.4659 281.086 45.7382 281.471 43.9553C282.032 41.3552 283.49 37.1217 284.044 34.5587C284.677 31.6244 284.506 29.1771 282.24 28.6878C280.383 28.2868 278.539 29.4438 277.066 31.225C277.359 29.15 277.077 27.5731 275.257 27.1801C273.177 26.731 271.505 28.3526 270.016 30.2081C270.203 29.7042 270.426 29.2082 270.539 28.6882C270.883 27.091 270.078 26.1396 268.704 25.8428C267.218 25.522 265.073 25.9142 263.91 26.4405Z" fill="#FFC261"/>
<path d="M299.821 32.9838C295.672 31.8776 292.213 36.7365 290.931 41.5465C289.785 45.8424 289.893 51.9276 294.703 53.2101C297.788 54.0325 300.157 52.226 300.989 49.105C301.263 48.0769 301.278 47.137 300.911 46.4491C300.526 47.4478 298.287 48.6204 296.781 48.219C295.974 48.0036 295.293 47.3109 295.528 46.4297C296.037 44.5204 299.868 44.1654 302.147 44.6157C302.347 44.158 302.504 43.5705 302.651 43.0197C303.287 40.6331 304.301 34.1782 299.821 32.9838ZM296.798 40.0434C297.131 38.795 297.67 37.3655 298.551 37.6004C299.248 37.7864 299.177 38.79 298.703 40.2759C298.074 40.4227 297.249 40.7141 296.58 41.0078C296.612 40.741 296.71 40.3738 296.798 40.0434Z" fill="#FFC261"/>
<path d="M311.825 38.1411C312.69 39.3255 312.023 42.6202 310.951 46.0674C309.62 50.3491 307.704 54.847 306.908 56.5097C309.1 56.7538 311.024 57.3518 313.092 57.9951C313.254 57.0903 314.182 53.0812 314.983 50.5049C315.954 47.3843 317.247 44.762 318.336 45.1005C318.952 45.2924 318.745 46.3422 318.328 47.6848C317.527 50.2611 315.584 55.2283 313.97 58.6263C315.986 59.0542 317.968 59.591 320.458 60.2858C320.326 58.5337 320.616 56.8331 321.158 55.0914C321.948 52.5514 323.74 48.4526 324.519 45.9489C325.41 43.0823 325.493 40.6408 323.17 39.9186C321.102 39.2754 319.293 40.7423 317.645 42.4583C317.876 41.9729 318.142 41.4987 318.3 40.9907C318.786 39.4304 318.104 38.4226 316.689 37.9825C315.238 37.5311 313.03 37.7201 311.825 38.1411Z" fill="#FFC261"/>
</svg>
