<svg width="234" height="54" viewBox="0 0 234 54" fill="none" xmlns="http://www.w3.org/2000/svg">
<path d="M13.8822 11.7428C11.8208 13.0316 11.4798 14.299 11.6477 15.6567C11.8063 16.9389 12.4641 18.5423 12.632 19.8999C12.8653 21.7856 12.2824 24.1933 10.1537 26.486C9.72926 23.0541 9.73401 19.3777 10.0261 15.8573C9.46504 15.9649 8.89935 16.0349 8.33366 16.1049C6.14633 16.3754 3.97805 16.4905 1.80045 16.5301C3.37884 20.6233 4.44245 25.5076 5.06751 30.5611C5.6086 34.9358 5.81495 39.3902 5.71533 43.5378C8.80776 43.1553 11.6739 42.8007 14.2994 42.6674C13.0204 40.3751 10.8409 34.5184 10.4025 30.9734C11.3468 33.3454 15.2792 43.1589 21.2377 42.4219C24.4056 42.0301 24.8854 39.099 24.6429 37.1379C24.405 35.2146 23.3984 33.5778 21.8954 33.1893C22.068 34.5847 21.8638 35.7204 20.9587 35.8323C19.224 36.0469 16.8062 32.2872 14.818 27.9767C18.1928 24.3047 19.3549 22.2464 19.103 20.21C18.8838 18.4375 17.6599 17.2104 15.5084 15.294C14.6469 14.5199 13.7103 13.4488 13.8822 11.7428Z" fill="#FFC261"/>
<path d="M43.6138 31.0145C43.4774 31.9819 43.1084 32.5135 42.6923 32.5533C42.1627 32.604 41.557 31.8604 41.3905 30.1203C41.2239 28.3803 41.5687 26.4004 41.4166 24.8117C41.1233 21.7477 38.9297 19.171 35.4496 19.5042C32.1587 19.8193 29.7011 22.4595 30.143 27.0744C30.2335 28.0201 30.4428 28.6108 30.7007 29.3114C31.6078 27.6213 33.1776 25.6768 35.2581 25.4776C36.1281 25.3943 36.9136 25.6245 36.9969 26.4946C37.254 29.1803 29.7244 29.4812 30.2641 35.1175C30.5429 38.0302 32.8085 40.5618 35.6455 40.2901C36.856 40.1742 38.1329 39.5557 38.9554 38.1791C39.6693 39.2559 40.6584 39.6193 41.6041 39.5288C43.7224 39.326 44.7695 36.7063 44.5087 33.9827C44.4073 32.9236 44.1204 31.9203 43.6138 31.0145ZM35.1417 34.2306C35.0476 33.2471 35.7675 31.9948 37.5735 30.5239C37.7474 32.3396 37.2262 34.8708 35.9401 34.994C35.4484 35.041 35.1888 34.7223 35.1417 34.2306Z" fill="#FFC261"/>
<path d="M55.322 21.4503C55.5421 19.7204 57.0791 15.6113 56.9124 13.2612C56.7241 10.6079 54.442 10.1222 52.6984 10.2459C51.0685 10.3616 49.4789 11.0458 48.2846 11.9305C50.0546 13.2526 50.7412 15.4134 50.9134 17.8393C51.1958 21.8193 50.197 27.0711 50.4686 30.8995C50.8505 36.282 53.8058 38.739 56.9898 38.5131C62.1449 38.1473 63.9028 30.7082 63.4805 24.7572C63.1873 20.6256 61.9135 17.7064 59.4497 17.8812C57.6682 18.0076 56.2298 19.7478 55.322 21.4503ZM55.4344 30.0138C55.2703 27.7016 55.8409 23.3945 57.4329 23.2815C58.3047 23.2196 58.6155 24.3786 58.7231 25.8947C58.9382 28.9271 58.1945 32.9418 56.8679 33.036C56.0719 33.0924 55.5473 31.6058 55.4344 30.0138Z" fill="#FFC261"/>
<path d="M70.2781 18.4683C72.2493 19.0941 73.224 22.6605 73.4296 26.8354C73.6222 30.7447 73.1124 35.069 72.0499 37.4422C73.1829 37.2722 74.5455 37.129 76.1016 37.0523C77.5818 36.9794 79.3314 36.9693 80.1322 37.0059C79.0631 35.3846 78.5497 34.2304 78.3852 30.8905C78.2431 28.006 79.0124 24.3157 78.8759 21.545C78.7432 18.8503 77.735 16.9216 74.2433 17.0936C72.7251 17.1684 71.3756 17.5773 70.2781 18.4683ZM71.6906 12.3875C71.771 14.0195 73.0833 15.1723 74.6774 15.0938C76.2715 15.0153 77.5021 13.7372 77.4217 12.1051C77.3431 10.5111 75.991 9.32216 74.3969 9.4007C72.8029 9.47923 71.6121 10.7934 71.6906 12.3875Z" fill="#FFC261"/>
<path d="M102.549 30.3663C102.182 30.8322 101.921 31.0291 101.503 31.0402C100.135 31.0763 99.5362 28.5453 99.4629 25.7722C99.3355 20.9479 100.779 16.5763 100.691 13.2714C100.602 9.8906 98.9743 8.71718 96.0114 8.79546C94.3399 8.83962 92.8685 9.25862 91.9339 9.85352C94.4691 10.8509 95.2481 12.9971 95.3143 15.5042C95.3464 16.7198 95.2246 17.8634 95.0997 18.8931C94.1029 17.1328 92.5943 16.1463 91.0368 16.1874C87.5421 16.2797 86.1271 21.715 86.2516 26.4254C86.4001 32.0474 88.2749 36.8256 92.3395 36.7182C93.821 36.679 95.1325 35.9601 95.9741 34.7215C96.51 36.3039 97.5527 36.9226 98.6923 36.8925C100.744 36.8383 103.082 34.6858 103.016 32.2166C103 31.6088 102.869 30.9661 102.549 30.3663ZM91.7437 27.1166C91.6614 24.0016 92.119 21.1766 93.2586 21.1465C94.2462 21.1204 94.6154 23.5815 94.6716 25.7087C94.7398 28.2918 94.3763 31.7987 93.1987 31.8298C92.401 31.8509 91.826 30.2315 91.7437 27.1166Z" fill="#FFC261"/>
<path d="M124.808 9.18482C125.616 12.432 125.906 16.8088 125.814 21.3299C125.708 26.4968 125.106 31.8056 124.376 35.8956C125.1 35.8343 126.05 35.8157 127.114 35.8375C128.9 35.8739 130.949 36.0298 132.389 36.2492C131.082 33.2579 130.673 30.9311 130.731 28.0817C130.747 27.2838 130.799 26.6007 130.813 25.9549C131.974 34.2263 135.034 36.9873 137.846 37.0447C140.657 37.1021 142.726 34.4458 142.785 31.5584C142.808 30.4186 142.526 29.3486 141.816 28.726C141.814 28.84 141.85 28.9168 141.846 29.1447C141.83 29.9426 141.274 31.0715 140.249 31.0505C139.565 31.0366 138.93 30.4915 138.378 29.606C136.904 27.3335 136.033 23.4389 135.731 21.4943C138.042 19.9832 139.611 17.5827 139.671 14.6573C139.749 10.8581 137.205 8.82978 133.216 8.74834C130.975 8.70259 127.732 9.28253 125.643 9.23988C125.339 9.23367 125.073 9.22824 124.808 9.18482ZM132.036 14.4254C132.193 14.2006 132.461 14.092 132.803 14.099C133.487 14.113 133.741 14.6883 133.727 15.3722C133.698 16.8159 132.674 18.5433 131.585 19.7753C131.41 19.0496 131.352 18.1743 131.368 17.3764C131.393 16.1227 131.607 14.9488 132.036 14.4254Z" fill="#FFC261"/>
<path d="M156.568 16.3678C152.279 16.1668 149.93 21.6489 149.697 26.6214C149.489 31.0625 150.885 36.9864 155.858 37.2194C159.046 37.3688 160.978 35.1008 161.13 31.8743C161.179 30.8115 160.994 29.8898 160.49 29.2955C160.326 30.353 158.386 31.974 156.83 31.9011C155.994 31.8619 155.183 31.3293 155.225 30.4183C155.318 28.4445 158.986 27.2849 161.309 27.2416C161.408 26.7517 161.436 26.1444 161.463 25.575C161.578 23.1077 161.199 16.5848 156.568 16.3678ZM155.112 23.9079C155.172 22.6173 155.395 21.1061 156.306 21.1488C157.027 21.1826 157.171 22.1784 157.022 23.7311C156.439 24.0081 155.694 24.4678 155.104 24.8966C155.078 24.6291 155.096 24.2495 155.112 23.9079Z" fill="#FFC261"/>
<path d="M170.266 10.9084C171.339 12.5041 171.485 16.551 171.182 21.0628C170.776 27.0912 169.517 33.9 168.279 37.5872C169.995 37.5504 171.749 37.5162 173.342 37.6234C174.1 37.6744 174.666 37.7507 175.346 37.8345C175.105 35.7616 175.215 32.9888 175.33 31.2827C175.831 23.8515 177.662 18.7189 177.904 15.1171C178.139 11.6289 176.823 10.2454 174.245 10.0718C172.728 9.96969 171.636 10.3532 170.266 10.9084Z" fill="#FFC261"/>
<path d="M197.204 31.7135C196.893 32.6397 196.433 33.095 196.017 33.0581C195.487 33.0112 195.027 32.1695 195.181 30.4283C195.335 28.6871 196.036 26.8035 196.177 25.2137C196.448 22.1477 194.762 19.2137 191.28 18.9056C187.986 18.6142 185.088 20.7611 184.679 25.3791C184.596 26.3254 184.693 26.9444 184.819 27.6803C186.02 26.1843 187.918 24.5593 190 24.7435C190.871 24.8206 191.601 25.1903 191.524 26.0609C191.286 28.7485 183.828 27.669 183.329 33.3089C183.071 36.2236 184.836 39.1264 187.675 39.3776C188.887 39.4848 190.255 39.1099 191.315 37.9066C191.82 39.0958 192.726 39.6337 193.673 39.7175C195.792 39.905 197.3 37.5206 197.542 34.7953C197.635 33.7354 197.536 32.6967 197.204 31.7135ZM188.287 33.3279C188.374 32.3438 189.31 31.244 191.355 30.1279C191.194 31.9448 190.219 34.3382 188.932 34.2243C188.44 34.1808 188.243 33.82 188.287 33.3279Z" fill="#FFC261"/>
<path d="M213.709 27.9833C214.686 27.0977 215.177 26.1198 215.278 25.2134C215.542 22.834 213.351 20.8705 210.594 20.5647C207.761 20.2505 205.109 21.7534 204.736 25.1148C204.569 26.6255 204.909 28.0396 205.43 29.2061C206.42 31.3041 208.456 33.2886 208.276 34.9126C208.196 35.6302 207.676 36.1843 206.845 36.0921C205.825 35.979 204.873 34.9175 204.771 32.727C203.597 33.3232 203.093 34.4143 202.947 35.7362C202.603 38.8332 204.567 41.1157 207.778 41.4717C211.177 41.8487 213.879 39.8927 214.281 36.2669C214.453 34.7184 214.159 33.2329 213.63 31.7978C212.458 28.9152 210.591 27.4846 210.758 25.9738C210.834 25.294 211.283 25.0379 211.811 25.0966C212.982 25.2264 213.671 26.9468 213.709 27.9833Z" fill="#FFC261"/>
<path d="M221.672 23.735C223.501 24.7015 223.825 28.3844 223.285 32.5293C222.778 36.4104 221.507 40.575 220.039 42.7212C221.185 42.7556 222.551 42.8571 224.096 43.0586C225.565 43.2502 227.289 43.5516 228.07 43.7301C227.307 41.9444 227.007 40.7174 227.439 37.4014C227.813 34.5377 229.227 31.0431 229.585 28.2924C229.934 25.6171 229.285 23.5397 225.819 23.0877C224.311 22.8911 222.911 23.0534 221.672 23.735ZM224.144 18.0025C223.933 19.6228 225.019 20.9907 226.602 21.1971C228.184 21.4034 229.623 20.3647 229.834 18.7444C230.04 17.1618 228.921 15.7513 227.339 15.5449C225.756 15.3385 224.35 16.4199 224.144 18.0025Z" fill="#FFC261"/>
</svg>
