<svg width="360" height="84" viewBox="0 0 360 84" fill="none" xmlns="http://www.w3.org/2000/svg">
<path d="M15.1234 31.9955C13.1199 33.5407 12.9232 34.8938 13.2733 36.2906C13.604 37.6098 14.5008 39.214 14.8509 40.6108C15.3371 42.5508 15.0318 45.1149 13.0859 47.7117C12.2009 44.1809 11.7361 40.3532 11.5934 36.6594C11.017 36.8269 10.431 36.9556 9.84497 37.0843C7.57895 37.5818 5.31309 37.9156 3.02779 38.1717C5.21098 42.2771 6.95384 47.2569 8.25704 52.4561C9.38519 56.9569 10.1714 61.5736 10.5967 65.9012C13.8004 65.1978 16.7696 64.5459 19.514 64.148C17.8758 61.8878 14.8351 56.0058 13.9209 52.3587C15.2173 54.7348 20.6073 64.5629 26.7803 63.2075C30.0621 62.4869 30.1922 59.3882 29.6865 57.3706C29.1905 55.3918 27.9227 53.7872 26.2921 53.5312C26.652 54.9668 26.5824 56.1692 25.6447 56.375C23.8475 56.7697 20.8241 53.0944 18.1822 48.8032C21.2624 44.6474 22.2217 42.39 21.6966 40.2948C21.2395 38.4712 19.7954 37.3146 17.2876 35.532C16.2825 34.8111 15.1606 33.7885 15.1234 31.9955Z" fill="#FFC261"/>
<path d="M47.3791 49.5403C47.3517 50.5623 47.0277 51.1517 46.5951 51.2325C46.0447 51.3353 45.319 50.6167 44.9352 48.8171C44.5514 47.0176 44.6764 44.9196 44.326 43.2766C43.6502 40.1078 41.0358 37.6267 37.4184 38.3025C33.9976 38.9415 31.7315 41.9276 32.7494 46.7003C32.958 47.6783 33.2487 48.2749 33.6038 48.9814C34.3544 47.1327 35.771 44.9561 37.9336 44.5521C38.8379 44.3832 39.691 44.5492 39.8829 45.449C40.4753 48.2265 32.5982 49.2506 33.8413 55.0796C34.4838 58.0918 37.1684 60.5192 40.1174 59.9682C41.3756 59.7332 42.6433 58.9675 43.3427 57.4538C44.2221 58.5099 45.3052 58.7957 46.2882 58.612C48.4901 58.2007 49.2763 55.369 48.6756 52.5523C48.442 51.457 48.0202 50.4375 47.3791 49.5403ZM38.8611 53.6943C38.6442 52.6772 39.2506 51.3029 40.9722 49.5981C41.3727 51.4759 41.1286 54.1656 39.7918 54.4154C39.2806 54.5109 38.9696 54.2029 38.8611 53.6943Z" fill="#FFC261"/>
<path d="M57.6782 38.6621C57.7146 36.8345 58.8663 32.4018 58.4265 29.9611C57.9299 27.2054 55.4782 26.9042 53.6607 27.1911C51.9617 27.4592 50.3692 28.3179 49.2143 29.3504C51.2223 30.5719 52.1869 32.7678 52.6409 35.2872C53.3857 39.4207 52.928 44.999 53.6445 48.9749C54.6518 54.5649 58.0326 56.8652 61.3515 56.3414C66.725 55.4932 67.7337 47.5607 66.62 41.3803C65.8468 37.0894 64.1801 34.1541 61.6119 34.5595C59.7549 34.8526 58.44 36.801 57.6782 38.6621ZM58.7606 47.6006C58.3279 45.1992 58.4422 40.6468 60.1016 40.3849C61.0104 40.2414 61.4673 41.4244 61.7511 42.999C62.3186 46.1483 61.9895 50.4107 60.6066 50.629C59.7769 50.76 59.0586 49.2539 58.7606 47.6006Z" fill="#FFC261"/>
<path d="M72.1305 34.3569C74.2665 34.8404 75.6675 38.4873 76.3256 42.8378C76.9417 46.9115 76.8642 51.4805 75.9999 54.0559C77.1715 53.7796 78.5871 53.5114 80.2129 53.296C81.7594 53.0911 83.5954 52.9285 84.4401 52.8973C83.1459 51.2937 82.4846 50.1307 81.9582 46.6503C81.5036 43.6445 81.9206 39.7163 81.484 36.8291C81.0592 34.0211 79.7965 32.0906 76.1484 32.5739C74.5622 32.7841 73.1885 33.3291 72.1305 34.3569ZM72.9698 27.8715C73.227 29.5722 74.727 30.6644 76.3925 30.4437C78.0579 30.2231 79.2147 28.7789 78.9575 27.0782C78.7062 25.4171 77.1606 24.2906 75.4952 24.5112C73.8297 24.7319 72.7186 26.2104 72.9698 27.8715Z" fill="#FFC261"/>
<path d="M106.799 44.1406C106.459 44.6593 106.205 44.8874 105.767 44.9338C104.335 45.0856 103.456 42.484 103.105 39.5851C102.495 34.5419 103.578 29.8421 103.16 26.3873C102.732 22.8531 100.908 21.7594 97.8054 22.0883C96.0552 22.2739 94.552 22.8354 93.6296 23.5365C96.3895 24.3701 97.4191 26.5534 97.7363 29.1743C97.8901 30.445 97.8751 31.6532 97.8458 32.7423C96.6255 30.9813 94.9444 30.0736 93.3136 30.2464C89.6541 30.6344 88.7056 36.4461 89.3014 41.3702C90.0126 47.2473 92.4527 52.0965 96.7088 51.6454C98.2601 51.4809 99.5659 50.6186 100.327 49.2509C101.046 50.8639 102.202 51.4251 103.395 51.2986C105.543 51.0709 107.784 48.6212 107.472 46.0401C107.395 45.4047 107.194 44.7423 106.799 44.1406ZM95.1351 41.6366C94.741 38.3804 94.9423 35.3828 96.1356 35.2563C97.1698 35.1467 97.8004 37.6941 98.0695 39.9179C98.3963 42.6182 98.361 46.3221 97.1279 46.4528C96.2926 46.5414 95.5291 44.8929 95.1351 41.6366Z" fill="#FFC261"/>
<path d="M142.791 19.0121C140.062 19.6004 137.316 19.9093 134.44 20.065C131.924 20.2013 129.24 20.2264 126.669 20.1252C128.01 23.6578 128.738 28.3051 129.044 33.2557C129.365 38.4458 129.223 43.9413 128.711 48.6157C131.652 48.2161 135.242 47.9417 138.554 47.7223C136.787 44.4131 135.546 41.1955 135.114 37.4535C136.385 37.2645 138.222 37.1651 139.328 36.9049C141.695 36.2961 142.068 34.5534 142.029 33.9146C142.002 33.4754 141.797 33.4064 141.078 33.4453C139.76 33.5167 137.541 33.9173 135.044 34.3729C134.863 28.8547 136.021 25.5474 137.499 25.4674C138.378 25.4198 139.134 26.6207 139.24 28.3374C139.306 29.4154 139.125 31.0274 138.448 32.386C138.61 32.4173 138.81 32.4065 138.97 32.3978C142.924 32.1838 143.858 27.847 143.604 23.7349C143.49 21.8984 143.142 20.1547 142.791 19.0121Z" fill="#FFC261"/>
<path d="M149.69 26.7541C150.881 27.8457 151.326 29.4754 151.381 31.4747C151.465 34.5535 150.612 38.4552 150.693 41.3741C150.774 44.333 151.826 47.6686 155.585 47.5779C157.745 47.5258 158.953 46.3764 160.028 44.71C161.045 46.7661 162.187 47.5388 163.266 47.5127C165.226 47.4655 166.875 44.865 166.8 42.146C166.78 41.4263 166.638 40.6295 166.38 39.9555C165.997 40.6049 165.527 40.9764 165.007 40.9889C164.328 41.0053 163.827 40.2572 163.788 38.8577C163.721 36.4186 165.021 32.7462 164.949 30.1472C164.86 26.9084 162.584 25.6429 159.905 25.7075C159.145 25.7259 158.349 25.8651 157.636 26.1224C158.543 27.1008 159.191 28.8457 159.274 31.8445C159.399 36.4028 158.184 41.6736 157.064 41.7006C156.704 41.7093 156.287 41.0792 156.26 40.1195C156.201 37.9603 157.852 32.519 157.774 29.6801C157.694 26.8012 155.786 25.8069 153.107 25.8715C151.747 25.9043 150.675 26.2102 149.69 26.7541Z" fill="#FFC261"/>
<path d="M172.084 27.1941C173.319 28.1205 173.658 31.6423 173.635 35.4423C173.607 40.1622 173.056 45.2794 172.765 47.1979C175.048 46.7698 177.168 46.7808 179.448 46.7927C179.333 45.8321 179.039 41.5105 179.056 38.6706C179.076 35.2306 179.574 32.1932 180.774 32.1995C181.454 32.203 181.568 33.3236 181.559 34.8036C181.542 37.6435 181.109 43.2413 180.525 47.1584C182.687 46.9696 184.847 46.9009 187.567 46.8351C186.898 45.1115 186.668 43.3103 186.68 41.3904C186.696 38.5904 187.244 33.9132 187.261 31.1532C187.28 27.9933 186.614 25.5098 184.054 25.4965C181.774 25.4846 180.402 27.5174 179.269 29.7516C179.352 29.192 179.476 28.6326 179.479 28.0726C179.489 26.3527 178.494 25.5475 176.934 25.5393C175.334 25.531 173.169 26.3997 172.084 27.1941Z" fill="#FFC261"/>
<path d="M210.5 41.7439C210.081 42.2094 209.793 42.3994 209.353 42.3839C207.914 42.3333 207.462 39.6357 207.579 36.7181C207.783 31.6422 209.605 27.1436 209.745 23.6664C209.888 20.1092 208.26 18.7712 205.142 18.6614C203.383 18.5995 201.808 18.9443 200.785 19.5086C203.378 20.7206 204.046 23.0255 203.94 25.6634C203.889 26.9423 203.681 28.1357 203.477 29.2092C202.554 27.2956 201.038 26.1616 199.399 26.1039C195.721 25.9744 193.854 31.5922 193.655 36.5482C193.417 42.4634 195.052 47.604 199.329 47.7546C200.889 47.8095 202.317 47.1393 203.287 45.8927C203.74 47.5896 204.792 48.3071 205.991 48.3493C208.15 48.4253 210.756 46.3157 210.861 43.7178C210.886 43.0783 210.794 42.3946 210.5 41.7439ZM199.376 37.6301C199.508 34.3527 200.186 31.4148 201.386 31.457C202.425 31.4936 202.64 34.1028 202.55 36.341C202.441 39.0588 201.814 42.7189 200.574 42.6753C199.735 42.6457 199.244 40.9074 199.376 37.6301Z" fill="#FFC261"/>
<path d="M224.354 31.7475C224.436 31.1917 224.649 30.4841 224.699 29.8059C224.824 28.1306 223.818 27.1029 222.341 27.0065C220.465 26.8841 218.472 27.7962 217.538 29.0179C218.977 29.6329 219.448 31.3872 218.975 37.7296C218.47 44.5108 217.298 46.2381 216.385 48.2629C218.108 48.2951 219.833 48.2875 221.749 48.4125C222.827 48.4828 223.981 48.5983 225.124 48.8733C223.947 45.8303 223.581 43.201 223.742 41.047C224.083 36.4597 226.595 33.978 228.111 34.077C228.55 34.1057 228.932 34.3711 228.837 35.6475C228.768 36.565 228.521 37.1902 227.83 38.3877C231.147 37.4818 232.592 34.7703 232.779 32.2573C232.96 29.824 231.921 27.6317 230.005 27.5067C228.129 27.3842 226.498 28.2799 224.354 31.7475Z" fill="#FFC261"/>
<path d="M252.072 42.3021C251.727 43.2742 251.234 43.7503 250.796 43.7093C250.238 43.6572 249.77 42.7698 249.965 40.9402C250.16 39.1106 250.934 37.1342 251.112 35.4637C251.456 32.242 249.735 29.1486 246.071 28.8061C242.606 28.4822 239.511 30.7236 238.993 35.5761C238.887 36.5704 238.978 37.2217 239.097 37.996C240.39 36.4298 242.422 34.7316 244.612 34.9364C245.528 35.022 246.291 35.4147 246.193 36.3295C245.892 39.1535 238.053 37.9788 237.42 43.9051C237.094 46.9677 238.899 50.0288 241.886 50.308C243.16 50.4272 244.609 50.0404 245.749 48.7812C246.259 50.034 247.204 50.6043 248.199 50.6974C250.43 50.9059 252.064 48.4074 252.37 45.5436C252.488 44.43 252.404 43.3375 252.072 42.3021ZM242.644 43.9516C242.755 42.9175 243.763 41.7664 245.938 40.6039C245.734 42.5131 244.662 45.024 243.308 44.8974C242.79 44.849 242.589 44.4687 242.644 43.9516Z" fill="#FFC261"/>
<path d="M259.107 31.8054C261.031 32.7975 261.359 36.6618 260.772 41.0225C260.222 45.1057 258.865 49.4963 257.308 51.7693C258.515 51.7909 259.956 51.8802 261.585 52.0723C263.134 52.2549 264.951 52.5496 265.774 52.7273C264.976 50.8612 264.665 49.5761 265.134 46.0876C265.54 43.0747 267.045 39.3861 267.435 36.4922C267.814 33.6776 267.138 31.5038 263.483 31.0729C261.894 30.8856 260.416 31.0738 259.107 31.8054ZM261.737 25.7526C261.508 27.4572 262.648 28.8804 264.317 29.0771C265.985 29.2738 267.506 28.1645 267.736 26.4598C267.96 24.7948 266.785 23.3274 265.117 23.1307C263.448 22.934 261.961 24.0876 261.737 25.7526Z" fill="#FFC261"/>
<path d="M284.104 40.5046C285.18 39.6057 285.747 38.595 285.899 37.6471C286.298 35.1589 284.087 33.031 281.196 32.6248C278.225 32.2075 275.353 33.7021 274.789 37.2172C274.536 38.797 274.822 40.2912 275.312 41.5311C276.25 43.7629 278.296 45.908 278.024 47.6063C277.903 48.3567 277.327 48.9219 276.455 48.7995C275.386 48.6492 274.435 47.5061 274.44 45.2047C273.17 45.7938 272.584 46.923 272.363 48.3053C271.843 51.544 273.799 53.9994 277.166 54.4724C280.731 54.9732 283.679 53.0047 284.287 49.2131C284.547 47.5938 284.312 46.0262 283.827 44.5042C282.738 41.4435 280.842 39.8848 281.095 38.305C281.209 37.594 281.695 37.3393 282.25 37.4172C283.478 37.5897 284.117 39.416 284.104 40.5046Z" fill="#FFC261"/>
<path d="M292.157 36.2109C294.031 37.2867 294.164 41.1577 293.358 45.4832C292.603 49.5335 291.025 53.8546 289.355 56.0536C290.561 56.1289 291.997 56.2822 293.615 56.5464C295.155 56.7977 296.956 57.1727 297.771 57.3867C297.067 55.4889 296.82 54.1926 297.465 50.7322C298.022 47.7436 299.712 44.1296 300.247 41.259C300.767 38.4671 300.2 36.2676 296.569 35.6749C294.989 35.4171 293.502 35.5391 292.157 36.2109ZM295.091 30.2878C294.776 31.9787 295.844 33.4496 297.502 33.7203C299.16 33.9909 300.737 32.9516 301.052 31.2607C301.36 29.6091 300.259 28.0924 298.601 27.8218C296.943 27.5512 295.399 28.6362 295.091 30.2878Z" fill="#FFC261"/>
<path d="M307.801 38.7935C308.826 39.9229 308.438 43.4307 307.637 47.1453C306.642 51.7593 305.052 56.6678 304.373 58.4928C306.706 58.4857 308.789 58.8791 311.029 59.3022C311.114 58.3415 311.71 54.0592 312.308 51.283C313.033 47.9202 314.145 45.0376 315.325 45.2603C315.993 45.3864 315.875 46.5036 315.563 47.9503C314.964 50.7265 313.391 56.1265 312.015 59.8546C314.179 60.0599 316.319 60.3825 319.008 60.8091C318.702 59.0015 318.846 57.1974 319.251 55.3205C319.841 52.5834 321.338 48.105 321.92 45.407C322.586 42.318 322.44 39.7675 319.925 39.2924C317.684 38.8693 315.918 40.6111 314.345 42.593C314.542 42.0604 314.778 41.5353 314.896 40.9878C315.258 39.3065 314.444 38.3389 312.911 38.0494C311.339 37.7525 309.031 38.2119 307.801 38.7935Z" fill="#FFC261"/>
<path d="M335.111 51.0457C337.077 51.9234 339.819 51.4969 340.591 48.3912C341.13 46.2172 340.487 43.4995 337.165 42.7768C332.943 41.8587 328.735 45.0352 327.096 51.6348C325.438 58.312 327.749 63.1108 331.305 63.8845C334.706 64.6241 338.29 61.6392 339.639 56.2042C339.967 54.8843 340.408 52.4434 338.415 52.0098C337.399 51.7888 336.414 52.2702 335.32 52.0321C334.772 51.9131 334.234 51.5915 333.382 50.8743C333.071 51.2976 332.858 51.8241 332.743 52.29C332.347 53.8816 332.977 55.4917 334.697 55.8658C334.971 55.9253 335.215 55.9375 335.459 55.9497C334.725 58.5725 333.927 59.1353 333.106 58.9568C331.66 58.6422 331.252 56.303 332.206 52.4597C333.18 48.5388 334.523 47.2761 335.578 47.5056C336.165 47.6332 336.42 48.0979 336.189 49.0296C336.034 49.6507 335.676 50.432 335.111 51.0457Z" fill="#FFC261"/>
</svg>
