<svg width="275" height="60" viewBox="0 0 275 60" fill="none" xmlns="http://www.w3.org/2000/svg">
<path d="M14.8041 16.127C12.6993 17.5825 12.4024 18.9318 12.645 20.3512C12.8742 21.6918 13.6439 23.3458 13.8866 24.7652C14.2236 26.7366 13.7279 29.2967 11.6011 31.811C10.9878 28.2231 10.8139 24.3571 10.9496 20.6411C10.3649 20.7816 9.77353 20.8827 9.1821 20.9838C6.89528 21.3747 4.62092 21.6012 2.33308 21.7489C4.19197 25.9761 5.54807 31.0603 6.45126 36.3436C7.23312 40.9173 7.66688 45.591 7.76397 49.9571C10.9971 49.4044 13.9936 48.8921 16.7478 48.6242C15.2913 46.276 12.7146 40.2237 12.0811 36.5174C13.1894 38.9657 17.802 49.0933 24.0316 48.0283C27.3435 47.4621 27.7054 44.3568 27.3549 42.3065C27.0112 40.2957 25.8732 38.6235 24.2738 38.2882C24.5232 39.7471 24.3638 40.9511 23.4175 41.1129C21.6038 41.423 18.8785 37.5873 16.5782 33.1515C19.9481 29.1261 21.0699 26.9053 20.7059 24.7762C20.3891 22.9231 19.0425 21.6924 16.6869 19.782C15.7433 19.01 14.7064 17.9293 14.8041 16.127Z" fill="#FFC261"/>
<path d="M46.6715 35.112C46.569 36.1353 46.2034 36.7101 45.7675 36.7696C45.2126 36.8454 44.5441 36.0889 44.2951 34.2658C44.0461 32.4427 44.325 30.3457 44.0976 28.6812C43.6592 25.4709 41.2429 22.8538 37.5967 23.3518C34.1487 23.8227 31.6758 26.7038 32.3362 31.5389C32.4715 32.5297 32.7166 33.1422 33.0176 33.8681C33.9 32.052 35.4687 29.9404 37.6484 29.6427C38.56 29.5182 39.3959 29.727 39.5204 30.6385C39.9047 33.4524 31.998 34.0881 32.8045 39.9933C33.2212 43.045 35.7114 45.6116 38.6838 45.2057C39.9521 45.0325 41.2688 44.3278 42.0756 42.845C42.8721 43.9474 43.9278 44.2877 44.9186 44.1523C47.138 43.8492 48.1283 41.0495 47.7386 38.196C47.5871 37.0863 47.2428 36.0433 46.6715 35.112ZM37.8971 38.8537C37.7564 37.8233 38.4605 36.4756 40.2977 34.8521C40.5575 36.7544 40.1167 39.4388 38.7692 39.6228C38.254 39.6932 37.9675 39.3689 37.8971 38.8537Z" fill="#FFC261"/>
<path d="M58.5959 24.604C58.7641 22.776 60.2305 18.397 59.969 15.9308C59.6737 13.1464 57.2552 12.7191 55.4255 12.9131C53.715 13.0945 52.0679 13.8725 50.8438 14.847C52.7543 16.1729 53.5558 18.421 53.8258 20.9667C54.2687 25.1433 53.4103 30.7048 53.8364 34.7223C54.4353 40.3706 57.6343 42.8471 60.9756 42.4928C66.3852 41.9191 67.962 34.0289 67.2998 27.7839C66.84 23.4482 65.393 20.4239 62.8075 20.6981C60.938 20.8963 59.4885 22.7797 58.5959 24.604ZM59.0279 33.6086C58.7706 31.1822 59.213 26.6302 60.8837 26.453C61.7985 26.356 62.168 27.5638 62.3367 29.1549C62.6741 32.337 62.0388 36.5877 60.6466 36.7353C59.8113 36.8239 59.205 35.2792 59.0279 33.6086Z" fill="#FFC261"/>
<path d="M74.1857 20.9416C76.2794 21.5382 77.4169 25.2599 77.7644 29.6462C78.0898 33.7533 77.6891 38.3192 76.6457 40.8495C77.8325 40.6351 79.2617 40.4417 80.8965 40.3121C82.4517 40.1889 84.2922 40.1234 85.1359 40.1368C83.9602 38.4644 83.3837 37.2662 83.1057 33.7572C82.8656 30.7267 83.5593 26.8197 83.3286 23.9088C83.1043 21.0777 81.9831 19.08 78.3146 19.3706C76.7196 19.497 75.3125 19.9696 74.1857 20.9416ZM75.481 14.4992C75.6168 16.2138 77.0338 17.3856 78.7085 17.2529C80.3833 17.1202 81.638 15.7368 81.5021 14.0222C81.3694 12.3474 79.9094 11.139 78.2347 11.2717C76.5599 11.4043 75.3483 12.8245 75.481 14.4992Z" fill="#FFC261"/>
<path d="M108.729 32.5251C108.354 33.0248 108.084 33.2389 107.645 33.2613C106.207 33.3349 105.51 30.6869 105.361 27.7708C105.102 22.6974 106.507 18.0596 106.329 14.5841C106.148 11.0288 104.405 9.83621 101.289 9.99549C99.531 10.0853 97.9934 10.5645 97.0253 11.2147C99.7191 12.1985 100.594 14.4367 100.729 17.0733C100.795 18.3516 100.696 19.5582 100.591 20.645C99.4967 18.8185 97.8836 17.8195 96.2458 17.9033C92.5706 18.0911 91.2227 23.8474 91.4759 28.801C91.7781 34.7133 93.8751 39.6927 98.1495 39.4742C99.7075 39.3946 101.069 38.604 101.922 37.2787C102.527 38.93 103.641 39.554 104.839 39.4927C106.996 39.3824 109.401 37.0566 109.268 34.46C109.235 33.8209 109.081 33.1479 108.729 32.5251ZM97.2733 29.3858C97.1059 26.11 97.514 23.1253 98.7125 23.0641C99.7511 23.011 100.203 25.5912 100.318 27.8283C100.457 30.5448 100.165 34.2445 98.9268 34.3078C98.0879 34.3507 97.4408 32.6615 97.2733 29.3858Z" fill="#FFC261"/>
<path d="M145.121 6.0578C142.793 7.12154 142.264 8.39787 142.254 9.83784C142.245 11.1978 142.712 12.9611 142.702 14.4011C142.688 16.401 141.751 18.8345 139.216 20.9369C139.242 17.2969 139.749 13.4604 140.534 9.82581C139.934 9.86161 139.334 9.85741 138.734 9.85321C136.414 9.83698 134.135 9.66103 131.857 9.40509C132.945 13.8928 133.389 19.136 133.351 24.4959C133.319 29.1358 132.926 33.8132 132.256 38.1286C135.536 38.1515 138.576 38.1728 141.334 38.3921C140.312 35.8249 138.837 29.4144 138.863 25.6545C139.525 28.2592 142.29 39.0388 148.61 39.083C151.97 39.1065 152.87 36.1128 152.885 34.0328C152.899 31.9929 152.072 30.147 150.556 29.5364C150.546 31.0164 150.178 32.1738 149.218 32.1671C147.378 32.1542 145.368 27.9001 143.881 23.1295C147.905 19.7576 149.399 17.768 149.414 15.6081C149.427 13.7281 148.317 12.2803 146.333 9.98638C145.54 9.06081 144.708 7.81496 145.121 6.0578Z" fill="#FFC261"/>
<path d="M166.313 21.8124C166.376 21.2545 166.565 20.5417 166.593 19.8623C166.663 18.1837 165.623 17.18 164.144 17.1189C162.266 17.0413 160.305 18.0012 159.413 19.2454C160.87 19.8261 161.398 21.5694 161.136 27.924C160.855 34.7182 159.742 36.4737 158.897 38.5206C160.619 38.5116 162.342 38.4627 164.26 38.5419C165.34 38.5865 166.497 38.6743 167.648 38.922C166.371 35.9068 165.919 33.2859 166.008 31.1277C166.198 26.5317 168.625 23.9896 170.143 24.0524C170.583 24.0705 170.973 24.3268 170.92 25.6057C170.882 26.525 170.656 27.1562 170.005 28.3703C173.289 27.385 174.643 24.6386 174.747 22.1207C174.848 19.6828 173.736 17.5151 171.818 17.4358C169.939 17.3583 168.34 18.293 166.313 21.8124Z" fill="#FFC261"/>
<path d="M188.653 18.2085C184.144 17.8925 181.538 23.6043 181.172 28.8315C180.845 33.5 182.17 39.768 187.397 40.1343C190.749 40.3692 192.838 38.0295 193.075 34.6378C193.154 33.5206 192.981 32.5461 192.465 31.9084C192.267 33.0173 190.186 34.6759 188.55 34.5612C187.672 34.4997 186.83 33.9195 186.897 32.9618C187.043 30.8869 190.931 29.756 193.377 29.767C193.493 29.2538 193.537 28.6154 193.579 28.0169C193.761 25.4232 193.521 18.5496 188.653 18.2085ZM186.937 26.1078C187.032 24.7511 187.303 23.1662 188.261 23.2333C189.019 23.2865 189.146 24.3379 188.951 25.9683C188.33 26.2456 187.536 26.7112 186.904 27.1481C186.884 26.8659 186.911 26.4669 186.937 26.1078Z" fill="#FFC261"/>
<path d="M214.272 33.5966C213.936 34.5683 213.447 35.0428 213.009 34.9998C212.452 34.945 211.976 34.0543 212.156 32.2231C212.336 30.3919 213.093 28.4165 213.257 26.7445C213.574 23.52 211.83 20.4145 208.167 20.0547C204.704 19.7143 201.631 21.9445 201.154 26.8011C201.056 27.7963 201.153 28.4489 201.277 29.2248C202.556 27.6624 204.571 25.9714 206.761 26.1865C207.676 26.2765 208.441 26.6732 208.351 27.5888C208.074 30.4152 200.235 29.2028 199.652 35.1342C199.351 38.1994 201.179 41.2729 204.164 41.5663C205.438 41.6915 206.882 41.3109 208.011 40.0552C208.53 41.312 209.478 41.8875 210.474 41.9853C212.703 42.2044 214.315 39.71 214.596 36.8438C214.706 35.7292 214.612 34.6348 214.272 33.5966ZM204.87 35.2048C204.972 34.1698 205.969 33.0218 208.132 31.8678C207.944 33.7786 206.894 36.2879 205.54 36.1549C205.023 36.1041 204.819 35.7223 204.87 35.2048Z" fill="#FFC261"/>
<path d="M231.266 25.7857C231.688 22.4523 230.008 21.0704 226.833 20.6684C225.008 20.4373 223.053 20.593 221.895 21.4545C224.194 23.6808 224.343 26.9655 223.946 30.1005C223.639 32.5211 222.93 35.5762 222.724 37.2032C222.237 41.0525 223.755 44.0268 226.612 44.3885C229.747 44.7854 231.786 41.7374 232.193 38.5231C232.384 37.0151 232.217 35.7844 231.484 34.8852C230.977 35.708 229.932 37.9142 228.821 37.7735C227.947 37.663 227.989 36.3781 228.12 35.3463C228.266 34.1955 228.66 32.3505 229.357 31.3097C232.79 31.583 234.215 30.8361 234.526 28.3757C233.36 28.3491 231.926 28.5304 230.631 28.568C230.866 27.6704 231.14 26.7778 231.266 25.7857Z" fill="#FFC261"/>
<path d="M241.288 25.738C243.191 26.7951 243.452 30.6781 242.793 35.0284C242.175 39.1019 240.746 43.457 239.155 45.6836C240.359 45.7448 241.795 45.8815 243.416 46.1272C244.959 46.361 246.766 46.7158 247.584 46.9208C246.82 45.0248 246.531 43.7269 247.059 40.2467C247.514 37.241 249.078 33.5942 249.516 30.7072C249.942 27.8993 249.304 25.6989 245.666 25.1474C244.084 24.9076 242.606 25.0478 241.288 25.738ZM244.014 19.7591C243.757 21.4597 244.87 22.9231 246.531 23.1748C248.192 23.4266 249.729 22.3648 249.986 20.6643C250.238 19.0032 249.091 17.4943 247.43 17.2426C245.769 16.9908 244.266 18.0981 244.014 19.7591Z" fill="#FFC261"/>
<path d="M271.353 19.5721C270.38 20.9436 269.158 20.7278 266.828 20.3565C264.103 19.9156 259.487 19.8311 258.283 26.6455C257.566 30.7026 258.158 36.7783 257.448 40.796C257.016 43.2382 256.056 45.2215 254.332 48.085C256.257 48.2222 258.215 48.4057 260.263 48.7677C261.76 49.0322 263.322 49.3894 264.784 49.8509C262.185 44.5579 262.346 39.5089 262.737 33.8505C264.042 33.5936 265.344 33.58 266.699 33.4946C267.93 33.4277 269.035 31.9983 269.188 31.1317C269.265 30.6985 269.077 30.381 268.644 30.3044C267.817 30.1582 264.714 30.7066 263.345 30.8708C264.034 26.9713 267.509 27.9916 269.674 26.5462C270.872 25.7425 271.549 24.4404 271.793 23.0618C272.001 21.8801 271.856 20.6357 271.353 19.5721Z" fill="#FFC261"/>
</svg>
