<svg width="342" height="70" viewBox="0 0 342 70" fill="none" xmlns="http://www.w3.org/2000/svg">
<path d="M14.3127 26.9141C12.472 28.5023 12.3284 29.8069 12.7014 31.1231C13.0538 32.3661 13.9484 33.8504 14.3215 35.1665C14.8396 36.9945 14.6309 39.463 12.8769 42.0535C11.9339 38.7266 11.3777 35.0925 11.1294 31.5687C10.5913 31.7607 10.0429 31.9161 9.49453 32.0716C7.37407 32.6726 5.24871 33.117 3.10263 33.4884C5.28694 37.2929 7.0832 41.9579 8.47182 46.8569C9.67391 51.0978 10.5573 55.4685 11.0916 59.5828C14.0895 58.733 16.868 57.9455 19.4424 57.4132C17.8286 55.3428 14.7813 49.8871 13.8072 46.4505C15.1023 48.6507 20.4857 57.7495 26.2621 56.1121C29.3331 55.2417 29.3602 52.2717 28.8213 50.3706C28.2928 48.506 27.0484 47.0419 25.5037 46.8873C25.8871 48.24 25.8586 49.3935 24.9812 49.6422C23.2994 50.1189 20.3364 46.7721 17.714 42.8153C20.4891 38.6714 21.3236 36.46 20.7641 34.4858C20.277 32.7675 18.8803 31.7415 16.4616 30.1757C15.4921 29.5421 14.4031 28.6264 14.3127 26.9141Z" fill="#FFC261"/>
<path d="M46.7566 41.6549C46.7559 42.6319 46.4643 43.2096 46.0578 43.3069C45.5404 43.4306 44.8373 42.7783 44.4306 41.0783C44.0239 39.3783 44.0904 37.3697 43.7191 35.8175C43.0029 32.8239 40.4727 30.577 37.0726 31.3904C33.8573 32.1596 31.7904 35.1156 32.869 39.6244C33.0901 40.5483 33.3794 41.1043 33.7321 41.7622C34.3956 39.9625 35.6801 37.8188 37.7127 37.3325C38.5627 37.1292 39.3726 37.248 39.576 38.098C40.2037 40.722 32.7889 42.066 34.1063 47.5726C34.7871 50.4183 37.3824 52.6107 40.1542 51.9476C41.3368 51.6646 42.5154 50.8747 43.1387 49.3972C43.9952 50.3644 45.0253 50.5869 45.9492 50.3658C48.0188 49.8707 48.6918 47.1309 48.0552 44.47C47.8077 43.4352 47.3842 42.4816 46.7566 41.6549ZM38.8135 46.0167C38.5836 45.0559 39.1226 43.7157 40.7068 42.0082C41.1312 43.7822 40.9667 46.3612 39.7102 46.6618C39.2297 46.7767 38.9284 46.4972 38.8135 46.0167Z" fill="#FFC261"/>
<path d="M57.2019 30.6306C57.201 28.8867 58.2048 24.6159 57.7415 22.3059C57.2184 19.6979 54.8932 19.5053 53.1793 19.8491C51.5772 20.1704 50.0872 21.0506 49.0146 22.0796C50.9379 23.1666 51.8929 25.223 52.3712 27.6075C53.1558 31.5196 52.8307 36.8557 53.5854 40.6187C54.6465 45.9094 57.8894 47.972 61.0191 47.3443C66.0862 46.328 66.887 38.7261 65.7138 32.8766C64.8993 28.8155 63.2658 26.0813 60.844 26.567C59.0929 26.9182 57.8866 28.8267 57.2019 30.6306ZM58.3989 39.1108C57.9431 36.838 57.9631 32.4933 59.5279 32.1794C60.3849 32.0075 60.8401 33.1177 61.139 34.608C61.7367 37.5887 61.5079 41.6653 60.2039 41.9268C59.4215 42.0837 58.7127 40.6756 58.3989 39.1108Z" fill="#FFC261"/>
<path d="M71.8281 25.7957C73.8586 26.1885 75.2406 29.6176 75.9294 33.7405C76.5744 37.601 76.5698 41.9552 75.7899 44.4357C76.8956 44.1354 78.2323 43.835 79.769 43.5782C81.2308 43.334 82.9674 43.1209 83.767 43.0644C82.517 41.5781 81.8731 40.4913 81.3221 37.193C80.8461 34.3445 81.182 30.5898 80.7249 27.8537C80.2803 25.1926 79.0551 23.3939 75.6069 23.97C74.1077 24.2205 72.8148 24.7833 71.8281 25.7957ZM72.5254 19.592C72.7946 21.2036 74.2319 22.1964 75.806 21.9334C77.3802 21.6704 78.4542 20.2581 78.1849 18.6464C77.9219 17.0723 76.4409 16.0483 74.8667 16.3113C73.2926 16.5743 72.2624 18.0178 72.5254 19.592Z" fill="#FFC261"/>
<path d="M105.312 34.0622C104.995 34.564 104.756 34.7872 104.342 34.842C102.986 35.0211 102.125 32.5667 101.761 29.8166C101.129 25.0322 102.107 20.5335 101.674 17.256C101.231 13.9031 99.489 12.9066 96.5506 13.2948C94.893 13.5138 93.4735 14.0847 92.6064 14.7742C95.2321 15.5005 96.2316 17.5533 96.5601 20.0397C96.7193 21.2452 96.718 22.3953 96.7017 23.4324C95.5259 21.7862 93.9223 20.9631 92.3777 21.1672C88.9118 21.6251 88.074 27.1787 88.6912 31.8501C89.4278 37.4256 91.7928 41.9811 95.8238 41.4485C97.293 41.2544 98.522 40.4021 99.2292 39.0821C99.928 40.5997 101.03 41.1057 102.16 40.9564C104.194 40.6877 106.294 38.3021 105.97 35.8534C105.891 35.2506 105.693 34.6251 105.312 34.0622ZM94.2255 31.9622C93.8174 28.873 93.9765 26.0156 95.1067 25.8662C96.0862 25.7368 96.7111 28.1457 96.9898 30.2554C97.3283 32.8171 97.3341 36.3428 96.1662 36.497C95.3751 36.6016 94.6337 35.0513 94.2255 31.9622Z" fill="#FFC261"/>
<path d="M134.262 9.6601C128.232 10.0349 126.525 18.0984 126.86 23.484C127.142 28.0352 129.327 38.065 136.04 37.6477C142.336 37.2564 143.268 28.3654 142.926 22.866C142.521 16.3426 139.989 9.30412 134.262 9.6601ZM133.075 23.6307C132.763 18.6243 133.603 16.2116 134.779 16.1385C135.917 16.0678 136.58 18.1587 136.879 22.9754C137.179 27.7921 136.827 30.7075 135.537 30.7877C134.248 30.8678 133.341 27.9164 133.075 23.6307Z" fill="#FFC261"/>
<path d="M151.008 17.1441C151.782 19.4833 152.116 22.4785 152.186 25.5938C152.276 29.5828 151.909 33.544 151.253 36.4855C152.465 36.3062 153.869 36.1986 155.161 36.1695C156.794 36.1328 158.468 36.2092 159.608 36.1835C158.318 34.6161 156.929 31.9867 156.89 30.2391C156.878 29.7073 157.015 29.058 157.851 29.0392C158.041 29.035 158.232 29.0687 158.612 29.0601C158.877 29.0541 161.08 28.9666 162.598 27.184C163.599 26.0592 164.133 24.4508 164.088 22.4373C163.975 17.4225 160.394 15.3746 156.823 15.4549C154.962 15.4968 152.848 16.1525 151.008 17.1441ZM157.03 26.321C156.942 25.7909 156.925 25.069 156.909 24.3472C156.856 21.9918 157.306 20.0432 158.294 20.021C158.978 20.0056 159.495 21.0202 159.527 22.4259C159.556 23.7555 158.985 25.4028 157.03 26.321Z" fill="#FFC261"/>
<path d="M177.832 15.4932C173.538 15.4392 171.378 20.9984 171.316 25.976C171.26 30.4216 172.858 36.2942 177.835 36.3569C181.027 36.3971 182.881 34.0643 182.921 30.8346C182.935 29.7706 182.718 28.8558 182.193 28.2792C182.066 29.3417 180.183 31.0281 178.625 31.0085C177.789 30.9979 176.959 30.4934 176.971 29.5815C176.996 27.6057 180.622 26.3212 182.942 26.1984C183.024 25.7054 183.032 25.0975 183.039 24.5275C183.07 22.0577 182.468 15.5516 177.832 15.4932ZM176.635 23.0788C176.651 21.7869 176.822 20.2689 177.734 20.2804C178.456 20.2895 178.633 21.2798 178.538 22.8367C177.964 23.1335 177.236 23.6184 176.66 24.0672C176.625 23.8007 176.63 23.4207 176.635 23.0788Z" fill="#FFC261"/>
<path d="M197.507 20.6886C197.571 20.1591 197.756 19.4833 197.787 18.8381C197.865 17.2439 196.884 16.2832 195.48 16.2149C193.696 16.1282 191.826 17.0264 190.97 18.2022C192.351 18.7639 192.841 20.4237 192.547 26.4586C192.233 32.9109 191.164 34.5709 190.346 36.5095C191.982 36.513 193.62 36.4785 195.442 36.5671C196.466 36.6169 197.565 36.7084 198.657 36.9516C197.465 34.0784 197.054 31.5855 197.153 29.5359C197.365 25.171 199.689 22.773 201.131 22.8432C201.548 22.8635 201.917 23.1096 201.858 24.3242C201.815 25.1972 201.596 25.7952 200.97 26.9442C204.096 26.0309 205.401 23.4312 205.518 21.0401C205.63 18.7248 204.589 16.6578 202.768 16.5692C200.984 16.4825 199.457 17.3594 197.507 20.6886Z" fill="#FFC261"/>
<path d="M225.055 30.4992C224.747 31.4263 224.288 31.8828 223.872 31.8471C223.342 31.8017 222.88 30.9612 223.029 29.2196C223.178 27.478 223.874 25.5925 224.01 24.0023C224.273 20.9355 222.579 18.0062 219.095 17.7078C215.801 17.4255 212.909 19.5805 212.513 24.1996C212.432 25.1461 212.532 25.7648 212.659 26.5004C213.856 25.0011 215.75 23.3708 217.832 23.5492C218.703 23.6239 219.434 23.9916 219.36 24.8624C219.129 27.5506 211.668 26.4918 211.185 32.1331C210.935 35.0485 212.708 37.9464 215.548 38.1897C216.76 38.2935 218.127 37.9148 219.184 36.7087C219.692 37.8964 220.6 38.4318 221.546 38.5129C223.666 38.6946 225.168 36.306 225.401 33.58C225.492 32.5199 225.391 31.4814 225.055 30.4992ZM216.143 32.1384C216.227 31.154 217.161 30.0517 219.202 28.9298C219.046 30.7472 218.078 33.1433 216.791 33.033C216.299 32.9908 216.101 32.6306 216.143 32.1384Z" fill="#FFC261"/>
<path d="M241.642 26.8838C242.627 26.0063 243.126 25.0326 243.234 24.127C243.518 21.7498 241.343 19.7682 238.589 19.4396C235.759 19.1019 233.094 20.5827 232.694 23.9409C232.514 25.4502 232.842 26.867 233.353 28.0378C234.326 30.144 236.345 32.1453 236.152 33.7678C236.066 34.4847 235.541 35.0344 234.711 34.9353C233.693 34.8138 232.749 33.7444 232.666 31.5531C231.486 32.1395 230.974 33.2264 230.816 34.5471C230.447 37.6411 232.392 39.9398 235.599 40.3225C238.995 40.7277 241.713 38.7941 242.146 35.1718C242.33 33.6248 242.049 32.137 241.531 30.6975C240.384 27.8052 238.528 26.3592 238.708 24.8499C238.789 24.1707 239.241 23.9184 239.769 23.9814C240.939 24.121 241.613 25.847 241.642 26.8838Z" fill="#FFC261"/>
<path d="M249.778 22.7539C251.589 23.753 251.848 27.4411 251.233 31.5757C250.658 35.4471 249.312 39.5883 247.806 41.708C248.951 41.7628 250.315 41.8887 251.856 42.1178C253.322 42.3357 255.04 42.6678 255.818 42.8603C255.087 41.0612 254.809 39.829 255.3 36.5213C255.725 33.6647 257.201 30.196 257.609 27.4521C258.005 24.7835 257.394 22.6948 253.936 22.1809C252.432 21.9574 251.029 22.0946 249.778 22.7539ZM252.352 17.0665C252.112 18.6828 253.174 20.0699 254.753 20.3046C256.331 20.5392 257.788 19.5264 258.028 17.9101C258.263 16.3315 257.169 14.9011 255.59 14.6665C254.012 14.4319 252.587 15.4879 252.352 17.0665Z" fill="#FFC261"/>
<path d="M272.392 24.5575C267.568 23.6846 264.803 28.938 263.991 33.4251C263.321 37.127 263.292 44.1116 268.64 45.0793C273.762 46.0064 275.994 40.077 276.765 35.8143C277.699 30.6541 276.954 25.3831 272.392 24.5575ZM268.944 34.4373C269.586 30.885 270.683 29.3071 271.58 29.4695C272.403 29.6184 272.788 31.1169 272.098 34.931C271.509 38.1841 270.637 40.2275 269.628 40.0448C268.581 39.8553 268.389 37.5035 268.944 34.4373Z" fill="#FFC261"/>
<path d="M285.407 28.8733C286.37 29.9802 285.984 33.3195 285.208 36.845C284.243 41.224 282.714 45.8678 282.062 47.5919C284.267 47.6496 286.234 48.0829 288.349 48.5489C288.434 47.6337 289.02 43.5604 289.601 40.9256C290.304 37.7341 291.37 35.0118 292.484 35.2571C293.115 35.3961 292.997 36.4597 292.695 37.8327C292.114 40.4676 290.599 45.5813 289.278 49.1036C291.323 49.3595 293.343 49.7267 295.883 50.2084C295.603 48.4737 295.749 46.7547 296.141 44.9734C296.713 42.3757 298.152 38.1401 298.716 35.5794C299.362 32.6477 299.238 30.2079 296.863 29.6847C294.748 29.2188 293.069 30.8334 291.572 32.6827C291.761 32.1795 291.987 31.6845 292.101 31.1649C292.453 29.5692 291.688 28.6226 290.241 28.3038C288.757 27.9768 286.573 28.3518 285.407 28.8733Z" fill="#FFC261"/>
<path d="M318.122 47.6485C317.662 48.5105 317.133 48.8832 316.728 48.778C316.213 48.644 315.9 47.7377 316.34 46.0461C316.78 44.3544 317.783 42.6129 318.185 41.0683C318.96 38.0896 317.783 34.9169 314.4 34.0363C311.201 33.2036 307.987 34.8409 306.819 39.3275C306.58 40.2468 306.574 40.8735 306.576 41.6201C308.008 40.3435 310.149 39.0554 312.172 39.5818C313.017 39.8019 313.676 40.2876 313.456 41.1334C312.777 43.7444 305.601 41.4448 304.174 46.9243C303.437 49.7559 304.697 52.911 307.456 53.6288C308.632 53.9351 310.044 53.792 311.289 52.7809C311.59 54.0373 312.394 54.7179 313.314 54.9572C315.373 55.4932 317.255 53.3914 317.944 50.7436C318.212 49.7139 318.287 48.6732 318.122 47.6485ZM309.06 47.764C309.309 46.8078 310.415 45.8784 312.616 45.1161C312.157 46.8813 310.799 49.0803 309.549 48.7549C309.071 48.6305 308.936 48.2421 309.06 47.764Z" fill="#FFC261"/>
<path d="M330.064 31.6871C330.765 33.4778 330.029 37.46 328.753 41.7982C327.048 47.5946 324.341 53.9678 322.332 57.2981C324.015 57.6348 325.735 57.9823 327.266 58.4328C327.995 58.6472 328.531 58.8446 329.177 59.074C329.391 56.9982 330.101 54.3155 330.584 52.675C332.686 45.5298 335.587 40.9172 336.606 37.4539C337.593 34.1 336.609 32.4638 334.13 31.7345C332.671 31.3056 331.522 31.4427 330.064 31.6871Z" fill="#FFC261"/>
</svg>
