<svg width="217" height="60" viewBox="0 0 217 60" fill="none" xmlns="http://www.w3.org/2000/svg">
<path d="M14.9017 15.0594C12.8408 16.5765 12.584 17.934 12.8686 19.3456C13.1373 20.6788 13.9556 22.3093 14.2402 23.7209C14.6354 25.6814 14.2157 28.2551 12.1643 30.8313C11.445 27.263 11.1567 23.4039 11.1825 19.6855C10.6022 19.8433 10.014 19.9618 9.42587 20.0804C7.15162 20.5388 4.88496 20.8325 2.60249 21.0478C4.58567 25.2182 6.09165 30.26 7.15081 35.5143C8.06769 40.0628 8.63958 44.7217 8.86585 49.0829C12.0812 48.4348 15.0612 47.8341 17.8063 47.4848C16.281 45.1807 13.5263 39.2073 12.7833 35.5214C13.9636 37.9358 18.8739 47.9224 25.0692 46.6736C28.363 46.0096 28.6328 42.8949 28.2218 40.8559C27.8187 38.8561 26.6317 37.2184 25.0231 36.9306C25.3155 38.3814 25.1919 39.5897 24.2508 39.7794C22.4471 40.143 19.6094 36.3897 17.1788 32.0239C20.4281 27.9005 21.4837 25.6475 21.0569 23.5301C20.6854 21.6872 19.3029 20.4969 16.8918 18.657C15.9258 17.9133 14.8573 16.8637 14.9017 15.0594Z" fill="#FFC261"/>
<path d="M38.0631 21.5958C33.5932 22.2664 32.2899 28.4078 33.0673 33.5898C33.7617 38.218 36.4161 44.0487 41.5981 43.2712C44.9209 42.7727 46.4517 40.0353 45.9473 36.673C45.7811 35.5654 45.4014 34.6516 44.7585 34.1413C44.806 35.2667 43.1348 37.3376 41.5129 37.5809C40.6427 37.7115 39.6953 37.3278 39.5528 36.3784C39.2442 34.3214 42.7945 32.3731 45.1837 31.8529C45.1857 31.3268 45.0907 30.6939 45.0017 30.1005C44.616 27.5293 42.8891 20.8718 38.0631 21.5958ZM38.1029 29.6794C37.9011 28.3344 37.822 26.7284 38.7713 26.586C39.5229 26.4732 39.875 27.472 40.0392 29.1058C39.4933 29.5112 38.8189 30.1382 38.2967 30.7019C38.2157 30.431 38.1563 30.0354 38.1029 29.6794Z" fill="#FFC261"/>
<path d="M61.573 26.0282C62.3748 24.8946 62.6552 23.7775 62.5511 22.8232C62.2777 20.3181 59.5773 18.8021 56.6746 19.1188C53.6923 19.4443 51.3116 21.5953 51.6978 25.1342C51.8713 26.7248 52.5445 28.0999 53.3463 29.1793C54.8444 31.1081 57.3901 32.6813 57.5767 34.3911C57.6591 35.1466 57.2514 35.8349 56.3766 35.9304C55.3029 36.0476 54.0811 35.175 53.4758 32.9475C52.4051 33.8288 52.1377 35.0651 52.2895 36.4569C52.6454 39.7175 55.186 41.6131 58.5659 41.2442C62.1447 40.8537 64.4733 38.2256 64.0568 34.4082C63.8788 32.7779 63.2368 31.319 62.3648 29.9656C60.5016 27.2718 58.2553 26.2293 58.0817 24.6388C58.0036 23.923 58.4063 23.5572 58.963 23.4964C60.1956 23.3619 61.2968 24.972 61.573 26.0282Z" fill="#FFC261"/>
<path d="M76.2215 17.4772C71.7121 17.7864 69.9196 23.8032 70.2781 29.0309C70.5983 33.7 72.7757 39.7251 78.0034 39.3665C81.3556 39.1366 83.1014 36.5311 82.8687 33.139C82.7921 32.0217 82.487 31.0803 81.8872 30.5201C81.8441 31.6456 80.0119 33.5755 78.3757 33.6878C77.4978 33.748 76.5843 33.2894 76.5186 32.3317C76.3763 30.2565 80.0716 28.5998 82.4949 28.2732C82.5391 27.749 82.4953 27.1105 82.4543 26.5119C82.2764 23.918 81.09 17.1433 76.2215 17.4772ZM75.6116 25.5378C75.5185 24.181 75.5687 22.5738 76.5264 22.5081C77.2846 22.4561 77.5553 23.48 77.5877 25.1216C77.011 25.4819 76.2884 26.0527 75.7227 26.5726C75.6636 26.296 75.6362 25.8969 75.6116 25.5378Z" fill="#FFC261"/>
<path d="M89.281 10.2254C90.2519 12.4439 90.825 18.2723 90.9282 22.7911C91.0405 27.7098 90.6393 32.9204 89.5992 38.1855C92.0386 38.1298 94.4834 38.314 97.1664 38.4128C96.4073 36.7097 95.8418 34.7221 95.798 32.8026C95.7888 32.4027 95.7788 31.9628 95.8506 31.6011C97.1932 34.3311 99.5413 39.0388 102.58 38.9694C104.74 38.9201 106.004 36.4506 105.946 33.9312C105.915 32.5716 105.486 31.3011 104.749 30.5577C104.66 31.9201 104.191 32.4109 103.711 32.4219C102.392 32.452 100.404 29.4966 100.129 27.9825C102.384 26.8507 104.427 25.2037 104.368 22.6443C104.325 20.7648 103.188 20.0306 102.094 19.4154C100.756 18.6457 99.6609 17.9906 99.6226 16.311C99.6153 15.9911 99.6452 15.5503 99.756 15.1476C97.6658 16.4757 97.1034 18.129 97.1335 19.4486C97.1764 21.3281 98.3807 21.5007 98.4272 23.5402C98.4692 25.3797 97.4124 26.4041 95.791 27.2413C95.8396 22.3589 96.0885 20.9929 96.8852 17.3337C97.3903 14.9216 97.6083 13.9563 97.5864 12.9966C97.5252 10.3173 95.861 9.27501 93.0617 9.33892C91.7421 9.36904 90.6278 9.63454 89.281 10.2254Z" fill="#FFC261"/>
<path d="M116.754 28.1454C113.835 28.0756 112.095 30.5547 112.025 33.4739C111.953 36.513 113.671 39.9551 117.99 40.0584C123.188 40.1827 125.505 35.3167 125.689 27.6389C125.831 21.6806 124.617 17.2503 120.138 17.1432C118.419 17.102 116.604 17.6988 115.209 19.1459C118.963 19.4357 120.43 26.6729 120.353 29.912C120.296 32.2713 119.423 33.6508 117.864 33.6135C116.384 33.5781 115.815 32.2841 115.85 30.8046C115.877 29.6849 116.215 28.9327 116.754 28.1454ZM116.94 12.0252C116.892 14.0247 118.347 15.0598 119.867 15.0961C121.347 15.1315 122.89 14.1681 122.938 12.1687C122.985 10.2093 121.49 9.1332 120.011 9.09782C118.491 9.06147 116.987 10.0258 116.94 12.0252Z" fill="#FFC261"/>
<path d="M140.502 17.4826C135.992 17.1831 133.407 22.9044 133.06 28.1329C132.75 32.8026 134.098 39.0657 139.326 39.4129C142.679 39.6355 144.759 37.2882 144.984 33.8957C145.058 32.7781 144.882 31.8043 144.363 31.1685C144.169 32.2781 142.094 33.9443 140.458 33.8356C139.58 33.7773 138.736 33.2002 138.8 32.2423C138.938 30.1669 142.822 29.0217 145.267 29.0237C145.382 28.5102 145.424 27.8716 145.464 27.2729C145.636 24.6786 145.371 17.8059 140.502 17.4826ZM138.814 25.3882C138.904 24.0312 139.17 22.4453 140.128 22.5089C140.886 22.5592 141.017 23.6102 140.828 25.2413C140.208 25.5208 139.416 25.9893 138.785 26.4285C138.764 26.1465 138.79 25.7474 138.814 25.3882Z" fill="#FFC261"/>
<path d="M152.989 20.3127C154.12 21.3643 154.088 24.9025 153.667 28.6792C153.145 33.3702 152.062 38.4012 151.571 40.2784C153.886 40.0934 155.993 40.328 158.259 40.5802C158.246 39.6129 158.406 35.284 158.72 32.4614C159.101 29.0425 159.914 26.0743 161.107 26.2071C161.782 26.2823 161.778 27.4087 161.614 28.8796C161.3 31.7022 160.283 37.2235 159.292 41.0575C161.461 41.0977 163.617 41.2572 166.329 41.4787C165.843 39.694 165.804 37.8785 166.017 35.9703C166.326 33.1875 167.361 28.5937 167.666 25.8507C168.016 22.7101 167.615 20.1701 165.07 19.8868C162.804 19.6345 161.227 21.5115 159.866 23.6139C160.007 23.0662 160.189 22.5229 160.251 21.9663C160.441 20.2569 159.536 19.3512 157.985 19.1785C156.395 19.0015 154.151 19.6371 152.989 20.3127Z" fill="#FFC261"/>
<path d="M188.172 36.3417C187.778 37.2916 187.262 37.7361 186.827 37.667C186.274 37.5791 185.853 36.6616 186.142 34.8445C186.431 33.0273 187.304 31.1004 187.568 29.4413C188.076 26.2414 186.52 23.0374 182.885 22.4598C179.449 21.9136 176.248 23.9566 175.482 28.7761C175.325 29.7637 175.383 30.4209 175.461 31.2029C176.831 29.7195 178.943 28.1516 181.116 28.4969C182.025 28.6413 182.764 29.0829 182.62 29.9915C182.174 32.7963 174.421 31.1187 173.486 37.0048C173.003 40.0466 174.644 43.2237 177.607 43.6945C178.871 43.8954 180.335 43.6016 181.537 42.4154C181.98 43.701 182.893 44.332 183.88 44.489C186.092 44.8406 187.85 42.4468 188.302 39.6024C188.478 38.4963 188.45 37.3983 188.172 36.3417ZM178.691 37.3864C178.854 36.3593 179.918 35.2728 182.146 34.2499C181.844 36.1461 180.646 38.5883 179.303 38.3748C178.79 38.2932 178.609 37.9 178.691 37.3864Z" fill="#FFC261"/>
<path d="M196.978 26.5489C198.006 27.7013 197.644 31.2212 196.873 34.9421C195.915 39.5639 194.367 44.4718 193.703 46.2951C196.025 46.3269 198.101 46.7571 200.334 47.2198C200.411 46.2554 200.974 41.9604 201.55 39.1794C202.249 35.811 203.335 32.9317 204.511 33.1752C205.176 33.3132 205.067 34.4342 204.766 35.8834C204.19 38.6643 202.662 44.0667 201.318 47.7915C203.474 48.0339 205.605 48.3939 208.285 48.8676C207.968 47.0454 208.098 45.2341 208.488 43.3541C209.056 40.6123 210.515 36.1352 211.075 33.4326C211.716 30.3384 211.554 27.772 209.047 27.2525C206.814 26.7898 205.069 28.5114 203.517 30.4775C203.709 29.9454 203.94 29.4214 204.054 28.873C204.403 27.1888 203.586 26.2026 202.059 25.886C200.492 25.5613 198.198 25.9847 196.978 26.5489Z" fill="#FFC261"/>
</svg>
