<svg width="317" height="66" viewBox="0 0 317 66" fill="none" xmlns="http://www.w3.org/2000/svg">
<path d="M14.9651 21.4944C12.9378 23.0561 12.7106 24.4188 13.0258 25.8239C13.3235 27.1509 14.1771 28.7632 14.4923 30.1683C14.9301 32.1198 14.5665 34.702 12.5717 37.3222C11.7749 33.7705 11.4027 29.9185 11.3475 26.2004C10.7708 26.3708 10.1854 26.5021 9.59991 26.6335C7.33618 27.1413 5.07645 27.4843 2.79921 27.7492C4.87271 31.8754 6.48809 36.8832 7.66139 42.1132C8.67707 46.6407 9.35025 51.286 9.67141 55.6413C12.8719 54.9233 15.8381 54.2579 18.575 53.8489C16.9998 51.5786 14.1157 45.6666 13.2927 41.9978C14.5253 44.3859 19.6518 54.2632 25.8185 52.8798C29.097 52.1443 29.299 49.0244 28.8437 46.9949C28.3971 45.0043 27.1747 43.3928 25.5603 43.1401C25.8842 44.5842 25.7869 45.7949 24.8502 46.005C23.0548 46.4078 20.1361 42.7172 17.611 38.4054C20.7698 34.2122 21.7761 31.9368 21.3033 29.8291C20.8917 27.9947 19.4837 26.8348 17.0331 25.0479C16.0511 24.3253 14.9601 23.2993 14.9651 21.4944Z" fill="#FFC261"/>
<path d="M37.9934 27.4021C33.5502 28.2321 32.4674 34.4161 33.4297 39.567C34.2891 44.1674 37.1504 49.8995 42.3013 48.9372C45.6042 48.3202 47.0361 45.5298 46.4117 42.1876C46.206 41.0866 45.7938 40.187 45.1332 39.7001C45.2209 40.8231 43.6248 42.9524 42.0126 43.2536C41.1476 43.4152 40.1871 43.0656 40.0108 42.1219C39.6288 40.0773 43.1071 38.0033 45.4762 37.3979C45.4594 36.8721 45.3419 36.243 45.2317 35.6532C44.7542 33.0974 42.7904 26.5059 37.9934 27.4021ZM38.3222 35.479C38.0724 34.1422 37.9359 32.54 38.8796 32.3637C39.6266 32.2241 40.0142 33.2097 40.2368 34.8365C39.7057 35.2613 39.0541 35.912 38.5525 36.494C38.4618 36.2261 38.3883 35.8329 38.3222 35.479Z" fill="#FFC261"/>
<path d="M59.9877 27.0097C59.4691 23.6899 57.4722 22.8278 54.3105 23.3216C52.4926 23.6056 50.6573 24.2971 49.7841 25.4456C52.6097 26.9476 53.663 30.0623 54.1507 33.1845C54.5273 35.5952 54.6926 38.7272 54.9457 40.3476C55.5445 44.1811 57.828 46.6179 60.6734 46.1734C63.7956 45.6857 64.9097 42.1919 64.4097 38.9908C64.1751 37.489 63.6738 36.3527 62.7204 35.6919C62.461 36.6231 62.0681 39.0326 60.9615 39.2055C60.0921 39.3413 59.776 38.0951 59.6155 37.0676C59.4365 35.9215 59.3044 34.0393 59.6848 32.8463C63.0589 32.1574 64.2211 31.0447 63.8384 28.5944C62.7108 28.892 61.3831 29.4637 60.1493 29.8588C60.1259 28.9314 60.142 27.9977 59.9877 27.0097Z" fill="#FFC261"/>
<path d="M69.9391 23.2302C71.2268 24.2006 71.8236 25.7797 72.0671 27.7648C72.4422 30.8219 71.9618 34.79 72.3174 37.6882C72.6779 40.6262 74.0399 43.8443 77.7719 43.3864C79.9159 43.1233 81.0102 41.8607 81.9222 40.0965C83.1283 42.0441 84.3374 42.7018 85.4094 42.5702C87.3548 42.3316 88.7503 39.5812 88.419 36.8814C88.3313 36.1668 88.1148 35.3873 87.7938 34.7416C87.4747 35.4256 87.0421 35.8413 86.526 35.9047C85.851 35.9875 85.2821 35.2916 85.1116 33.902C84.8144 31.4802 85.7607 27.6968 85.4441 25.1161C85.0496 21.9002 82.6655 20.8628 80.0054 21.1892C79.2511 21.2817 78.4717 21.4983 77.7862 21.8242C78.7815 22.7096 79.5913 24.3834 79.9567 27.3611C80.512 31.8871 79.8002 37.2537 78.6886 37.3901C78.3312 37.434 77.8563 36.8475 77.7394 35.8946C77.4763 33.7507 78.6053 28.1717 78.2595 25.3528C77.9088 22.4942 75.9161 21.6909 73.256 22.0173C71.9062 22.1829 70.8683 22.5923 69.9391 23.2302Z" fill="#FFC261"/>
<path d="M108.703 31.2745C108.552 32.2916 108.159 32.8482 107.72 32.8867C107.163 32.9357 106.531 32.1479 106.37 30.315C106.209 28.4821 106.588 26.4009 106.441 24.7273C106.158 21.4998 103.87 18.7696 100.204 19.0917C96.7374 19.3963 94.1289 22.1552 94.5561 27.0165C94.6436 28.0127 94.859 28.6362 95.1248 29.3758C96.0934 27.6042 97.7618 25.5703 99.9533 25.3778C100.87 25.2972 101.695 25.546 101.775 26.4624C102.024 29.2915 94.0958 29.5465 94.6175 35.4836C94.8871 38.5518 97.251 41.2352 100.24 40.9726C101.515 40.8605 102.864 40.22 103.741 38.7777C104.483 39.917 105.522 40.3076 106.518 40.2201C108.749 40.024 109.873 37.2751 109.621 34.4062C109.523 33.2905 109.229 32.2321 108.703 31.2745ZM99.759 34.5901C99.668 33.5541 100.436 32.2419 102.349 30.7085C102.517 32.6211 101.948 35.2812 100.593 35.4002C100.075 35.4457 99.8045 35.1081 99.759 34.5901Z" fill="#FFC261"/>
<path d="M131.997 10.1336C132.564 13.2389 132.934 16.4297 133.034 19.9483C133.199 25.826 132.667 32.4836 131.834 38.4294C133.39 38.2655 134.988 38.1805 136.467 38.1388C138.507 38.0813 139.988 38.1196 141.867 38.0667C140.313 35.4294 138.712 32.5934 138.603 28.7149C138.585 28.0752 138.624 28.0341 141.562 27.231C145.254 26.1666 148.372 23.2375 148.215 17.6398C148.016 10.6026 142.908 9.66608 138.35 9.79453C136.63 9.84298 134.356 10.0671 131.997 10.1336ZM139.006 23.1413C138.854 22.0252 138.819 20.7857 138.788 19.6661C138.745 18.1467 139.195 15.653 140.315 15.6215C141.114 15.599 141.792 16.9404 141.84 18.6197C141.896 20.6189 141.029 22.5241 139.006 23.1413Z" fill="#FFC261"/>
<path d="M161.588 16.3553C157.068 16.3341 154.84 22.2037 154.816 27.4436C154.794 32.1236 156.525 38.2918 161.765 38.3164C165.125 38.3322 167.056 35.8612 167.072 32.4612C167.077 31.3413 166.842 30.3801 166.285 29.7775C166.16 30.8969 164.191 32.6877 162.551 32.68C161.671 32.6759 160.794 32.1518 160.798 31.1918C160.808 29.1118 164.614 27.7297 167.055 27.5811C167.138 27.0615 167.141 26.4215 167.143 25.8215C167.156 23.2215 166.468 16.3782 161.588 16.3553ZM160.39 24.3498C160.397 22.9898 160.564 21.3906 161.524 21.3951C162.284 21.3986 162.479 22.4396 162.392 24.0792C161.79 24.3964 161.028 24.9128 160.425 25.39C160.387 25.1098 160.389 24.7098 160.39 24.3498Z" fill="#FFC261"/>
<path d="M174.908 10.0286C176.096 11.6676 176.4 15.9195 176.248 20.6771C176.043 27.0338 174.972 34.2431 173.805 38.1677C175.609 38.0656 177.454 37.9647 179.133 38.0186C179.932 38.0442 180.531 38.1035 181.249 38.1665C180.919 35.9948 180.932 33.0737 180.99 31.2747C181.242 23.4387 182.978 17.9716 183.1 14.1735C183.218 10.4954 181.782 9.08866 179.064 9.00141C177.464 8.95008 176.33 9.3939 174.908 10.0286Z" fill="#FFC261"/>
<path d="M204.245 31.0552C203.945 32.0387 203.474 32.5309 203.035 32.5041C202.476 32.4699 201.968 31.5973 202.08 29.7607C202.192 27.9241 202.876 25.9221 202.978 24.2452C203.176 21.0113 201.318 17.9723 197.645 17.7478C194.171 17.5355 191.183 19.8775 190.885 24.7485C190.824 25.7466 190.945 26.3952 191.098 27.1659C192.318 25.5574 194.27 23.7931 196.466 23.9273C197.384 23.9835 198.163 24.3517 198.107 25.27C197.933 28.1047 190.055 27.1824 189.692 33.1313C189.504 36.2055 191.444 39.2095 194.438 39.3925C195.716 39.4706 197.145 39.0369 198.226 37.7405C198.792 38.9773 199.761 39.5174 200.759 39.5784C202.995 39.715 204.513 37.1629 204.689 34.2883C204.757 33.1704 204.623 32.0802 204.245 31.0552ZM194.909 33.0093C194.972 31.9712 195.926 30.7872 198.045 29.5542C197.928 31.4706 196.971 34.017 195.614 33.934C195.095 33.9023 194.877 33.5283 194.909 33.0093Z" fill="#FFC261"/>
<path d="M213.155 12.1209C213.857 14.4384 213.739 20.2937 213.308 24.7931C212.839 29.6907 211.825 34.8175 210.171 39.923C212.6 40.1556 215.006 40.6271 217.659 41.0419C217.106 39.2611 216.779 37.2206 216.962 35.3094C217 34.9112 217.042 34.4732 217.156 34.1225C218.167 36.9919 219.943 41.9438 222.969 42.2336C225.119 42.4395 226.666 40.1364 226.906 37.6279C227.036 36.2741 226.76 34.9618 226.115 34.1366C225.866 35.479 225.343 35.911 224.865 35.8653C223.551 35.7394 221.926 32.5701 221.832 31.0341C224.204 30.1764 226.427 28.782 226.671 26.2336C226.85 24.3622 225.808 23.4989 224.794 22.7588C223.556 21.8366 222.546 21.0568 222.706 19.3844C222.737 19.0659 222.818 18.6317 222.976 18.245C220.744 19.317 219.99 20.8924 219.864 22.2064C219.685 24.0778 220.86 24.3913 220.666 26.422C220.491 28.2536 219.32 29.1461 217.611 29.7861C218.236 24.9436 218.644 23.6165 219.867 20.077C220.653 17.7413 220.984 16.8085 221.075 15.8529C221.331 13.1851 219.801 11.9537 217.014 11.6868C215.7 11.5609 214.562 11.6931 213.155 12.1209Z" fill="#FFC261"/>
<path d="M244.718 29.4793C245.763 28.5648 246.297 27.5445 246.419 26.5923C246.74 24.0928 244.469 21.9868 241.573 21.6153C238.597 21.2337 235.779 22.7677 235.326 26.2988C235.123 27.8858 235.455 29.3802 235.982 30.6173C236.987 32.8432 239.094 34.9685 238.875 36.6745C238.779 37.4284 238.221 38.0021 237.348 37.8901C236.277 37.7527 235.293 36.6184 235.226 34.3111C233.979 34.9174 233.43 36.0567 233.251 37.4454C232.834 40.6987 234.861 43.1363 238.233 43.5688C241.804 44.0268 244.683 42.0167 245.171 38.2079C245.38 36.5813 245.097 35.0125 244.566 33.4926C243.385 30.4376 241.445 28.8983 241.649 27.3113C241.74 26.5971 242.218 26.3357 242.773 26.407C244.003 26.5647 244.697 28.3878 244.718 29.4793Z" fill="#FFC261"/>
<path d="M266.179 38.5588C265.785 39.5086 265.269 39.9528 264.834 39.8836C264.281 39.7954 263.86 38.8777 264.15 37.0607C264.439 35.2436 265.314 33.3172 265.578 31.6582C266.088 28.4586 264.533 25.2538 260.899 24.6745C257.463 24.1267 254.261 26.1682 253.493 30.9873C253.336 31.9749 253.393 32.6321 253.471 33.4141C254.841 31.9313 256.954 30.3644 259.127 30.7108C260.035 30.8556 260.775 31.2975 260.63 32.2061C260.183 35.0107 252.431 33.3294 251.493 39.2151C251.008 42.2567 252.648 45.4345 255.611 45.9067C256.875 46.1082 258.339 45.8151 259.541 44.6295C259.984 45.9153 260.896 46.5467 261.883 46.7041C264.096 47.0568 265.854 44.6638 266.308 41.8197C266.484 40.7136 266.456 39.6156 266.179 38.5588ZM256.697 39.5991C256.861 38.5721 257.925 37.4861 260.154 36.4642C259.852 38.3603 258.652 40.8019 257.309 40.5878C256.796 40.5059 256.615 40.1126 256.697 39.5991Z" fill="#FFC261"/>
<path d="M274.798 28.6946C275.84 29.834 275.523 33.3581 274.799 37.0885C273.899 41.722 272.413 46.6491 271.772 48.4806C274.094 48.4831 276.176 48.8871 278.414 49.3216C278.479 48.3563 278.988 44.0545 279.529 41.2665C280.185 37.8895 281.235 34.9967 282.413 35.2254C283.081 35.3549 282.985 36.4773 282.703 37.9302C282.162 40.7181 280.702 46.1393 279.405 49.8808C281.564 50.096 283.7 50.4291 286.385 50.8689C286.045 49.0508 286.153 47.2381 286.519 45.3532C287.052 42.6046 288.454 38.1094 288.98 35.4C289.582 32.2979 289.388 29.7337 286.874 29.2459C284.636 28.8114 282.912 30.5549 281.386 32.5404C281.571 32.0059 281.796 31.4791 281.903 30.9293C282.23 29.2408 281.401 28.2649 279.87 27.9677C278.299 27.6628 276.011 28.1151 274.798 28.6946Z" fill="#FFC261"/>
<path d="M308.57 47.2728C308.112 48.1939 307.567 48.6024 307.138 48.5041C306.593 48.3789 306.234 47.435 306.646 45.6416C307.057 43.8481 308.059 41.9848 308.434 40.3473C309.158 37.1893 307.822 33.8872 304.235 33.0648C300.843 32.2871 297.512 34.1087 296.421 38.8653C296.198 39.84 296.211 40.4996 296.236 41.2851C297.703 39.8978 299.917 38.4766 302.061 38.9682C302.958 39.1738 303.666 39.6645 303.46 40.5613C302.826 43.3294 295.204 41.1306 293.872 46.9399C293.184 49.942 294.607 53.2229 297.531 53.8934C298.779 54.1794 300.26 53.9854 301.538 52.8833C301.894 54.196 302.761 54.8873 303.736 55.1108C305.919 55.6114 307.835 53.3421 308.478 50.5349C308.729 49.4432 308.775 48.3459 308.57 47.2728ZM299.039 47.6731C299.272 46.6594 300.407 45.6474 302.699 44.7777C302.27 46.6492 300.909 49.0046 299.583 48.7007C299.077 48.5845 298.923 48.1799 299.039 47.6731Z" fill="#FFC261"/>
</svg>
