<svg width="361" height="34" viewBox="0 0 361 34" fill="none" xmlns="http://www.w3.org/2000/svg">
<path d="M14 0.959998C11.68 2.04 11.16 3.32 11.16 4.76C11.16 6.12 11.64 7.88 11.64 9.32C11.64 11.32 10.72 13.76 8.2 15.88C8.2 12.24 8.68 8.4 9.44 4.76C8.84 4.8 8.24 4.8 7.64 4.8C5.32 4.8 3.04 4.64 0.76 4.4C1.88 8.88 2.36 14.12 2.36 19.48C2.36 24.12 2 28.8 1.36 33.12C4.64 33.12 7.68 33.12 10.44 33.32C9.4 30.76 7.88 24.36 7.88 20.6C8.56 23.2 11.4 33.96 17.72 33.96C21.08 33.96 21.96 30.96 21.96 28.88C21.96 26.84 21.12 25 19.6 24.4C19.6 25.88 19.24 27.04 18.28 27.04C16.44 27.04 14.4 22.8 12.88 18.04C16.88 14.64 18.36 12.64 18.36 10.48C18.36 8.6 17.24 7.16 15.24 4.88C14.44 3.96 13.6 2.72 14 0.959998ZM33.5691 11.28C28.4091 11.28 26.5291 17.24 26.5291 22.04C26.5291 26 27.8091 33.24 33.5291 33.24C39.0091 33.24 40.2091 26.68 40.2091 22.12C40.2091 16.6 38.4491 11.28 33.5691 11.28ZM31.8491 22.16C31.8491 18.36 32.6891 16.52 33.6491 16.52C34.5291 16.52 35.2091 18 35.2091 22.08C35.2091 25.56 34.6891 27.84 33.6091 27.84C32.4891 27.84 31.8491 25.44 31.8491 22.16ZM45.4919 13.2C46.7319 14.12 47.0519 17.64 47.0519 21.4C47.0519 26.16 46.5719 31.28 46.2919 33.2C48.5319 32.76 50.6519 32.76 52.8919 32.76C52.7719 31.8 52.5319 27.64 52.5319 24.88C52.5319 21.36 52.9319 18.32 54.1319 18.32C54.8119 18.32 54.9319 19.48 54.9319 20.92C54.9319 23.76 54.5319 28.88 53.9719 32.8C54.9319 32.72 56.0519 32.68 56.9319 32.68C58.2919 32.68 59.3719 32.76 60.2519 32.8C59.8119 31.08 59.6519 29.48 59.6519 27.04C59.6519 25.76 59.6919 24.28 59.9319 22.6C60.0119 21.48 60.4519 18.32 61.6119 18.32C62.2919 18.32 62.4519 19.28 62.4519 20.92C62.4519 23.76 62.0519 29.2 61.4919 33.12C63.6119 32.92 65.7719 32.84 68.3719 32.76C67.7319 31.04 67.4519 29.24 67.4519 27.32C67.4519 24.52 68.0119 19.84 68.0119 17.08C68.0119 13.92 67.2919 11.44 64.8519 11.44C62.8519 11.44 61.2119 13.04 60.0919 15.2C59.9319 13 59.2919 11.44 57.3319 11.44C55.0919 11.44 53.7319 13.48 52.6119 15.72C52.6919 15.16 52.8119 14.6 52.8119 14.04C52.8119 12.32 51.7719 11.52 50.2919 11.52C48.6919 11.52 46.5719 12.4 45.4919 13.2ZM87.9675 24.4C87.7275 25.4 87.2875 25.92 86.8475 25.92C86.2875 25.92 85.7275 25.08 85.7275 23.24C85.7275 21.4 86.2875 19.36 86.2875 17.68C86.2875 14.44 84.2475 11.52 80.5675 11.52C77.0875 11.52 74.2475 14.04 74.2475 18.92C74.2475 19.92 74.4075 20.56 74.6075 21.32C75.7275 19.64 77.5675 17.76 79.7675 17.76C80.6875 17.76 81.4875 18.08 81.4875 19C81.4875 21.84 73.5675 21.4 73.5675 27.36C73.5675 30.44 75.6875 33.32 78.6875 33.32C79.9675 33.32 81.3675 32.8 82.3675 31.44C83.0075 32.64 84.0075 33.12 85.0075 33.12C87.2475 33.12 88.6075 30.48 88.6075 27.6C88.6075 26.48 88.4075 25.4 87.9675 24.4ZM78.7675 26.92C78.7675 25.88 79.6475 24.64 81.6875 23.28C81.6875 25.2 80.8875 27.8 79.5275 27.8C79.0075 27.8 78.7675 27.44 78.7675 26.92ZM92.8075 13.2C94.0475 14.12 94.4075 17.64 94.4075 21.44C94.4075 26.16 93.8875 31.28 93.6075 33.2C95.8875 32.76 98.0075 32.76 100.287 32.76C100.167 31.8 99.8475 27.48 99.8475 24.64C99.8475 21.2 100.327 18.16 101.527 18.16C102.207 18.16 102.327 19.28 102.327 20.76C102.327 23.6 101.927 29.2 101.367 33.12C103.527 32.92 105.687 32.84 108.407 32.76C107.727 31.04 107.487 29.24 107.487 27.32C107.487 24.52 108.007 19.84 108.007 17.08C108.007 13.92 107.327 11.44 104.767 11.44C102.487 11.44 101.127 13.48 100.007 15.72C100.087 15.16 100.207 14.6 100.207 14.04C100.207 12.32 99.2075 11.52 97.6475 11.52C96.0475 11.52 93.8875 12.4 92.8075 13.2ZM131.56 26.96C131.16 27.44 130.88 27.64 130.44 27.64C129 27.64 128.44 24.96 128.44 22.04C128.44 16.96 130.08 12.4 130.08 8.92C130.08 5.36 128.4 4.08 125.28 4.08C123.52 4.08 121.96 4.48 120.96 5.08C123.6 6.2 124.36 8.48 124.36 11.12C124.36 12.4 124.2 13.6 124.04 14.68C123.04 12.8 121.48 11.72 119.84 11.72C116.16 11.72 114.52 17.4 114.52 22.36C114.52 28.28 116.36 33.36 120.64 33.36C122.2 33.36 123.6 32.64 124.52 31.36C125.04 33.04 126.12 33.72 127.32 33.72C129.48 33.72 132 31.52 132 28.92C132 28.28 131.88 27.6 131.56 26.96ZM120.28 23.24C120.28 19.96 120.84 17 122.04 17C123.08 17 123.4 19.6 123.4 21.84C123.4 24.56 122.92 28.24 121.68 28.24C120.84 28.24 120.28 26.52 120.28 23.24ZM151.519 24.4C151.279 25.4 150.839 25.92 150.399 25.92C149.839 25.92 149.279 25.08 149.279 23.24C149.279 21.4 149.839 19.36 149.839 17.68C149.839 14.44 147.799 11.52 144.119 11.52C140.639 11.52 137.799 14.04 137.799 18.92C137.799 19.92 137.959 20.56 138.159 21.32C139.279 19.64 141.119 17.76 143.319 17.76C144.239 17.76 145.039 18.08 145.039 19C145.039 21.84 137.119 21.4 137.119 27.36C137.119 30.44 139.239 33.32 142.239 33.32C143.519 33.32 144.919 32.8 145.919 31.44C146.559 32.64 147.559 33.12 148.559 33.12C150.799 33.12 152.159 30.48 152.159 27.6C152.159 26.48 151.959 25.4 151.519 24.4ZM142.319 26.92C142.319 25.88 143.199 24.64 145.239 23.28C145.239 25.2 144.439 27.8 143.079 27.8C142.559 27.8 142.319 27.44 142.319 26.92ZM156.359 13.2C157.599 14.12 157.959 17.64 157.959 21.44C157.959 26.16 157.439 31.28 157.159 33.2C159.439 32.76 161.559 32.76 163.839 32.76C163.719 31.8 163.399 27.48 163.399 24.64C163.399 21.2 163.879 18.16 165.079 18.16C165.759 18.16 165.879 19.28 165.879 20.76C165.879 23.6 165.479 29.2 164.919 33.12C167.079 32.92 169.239 32.84 171.959 32.76C171.279 31.04 171.039 29.24 171.039 27.32C171.039 24.52 171.559 19.84 171.559 17.08C171.559 13.92 170.879 11.44 168.319 11.44C166.039 11.44 164.679 13.48 163.559 15.72C163.639 15.16 163.759 14.6 163.759 14.04C163.759 12.32 162.759 11.52 161.199 11.52C159.599 11.52 157.439 12.4 156.359 13.2ZM207.182 4.84C208.302 9.28 208.862 14.12 208.862 19C208.862 23.72 208.342 28.48 207.422 33.08C209.422 32.92 211.782 32.84 214.062 32.84C216.902 32.84 219.822 33 221.702 33.04C221.702 32.04 221.862 30.32 221.862 28.48C221.862 24.76 221.182 20.84 217.302 20.84C217.742 21.68 217.942 22.64 217.942 23.6C217.942 25.2 217.302 26.8 216.262 26.8C215.102 26.8 214.062 24.8 214.062 21.72C214.062 16.6 216.902 7.96 218.222 4.52C216.262 4.88 214.102 5 211.662 5C210.302 5 208.702 4.96 207.182 4.84ZM241.878 24.4C241.638 25.4 241.198 25.92 240.758 25.92C240.198 25.92 239.638 25.08 239.638 23.24C239.638 21.4 240.198 19.36 240.198 17.68C240.198 14.44 238.158 11.52 234.478 11.52C230.998 11.52 228.158 14.04 228.158 18.92C228.158 19.92 228.318 20.56 228.518 21.32C229.638 19.64 231.478 17.76 233.678 17.76C234.598 17.76 235.398 18.08 235.398 19C235.398 21.84 227.478 21.4 227.478 27.36C227.478 30.44 229.598 33.32 232.598 33.32C233.878 33.32 235.278 32.8 236.278 31.44C236.918 32.64 237.918 33.12 238.918 33.12C241.158 33.12 242.518 30.48 242.518 27.6C242.518 26.48 242.318 25.4 241.878 24.4ZM232.678 26.92C232.678 25.88 233.558 24.64 235.598 23.28C235.598 25.2 234.798 27.8 233.438 27.8C232.918 27.8 232.678 27.44 232.678 26.92ZM247.627 12.8C248.387 15.28 248.667 18.44 248.667 21.72C248.667 25.92 248.187 30.08 247.427 33.16C248.707 33 250.187 32.92 251.547 32.92C253.267 32.92 255.027 33.04 256.227 33.04C254.907 31.36 253.507 28.56 253.507 26.72C253.507 26.16 253.667 25.48 254.547 25.48C254.747 25.48 254.947 25.52 255.347 25.52C255.627 25.52 257.947 25.48 259.587 23.64C260.667 22.48 261.267 20.8 261.267 18.68C261.267 13.4 257.547 11.16 253.787 11.16C251.827 11.16 249.587 11.8 247.627 12.8ZM253.747 22.6C253.667 22.04 253.667 21.28 253.667 20.52C253.667 18.04 254.187 16 255.227 16C255.947 16 256.467 17.08 256.467 18.56C256.467 19.96 255.827 21.68 253.747 22.6ZM280.6 24.4C280.36 25.4 279.92 25.92 279.48 25.92C278.92 25.92 278.36 25.08 278.36 23.24C278.36 21.4 278.92 19.36 278.92 17.68C278.92 14.44 276.88 11.52 273.2 11.52C269.72 11.52 266.88 14.04 266.88 18.92C266.88 19.92 267.04 20.56 267.24 21.32C268.36 19.64 270.2 17.76 272.4 17.76C273.32 17.76 274.12 18.08 274.12 19C274.12 21.84 266.2 21.4 266.2 27.36C266.2 30.44 268.32 33.32 271.32 33.32C272.6 33.32 274 32.8 275 31.44C275.64 32.64 276.64 33.12 277.64 33.12C279.88 33.12 281.24 30.48 281.24 27.6C281.24 26.48 281.04 25.4 280.6 24.4ZM271.4 26.92C271.4 25.88 272.28 24.64 274.32 23.28C274.32 25.2 273.52 27.8 272.16 27.8C271.64 27.8 271.4 27.44 271.4 26.92ZM285.44 13.2C286.68 14.12 287.04 17.64 287.04 21.44C287.04 26.16 286.52 31.28 286.24 33.2C288.52 32.76 290.64 32.76 292.92 32.76C292.8 31.8 292.48 27.48 292.48 24.64C292.48 21.2 292.96 18.16 294.16 18.16C294.84 18.16 294.96 19.28 294.96 20.76C294.96 23.6 294.56 29.2 294 33.12C296.16 32.92 298.32 32.84 301.04 32.76C300.36 31.04 300.12 29.24 300.12 27.32C300.12 24.52 300.64 19.84 300.64 17.08C300.64 13.92 299.96 11.44 297.4 11.44C295.12 11.44 293.76 13.48 292.64 15.72C292.72 15.16 292.84 14.6 292.84 14.04C292.84 12.32 291.84 11.52 290.28 11.52C288.68 11.52 286.52 12.4 285.44 13.2ZM314.48 19.88C316.6 20.32 319.16 19.32 319.16 16.12C319.16 13.88 317.88 11.36 314.48 11.36C310.16 11.36 306.84 15.36 306.84 22.16C306.84 29.04 310.24 33.24 313.88 33.24C317.36 33.24 320.12 29.56 320.12 23.96C320.12 22.6 319.96 20.12 317.92 20.12C316.88 20.12 316.04 20.8 314.92 20.8C314.36 20.8 313.76 20.6 312.76 20.08C312.56 20.56 312.48 21.12 312.48 21.6C312.48 23.24 313.48 24.68 315.24 24.68C315.52 24.68 315.76 24.64 316 24.6C315.92 27.32 315.28 28.04 314.44 28.04C312.96 28.04 312 25.84 312 21.88C312 17.84 313 16.32 314.08 16.32C314.68 16.32 315.04 16.72 315.04 17.68C315.04 18.32 314.88 19.16 314.48 19.88ZM340.167 24.4C339.927 25.4 339.487 25.92 339.047 25.92C338.487 25.92 337.927 25.08 337.927 23.24C337.927 21.4 338.487 19.36 338.487 17.68C338.487 14.44 336.447 11.52 332.767 11.52C329.287 11.52 326.447 14.04 326.447 18.92C326.447 19.92 326.607 20.56 326.807 21.32C327.927 19.64 329.767 17.76 331.967 17.76C332.887 17.76 333.687 18.08 333.687 19C333.687 21.84 325.767 21.4 325.767 27.36C325.767 30.44 327.887 33.32 330.887 33.32C332.167 33.32 333.567 32.8 334.567 31.44C335.207 32.64 336.207 33.12 337.207 33.12C339.447 33.12 340.807 30.48 340.807 27.6C340.807 26.48 340.607 25.4 340.167 24.4ZM330.967 26.92C330.967 25.88 331.847 24.64 333.887 23.28C333.887 25.2 333.087 27.8 331.727 27.8C331.207 27.8 330.967 27.44 330.967 26.92ZM345.007 13.2C346.247 14.12 346.607 17.64 346.607 21.44C346.607 26.16 346.087 31.28 345.807 33.2C348.087 32.76 350.207 32.76 352.487 32.76C352.367 31.8 352.047 27.48 352.047 24.64C352.047 21.2 352.527 18.16 353.727 18.16C354.407 18.16 354.527 19.28 354.527 20.76C354.527 23.6 354.127 29.2 353.567 33.12C355.727 32.92 357.887 32.84 360.607 32.76C359.927 31.04 359.687 29.24 359.687 27.32C359.687 24.52 360.207 19.84 360.207 17.08C360.207 13.92 359.527 11.44 356.967 11.44C354.687 11.44 353.327 13.48 352.207 15.72C352.287 15.16 352.407 14.6 352.407 14.04C352.407 12.32 351.407 11.52 349.847 11.52C348.247 11.52 346.087 12.4 345.007 13.2Z" fill="#FFC261"/>
</svg>
