<svg width="347" height="34" viewBox="0 0 347 34" fill="none" xmlns="http://www.w3.org/2000/svg">
<path d="M14 0.959998C11.68 2.04 11.16 3.32 11.16 4.76C11.16 6.12 11.64 7.88 11.64 9.32C11.64 11.32 10.72 13.76 8.2 15.88C8.2 12.24 8.68 8.4 9.44 4.76C8.84 4.8 8.24 4.8 7.64 4.8C5.32 4.8 3.04 4.64 0.76 4.4C1.88 8.88 2.36 14.12 2.36 19.48C2.36 24.12 2 28.8 1.36 33.12C4.64 33.12 7.68 33.12 10.44 33.32C9.4 30.76 7.88 24.36 7.88 20.6C8.56 23.2 11.4 33.96 17.72 33.96C21.08 33.96 21.96 30.96 21.96 28.88C21.96 26.84 21.12 25 19.6 24.4C19.6 25.88 19.24 27.04 18.28 27.04C16.44 27.04 14.4 22.8 12.88 18.04C16.88 14.64 18.36 12.64 18.36 10.48C18.36 8.6 17.24 7.16 15.24 4.88C14.44 3.96 13.6 2.72 14 0.959998ZM33.5691 11.28C28.4091 11.28 26.5291 17.24 26.5291 22.04C26.5291 26 27.8091 33.24 33.5291 33.24C39.0091 33.24 40.2091 26.68 40.2091 22.12C40.2091 16.6 38.4491 11.28 33.5691 11.28ZM31.8491 22.16C31.8491 18.36 32.6891 16.52 33.6491 16.52C34.5291 16.52 35.2091 18 35.2091 22.08C35.2091 25.56 34.6891 27.84 33.6091 27.84C32.4891 27.84 31.8491 25.44 31.8491 22.16ZM45.4919 13.2C46.7319 14.12 47.0519 17.64 47.0519 21.4C47.0519 26.16 46.5719 31.28 46.2919 33.2C48.5319 32.76 50.6519 32.76 52.8919 32.76C52.7719 31.8 52.5319 27.64 52.5319 24.88C52.5319 21.36 52.9319 18.32 54.1319 18.32C54.8119 18.32 54.9319 19.48 54.9319 20.92C54.9319 23.76 54.5319 28.88 53.9719 32.8C54.9319 32.72 56.0519 32.68 56.9319 32.68C58.2919 32.68 59.3719 32.76 60.2519 32.8C59.8119 31.08 59.6519 29.48 59.6519 27.04C59.6519 25.76 59.6919 24.28 59.9319 22.6C60.0119 21.48 60.4519 18.32 61.6119 18.32C62.2919 18.32 62.4519 19.28 62.4519 20.92C62.4519 23.76 62.0519 29.2 61.4919 33.12C63.6119 32.92 65.7719 32.84 68.3719 32.76C67.7319 31.04 67.4519 29.24 67.4519 27.32C67.4519 24.52 68.0119 19.84 68.0119 17.08C68.0119 13.92 67.2919 11.44 64.8519 11.44C62.8519 11.44 61.2119 13.04 60.0919 15.2C59.9319 13 59.2919 11.44 57.3319 11.44C55.0919 11.44 53.7319 13.48 52.6119 15.72C52.6919 15.16 52.8119 14.6 52.8119 14.04C52.8119 12.32 51.7719 11.52 50.2919 11.52C48.6919 11.52 46.5719 12.4 45.4919 13.2ZM87.9675 24.4C87.7275 25.4 87.2875 25.92 86.8475 25.92C86.2875 25.92 85.7275 25.08 85.7275 23.24C85.7275 21.4 86.2875 19.36 86.2875 17.68C86.2875 14.44 84.2475 11.52 80.5675 11.52C77.0875 11.52 74.2475 14.04 74.2475 18.92C74.2475 19.92 74.4075 20.56 74.6075 21.32C75.7275 19.64 77.5675 17.76 79.7675 17.76C80.6875 17.76 81.4875 18.08 81.4875 19C81.4875 21.84 73.5675 21.4 73.5675 27.36C73.5675 30.44 75.6875 33.32 78.6875 33.32C79.9675 33.32 81.3675 32.8 82.3675 31.44C83.0075 32.64 84.0075 33.12 85.0075 33.12C87.2475 33.12 88.6075 30.48 88.6075 27.6C88.6075 26.48 88.4075 25.4 87.9675 24.4ZM78.7675 26.92C78.7675 25.88 79.6475 24.64 81.6875 23.28C81.6875 25.2 80.8875 27.8 79.5275 27.8C79.0075 27.8 78.7675 27.44 78.7675 26.92ZM92.8075 13.2C94.0475 14.12 94.4075 17.64 94.4075 21.44C94.4075 26.16 93.8875 31.28 93.6075 33.2C95.8875 32.76 98.0075 32.76 100.287 32.76C100.167 31.8 99.8475 27.48 99.8475 24.64C99.8475 21.2 100.327 18.16 101.527 18.16C102.207 18.16 102.327 19.28 102.327 20.76C102.327 23.6 101.927 29.2 101.367 33.12C103.527 32.92 105.687 32.84 108.407 32.76C107.727 31.04 107.487 29.24 107.487 27.32C107.487 24.52 108.007 19.84 108.007 17.08C108.007 13.92 107.327 11.44 104.767 11.44C102.487 11.44 101.127 13.48 100.007 15.72C100.087 15.16 100.207 14.6 100.207 14.04C100.207 12.32 99.2075 11.52 97.6475 11.52C96.0475 11.52 93.8875 12.4 92.8075 13.2ZM131.56 26.96C131.16 27.44 130.88 27.64 130.44 27.64C129 27.64 128.44 24.96 128.44 22.04C128.44 16.96 130.08 12.4 130.08 8.92C130.08 5.36 128.4 4.08 125.28 4.08C123.52 4.08 121.96 4.48 120.96 5.08C123.6 6.2 124.36 8.48 124.36 11.12C124.36 12.4 124.2 13.6 124.04 14.68C123.04 12.8 121.48 11.72 119.84 11.72C116.16 11.72 114.52 17.4 114.52 22.36C114.52 28.28 116.36 33.36 120.64 33.36C122.2 33.36 123.6 32.64 124.52 31.36C125.04 33.04 126.12 33.72 127.32 33.72C129.48 33.72 132 31.52 132 28.92C132 28.28 131.88 27.6 131.56 26.96ZM120.28 23.24C120.28 19.96 120.84 17 122.04 17C123.08 17 123.4 19.6 123.4 21.84C123.4 24.56 122.92 28.24 121.68 28.24C120.84 28.24 120.28 26.52 120.28 23.24ZM151.519 24.4C151.279 25.4 150.839 25.92 150.399 25.92C149.839 25.92 149.279 25.08 149.279 23.24C149.279 21.4 149.839 19.36 149.839 17.68C149.839 14.44 147.799 11.52 144.119 11.52C140.639 11.52 137.799 14.04 137.799 18.92C137.799 19.92 137.959 20.56 138.159 21.32C139.279 19.64 141.119 17.76 143.319 17.76C144.239 17.76 145.039 18.08 145.039 19C145.039 21.84 137.119 21.4 137.119 27.36C137.119 30.44 139.239 33.32 142.239 33.32C143.519 33.32 144.919 32.8 145.919 31.44C146.559 32.64 147.559 33.12 148.559 33.12C150.799 33.12 152.159 30.48 152.159 27.6C152.159 26.48 151.959 25.4 151.519 24.4ZM142.319 26.92C142.319 25.88 143.199 24.64 145.239 23.28C145.239 25.2 144.439 27.8 143.079 27.8C142.559 27.8 142.319 27.44 142.319 26.92ZM156.359 13.2C157.599 14.12 157.959 17.64 157.959 21.44C157.959 26.16 157.439 31.28 157.159 33.2C159.439 32.76 161.559 32.76 163.839 32.76C163.719 31.8 163.399 27.48 163.399 24.64C163.399 21.2 163.879 18.16 165.079 18.16C165.759 18.16 165.879 19.28 165.879 20.76C165.879 23.6 165.479 29.2 164.919 33.12C167.079 32.92 169.239 32.84 171.959 32.76C171.279 31.04 171.039 29.24 171.039 27.32C171.039 24.52 171.559 19.84 171.559 17.08C171.559 13.92 170.879 11.44 168.319 11.44C166.039 11.44 164.679 13.48 163.559 15.72C163.639 15.16 163.759 14.6 163.759 14.04C163.759 12.32 162.759 11.52 161.199 11.52C159.599 11.52 157.439 12.4 156.359 13.2ZM192.587 4.84C193.707 9.28 194.267 14.12 194.267 19C194.267 23.72 193.747 28.48 192.827 33.08C194.827 32.92 197.187 32.84 199.467 32.84C202.307 32.84 205.227 33 207.107 33.04C207.107 32.04 207.267 30.32 207.267 28.48C207.267 24.76 206.587 20.84 202.707 20.84C203.147 21.68 203.347 22.64 203.347 23.6C203.347 25.2 202.707 26.8 201.667 26.8C200.507 26.8 199.467 24.8 199.467 21.72C199.467 16.6 202.307 7.96 203.627 4.52C201.667 4.88 199.507 5 197.067 5C195.707 5 194.107 4.96 192.587 4.84ZM227.283 24.4C227.043 25.4 226.603 25.92 226.163 25.92C225.603 25.92 225.043 25.08 225.043 23.24C225.043 21.4 225.603 19.36 225.603 17.68C225.603 14.44 223.563 11.52 219.883 11.52C216.403 11.52 213.563 14.04 213.563 18.92C213.563 19.92 213.723 20.56 213.923 21.32C215.043 19.64 216.883 17.76 219.083 17.76C220.003 17.76 220.803 18.08 220.803 19C220.803 21.84 212.883 21.4 212.883 27.36C212.883 30.44 215.003 33.32 218.003 33.32C219.283 33.32 220.683 32.8 221.683 31.44C222.323 32.64 223.323 33.12 224.323 33.12C226.563 33.12 227.923 30.48 227.923 27.6C227.923 26.48 227.723 25.4 227.283 24.4ZM218.083 26.92C218.083 25.88 218.963 24.64 221.003 23.28C221.003 25.2 220.203 27.8 218.843 27.8C218.323 27.8 218.083 27.44 218.083 26.92ZM233.032 12.8C233.792 15.28 234.072 18.44 234.072 21.72C234.072 25.92 233.592 30.08 232.832 33.16C234.112 33 235.592 32.92 236.952 32.92C238.672 32.92 240.432 33.04 241.632 33.04C240.312 31.36 238.912 28.56 238.912 26.72C238.912 26.16 239.072 25.48 239.952 25.48C240.152 25.48 240.352 25.52 240.752 25.52C241.032 25.52 243.352 25.48 244.992 23.64C246.072 22.48 246.672 20.8 246.672 18.68C246.672 13.4 242.952 11.16 239.192 11.16C237.232 11.16 234.992 11.8 233.032 12.8ZM239.152 22.6C239.072 22.04 239.072 21.28 239.072 20.52C239.072 18.04 239.592 16 240.632 16C241.352 16 241.872 17.08 241.872 18.56C241.872 19.96 241.232 21.68 239.152 22.6ZM266.005 24.4C265.765 25.4 265.325 25.92 264.885 25.92C264.325 25.92 263.765 25.08 263.765 23.24C263.765 21.4 264.325 19.36 264.325 17.68C264.325 14.44 262.285 11.52 258.605 11.52C255.125 11.52 252.285 14.04 252.285 18.92C252.285 19.92 252.445 20.56 252.645 21.32C253.765 19.64 255.605 17.76 257.805 17.76C258.725 17.76 259.525 18.08 259.525 19C259.525 21.84 251.605 21.4 251.605 27.36C251.605 30.44 253.725 33.32 256.725 33.32C258.005 33.32 259.405 32.8 260.405 31.44C261.045 32.64 262.045 33.12 263.045 33.12C265.285 33.12 266.645 30.48 266.645 27.6C266.645 26.48 266.445 25.4 266.005 24.4ZM256.805 26.92C256.805 25.88 257.685 24.64 259.725 23.28C259.725 25.2 258.925 27.8 257.565 27.8C257.045 27.8 256.805 27.44 256.805 26.92ZM270.845 13.2C272.085 14.12 272.445 17.64 272.445 21.44C272.445 26.16 271.925 31.28 271.645 33.2C273.925 32.76 276.045 32.76 278.325 32.76C278.205 31.8 277.885 27.48 277.885 24.64C277.885 21.2 278.365 18.16 279.565 18.16C280.245 18.16 280.365 19.28 280.365 20.76C280.365 23.6 279.965 29.2 279.405 33.12C281.565 32.92 283.725 32.84 286.445 32.76C285.765 31.04 285.525 29.24 285.525 27.32C285.525 24.52 286.045 19.84 286.045 17.08C286.045 13.92 285.365 11.44 282.805 11.44C280.525 11.44 279.165 13.48 278.045 15.72C278.125 15.16 278.245 14.6 278.245 14.04C278.245 12.32 277.245 11.52 275.685 11.52C274.085 11.52 271.925 12.4 270.845 13.2ZM299.885 19.88C302.005 20.32 304.565 19.32 304.565 16.12C304.565 13.88 303.285 11.36 299.885 11.36C295.565 11.36 292.245 15.36 292.245 22.16C292.245 29.04 295.645 33.24 299.285 33.24C302.765 33.24 305.525 29.56 305.525 23.96C305.525 22.6 305.365 20.12 303.325 20.12C302.285 20.12 301.445 20.8 300.325 20.8C299.765 20.8 299.165 20.6 298.165 20.08C297.965 20.56 297.885 21.12 297.885 21.6C297.885 23.24 298.885 24.68 300.645 24.68C300.925 24.68 301.165 24.64 301.405 24.6C301.325 27.32 300.685 28.04 299.845 28.04C298.365 28.04 297.405 25.84 297.405 21.88C297.405 17.84 298.405 16.32 299.485 16.32C300.085 16.32 300.445 16.72 300.445 17.68C300.445 18.32 300.285 19.16 299.885 19.88ZM325.572 24.4C325.332 25.4 324.892 25.92 324.452 25.92C323.892 25.92 323.332 25.08 323.332 23.24C323.332 21.4 323.892 19.36 323.892 17.68C323.892 14.44 321.852 11.52 318.172 11.52C314.692 11.52 311.852 14.04 311.852 18.92C311.852 19.92 312.012 20.56 312.212 21.32C313.332 19.64 315.172 17.76 317.372 17.76C318.292 17.76 319.092 18.08 319.092 19C319.092 21.84 311.172 21.4 311.172 27.36C311.172 30.44 313.292 33.32 316.292 33.32C317.572 33.32 318.972 32.8 319.972 31.44C320.612 32.64 321.612 33.12 322.612 33.12C324.852 33.12 326.212 30.48 326.212 27.6C326.212 26.48 326.012 25.4 325.572 24.4ZM316.372 26.92C316.372 25.88 317.252 24.64 319.292 23.28C319.292 25.2 318.492 27.8 317.132 27.8C316.612 27.8 316.372 27.44 316.372 26.92ZM330.412 13.2C331.652 14.12 332.012 17.64 332.012 21.44C332.012 26.16 331.492 31.28 331.212 33.2C333.492 32.76 335.612 32.76 337.892 32.76C337.772 31.8 337.452 27.48 337.452 24.64C337.452 21.2 337.932 18.16 339.132 18.16C339.812 18.16 339.932 19.28 339.932 20.76C339.932 23.6 339.532 29.2 338.972 33.12C341.132 32.92 343.292 32.84 346.012 32.76C345.332 31.04 345.092 29.24 345.092 27.32C345.092 24.52 345.612 19.84 345.612 17.08C345.612 13.92 344.932 11.44 342.372 11.44C340.092 11.44 338.732 13.48 337.612 15.72C337.692 15.16 337.812 14.6 337.812 14.04C337.812 12.32 336.812 11.52 335.252 11.52C333.652 11.52 331.492 12.4 330.412 13.2Z" fill="#FFC261"/>
</svg>
