<svg width="412" height="76" viewBox="0 0 412 76" fill="none" xmlns="http://www.w3.org/2000/svg">
<path d="M14.3389 33.3742C12.5244 34.9922 12.4021 36.299 12.7965 37.6089C13.1691 38.846 14.0879 40.3154 14.4824 41.6253C15.0303 43.4446 14.8619 45.9162 13.1503 48.535C12.1532 45.2239 11.5378 41.5994 11.232 38.0801C10.6971 38.2808 10.1513 38.4452 9.60556 38.6096C7.49519 39.2451 5.37737 39.7242 3.23763 40.1305C5.48374 43.8989 7.35587 48.5339 8.82425 53.4096C10.0954 57.6303 11.05 61.9861 11.6513 66.0911C14.6349 65.1925 17.4002 64.3597 19.9657 63.7855C18.3183 61.7417 15.1824 56.3364 14.1523 52.9162C15.4831 55.095 21.0142 64.1047 26.7632 62.3733C29.8196 61.4528 29.7982 58.4828 29.2284 56.5908C28.6695 54.7351 27.4014 53.2915 25.8543 53.1621C26.2598 54.5084 26.2501 55.6622 25.3768 55.9252C23.7031 56.4292 20.6859 53.1312 17.9992 49.2177C20.7063 45.0291 21.5047 42.8044 20.913 40.8396C20.3979 39.1294 18.9847 38.1264 16.5408 36.6003C15.561 35.9826 14.4572 35.0847 14.3389 33.3742Z" fill="#FFC261"/>
<path d="M37.1845 37.1713C32.4434 38.4169 32.1547 44.3469 33.3135 48.7572C34.2694 52.3957 37.1933 58.739 42.4489 57.3582C47.484 56.0353 47.003 49.7181 45.9022 45.5283C44.5697 40.4565 41.6683 35.9932 37.1845 37.1713ZM38.2306 47.5832C37.3132 44.0917 37.6409 42.1983 38.5229 41.9666C39.3315 41.7541 40.3135 42.9498 41.2985 46.6986C42.1386 49.8961 42.2112 52.1165 41.2188 52.3772C40.1898 52.6476 39.0224 50.5969 38.2306 47.5832Z" fill="#FFC261"/>
<path d="M57.1096 32.2639C52.3322 33.3622 51.8602 39.2804 52.8819 43.7245C53.7248 47.3909 56.4509 53.8216 61.7467 52.6041C66.8204 51.4376 66.5351 45.1087 65.5645 40.8868C64.3896 35.7761 61.6277 31.2252 57.1096 32.2639ZM57.8329 42.7032C57.0241 39.185 57.4102 37.3027 58.299 37.0983C59.1137 36.911 60.0583 38.1365 60.9267 41.914C61.6675 45.136 61.6713 47.3576 60.6714 47.5874C59.6344 47.8258 58.5311 45.74 57.8329 42.7032Z" fill="#FFC261"/>
<path d="M78.0845 32.5227C78.0191 31.9933 78.0362 31.2929 77.9115 30.659C77.6034 29.093 76.4207 28.3962 75.0411 28.6676C73.2887 29.0124 71.6897 30.3338 71.1415 31.681C72.6164 31.8943 73.491 33.3876 74.6573 39.316C75.9042 45.6545 75.2649 47.523 74.9379 49.6012C76.5265 49.2113 78.1077 48.784 79.8974 48.4319C80.9041 48.2339 81.9927 48.0585 83.1107 48.0322C81.2629 45.5298 80.2642 43.2089 79.8681 41.1955C79.0246 36.9077 80.703 34.0214 82.1199 33.7427C82.53 33.662 82.9469 33.8124 83.1816 35.0055C83.3503 35.8631 83.2812 36.4963 82.9493 37.7622C85.7641 36.1241 86.4065 33.2867 85.9444 30.9377C85.4969 28.6633 83.9896 26.9072 82.1999 27.2593C80.4475 27.6041 79.1768 28.8223 78.0845 32.5227Z" fill="#FFC261"/>
<path d="M110.172 37.3263C109.87 37.8371 109.638 38.0671 109.225 38.1337C107.874 38.3519 106.943 35.9234 106.501 33.1849C105.731 28.4207 106.578 23.8956 106.051 20.632C105.511 17.2933 103.742 16.3474 100.816 16.8202C99.1649 17.0869 97.7625 17.6984 96.9156 18.4127C99.5612 19.063 100.619 21.0861 101.02 23.562C101.213 24.7624 101.245 25.9121 101.259 26.9492C100.036 25.3376 98.4095 24.5611 96.8714 24.8096C93.4202 25.3672 92.7428 30.9427 93.4944 35.5943C94.3915 41.1463 96.8869 45.6317 100.901 44.9832C102.364 44.7468 103.568 43.8594 104.237 42.5196C104.979 44.0163 106.095 44.4904 107.22 44.3086C109.246 43.9813 111.276 41.5362 110.882 39.0978C110.785 38.4976 110.569 37.878 110.172 37.3263ZM99.0297 35.5468C98.5327 32.4707 98.6093 29.6099 99.7347 29.428C100.71 29.2704 101.404 31.6603 101.744 33.7611C102.156 36.312 102.263 39.836 101.1 40.0239C100.313 40.1511 99.5267 38.6229 99.0297 35.5468Z" fill="#FFC261"/>
<path d="M114.858 23.48C116.874 23.9431 118.136 27.4182 118.681 31.5625C119.191 35.443 119.036 39.7945 118.17 42.2464C119.285 41.9847 120.632 41.7309 122.176 41.5277C123.646 41.3345 125.389 41.1818 126.19 41.1531C124.992 39.6243 124.387 38.5158 123.95 35.2003C123.574 32.337 124.04 28.5963 123.678 25.846C123.326 23.171 122.164 21.3308 118.698 21.7867C117.191 21.985 115.88 22.5024 114.858 23.48ZM115.771 17.3042C115.984 18.9243 117.386 19.9664 118.968 19.7582C120.55 19.5501 121.673 18.176 121.46 16.5559C121.252 14.9736 119.807 13.8988 118.225 14.1069C116.642 14.315 115.563 15.7219 115.771 17.3042Z" fill="#FFC261"/>
<path d="M130.276 21.4943C131.537 22.2437 132.218 25.5354 132.586 29.1265C133.043 33.5872 133.048 38.4762 132.969 40.3178C135.081 39.6811 137.085 39.4757 139.239 39.2549C139.033 38.3592 138.312 34.3076 138.037 31.6237C137.704 28.3727 137.863 25.4533 138.997 25.337C139.64 25.2712 139.861 26.318 140.005 27.7167C140.28 30.4006 140.444 35.7316 140.295 39.4905C142.317 39.0922 144.35 38.8073 146.913 38.4682C146.104 36.9086 145.703 35.2308 145.517 33.4163C145.246 30.7702 145.284 26.297 145.016 23.6886C144.71 20.7023 143.827 18.4244 141.408 18.6724C139.253 18.8933 138.166 20.953 137.324 23.1784C137.345 22.6414 137.405 22.1005 137.35 21.5713C137.184 19.9458 136.161 19.2867 134.687 19.4378C133.175 19.5928 131.219 20.6337 130.276 21.4943Z" fill="#FFC261"/>
<path d="M167.197 28.9736C167.036 29.9371 166.653 30.459 166.236 30.4881C165.706 30.5251 165.119 29.7661 164.998 28.0223C164.876 26.2786 165.272 24.3082 165.161 22.7161C164.947 19.6456 162.82 17.0132 159.333 17.2565C156.035 17.4865 153.51 20.0625 153.833 24.6872C153.899 25.6349 154.093 26.2309 154.332 26.9379C155.283 25.2717 156.902 23.3684 158.987 23.223C159.859 23.1621 160.638 23.4125 160.699 24.2844C160.887 26.9759 153.352 27.0825 153.746 32.7308C153.95 35.6497 156.149 38.2389 158.992 38.0405C160.205 37.9559 161.498 37.3706 162.356 36.0156C163.041 37.1105 164.021 37.4993 164.969 37.4332C167.091 37.2851 168.206 34.6932 168.015 31.9639C167.941 30.9025 167.68 29.8922 167.197 28.9736ZM158.645 31.97C158.576 30.9844 159.328 29.7511 161.172 28.3273C161.299 30.1469 160.712 32.6638 159.423 32.7537C158.931 32.7881 158.679 32.4628 158.645 31.97Z" fill="#FFC261"/>
<path d="M181.958 18.9815C181.83 15.7921 180.039 14.7613 177.001 14.8836C175.255 14.9539 173.447 15.407 172.498 16.3959C175.002 18.1206 175.657 21.1747 175.778 24.1743C175.871 26.4904 175.687 29.4643 175.749 31.021C175.898 34.704 177.788 37.252 180.522 37.142C183.521 37.0212 184.952 33.845 184.829 30.7695C184.771 29.3267 184.421 28.1999 183.593 27.4726C183.247 28.3232 182.614 30.5544 181.551 30.5973C180.716 30.6309 180.553 29.4205 180.513 28.4333C180.469 27.3321 180.549 25.5415 181.038 24.4569C184.297 24.1736 185.515 23.2498 185.42 20.8957C184.323 21.054 183.008 21.4492 181.801 21.688C181.88 20.8101 181.996 19.9307 181.958 18.9815Z" fill="#FFC261"/>
<path d="M198.459 15.4461C193.557 15.4992 191.833 21.1802 191.882 25.74C191.923 29.5017 193.214 36.3662 198.647 36.3073C203.853 36.2509 204.925 30.0069 204.878 25.6752C204.822 20.4315 203.095 15.3959 198.459 15.4461ZM196.937 25.7992C196.898 22.1894 197.677 20.4329 198.589 20.423C199.425 20.4139 200.086 21.8128 200.128 25.6886C200.164 28.9944 199.694 31.1657 198.668 31.1768C197.604 31.1883 196.971 28.915 196.937 25.7992Z" fill="#FFC261"/>
<path d="M218.896 20.1765C218.945 19.6454 219.111 18.9647 219.124 18.3189C219.158 16.7232 218.151 15.79 216.745 15.7606C214.96 15.7233 213.116 16.673 212.292 17.872C213.688 18.3953 214.223 20.0409 214.097 26.0815C213.962 32.5401 212.939 34.2291 212.176 36.1896C213.811 36.1477 215.447 36.0679 217.27 36.106C218.296 36.1275 219.397 36.1885 220.495 36.4015C219.224 33.5623 218.744 31.0817 218.787 29.0302C218.878 24.6611 221.134 22.1997 222.577 22.2299C222.995 22.2386 223.371 22.4745 223.345 23.6902C223.327 24.564 223.124 25.1679 222.53 26.3338C225.629 25.3343 226.863 22.6995 226.913 20.306C226.961 17.9885 225.863 15.9512 224.04 15.913C222.254 15.8757 220.753 16.7946 218.896 20.1765Z" fill="#FFC261"/>
<path d="M249.589 10.699C250.33 14.9855 250.513 19.6106 250.161 24.2332C249.822 28.7043 248.986 33.1759 247.784 37.4671C249.69 37.4595 251.931 37.5536 254.091 37.7177C256.781 37.9221 259.536 38.2839 261.314 38.4571C261.386 37.5098 261.661 35.892 261.793 34.1491C262.061 30.6252 261.699 26.863 258.024 26.5837C258.38 27.4111 258.5 28.3349 258.431 29.2442C258.316 30.7599 257.595 32.2294 256.61 32.1546C255.511 32.0711 254.67 30.1017 254.891 27.1841C255.26 22.3341 258.572 14.3541 260.07 11.1905C258.187 11.3904 256.133 11.3486 253.821 11.173C252.533 11.0751 251.02 10.9221 249.589 10.699Z" fill="#FFC261"/>
<path d="M281.777 32.3049C281.449 33.2252 280.981 33.6718 280.566 33.6273C280.037 33.5706 279.593 32.7204 279.779 30.9824C279.965 29.2443 280.701 27.3741 280.871 25.7872C281.199 22.7267 279.568 19.7619 276.092 19.3893C272.805 19.0369 269.867 21.1297 269.373 25.7393C269.271 26.6839 269.358 27.3046 269.47 28.0427C270.698 26.5692 272.626 24.9797 274.704 25.2025C275.573 25.2957 276.296 25.679 276.203 26.548C275.916 29.2306 268.479 28.013 267.876 33.6427C267.564 36.5521 269.275 39.4872 272.108 39.7909C273.317 39.9206 274.693 39.5711 275.775 38.3878C276.258 39.5861 277.154 40.1407 278.098 40.242C280.214 40.4688 281.766 38.1128 282.058 35.3924C282.171 34.3345 282.092 33.2941 281.777 32.3049ZM272.832 33.7537C272.937 32.7713 273.894 31.6891 275.959 30.6111C275.764 32.4247 274.745 34.7996 273.461 34.6619C272.97 34.6092 272.779 34.2449 272.832 33.7537Z" fill="#FFC261"/>
<path d="M289.962 22.2125C290.354 24.6453 290.205 27.6554 289.777 30.7419C289.229 34.6941 288.235 38.5461 287.118 41.3452C288.344 41.3616 289.747 41.4794 291.026 41.6568C292.645 41.8812 294.285 42.2237 295.415 42.3802C294.392 40.6272 293.44 37.8097 293.68 36.0783C293.753 35.5513 293.992 34.9323 294.82 35.0471C295.008 35.0732 295.191 35.1369 295.568 35.1891C295.831 35.2256 298.019 35.4906 299.803 33.9731C300.97 33.0225 301.754 31.5198 302.031 29.5249C302.719 24.5564 299.511 21.9633 295.973 21.4728C294.128 21.2172 291.937 21.5272 289.962 22.2125ZM294.443 32.2327C294.441 31.6953 294.54 30.9801 294.639 30.265C294.962 27.9313 295.718 26.0795 296.696 26.2151C297.374 26.3091 297.722 27.3932 297.529 28.7859C297.347 30.1033 296.52 31.6383 294.443 32.2327Z" fill="#FFC261"/>
<path d="M321.602 38.2524C321.218 39.1507 320.723 39.5675 320.311 39.4973C319.786 39.4079 319.396 38.5319 319.689 36.8088C319.983 35.0856 320.833 33.2644 321.101 31.6911C321.618 28.6568 320.173 25.5968 316.726 25.0098C313.467 24.4547 310.406 26.3617 309.627 30.9319C309.468 31.8684 309.516 32.4933 309.582 33.2369C310.899 31.8422 312.922 30.3751 314.982 30.726C315.843 30.8727 316.542 31.3 316.395 32.1616C315.942 34.8213 308.595 33.1459 307.644 38.7276C307.153 41.612 308.679 44.6473 311.488 45.1259C312.687 45.33 314.081 45.0664 315.235 43.9522C315.643 45.1781 316.503 45.7872 317.439 45.9467C319.537 46.304 321.232 44.0485 321.691 41.3513C321.87 40.3025 321.855 39.2591 321.602 38.2524ZM312.584 39.1449C312.75 38.171 313.772 37.1501 315.9 36.2018C315.593 37.9999 314.429 40.3072 313.156 40.0903C312.669 40.0074 312.501 39.6319 312.584 39.1449Z" fill="#FFC261"/>
<path d="M329.935 28.9683C330.915 30.0601 330.582 33.405 329.86 36.9422C328.964 41.3357 327.508 46.0028 326.883 47.7369C329.089 47.7602 331.062 48.1627 333.184 48.5956C333.255 47.6792 333.777 43.5972 334.316 40.9537C334.969 37.7516 335.993 35.013 337.11 35.2408C337.743 35.3699 337.642 36.4352 337.362 37.8129C336.822 40.4564 335.387 45.5932 334.121 49.1357C336.17 49.3597 338.196 49.6953 340.743 50.1372C340.436 48.4071 340.555 46.686 340.919 44.8988C341.451 42.2925 342.823 38.0349 343.347 35.4658C343.947 32.5244 343.785 30.0868 341.402 29.6008C339.28 29.1679 337.627 30.8086 336.159 32.681C336.34 32.1749 336.558 31.6764 336.664 31.1552C336.991 29.5541 336.212 28.6196 334.76 28.3234C333.27 28.0196 331.092 28.4287 329.935 28.9683Z" fill="#FFC261"/>
<path d="M357.825 41.5041C359.689 42.3757 362.274 42.0128 362.976 39.0549C363.467 36.9843 362.837 34.3743 359.694 33.6287C355.701 32.6814 351.755 35.6507 350.263 41.9362C348.755 48.2957 350.976 52.9235 354.341 53.7218C357.558 54.4849 360.916 51.6886 362.144 46.5122C362.442 45.2551 362.838 42.9277 360.953 42.4803C359.991 42.2523 359.066 42.6966 358.03 42.451C357.513 42.3282 357.002 42.0117 356.192 41.3118C355.902 41.7116 355.705 42.2117 355.6 42.6554C355.24 44.1713 355.848 45.7217 357.475 46.1076C357.734 46.169 357.965 46.1847 358.195 46.2003C357.525 48.697 356.775 49.2222 355.999 49.038C354.631 48.7134 354.226 46.4693 355.094 42.8089C355.98 39.0746 357.238 37.8889 358.236 38.1257C358.791 38.2573 359.036 38.706 358.826 39.5934C358.685 40.1849 358.353 40.9263 357.825 41.5041Z" fill="#FFC261"/>
<path d="M381.429 52.0338C380.961 52.8918 380.429 53.2601 380.026 53.1514C379.512 53.013 379.206 52.1041 379.66 50.4163C380.115 48.7284 381.133 46.9955 381.548 45.4544C382.349 42.4824 381.199 39.2998 377.823 38.3905C374.631 37.5306 371.403 39.1405 370.197 43.617C369.95 44.5343 369.939 45.1609 369.934 45.9074C371.377 44.6431 373.529 43.3732 375.547 43.9168C376.391 44.1441 377.046 44.6353 376.819 45.4792C376.117 48.0844 368.961 45.7239 367.488 51.191C366.727 54.0163 367.96 57.182 370.712 57.9232C371.886 58.2395 373.299 58.1084 374.552 57.108C374.843 58.3669 375.641 59.0543 376.559 59.3013C378.614 59.8548 380.513 57.7692 381.225 55.1273C381.502 54.0999 381.585 53.0598 381.429 52.0338ZM372.367 52.0722C372.624 51.1182 373.737 50.1982 375.945 49.4547C375.47 51.216 374.094 53.4033 372.846 53.0672C372.369 52.9388 372.238 52.5492 372.367 52.0722Z" fill="#FFC261"/>
<path d="M390.6 43.5765C391.472 44.7558 390.825 48.0544 389.773 51.5078C388.467 55.7973 386.577 60.3064 385.792 61.9738C387.985 62.2049 389.912 62.7917 391.984 63.4227C392.141 62.517 393.045 58.5025 393.832 55.9215C394.784 52.7953 396.061 50.1654 397.152 50.4975C397.77 50.6857 397.569 51.7368 397.159 53.0818C396.373 55.6628 394.46 60.6413 392.866 64.0488C394.884 64.4648 396.869 64.9899 399.363 65.67C399.221 63.9187 399.502 62.2165 400.033 60.4716C400.808 57.927 402.576 53.8177 403.34 51.3095C404.214 48.4377 404.283 45.9957 401.956 45.2872C399.884 44.6561 398.083 46.1337 396.446 47.8594C396.673 47.3726 396.937 46.8969 397.092 46.388C397.568 44.8249 396.881 43.8211 395.463 43.3893C394.009 42.9465 391.803 43.1484 390.6 43.5765Z" fill="#FFC261"/>
</svg>
