<svg width="138" height="31" viewBox="0 0 138 31" fill="none" xmlns="http://www.w3.org/2000/svg">
<path d="M0.76 1.84C1.88 6.28 2.44 11.12 2.44 16C2.44 20.72 1.92 25.48 1 30.08C3 29.92 5.36 29.84 7.64 29.84C10.48 29.84 13.4 30 15.28 30.04C15.28 29.04 15.44 27.32 15.44 25.48C15.44 21.76 14.76 17.84 10.88 17.84C11.32 18.68 11.52 19.64 11.52 20.6C11.52 22.2 10.88 23.8 9.84 23.8C8.68 23.8 7.64 21.8 7.64 18.72C7.64 13.6 10.48 4.96 11.8 1.52C9.84 1.88 7.68 2 5.24 2C3.88 2 2.28 1.96 0.76 1.84ZM27.7488 8.28C22.5887 8.28 20.7087 14.24 20.7087 19.04C20.7087 23 21.9887 30.24 27.7088 30.24C33.1887 30.24 34.3887 23.68 34.3887 19.12C34.3887 13.6 32.6287 8.28 27.7488 8.28ZM26.0288 19.16C26.0288 15.36 26.8688 13.52 27.8288 13.52C28.7088 13.52 29.3887 15 29.3887 19.08C29.3887 22.56 28.8687 24.84 27.7888 24.84C26.6687 24.84 26.0288 22.44 26.0288 19.16ZM48.1003 16.88C50.2203 17.32 52.7803 16.32 52.7803 13.12C52.7803 10.88 51.5003 8.36 48.1003 8.36C43.7803 8.36 40.4603 12.36 40.4603 19.16C40.4603 26.04 43.8603 30.24 47.5003 30.24C50.9803 30.24 53.7403 26.56 53.7403 20.96C53.7403 19.6 53.5803 17.12 51.5403 17.12C50.5003 17.12 49.6603 17.8 48.5403 17.8C47.9803 17.8 47.3803 17.6 46.3803 17.08C46.1803 17.56 46.1003 18.12 46.1003 18.6C46.1003 20.24 47.1003 21.68 48.8603 21.68C49.1403 21.68 49.3803 21.64 49.6203 21.6C49.5403 24.32 48.9003 25.04 48.0603 25.04C46.5803 25.04 45.6203 22.84 45.6203 18.88C45.6203 14.84 46.6203 13.32 47.7003 13.32C48.3003 13.32 48.6603 13.72 48.6603 14.68C48.6603 15.32 48.5003 16.16 48.1003 16.88ZM57.8969 10.2C59.9369 10.96 60.7769 14.76 60.7769 19.16C60.7769 23.28 60.0169 27.8 58.7769 30.24C59.9769 30.12 61.4169 30.04 63.0569 30.04C64.6169 30.04 66.4569 30.12 67.2969 30.2C66.2569 28.44 65.7769 27.2 65.7769 23.68C65.7769 20.64 66.7769 16.8 66.7769 13.88C66.7769 11.04 65.8169 8.96 62.1369 8.96C60.5369 8.96 59.0969 9.32 57.8969 10.2ZM59.6969 3.88C59.6969 5.6 61.0169 6.88 62.6969 6.88C64.3769 6.88 65.7369 5.6 65.7369 3.88C65.7369 2.2 64.3769 0.879998 62.6969 0.879998C61.0169 0.879998 59.6969 2.2 59.6969 3.88ZM82.9303 15.64C83.8503 14.6 84.2503 13.52 84.2503 12.56C84.2503 10.04 81.7303 8.24 78.8103 8.24C75.8103 8.24 73.2103 10.12 73.2103 13.68C73.2103 15.28 73.7303 16.72 74.4103 17.88C75.6903 19.96 78.0503 21.8 78.0503 23.52C78.0503 24.28 77.5703 24.92 76.6903 24.92C75.6103 24.92 74.4903 23.92 74.1303 21.64C72.9703 22.4 72.5703 23.6 72.5703 25C72.5703 28.28 74.8903 30.44 78.2903 30.44C81.8903 30.44 84.4903 28.08 84.4903 24.24C84.4903 22.6 84.0103 21.08 83.2903 19.64C81.7303 16.76 79.6103 15.48 79.6103 13.88C79.6103 13.16 80.0503 12.84 80.6103 12.84C81.8503 12.84 82.7703 14.56 82.9303 15.64ZM98.0509 11.6C98.0509 8.24 96.2109 7.08 93.0109 7.08C91.1709 7.08 89.2509 7.48 88.2109 8.48C90.7709 10.4 91.3309 13.64 91.3309 16.8C91.3309 19.24 91.0109 22.36 91.0109 24C91.0109 27.88 92.8909 30.64 95.7709 30.64C98.9309 30.64 100.571 27.36 100.571 24.12C100.571 22.6 100.251 21.4 99.4109 20.6C99.0109 21.48 98.2509 23.8 97.1309 23.8C96.2509 23.8 96.1309 22.52 96.1309 21.48C96.1309 20.32 96.2909 18.44 96.8509 17.32C100.291 17.16 101.611 16.24 101.611 13.76C100.451 13.88 99.0509 14.24 97.7709 14.44C97.8909 13.52 98.0509 12.6 98.0509 11.6ZM105.628 10.2C107.668 10.96 108.508 14.76 108.508 19.16C108.508 23.28 107.748 27.8 106.508 30.24C107.708 30.12 109.148 30.04 110.788 30.04C112.348 30.04 114.188 30.12 115.028 30.2C113.988 28.44 113.508 27.2 113.508 23.68C113.508 20.64 114.508 16.8 114.508 13.88C114.508 11.04 113.548 8.96 109.868 8.96C108.268 8.96 106.828 9.32 105.628 10.2ZM107.428 3.88C107.428 5.6 108.748 6.88 110.428 6.88C112.108 6.88 113.468 5.6 113.468 3.88C113.468 2.2 112.108 0.879998 110.428 0.879998C108.748 0.879998 107.428 2.2 107.428 3.88ZM120.902 1.84C121.822 4.08 122.262 9.92 122.262 14.44C122.262 19.36 121.742 24.56 120.582 29.8C123.022 29.8 125.462 30.04 128.142 30.2C127.422 28.48 126.902 26.48 126.902 24.56C126.902 24.16 126.902 23.72 126.982 23.36C128.262 26.12 130.502 30.88 133.542 30.88C135.702 30.88 137.022 28.44 137.022 25.92C137.022 24.56 136.622 23.28 135.902 22.52C135.782 23.88 135.302 24.36 134.822 24.36C133.502 24.36 131.582 21.36 131.342 19.84C133.622 18.76 135.702 17.16 135.702 14.6C135.702 12.72 134.582 11.96 133.502 11.32C132.182 10.52 131.102 9.84 131.102 8.16C131.102 7.84 131.142 7.4 131.262 7C129.142 8.28 128.542 9.92 128.542 11.24C128.542 13.12 129.742 13.32 129.742 15.36C129.742 17.2 128.662 18.2 127.022 19C127.182 14.12 127.462 12.76 128.342 9.12C128.902 6.72 129.142 5.76 129.142 4.8C129.142 2.12 127.502 1.04 124.702 1.04C123.382 1.04 122.262 1.28 120.902 1.84Z" fill="#FFC261"/>
</svg>
