<svg width="140" height="32" viewBox="0 0 140 32" fill="none" xmlns="http://www.w3.org/2000/svg">
<path d="M9.64 7.08C9.8 6.44 10 5.48 10 4.44C10 2.88 9.52 2.04 7.28 2.04C5.2 2.04 1.96 2.76 0.4 3.16C2.48 7.08 3.44 12.8 3.44 18.44C3.44 23.2 2.76 27.92 1.52 31.4C4.12 31.08 7 30.88 9.8 30.84C9.52 28.12 9.32 25.64 9.32 22.52C9.32 14.88 10.52 9.64 12.08 9.64C12.76 9.64 12.8 10.64 12.8 12.12C12.8 17.04 12.36 25.96 10.88 31C13.48 30.8 14.76 30.8 19.08 30.8C18.76 29.24 18.64 27.32 18.64 25.48C18.64 22.16 19.04 17.12 19.28 15C19.6 12.12 20.12 9.64 21.16 9.64C21.76 9.64 21.8 10.44 21.8 11.68C21.8 17.2 21 26.16 19.48 31.2C22.08 31 24.72 30.88 29 30.88C27.84 28.32 27.48 25.4 27.48 22.44C27.48 16.76 28.8 10.68 28.8 7.2C28.8 3.12 26.96 2.32 25.2 2.32C22.8 2.32 21.2 3.8 19.72 5.64C19.24 2.92 17.68 2.32 16.2 2.32C13.44 2.32 11.56 4.28 9.64 7.08ZM40.71 9.32C36.19 9.32 33.99 15.2 33.99 20.44C33.99 25.12 35.75 31.28 40.99 31.28C44.35 31.28 46.27 28.8 46.27 25.4C46.27 24.28 46.03 23.32 45.47 22.72C45.35 23.84 43.39 25.64 41.75 25.64C40.87 25.64 39.99 25.12 39.99 24.16C39.99 22.08 43.79 20.68 46.23 20.52C46.31 20 46.31 19.36 46.31 18.76C46.31 16.16 45.59 9.32 40.71 9.32ZM39.55 17.32C39.55 15.96 39.71 14.36 40.67 14.36C41.43 14.36 41.63 15.4 41.55 17.04C40.95 17.36 40.19 17.88 39.59 18.36C39.55 18.08 39.55 17.68 39.55 17.32ZM69.18 24.96C68.78 25.44 68.5 25.64 68.06 25.64C66.62 25.64 66.06 22.96 66.06 20.04C66.06 14.96 67.7 10.4 67.7 6.92C67.7 3.36 66.02 2.08 62.9 2.08C61.14 2.08 59.58 2.48 58.58 3.08C61.22 4.2 61.98 6.48 61.98 9.12C61.98 10.4 61.82 11.6 61.66 12.68C60.66 10.8 59.1 9.72 57.46 9.72C53.78 9.72 52.14 15.4 52.14 20.36C52.14 26.28 53.98 31.36 58.26 31.36C59.82 31.36 61.22 30.64 62.14 29.36C62.66 31.04 63.74 31.72 64.94 31.72C67.1 31.72 69.62 29.52 69.62 26.92C69.62 26.28 69.5 25.6 69.18 24.96ZM57.9 21.24C57.9 17.96 58.46 15 59.66 15C60.7 15 61.02 17.6 61.02 19.84C61.02 22.56 60.54 26.24 59.3 26.24C58.46 26.24 57.9 24.52 57.9 21.24ZM73.6781 11.2C75.7181 11.96 76.5581 15.76 76.5581 20.16C76.5581 24.28 75.7981 28.8 74.5581 31.24C75.7581 31.12 77.1981 31.04 78.8381 31.04C80.3981 31.04 82.2381 31.12 83.0781 31.2C82.0381 29.44 81.5581 28.2 81.5581 24.68C81.5581 21.64 82.5581 17.8 82.5581 14.88C82.5581 12.04 81.5981 9.96 77.9181 9.96C76.3181 9.96 74.8781 10.32 73.6781 11.2ZM75.4781 4.88C75.4781 6.6 76.7981 7.88 78.4781 7.88C80.1581 7.88 81.5181 6.6 81.5181 4.88C81.5181 3.2 80.1581 1.88 78.4781 1.88C76.7981 1.88 75.4781 3.2 75.4781 4.88ZM88.4716 11.2C89.7116 12.12 90.0716 15.64 90.0716 19.44C90.0716 24.16 89.5516 29.28 89.2716 31.2C91.5516 30.76 93.6716 30.76 95.9516 30.76C95.8316 29.8 95.5116 25.48 95.5116 22.64C95.5116 19.2 95.9916 16.16 97.1916 16.16C97.8716 16.16 97.9916 17.28 97.9916 18.76C97.9916 21.6 97.5916 27.2 97.0316 31.12C99.1916 30.92 101.352 30.84 104.072 30.76C103.392 29.04 103.152 27.24 103.152 25.32C103.152 22.52 103.672 17.84 103.672 15.08C103.672 11.92 102.992 9.44 100.432 9.44C98.1516 9.44 96.7916 11.48 95.6716 13.72C95.7516 13.16 95.8716 12.6 95.8716 12.04C95.8716 10.32 94.8716 9.52 93.3116 9.52C91.7116 9.52 89.5516 10.4 88.4716 11.2ZM121.904 0.239998C121.184 1.76 119.944 1.76 117.584 1.8C114.824 1.84 110.264 2.56 110.264 9.48C110.264 13.6 111.904 19.48 111.904 23.56C111.904 26.04 111.304 28.16 110.104 31.28C112.024 31.08 113.984 30.92 116.064 30.92C117.584 30.92 119.184 31 120.704 31.2C117.224 26.44 116.504 21.44 115.904 15.8C117.144 15.32 118.424 15.08 119.744 14.76C120.944 14.48 121.784 12.88 121.784 12C121.784 11.56 121.544 11.28 121.104 11.28C120.264 11.28 117.304 12.36 115.984 12.76C115.984 8.8 119.584 9.2 121.464 7.4C122.504 6.4 122.944 5 122.944 3.6C122.944 2.4 122.584 1.2 121.904 0.239998ZM133.303 9.28C128.143 9.28 126.263 15.24 126.263 20.04C126.263 24 127.543 31.24 133.263 31.24C138.743 31.24 139.943 24.68 139.943 20.12C139.943 14.6 138.183 9.28 133.303 9.28ZM131.583 20.16C131.583 16.36 132.423 14.52 133.383 14.52C134.263 14.52 134.943 16 134.943 20.08C134.943 23.56 134.423 25.84 133.343 25.84C132.223 25.84 131.583 23.44 131.583 20.16Z" fill="#FFC261"/>
</svg>
