<svg width="148" height="30" viewBox="0 0 148 30" fill="none" xmlns="http://www.w3.org/2000/svg">
<path d="M9.64 5.08C9.8 4.44 10 3.48 10 2.44C10 0.88 9.52 0.0399985 7.28 0.0399985C5.2 0.0399985 1.96 0.759999 0.4 1.16C2.48 5.08 3.44 10.8 3.44 16.44C3.44 21.2 2.76 25.92 1.52 29.4C4.12 29.08 7 28.88 9.8 28.84C9.52 26.12 9.32 23.64 9.32 20.52C9.32 12.88 10.52 7.64 12.08 7.64C12.76 7.64 12.8 8.64 12.8 10.12C12.8 15.04 12.36 23.96 10.88 29C13.48 28.8 14.76 28.8 19.08 28.8C18.76 27.24 18.64 25.32 18.64 23.48C18.64 20.16 19.04 15.12 19.28 13C19.6 10.12 20.12 7.64 21.16 7.64C21.76 7.64 21.8 8.44 21.8 9.68C21.8 15.2 21 24.16 19.48 29.2C22.08 29 24.72 28.88 29 28.88C27.84 26.32 27.48 23.4 27.48 20.44C27.48 14.76 28.8 8.68 28.8 5.2C28.8 1.12 26.96 0.32 25.2 0.32C22.8 0.32 21.2 1.8 19.72 3.64C19.24 0.919999 17.68 0.32 16.2 0.32C13.44 0.32 11.56 2.28 9.64 5.08ZM40.71 7.32C36.19 7.32 33.99 13.2 33.99 18.44C33.99 23.12 35.75 29.28 40.99 29.28C44.35 29.28 46.27 26.8 46.27 23.4C46.27 22.28 46.03 21.32 45.47 20.72C45.35 21.84 43.39 23.64 41.75 23.64C40.87 23.64 39.99 23.12 39.99 22.16C39.99 20.08 43.79 18.68 46.23 18.52C46.31 18 46.31 17.36 46.31 16.76C46.31 14.16 45.59 7.32 40.71 7.32ZM39.55 15.32C39.55 13.96 39.71 12.36 40.67 12.36C41.43 12.36 41.63 13.4 41.55 15.04C40.95 15.36 40.19 15.88 39.59 16.36C39.55 16.08 39.55 15.68 39.55 15.32ZM69.18 22.96C68.78 23.44 68.5 23.64 68.06 23.64C66.62 23.64 66.06 20.96 66.06 18.04C66.06 12.96 67.7 8.4 67.7 4.92C67.7 1.36 66.02 0.079998 62.9 0.079998C61.14 0.079998 59.58 0.479998 58.58 1.08C61.22 2.2 61.98 4.48 61.98 7.12C61.98 8.4 61.82 9.6 61.66 10.68C60.66 8.8 59.1 7.72 57.46 7.72C53.78 7.72 52.14 13.4 52.14 18.36C52.14 24.28 53.98 29.36 58.26 29.36C59.82 29.36 61.22 28.64 62.14 27.36C62.66 29.04 63.74 29.72 64.94 29.72C67.1 29.72 69.62 27.52 69.62 24.92C69.62 24.28 69.5 23.6 69.18 22.96ZM57.9 19.24C57.9 15.96 58.46 13 59.66 13C60.7 13 61.02 15.6 61.02 17.84C61.02 20.56 60.54 24.24 59.3 24.24C58.46 24.24 57.9 22.52 57.9 19.24ZM75.7794 0.639998C76.2594 3.76 76.5394 6.96 76.5394 10.48C76.5394 16.36 75.8194 23 74.8194 28.92C76.3794 28.8 77.9794 28.76 79.4594 28.76C81.4994 28.76 82.9794 28.84 84.8594 28.84C83.3794 26.16 81.8594 23.28 81.8594 19.4C81.8594 18.76 81.8994 18.72 84.8594 18C88.5794 17.04 91.7794 14.2 91.7794 8.6C91.7794 1.56 86.6994 0.479998 82.1394 0.479998C80.4194 0.479998 78.1394 0.639998 75.7794 0.639998ZM82.4194 13.84C82.2994 12.72 82.2994 11.48 82.2994 10.36C82.2994 8.84 82.8194 6.36 83.9394 6.36C84.7394 6.36 85.3794 7.72 85.3794 9.4C85.3794 11.4 84.4594 13.28 82.4194 13.84ZM110.297 20.4C110.057 21.4 109.617 21.92 109.177 21.92C108.617 21.92 108.057 21.08 108.057 19.24C108.057 17.4 108.617 15.36 108.617 13.68C108.617 10.44 106.577 7.52 102.897 7.52C99.4172 7.52 96.5772 10.04 96.5772 14.92C96.5772 15.92 96.7372 16.56 96.9372 17.32C98.0572 15.64 99.8972 13.76 102.097 13.76C103.017 13.76 103.817 14.08 103.817 15C103.817 17.84 95.8972 17.4 95.8972 23.36C95.8972 26.44 98.0172 29.32 101.017 29.32C102.297 29.32 103.697 28.8 104.697 27.44C105.337 28.64 106.337 29.12 107.337 29.12C109.577 29.12 110.937 26.48 110.937 23.6C110.937 22.48 110.737 21.4 110.297 20.4ZM101.097 22.92C101.097 21.88 101.977 20.64 104.017 19.28C104.017 21.2 103.217 23.8 101.857 23.8C101.337 23.8 101.097 23.44 101.097 22.92ZM122.068 12.16C122.108 11.6 122.268 10.88 122.268 10.2C122.268 8.52 121.188 7.56 119.708 7.56C117.828 7.56 115.908 8.6 115.068 9.88C116.548 10.4 117.148 12.12 117.148 18.48C117.148 25.28 116.108 27.08 115.348 29.16C117.068 29.08 118.788 28.96 120.708 28.96C121.788 28.96 122.948 29 124.108 29.2C122.708 26.24 122.148 23.64 122.148 21.48C122.148 16.88 124.467 14.24 125.988 14.24C126.428 14.24 126.828 14.48 126.828 15.76C126.828 16.68 126.628 17.32 126.028 18.56C129.268 17.44 130.508 14.64 130.508 12.12C130.508 9.68 129.308 7.56 127.388 7.56C125.508 7.56 123.948 8.56 122.068 12.16ZM144.131 10.6C144.131 7.24 142.291 6.08 139.091 6.08C137.251 6.08 135.331 6.48 134.291 7.48C136.851 9.4 137.411 12.64 137.411 15.8C137.411 18.24 137.091 21.36 137.091 23C137.091 26.88 138.971 29.64 141.851 29.64C145.011 29.64 146.651 26.36 146.651 23.12C146.651 21.6 146.331 20.4 145.491 19.6C145.091 20.48 144.331 22.8 143.211 22.8C142.331 22.8 142.211 21.52 142.211 20.48C142.211 19.32 142.371 17.44 142.931 16.32C146.371 16.16 147.691 15.24 147.691 12.76C146.531 12.88 145.131 13.24 143.851 13.44C143.971 12.52 144.131 11.6 144.131 10.6Z" fill="#FFC261"/>
</svg>
