<svg xmlns="http://www.w3.org/2000/svg" xmlns:xlink="http://www.w3.org/1999/xlink" version="1.1" width="1000" height="1000" viewBox="0 0 1000 1000" xml:space="preserve">
<desc>Created with Fabric.js 3.5.0</desc>
<defs>
</defs>
<rect x="0" y="0" width="100%" height="100%" fill="#ffffff"/>
<g transform="matrix(8.7555 0 0 8.7555 500.0007 500.0002)" id="108745">
<path style="stroke: none; stroke-width: 1; stroke-dasharray: none; stroke-linecap: butt; stroke-dashoffset: 0; stroke-linejoin: miter; stroke-miterlimit: 4; is-custom-font: none; font-file-url: none; fill: rgb(255,194,97); fill-rule: nonzero; opacity: 1;" vector-effect="non-scaling-stroke" transform=" translate(-52.3155, -14.78)" d="M 9.64 5.08 C 9.8 4.44 10 3.48 10 2.44 C 10 0.88 9.52 0.0399985 7.28 0.0399985 C 5.2 0.0399985 1.96 0.759999 0.4 1.16 C 2.48 5.08 3.44 10.8 3.44 16.44 C 3.44 21.2 2.76 25.92 1.52 29.4 C 4.12 29.08 7 28.88 9.8 28.84 C 9.52 26.12 9.32 23.64 9.32 20.52 C 9.32 12.88 10.52 7.64 12.08 7.64 C 12.76 7.64 12.8 8.64 12.8 10.12 C 12.8 15.04 12.36 23.96 10.88 29 C 13.48 28.8 14.76 28.8 19.08 28.8 C 18.76 27.24 18.64 25.32 18.64 23.48 C 18.64 20.16 19.04 15.12 19.28 13 C 19.6 10.12 20.12 7.64 21.16 7.64 C 21.76 7.64 21.8 8.44 21.8 9.68 C 21.8 15.2 21 24.16 19.48 29.2 C 22.08 29 24.72 28.88 29 28.88 C 27.84 26.32 27.48 23.4 27.48 20.44 C 27.48 14.76 28.8 8.68 28.8 5.2 C 28.8 1.12 26.96 0.32 25.2 0.32 C 22.8 0.32 21.2 1.8 19.72 3.64 C 19.24 0.919999 17.68 0.32 16.2 0.32 C 13.44 0.32 11.56 2.28 9.64 5.08 Z M 46.7713 9.84 C 47.7713 8.68 48.4113 7.16 48.4113 5.64 C 48.4113 2.96 46.5313 0.0399985 42.2913 0.0399985 C 38.4913 0.0399985 34.9313 2.36 34.9313 7.2 C 34.9313 9.2 35.5713 11.32 36.4513 12.84 C 37.8513 15.48 40.7313 17.88 40.7313 20.16 C 40.7313 21.16 40.2113 22.16 38.9713 22.16 C 37.5713 22.16 36.5713 20.8 36.0513 17.84 C 34.6513 18.76 34.1713 20.44 34.1713 22.24 C 34.1713 26.64 36.8513 29.52 41.0913 29.52 C 45.0513 29.52 48.6513 27 48.6513 21.28 C 48.6513 18.88 48.0513 16.8 47.2113 15.16 C 45.5313 11.76 42.8513 10.12 42.8513 7.96 C 42.8513 7.04 43.3313 6.32 44.3313 6.32 C 46.0113 6.32 46.6113 8.28 46.7713 9.84 Z M 53.8178 0.32 C 55.0178 4.4 55.6578 10.04 55.6578 15.6 C 55.6578 20.6 55.1378 25.6 54.0978 29.4 C 59.0178 28.4 65.0178 29.4 68.5778 25.04 C 70.4978 22.64 71.3378 19 71.3378 15.32 C 71.3378 9.88 69.5378 5.56 66.7378 3.2 C 63.2578 0.239998 59.4978 1.6 53.8178 0.32 Z M 64.7378 16.8 C 64.7378 20.8 64.0578 23.12 63.0578 23.12 C 61.2978 23.12 61.1778 14.64 61.1778 12.16 C 61.1778 9.76 61.2978 6.68 62.4578 6.68 C 64.1778 6.68 64.7378 13.12 64.7378 16.8 Z M 84.8712 5.08 C 85.0312 4.44 85.2312 3.48 85.2312 2.44 C 85.2312 0.88 84.7512 0.0399985 82.5112 0.0399985 C 80.4312 0.0399985 77.1912 0.759999 75.6312 1.16 C 77.7112 5.08 78.6712 10.8 78.6712 16.44 C 78.6712 21.2 77.9912 25.92 76.7512 29.4 C 79.3512 29.08 82.2312 28.88 85.0312 28.84 C 84.7512 26.12 84.5512 23.64 84.5512 20.52 C 84.5512 12.88 85.7512 7.64 87.3112 7.64 C 87.9912 7.64 88.0312 8.64 88.0312 10.12 C 88.0312 15.04 87.5912 23.96 86.1112 29 C 88.7112 28.8 89.9912 28.8 94.3112 28.8 C 93.9912 27.24 93.8712 25.32 93.8712 23.48 C 93.8712 20.16 94.2712 15.12 94.5112 13 C 94.8312 10.12 95.3512 7.64 96.3912 7.64 C 96.9912 7.64 97.0312 8.44 97.0312 9.68 C 97.0312 15.2 96.2312 24.16 94.7112 29.2 C 97.3112 29 99.9512 28.88 104.231 28.88 C 103.071 26.32 102.711 23.4 102.711 20.44 C 102.711 14.76 104.031 8.68 104.031 5.2 C 104.031 1.12 102.191 0.32 100.431 0.32 C 98.0312 0.32 96.4312 1.8 94.9512 3.64 C 94.4712 0.919999 92.9112 0.32 91.4312 0.32 C 88.6712 0.32 86.7912 2.28 84.8712 5.08 Z" stroke-linecap="round"/>
</g>
</svg>