<svg width="245" height="34" viewBox="0 0 245 34" fill="none" xmlns="http://www.w3.org/2000/svg">
<path d="M9.64 9.08C9.8 8.44 10 7.48 10 6.44C10 4.88 9.52 4.04 7.28 4.04C5.2 4.04 1.96 4.76 0.4 5.16C2.48 9.08 3.44 14.8 3.44 20.44C3.44 25.2 2.76 29.92 1.52 33.4C4.12 33.08 7 32.88 9.8 32.84C9.52 30.12 9.32 27.64 9.32 24.52C9.32 16.88 10.52 11.64 12.08 11.64C12.76 11.64 12.8 12.64 12.8 14.12C12.8 19.04 12.36 27.96 10.88 33C13.48 32.8 14.76 32.8 19.08 32.8C18.76 31.24 18.64 29.32 18.64 27.48C18.64 24.16 19.04 19.12 19.28 17C19.6 14.12 20.12 11.64 21.16 11.64C21.76 11.64 21.8 12.44 21.8 13.68C21.8 19.2 21 28.16 19.48 33.2C22.08 33 24.72 32.88 29 32.88C27.84 30.32 27.48 27.4 27.48 24.44C27.48 18.76 28.8 12.68 28.8 9.2C28.8 5.12 26.96 4.32 25.2 4.32C22.8 4.32 21.2 5.8 19.72 7.64C19.24 4.92 17.68 4.32 16.2 4.32C13.44 4.32 11.56 6.28 9.64 9.08ZM34.6513 12.32C35.8113 13.44 36.2113 15.08 36.2113 17.08C36.2113 20.16 35.2513 24.04 35.2513 26.96C35.2513 29.92 36.2113 33.28 39.9713 33.28C42.1313 33.28 43.3713 32.16 44.4913 30.52C45.4513 32.6 46.5713 33.4 47.6513 33.4C49.6113 33.4 51.3313 30.84 51.3313 28.12C51.3313 27.4 51.2113 26.6 50.9713 25.92C50.5713 26.56 50.0913 26.92 49.5713 26.92C48.8913 26.92 48.4113 26.16 48.4113 24.76C48.4113 22.32 49.8113 18.68 49.8113 16.08C49.8113 12.84 47.5713 11.52 44.8913 11.52C44.1313 11.52 43.3313 11.64 42.6113 11.88C43.4913 12.88 44.0913 14.64 44.0913 17.64C44.0913 22.2 42.7313 27.44 41.6113 27.44C41.2513 27.44 40.8513 26.8 40.8513 25.84C40.8513 23.68 42.6513 18.28 42.6513 15.44C42.6513 12.56 40.7713 11.52 38.0913 11.52C36.7313 11.52 35.6513 11.8 34.6513 12.32ZM56.4453 4.8C57.6853 6.4 58.1253 10.64 58.1253 15.4C58.1253 21.76 57.2853 29 56.2453 32.96C58.0453 32.8 59.8853 32.64 61.5653 32.64C62.3653 32.64 62.9653 32.68 63.6853 32.72C63.2853 30.56 63.2053 27.64 63.2053 25.84C63.2053 18 64.7653 12.48 64.7653 8.68C64.7653 5 63.2853 3.64 60.5653 3.64C58.9653 3.64 57.8453 4.12 56.4453 4.8ZM79.5244 14.6C79.5244 11.24 77.6844 10.08 74.4844 10.08C72.6444 10.08 70.7244 10.48 69.6844 11.48C72.2444 13.4 72.8044 16.64 72.8044 19.8C72.8044 22.24 72.4844 25.36 72.4844 27C72.4844 30.88 74.3644 33.64 77.2444 33.64C80.4044 33.64 82.0444 30.36 82.0444 27.12C82.0444 25.6 81.7244 24.4 80.8844 23.6C80.4844 24.48 79.7244 26.8 78.6044 26.8C77.7244 26.8 77.6044 25.52 77.6044 24.48C77.6044 23.32 77.7644 21.44 78.3244 20.32C81.7644 20.16 83.0844 19.24 83.0844 16.76C81.9244 16.88 80.5244 17.24 79.2444 17.44C79.3644 16.52 79.5244 15.6 79.5244 14.6ZM87.1016 13.2C89.1416 13.96 89.9816 17.76 89.9816 22.16C89.9816 26.28 89.2216 30.8 87.9816 33.24C89.1816 33.12 90.6216 33.04 92.2616 33.04C93.8216 33.04 95.6616 33.12 96.5016 33.2C95.4616 31.44 94.9816 30.2 94.9816 26.68C94.9816 23.64 95.9816 19.8 95.9816 16.88C95.9816 14.04 95.0216 11.96 91.3416 11.96C89.7416 11.96 88.3016 12.32 87.1016 13.2ZM88.9016 6.88C88.9016 8.6 90.2216 9.88 91.9016 9.88C93.5816 9.88 94.9416 8.6 94.9416 6.88C94.9416 5.2 93.5816 3.88 91.9016 3.88C90.2216 3.88 88.9016 5.2 88.9016 6.88ZM129.97 0.959998C127.65 2.04 127.13 3.32 127.13 4.76C127.13 6.12 127.61 7.88 127.61 9.32C127.61 11.32 126.69 13.76 124.17 15.88C124.17 12.24 124.65 8.4 125.41 4.76C124.81 4.8 124.21 4.8 123.61 4.8C121.29 4.8 119.01 4.64 116.73 4.4C117.85 8.88 118.33 14.12 118.33 19.48C118.33 24.12 117.97 28.8 117.33 33.12C120.61 33.12 123.65 33.12 126.41 33.32C125.37 30.76 123.85 24.36 123.85 20.6C124.53 23.2 127.37 33.96 133.69 33.96C137.05 33.96 137.93 30.96 137.93 28.88C137.93 26.84 137.09 25 135.57 24.4C135.57 25.88 135.21 27.04 134.25 27.04C132.41 27.04 130.37 22.8 128.85 18.04C132.85 14.64 134.33 12.64 134.33 10.48C134.33 8.6 133.21 7.16 131.21 4.88C130.41 3.96 129.57 2.72 129.97 0.959998ZM157.403 24.4C157.163 25.4 156.723 25.92 156.283 25.92C155.723 25.92 155.163 25.08 155.163 23.24C155.163 21.4 155.723 19.36 155.723 17.68C155.723 14.44 153.683 11.52 150.003 11.52C146.523 11.52 143.683 14.04 143.683 18.92C143.683 19.92 143.843 20.56 144.043 21.32C145.163 19.64 147.003 17.76 149.203 17.76C150.123 17.76 150.923 18.08 150.923 19C150.923 21.84 143.003 21.4 143.003 27.36C143.003 30.44 145.123 33.32 148.123 33.32C149.403 33.32 150.803 32.8 151.803 31.44C152.443 32.64 153.443 33.12 154.443 33.12C156.683 33.12 158.043 30.48 158.043 27.6C158.043 26.48 157.843 25.4 157.403 24.4ZM148.203 26.92C148.203 25.88 149.083 24.64 151.123 23.28C151.123 25.2 150.323 27.8 148.963 27.8C148.443 27.8 148.203 27.44 148.203 26.92ZM162.243 13.2C163.483 14.12 163.803 17.64 163.803 21.4C163.803 26.16 163.323 31.28 163.043 33.2C165.283 32.76 167.403 32.76 169.643 32.76C169.523 31.8 169.283 27.64 169.283 24.88C169.283 21.36 169.683 18.32 170.883 18.32C171.563 18.32 171.683 19.48 171.683 20.92C171.683 23.76 171.283 28.88 170.723 32.8C171.683 32.72 172.803 32.68 173.683 32.68C175.043 32.68 176.123 32.76 177.003 32.8C176.563 31.08 176.403 29.48 176.403 27.04C176.403 25.76 176.443 24.28 176.683 22.6C176.763 21.48 177.203 18.32 178.363 18.32C179.043 18.32 179.203 19.28 179.203 20.92C179.203 23.76 178.803 29.2 178.243 33.12C180.363 32.92 182.523 32.84 185.123 32.76C184.483 31.04 184.203 29.24 184.203 27.32C184.203 24.52 184.763 19.84 184.763 17.08C184.763 13.92 184.043 11.44 181.603 11.44C179.603 11.44 177.963 13.04 176.843 15.2C176.683 13 176.043 11.44 174.083 11.44C171.843 11.44 170.483 13.48 169.363 15.72C169.443 15.16 169.563 14.6 169.563 14.04C169.563 12.32 168.523 11.52 167.043 11.52C165.443 11.52 163.323 12.4 162.243 13.2ZM191.302 12.8C192.062 15.28 192.342 18.44 192.342 21.72C192.342 25.92 191.862 30.08 191.102 33.16C192.382 33 193.862 32.92 195.222 32.92C196.942 32.92 198.702 33.04 199.902 33.04C198.582 31.36 197.182 28.56 197.182 26.72C197.182 26.16 197.342 25.48 198.222 25.48C198.422 25.48 198.622 25.52 199.022 25.52C199.302 25.52 201.622 25.48 203.262 23.64C204.342 22.48 204.942 20.8 204.942 18.68C204.942 13.4 201.222 11.16 197.462 11.16C195.502 11.16 193.262 11.8 191.302 12.8ZM197.422 22.6C197.342 22.04 197.342 21.28 197.342 20.52C197.342 18.04 197.862 16 198.902 16C199.622 16 200.142 17.08 200.142 18.56C200.142 19.96 199.502 21.68 197.422 22.6ZM210.697 12.32C211.857 13.44 212.257 15.08 212.257 17.08C212.257 20.16 211.297 24.04 211.297 26.96C211.297 29.92 212.257 33.28 216.017 33.28C218.177 33.28 219.417 32.16 220.537 30.52C221.497 32.6 222.617 33.4 223.697 33.4C225.657 33.4 227.377 30.84 227.377 28.12C227.377 27.4 227.257 26.6 227.017 25.92C226.617 26.56 226.137 26.92 225.617 26.92C224.937 26.92 224.457 26.16 224.457 24.76C224.457 22.32 225.857 18.68 225.857 16.08C225.857 12.84 223.617 11.52 220.937 11.52C220.177 11.52 219.377 11.64 218.657 11.88C219.537 12.88 220.137 14.64 220.137 17.64C220.137 22.2 218.777 27.44 217.657 27.44C217.297 27.44 216.897 26.8 216.897 25.84C216.897 23.68 218.697 18.28 218.697 15.44C218.697 12.56 216.817 11.52 214.137 11.52C212.777 11.52 211.697 11.8 210.697 12.32ZM242.754 18.64C243.674 17.6 244.074 16.52 244.074 15.56C244.074 13.04 241.554 11.24 238.634 11.24C235.634 11.24 233.034 13.12 233.034 16.68C233.034 18.28 233.554 19.72 234.234 20.88C235.514 22.96 237.874 24.8 237.874 26.52C237.874 27.28 237.394 27.92 236.514 27.92C235.434 27.92 234.314 26.92 233.954 24.64C232.794 25.4 232.394 26.6 232.394 28C232.394 31.28 234.714 33.44 238.114 33.44C241.714 33.44 244.314 31.08 244.314 27.24C244.314 25.6 243.834 24.08 243.114 22.64C241.554 19.76 239.434 18.48 239.434 16.88C239.434 16.16 239.874 15.84 240.434 15.84C241.674 15.84 242.594 17.56 242.754 18.64Z" fill="#FFC261"/>
</svg>
