<svg width="381" height="49" viewBox="0 0 381 49" fill="none" xmlns="http://www.w3.org/2000/svg">
<path d="M14.616 0.663998C4.44 0.663998 0.728 14.04 0.728 23.128C0.728 30.808 3.352 47.896 14.68 47.896C25.304 47.896 27.8 33.048 27.8 23.768C27.8 12.76 24.28 0.663998 14.616 0.663998ZM11.16 24.024C11.16 15.576 12.824 11.608 14.808 11.608C16.728 11.608 17.624 15.192 17.624 23.32C17.624 31.448 16.728 36.312 14.552 36.312C12.376 36.312 11.16 31.256 11.16 24.024ZM35.1935 1.816C36.6655 7.256 37.3055 14.616 37.3055 22.232C37.3055 30.936 36.4735 39.896 35.3855 46.808C36.6015 46.68 38.2015 46.616 39.9935 46.616C43.0015 46.616 46.4575 46.808 48.8895 47.128C46.5855 42.136 45.8175 38.232 45.8175 33.432C45.8175 32.088 45.8815 30.936 45.8815 29.848C48.1215 43.736 53.3695 48.28 58.1055 48.28C62.8415 48.28 66.2335 43.736 66.2335 38.872C66.2335 36.952 65.7215 35.16 64.5055 34.136C64.5055 34.328 64.5695 34.456 64.5695 34.84C64.5695 36.184 63.6735 38.104 61.9455 38.104C60.7935 38.104 59.7055 37.208 58.7455 35.736C56.1855 31.96 54.5855 25.432 54.0095 22.168C57.8495 19.544 60.4095 15.448 60.4095 10.52C60.4095 4.12 56.0575 0.791996 49.3375 0.791996C45.5615 0.791996 40.1215 1.88 36.6015 1.88C36.0895 1.88 35.6415 1.88 35.1935 1.816ZM47.5455 10.392C47.8015 10.008 48.2495 9.816 48.8255 9.816C49.9775 9.816 50.4255 10.776 50.4255 11.928C50.4255 14.36 48.7615 17.304 46.9695 19.416C46.6495 18.2 46.5215 16.728 46.5215 15.384C46.5215 13.272 46.8415 11.288 47.5455 10.392ZM89.006 20.312C95.854 19.8 99.758 15.128 99.758 9.624C99.758 3.864 95.598 0.535999 89.774 0.535999C78.318 0.535999 72.302 13.72 72.302 25.176C72.302 36.056 77.806 47.896 87.534 47.896C96.558 47.896 100.526 37.912 100.526 29.72C100.526 27.544 100.27 25.56 99.694 24.216C98.862 22.424 97.326 22.104 94.318 22.104C92.974 22.104 91.31 22.168 90.542 22.168C87.598 22.168 86.19 21.336 84.014 19.864C83.566 21.144 83.374 22.68 83.374 24.152C83.374 27.864 84.654 31.448 88.558 31.448C89.262 31.448 90.158 31.32 91.118 30.936C90.67 34.392 89.646 36.632 87.726 36.632C84.718 36.632 81.774 31 81.774 24.792C81.774 19.672 83.694 11.864 87.918 11.864C89.39 11.864 90.542 12.824 90.542 15.768C90.542 18.072 89.774 19.416 89.006 20.312ZM138.98 37.144C138.148 37.784 137.316 38.104 136.612 38.104C134.564 38.104 133.54 35.544 133.54 31.512C133.54 26.136 135.268 17.56 135.268 12.632C135.268 6.68 132.708 1.112 124.388 1.112C114.98 1.112 111.012 8.28 111.012 13.912C111.012 17.304 112.356 20.184 114.852 20.952C116.132 16.6 117.924 11.416 122.084 11.416C124.068 11.416 124.836 12.504 124.836 14.424C124.836 18.776 120.996 19.416 116.388 23C112.612 25.88 108.964 30.168 108.964 36.12C108.964 42.456 113.124 47.704 118.884 47.704C121.38 47.704 124.068 46.744 126.756 44.376C128.42 46.552 130.34 47.384 132.068 47.384C135.716 47.384 139.044 43.48 139.044 38.488C139.044 38.04 139.044 37.592 138.98 37.144ZM124.516 27.032C124.516 27.48 124.58 28.184 124.58 29.016C124.58 32.024 123.684 37.464 121.06 37.464C120.036 37.464 119.268 36.696 119.268 35.032C119.268 31.448 122.98 28.312 124.516 27.032ZM160.214 8.728C160.47 7.704 160.854 6.168 160.854 4.504C160.854 2.008 160.022 0.663998 156.438 0.663998C153.11 0.663998 147.734 1.816 145.238 2.456C148.63 8.728 150.166 17.88 150.166 26.904C150.166 34.52 149.078 42.072 147.03 47.64C151.254 47.128 155.926 46.808 160.47 46.744C160.022 42.392 159.702 38.168 159.702 34.072C159.702 28.056 160.406 19.032 161.878 15.32C162.198 14.488 163.03 12.824 164.31 12.824C165.27 12.824 165.398 13.784 165.398 16.408C165.398 24.792 164.054 39.256 161.622 47.32C165.846 47 170.134 46.808 177.046 46.808C175.19 42.712 174.614 38.04 174.614 33.304C174.614 24.216 176.726 14.488 176.726 8.984C176.726 2.392 173.718 1.112 170.838 1.112C166.358 1.112 163.35 4.248 160.214 8.728ZM200.503 0.663998C190.327 0.663998 186.615 14.04 186.615 23.128C186.615 30.808 189.239 47.896 200.567 47.896C211.191 47.896 213.687 33.048 213.687 23.768C213.687 12.76 210.167 0.663998 200.503 0.663998ZM197.047 24.024C197.047 15.576 198.711 11.608 200.695 11.608C202.615 11.608 203.511 15.192 203.511 23.32C203.511 31.448 202.615 36.312 200.439 36.312C198.263 36.312 197.047 31.256 197.047 24.024ZM240.604 20.312C247.452 19.8 251.356 15.128 251.356 9.624C251.356 3.864 247.196 0.535999 241.372 0.535999C229.916 0.535999 223.9 13.72 223.9 25.176C223.9 36.056 229.404 47.896 239.132 47.896C248.156 47.896 252.124 37.912 252.124 29.72C252.124 27.544 251.868 25.56 251.292 24.216C250.46 22.424 248.924 22.104 245.916 22.104C244.572 22.104 242.908 22.168 242.14 22.168C239.196 22.168 237.788 21.336 235.612 19.864C235.164 21.144 234.972 22.68 234.972 24.152C234.972 27.864 236.252 31.448 240.156 31.448C240.86 31.448 241.756 31.32 242.716 30.936C242.268 34.392 241.244 36.632 239.324 36.632C236.316 36.632 233.372 31 233.372 24.792C233.372 19.672 235.292 11.864 239.516 11.864C240.988 11.864 242.14 12.824 242.14 15.768C242.14 18.072 241.372 19.416 240.604 20.312ZM259.433 1.816C260.905 7.256 261.545 14.616 261.545 22.232C261.545 30.936 260.713 39.896 259.625 46.808C260.841 46.68 262.441 46.616 264.233 46.616C267.241 46.616 270.697 46.808 273.129 47.128C270.825 42.136 270.057 38.232 270.057 33.432C270.057 32.088 270.121 30.936 270.121 29.848C272.361 43.736 277.609 48.28 282.345 48.28C287.082 48.28 290.473 43.736 290.473 38.872C290.473 36.952 289.962 35.16 288.746 34.136C288.746 34.328 288.809 34.456 288.809 34.84C288.809 36.184 287.913 38.104 286.185 38.104C285.034 38.104 283.945 37.208 282.986 35.736C280.425 31.96 278.826 25.432 278.25 22.168C282.09 19.544 284.649 15.448 284.649 10.52C284.649 4.12 280.298 0.791996 273.577 0.791996C269.801 0.791996 264.361 1.88 260.841 1.88C260.329 1.88 259.881 1.88 259.433 1.816ZM271.785 10.392C272.041 10.008 272.489 9.816 273.065 9.816C274.217 9.816 274.665 10.776 274.665 11.928C274.665 14.36 273.001 17.304 271.209 19.416C270.889 18.2 270.761 16.728 270.761 15.384C270.761 13.272 271.081 11.288 271.785 10.392ZM328.868 37.144C328.036 37.784 327.204 38.104 326.5 38.104C324.452 38.104 323.428 35.544 323.428 31.512C323.428 26.136 325.156 17.56 325.156 12.632C325.156 6.68 322.596 1.112 314.276 1.112C304.868 1.112 300.9 8.28 300.9 13.912C300.9 17.304 302.244 20.184 304.74 20.952C306.02 16.6 307.812 11.416 311.972 11.416C313.956 11.416 314.724 12.504 314.724 14.424C314.724 18.776 310.884 19.416 306.276 23C302.5 25.88 298.852 30.168 298.852 36.12C298.852 42.456 303.012 47.704 308.772 47.704C311.268 47.704 313.956 46.744 316.644 44.376C318.308 46.552 320.228 47.384 321.956 47.384C325.604 47.384 328.932 43.48 328.932 38.488C328.932 38.04 328.932 37.592 328.868 37.144ZM314.404 27.032C314.404 27.48 314.468 28.184 314.468 29.016C314.468 32.024 313.572 37.464 310.948 37.464C309.924 37.464 309.156 36.696 309.156 35.032C309.156 31.448 312.868 28.312 314.404 27.032ZM349.909 8.728C350.165 7.704 350.485 6.168 350.485 4.504C350.485 2.008 349.717 0.663998 346.133 0.663998C342.805 0.663998 337.621 1.816 335.125 2.456C338.453 8.728 339.989 17.88 339.989 26.904C339.989 34.52 338.901 42.072 336.917 47.64C341.077 47.128 345.685 46.808 350.165 46.744C349.717 42.392 349.397 38.424 349.397 33.432C349.397 21.208 351.317 12.824 353.813 12.824C354.901 12.824 354.965 14.424 354.965 16.792C354.965 24.664 354.261 38.936 351.893 47C356.053 46.68 358.101 46.68 365.013 46.68C364.501 44.184 364.309 41.112 364.309 38.168C364.309 32.856 364.949 24.792 365.333 21.4C365.845 16.792 366.677 12.824 368.341 12.824C369.301 12.824 369.365 14.104 369.365 16.088C369.365 24.92 368.085 39.256 365.653 47.32C369.813 47 374.037 46.808 380.885 46.808C379.029 42.712 378.453 38.04 378.453 33.304C378.453 24.216 380.565 14.488 380.565 8.92C380.565 2.392 377.621 1.112 374.805 1.112C370.965 1.112 368.405 3.48 366.037 6.424C365.269 2.072 362.773 1.112 360.405 1.112C355.989 1.112 352.981 4.248 349.909 8.728Z" fill="white"/>
</svg>
