<svg width="192" height="58" viewBox="0 0 192 58" fill="none" xmlns="http://www.w3.org/2000/svg">
<path d="M10.4562 9.18609C10.1872 12.1729 9.71548 15.1878 8.91255 18.434C7.5713 23.8566 5.3927 29.8158 3.12012 35.0472C4.58614 35.2923 6.0708 35.6204 7.43567 35.958C9.31697 36.4233 10.6636 36.8347 12.3973 37.2636C11.6438 34.4544 10.899 31.4518 11.784 27.8736C11.93 27.2834 11.976 27.2556 14.87 27.2668C18.5196 27.23 22.1185 25.3409 23.3958 20.1765C25.0017 13.6842 20.5632 11.5294 16.358 10.4893C14.7718 10.0969 12.6326 9.72441 10.4562 9.18609ZM13.5687 22.8738C13.7135 21.8136 13.9964 20.6701 14.2518 19.6372C14.5986 18.2354 15.6438 16.067 16.6767 16.3224C17.4144 16.5049 17.6944 17.9051 17.3112 19.4544C16.855 21.2988 15.5778 22.8227 13.5687 22.8738Z" fill="#FFC261"/>
<path d="M35.7981 21.3601C31.5752 20.582 28.5075 25.6968 27.6055 30.5924C26.7998 34.9647 27.3837 41.0228 32.2793 41.9249C35.4184 42.5033 37.6392 40.5169 38.2245 37.3403C38.4173 36.294 38.3583 35.3557 37.9384 34.6988C37.6335 35.7245 35.4925 37.0688 33.9602 36.7865C33.1381 36.635 32.4054 35.9976 32.5707 35.1007C32.9288 33.1575 36.72 32.5037 39.0272 32.7742C39.1915 32.3022 39.3016 31.7042 39.4049 31.1437C39.8525 28.7146 40.3573 22.2002 35.7981 21.3601ZM33.3371 28.6346C33.5713 27.364 33.9962 25.8967 34.8931 26.0619C35.6031 26.1928 35.611 27.1989 35.2539 28.7173C34.6382 28.913 33.8387 29.2679 33.1955 29.6131C33.2063 29.3446 33.2752 28.9709 33.3371 28.6346Z" fill="#FFC261"/>
<path d="M53.3462 28.7359C53.4501 28.2128 53.6861 27.553 53.7665 26.9121C53.9652 25.3285 53.0607 24.2958 51.6657 24.1208C49.8936 23.8984 47.9608 24.6516 47.0176 25.7588C48.3511 26.424 48.7133 28.1163 47.961 34.1113C47.1567 40.521 45.9635 42.0947 45.0011 43.9654C46.6319 44.0935 48.2673 44.1838 50.0772 44.4109C51.0952 44.5386 52.1839 44.7135 53.2536 45.0392C52.2841 42.0835 52.0637 39.5665 52.3192 37.5305C52.8633 33.1945 55.3624 30.9804 56.7952 31.1602C57.2099 31.2122 57.5586 31.4858 57.4072 32.6923C57.2984 33.5595 57.0341 34.1391 56.3219 35.237C59.5084 34.5645 61.0084 32.0718 61.3065 29.6965C61.5951 27.3965 60.7147 25.2562 58.9049 25.0291C57.1328 24.8068 55.5441 25.5649 53.3462 28.7359Z" fill="#FFC261"/>
<path d="M76.1477 33.2325C77.0889 32.3083 77.54 31.3116 77.6041 30.4018C77.7723 28.0137 75.5043 26.1398 72.7372 25.9449C69.8942 25.7447 67.3048 27.3528 67.0673 30.7264C66.9605 32.2427 67.3572 33.642 67.9242 34.7867C68.9984 36.8432 71.112 38.7444 70.9973 40.3743C70.9465 41.0946 70.4489 41.669 69.615 41.6103C68.5915 41.5382 67.5969 40.5158 67.4079 38.3312C66.2579 38.974 65.7988 40.0845 65.7053 41.4112C65.4865 44.5195 67.5409 46.7212 70.7629 46.9481C74.1744 47.1884 76.7958 45.1254 77.0521 41.4864C77.1615 39.9323 76.8081 38.4598 76.2219 37.0471C74.9357 34.2138 73.0121 32.8593 73.1189 31.3431C73.167 30.6608 73.6053 30.3869 74.136 30.4242C75.3111 30.507 76.0681 32.1984 76.1477 33.2325Z" fill="#FFC261"/>
<path d="M90.0006 26.7311C85.0993 26.6467 83.2161 32.2771 83.1376 36.8365C83.0728 40.5979 84.1703 47.4958 89.6034 47.5894C94.8087 47.679 96.0558 41.4676 96.1304 37.1362C96.2207 31.893 94.6359 26.8109 90.0006 26.7311ZM88.1889 37.0375C88.2511 33.428 89.079 31.694 89.9909 31.7097C90.8268 31.7241 91.4485 33.141 91.3817 37.0164C91.3248 40.3219 90.7936 42.4791 89.7678 42.4615C88.7039 42.4431 88.1353 40.153 88.1889 37.0375Z" fill="#FFC261"/>
<path d="M102.076 28.6401C103.29 29.4626 103.776 32.7888 103.931 36.3955C104.124 40.8753 103.84 45.7561 103.652 47.5898C105.798 47.079 107.811 46.9923 109.975 46.8991C109.821 45.9929 109.341 41.9058 109.225 39.2103C109.084 35.9453 109.416 33.0404 110.555 32.9913C111.2 32.9635 111.36 34.0216 111.42 35.4263C111.536 38.1218 111.386 43.4532 111.014 47.1967C113.056 46.9186 115.103 46.7543 117.681 46.5672C116.966 44.9625 116.664 43.2639 116.586 41.4416C116.471 38.7841 116.774 34.3209 116.661 31.7014C116.532 28.7021 115.785 26.3761 113.355 26.4808C111.191 26.574 109.984 28.5658 109.012 30.7376C109.065 30.2028 109.156 29.6664 109.133 29.1349C109.063 27.5024 108.081 26.784 106.601 26.8478C105.082 26.9132 103.068 27.8367 102.076 28.6401Z" fill="#FFC261"/>
<path d="M138 36.706C137.871 37.6745 137.506 38.209 137.09 38.2521C136.561 38.3069 135.95 37.568 135.77 35.8294C135.589 34.0907 135.919 32.1081 135.754 30.5206C135.437 27.4591 133.223 24.8997 129.746 25.2602C126.457 25.6011 124.02 28.2606 124.498 32.8719C124.596 33.8168 124.81 34.4059 125.074 35.1044C125.968 33.4072 127.522 31.4505 129.601 31.235C130.47 31.1448 131.258 31.3689 131.348 32.2382C131.626 34.9218 124.099 35.2819 124.683 40.9137C124.984 43.8241 127.27 46.3379 130.105 46.044C131.314 45.9186 132.586 45.2901 133.398 43.907C134.12 44.9782 135.112 45.3338 136.057 45.2358C138.174 45.0164 139.2 42.3885 138.918 39.6671C138.808 38.6088 138.514 37.6079 138 36.706ZM129.553 39.9885C129.451 39.0058 130.161 37.7479 131.956 36.2629C132.144 38.0772 131.643 40.6124 130.358 40.7456C129.866 40.7966 129.604 40.4799 129.553 39.9885Z" fill="#FFC261"/>
<path d="M141.684 17.3866C143.081 18.7086 144.11 22.6253 144.802 27.0941C145.725 33.065 145.989 39.9842 145.588 43.853C147.254 43.4413 148.958 43.0238 150.536 42.7797C151.287 42.6635 151.856 42.6139 152.538 42.5468C151.848 40.5771 151.349 37.8473 151.087 36.1574C149.948 28.797 150.611 23.3881 150.059 19.8206C149.524 16.3657 147.937 15.3039 145.384 15.699C143.882 15.9314 142.9 16.5448 141.684 17.3866Z" fill="#FFC261"/>
<path d="M156.322 23.0851C158.363 23.4147 159.851 26.7993 160.667 30.8988C161.432 34.7374 161.562 39.0897 160.86 41.5932C161.956 41.2587 163.282 40.917 164.81 40.6127C166.264 40.3233 167.993 40.0564 168.79 39.9751C167.495 38.5283 166.818 37.462 166.165 34.1824C165.601 31.35 165.82 27.5867 165.278 24.8662C164.751 22.2201 163.471 20.4603 160.042 21.1431C158.551 21.4399 157.276 22.0425 156.322 23.0851ZM156.826 16.8627C157.145 18.4652 158.613 19.4129 160.178 19.1012C161.743 18.7895 162.773 17.3446 162.454 15.7421C162.142 14.1768 160.63 13.1993 159.065 13.511C157.499 13.8227 156.514 15.2974 156.826 16.8627Z" fill="#FFC261"/>
<path d="M186.406 27.1515C186.417 28.1284 186.133 28.7096 185.727 28.8117C185.211 28.9417 184.501 28.2978 184.074 26.6027C183.647 24.9077 183.689 22.8985 183.299 21.3508C182.547 18.3661 179.99 16.1495 176.6 17.0036C173.394 17.8112 171.363 20.7917 172.495 25.2873C172.727 26.2085 173.023 26.7609 173.384 27.4146C174.026 25.6071 175.285 23.4482 177.311 22.9376C178.159 22.7241 178.97 22.8332 179.184 23.6808C179.843 26.297 172.444 27.7297 173.828 33.2201C174.542 36.0575 177.164 38.2186 179.927 37.5224C181.107 37.2254 182.276 36.4214 182.881 34.9365C183.749 35.8934 184.782 36.1035 185.703 35.8715C187.767 35.3516 188.407 32.604 187.738 29.9509C187.479 28.9191 187.044 27.9706 186.406 27.1515ZM178.516 31.608C178.275 30.65 178.797 29.3034 180.361 27.5772C180.807 29.3459 180.673 31.9267 179.42 32.2423C178.941 32.363 178.637 32.0871 178.516 31.608Z" fill="#FFC261"/>
</svg>
