<svg width="157" height="31" viewBox="0 0 157 31" fill="none" xmlns="http://www.w3.org/2000/svg">
<path d="M1.72 1.64C2.2 4.76 2.48 7.96 2.48 11.48C2.48 17.36 1.76 24 0.76 29.92C2.32 29.8 3.92 29.76 5.4 29.76C7.44 29.76 8.92 29.84 10.8 29.84C9.32 27.16 7.8 24.28 7.8 20.4C7.8 19.76 7.84 19.72 10.8 19C14.52 18.04 17.72 15.2 17.72 9.6C17.72 2.56 12.64 1.48 8.08 1.48C6.36 1.48 4.08 1.64 1.72 1.64ZM8.36 14.84C8.24 13.72 8.24 12.48 8.24 11.36C8.24 9.84 8.76 7.36 9.88 7.36C10.68 7.36 11.32 8.72 11.32 10.4C11.32 12.4 10.4 14.28 8.36 14.84ZM30.2488 13.16C30.2888 12.6 30.4487 11.88 30.4487 11.2C30.4487 9.52 29.3688 8.56 27.8888 8.56C26.0087 8.56 24.0887 9.6 23.2487 10.88C24.7287 11.4 25.3287 13.12 25.3287 19.48C25.3287 26.28 24.2887 28.08 23.5287 30.16C25.2487 30.08 26.9687 29.96 28.8887 29.96C29.9688 29.96 31.1288 30 32.2888 30.2C30.8888 27.24 30.3288 24.64 30.3288 22.48C30.3288 17.88 32.6487 15.24 34.1688 15.24C34.6088 15.24 35.0088 15.48 35.0088 16.76C35.0088 17.68 34.8088 18.32 34.2087 19.56C37.4487 18.44 38.6888 15.64 38.6888 13.12C38.6888 10.68 37.4888 8.56 35.5688 8.56C33.6888 8.56 32.1288 9.56 30.2488 13.16ZM50.6253 8.28C45.4653 8.28 43.5853 14.24 43.5853 19.04C43.5853 23 44.8653 30.24 50.5853 30.24C56.0653 30.24 57.2653 23.68 57.2653 19.12C57.2653 13.6 55.5053 8.28 50.6253 8.28ZM48.9053 19.16C48.9053 15.36 49.7453 13.52 50.7053 13.52C51.5853 13.52 52.2653 15 52.2653 19.08C52.2653 22.56 51.7453 24.84 50.6653 24.84C49.5453 24.84 48.9053 22.44 48.9053 19.16ZM80.3769 23.96C79.9769 24.44 79.6969 24.64 79.2569 24.64C77.8169 24.64 77.2569 21.96 77.2569 19.04C77.2569 13.96 78.8969 9.4 78.8969 5.92C78.8969 2.36 77.2169 1.08 74.0969 1.08C72.3369 1.08 70.7769 1.48 69.7769 2.08C72.4169 3.2 73.1769 5.48 73.1769 8.12C73.1769 9.4 73.0169 10.6 72.8569 11.68C71.8569 9.8 70.2969 8.72 68.6569 8.72C64.9769 8.72 63.3369 14.4 63.3369 19.36C63.3369 25.28 65.1769 30.36 69.4569 30.36C71.0169 30.36 72.4169 29.64 73.3369 28.36C73.8569 30.04 74.9369 30.72 76.1369 30.72C78.2969 30.72 80.8169 28.52 80.8169 25.92C80.8169 25.28 80.6969 24.6 80.3769 23.96ZM69.0969 20.24C69.0969 16.96 69.6569 14 70.8569 14C71.8969 14 72.2169 16.6 72.2169 18.84C72.2169 21.56 71.7369 25.24 70.4969 25.24C69.6569 25.24 69.0969 23.52 69.0969 20.24ZM85.9762 9.32C87.1362 10.44 87.5362 12.08 87.5362 14.08C87.5362 17.16 86.5762 21.04 86.5762 23.96C86.5762 26.92 87.5362 30.28 91.2962 30.28C93.4562 30.28 94.6962 29.16 95.8162 27.52C96.7762 29.6 97.8962 30.4 98.9762 30.4C100.936 30.4 102.656 27.84 102.656 25.12C102.656 24.4 102.536 23.6 102.296 22.92C101.896 23.56 101.416 23.92 100.896 23.92C100.216 23.92 99.7362 23.16 99.7362 21.76C99.7362 19.32 101.136 15.68 101.136 13.08C101.136 9.84 98.8962 8.52 96.2162 8.52C95.4562 8.52 94.6562 8.64 93.9362 8.88C94.8162 9.88 95.4162 11.64 95.4162 14.64C95.4162 19.2 94.0562 24.44 92.9362 24.44C92.5762 24.44 92.1762 23.8 92.1762 22.84C92.1762 20.68 93.9762 15.28 93.9762 12.44C93.9762 9.56 92.0962 8.52 89.4162 8.52C88.0562 8.52 86.9762 8.8 85.9762 9.32ZM108.273 1.84C109.193 4.08 109.633 9.92 109.633 14.44C109.633 19.36 109.113 24.56 107.953 29.8C110.393 29.8 112.833 30.04 115.513 30.2C114.793 28.48 114.273 26.48 114.273 24.56C114.273 24.16 114.273 23.72 114.353 23.36C115.633 26.12 117.873 30.88 120.913 30.88C123.073 30.88 124.393 28.44 124.393 25.92C124.393 24.56 123.993 23.28 123.273 22.52C123.153 23.88 122.673 24.36 122.193 24.36C120.873 24.36 118.953 21.36 118.713 19.84C120.993 18.76 123.073 17.16 123.073 14.6C123.073 12.72 121.953 11.96 120.873 11.32C119.553 10.52 118.473 9.84 118.473 8.16C118.473 7.84 118.513 7.4 118.633 7C116.513 8.28 115.913 9.92 115.913 11.24C115.913 13.12 117.113 13.32 117.113 15.36C117.113 17.2 116.033 18.2 114.393 19C114.553 14.12 114.833 12.76 115.713 9.12C116.273 6.72 116.513 5.76 116.513 4.8C116.513 2.12 114.873 1.04 112.073 1.04C110.753 1.04 109.633 1.28 108.273 1.84ZM140.09 15.64C141.01 14.6 141.41 13.52 141.41 12.56C141.41 10.04 138.89 8.24 135.97 8.24C132.97 8.24 130.37 10.12 130.37 13.68C130.37 15.28 130.89 16.72 131.57 17.88C132.85 19.96 135.21 21.8 135.21 23.52C135.21 24.28 134.73 24.92 133.85 24.92C132.77 24.92 131.65 23.92 131.29 21.64C130.13 22.4 129.73 23.6 129.73 25C129.73 28.28 132.05 30.44 135.45 30.44C139.05 30.44 141.65 28.08 141.65 24.24C141.65 22.6 141.17 21.08 140.45 19.64C138.89 16.76 136.77 15.48 136.77 13.88C136.77 13.16 137.21 12.84 137.77 12.84C139.01 12.84 139.93 14.56 140.09 15.64ZM146.747 10.2C148.787 10.96 149.627 14.76 149.627 19.16C149.627 23.28 148.867 27.8 147.627 30.24C148.827 30.12 150.267 30.04 151.907 30.04C153.467 30.04 155.307 30.12 156.147 30.2C155.107 28.44 154.627 27.2 154.627 23.68C154.627 20.64 155.627 16.8 155.627 13.88C155.627 11.04 154.667 8.96 150.987 8.96C149.387 8.96 147.947 9.32 146.747 10.2ZM148.547 3.88C148.547 5.6 149.867 6.88 151.547 6.88C153.227 6.88 154.587 5.6 154.587 3.88C154.587 2.2 153.227 0.879998 151.547 0.879998C149.867 0.879998 148.547 2.2 148.547 3.88Z" fill="#FFC261"/>
</svg>
