<svg width="93" height="30" viewBox="0 0 93 30" fill="none" xmlns="http://www.w3.org/2000/svg">
<path d="M1.72 0.639998C2.2 3.76 2.48 6.96 2.48 10.48C2.48 16.36 1.76 23 0.76 28.92C2.32 28.8 3.92 28.76 5.4 28.76C7.44 28.76 8.92 28.84 10.8 28.84C9.32 26.16 7.8 23.28 7.8 19.4C7.8 18.76 7.84 18.72 10.8 18C14.52 17.04 17.72 14.2 17.72 8.6C17.72 1.56 12.64 0.479998 8.08 0.479998C6.36 0.479998 4.08 0.639998 1.72 0.639998ZM8.36 13.84C8.24 12.72 8.24 11.48 8.24 10.36C8.24 8.84 8.76 6.36 9.88 6.36C10.68 6.36 11.32 7.72 11.32 9.4C11.32 11.4 10.4 13.28 8.36 13.84ZM35.2088 9.84C36.2088 8.68 36.8488 7.16 36.8488 5.64C36.8488 2.96 34.9688 0.0399985 30.7287 0.0399985C26.9287 0.0399985 23.3687 2.36 23.3687 7.2C23.3687 9.2 24.0087 11.32 24.8887 12.84C26.2887 15.48 29.1687 17.88 29.1687 20.16C29.1687 21.16 28.6487 22.16 27.4087 22.16C26.0087 22.16 25.0087 20.8 24.4887 17.84C23.0887 18.76 22.6087 20.44 22.6087 22.24C22.6087 26.64 25.2887 29.52 29.5287 29.52C33.4888 29.52 37.0888 27 37.0888 21.28C37.0888 18.88 36.4888 16.8 35.6488 15.16C33.9688 11.76 31.2887 10.12 31.2887 7.96C31.2887 7.04 31.7688 6.32 32.7688 6.32C34.4488 6.32 35.0487 8.28 35.2088 9.84ZM42.2553 0.32C43.4553 4.4 44.0953 10.04 44.0953 15.6C44.0953 20.6 43.5753 25.6 42.5353 29.4C47.4553 28.4 53.4553 29.4 57.0153 25.04C58.9353 22.64 59.7753 19 59.7753 15.32C59.7753 9.88 57.9753 5.56 55.1753 3.2C51.6953 0.239998 47.9353 1.6 42.2553 0.32ZM53.1753 16.8C53.1753 20.8 52.4953 23.12 51.4953 23.12C49.7353 23.12 49.6153 14.64 49.6153 12.16C49.6153 9.76 49.7353 6.68 50.8953 6.68C52.6153 6.68 53.1753 13.12 53.1753 16.8ZM73.3088 5.08C73.4688 4.44 73.6688 3.48 73.6688 2.44C73.6688 0.88 73.1888 0.0399985 70.9488 0.0399985C68.8688 0.0399985 65.6288 0.759999 64.0688 1.16C66.1488 5.08 67.1088 10.8 67.1088 16.44C67.1088 21.2 66.4288 25.92 65.1888 29.4C67.7888 29.08 70.6688 28.88 73.4688 28.84C73.1888 26.12 72.9888 23.64 72.9888 20.52C72.9888 12.88 74.1888 7.64 75.7488 7.64C76.4288 7.64 76.4688 8.64 76.4688 10.12C76.4688 15.04 76.0288 23.96 74.5488 29C77.1488 28.8 78.4288 28.8 82.7488 28.8C82.4288 27.24 82.3088 25.32 82.3088 23.48C82.3088 20.16 82.7088 15.12 82.9488 13C83.2688 10.12 83.7888 7.64 84.8288 7.64C85.4288 7.64 85.4688 8.44 85.4688 9.68C85.4688 15.2 84.6688 24.16 83.1488 29.2C85.7488 29 88.3888 28.88 92.6688 28.88C91.5088 26.32 91.1488 23.4 91.1488 20.44C91.1488 14.76 92.4688 8.68 92.4688 5.2C92.4688 1.12 90.6288 0.32 88.8688 0.32C86.4688 0.32 84.8688 1.8 83.3888 3.64C82.9088 0.919999 81.3488 0.32 79.8688 0.32C77.1088 0.32 75.2288 2.28 73.3088 5.08Z" fill="#FFC261"/>
</svg>
