<svg width="162" height="31" viewBox="0 0 162 31" fill="none" xmlns="http://www.w3.org/2000/svg">
<path d="M1.72 1.64C2.2 4.76 2.48 7.96 2.48 11.48C2.48 17.36 1.76 24 0.76 29.92C2.32 29.8 3.92 29.76 5.4 29.76C7.44 29.76 8.92 29.84 10.8 29.84C9.32 27.16 7.8 24.28 7.8 20.4C7.8 19.76 7.84 19.72 10.8 19C14.52 18.04 17.72 15.2 17.72 9.6C17.72 2.56 12.64 1.48 8.08 1.48C6.36 1.48 4.08 1.64 1.72 1.64ZM8.36 14.84C8.24 13.72 8.24 12.48 8.24 11.36C8.24 9.84 8.76 7.36 9.88 7.36C10.68 7.36 11.32 8.72 11.32 10.4C11.32 12.4 10.4 14.28 8.36 14.84ZM23.0887 9.32C24.2487 10.44 24.6487 12.08 24.6487 14.08C24.6487 17.16 23.6887 21.04 23.6887 23.96C23.6887 26.92 24.6487 30.28 28.4087 30.28C30.5688 30.28 31.8088 29.16 32.9287 27.52C33.8888 29.6 35.0088 30.4 36.0888 30.4C38.0488 30.4 39.7688 27.84 39.7688 25.12C39.7688 24.4 39.6488 23.6 39.4088 22.92C39.0087 23.56 38.5288 23.92 38.0088 23.92C37.3288 23.92 36.8488 23.16 36.8488 21.76C36.8488 19.32 38.2488 15.68 38.2488 13.08C38.2488 9.84 36.0088 8.52 33.3288 8.52C32.5688 8.52 31.7688 8.64 31.0487 8.88C31.9287 9.88 32.5287 11.64 32.5287 14.64C32.5287 19.2 31.1688 24.44 30.0487 24.44C29.6888 24.44 29.2887 23.8 29.2887 22.84C29.2887 20.68 31.0888 15.28 31.0888 12.44C31.0888 9.56 29.2087 8.52 26.5287 8.52C25.1687 8.52 24.0887 8.8 23.0887 9.32ZM50.9153 12.32C51.2753 10.52 53.1953 6.32 53.1953 3.84C53.1953 1.04 50.8353 0.359998 48.9953 0.359998C47.2753 0.359998 45.5553 0.96 44.2353 1.8C45.9953 3.32 46.5553 5.64 46.5553 8.2C46.5553 12.4 45.1153 17.84 45.1153 21.88C45.1153 27.56 48.0353 30.36 51.3953 30.36C56.8353 30.36 59.2353 22.68 59.2353 16.4C59.2353 12.04 58.1153 8.88 55.5153 8.88C53.6353 8.88 51.9953 10.6 50.9153 12.32ZM50.3953 21.32C50.3953 18.88 51.3153 14.4 52.9953 14.4C53.9153 14.4 54.1553 15.64 54.1553 17.24C54.1553 20.44 53.0753 24.6 51.6753 24.6C50.8353 24.6 50.3953 23 50.3953 21.32ZM64.5172 1.8C65.7572 3.4 66.1972 7.64 66.1972 12.4C66.1972 18.76 65.3572 26 64.3172 29.96C66.1172 29.8 67.9572 29.64 69.6372 29.64C70.4372 29.64 71.0372 29.68 71.7572 29.72C71.3572 27.56 71.2772 24.64 71.2772 22.84C71.2772 15 72.8372 9.48 72.8372 5.68C72.8372 2 71.3572 0.639999 68.6372 0.639999C67.0372 0.639999 65.9172 1.12 64.5172 1.8ZM77.8047 10.2C79.8447 10.96 80.6847 14.76 80.6847 19.16C80.6847 23.28 79.9247 27.8 78.6847 30.24C79.8847 30.12 81.3247 30.04 82.9647 30.04C84.5247 30.04 86.3647 30.12 87.2047 30.2C86.1647 28.44 85.6847 27.2 85.6847 23.68C85.6847 20.64 86.6847 16.8 86.6847 13.88C86.6847 11.04 85.7247 8.96 82.0447 8.96C80.4447 8.96 79.0047 9.32 77.8047 10.2ZM79.6047 3.88C79.6047 5.6 80.9247 6.88 82.6047 6.88C84.2847 6.88 85.6447 5.6 85.6447 3.88C85.6447 2.2 84.2847 0.879998 82.6047 0.879998C80.9247 0.879998 79.6047 2.2 79.6047 3.88ZM93.0781 1.84C93.9981 4.08 94.4381 9.92 94.4381 14.44C94.4381 19.36 93.9181 24.56 92.7581 29.8C95.1981 29.8 97.6381 30.04 100.318 30.2C99.5981 28.48 99.0781 26.48 99.0781 24.56C99.0781 24.16 99.0781 23.72 99.1581 23.36C100.438 26.12 102.678 30.88 105.718 30.88C107.878 30.88 109.198 28.44 109.198 25.92C109.198 24.56 108.798 23.28 108.078 22.52C107.958 23.88 107.478 24.36 106.998 24.36C105.678 24.36 103.758 21.36 103.518 19.84C105.798 18.76 107.878 17.16 107.878 14.6C107.878 12.72 106.758 11.96 105.678 11.32C104.358 10.52 103.278 9.84 103.278 8.16C103.278 7.84 103.318 7.4 103.438 7C101.318 8.28 100.718 9.92 100.718 11.24C100.718 13.12 101.918 13.32 101.918 15.36C101.918 17.2 100.838 18.2 99.1981 19C99.3581 14.12 99.6381 12.76 100.518 9.12C101.078 6.72 101.318 5.76 101.318 4.8C101.318 2.12 99.6781 1.04 96.8781 1.04C95.5581 1.04 94.4381 1.28 93.0781 1.84ZM128.746 21.4C128.506 22.4 128.066 22.92 127.626 22.92C127.066 22.92 126.506 22.08 126.506 20.24C126.506 18.4 127.066 16.36 127.066 14.68C127.066 11.44 125.026 8.52 121.346 8.52C117.866 8.52 115.026 11.04 115.026 15.92C115.026 16.92 115.186 17.56 115.386 18.32C116.506 16.64 118.346 14.76 120.546 14.76C121.466 14.76 122.266 15.08 122.266 16C122.266 18.84 114.346 18.4 114.346 24.36C114.346 27.44 116.466 30.32 119.466 30.32C120.746 30.32 122.146 29.8 123.146 28.44C123.786 29.64 124.786 30.12 125.786 30.12C128.026 30.12 129.386 27.48 129.386 24.6C129.386 23.48 129.186 22.4 128.746 21.4ZM119.546 23.92C119.546 22.88 120.426 21.64 122.466 20.28C122.466 22.2 121.666 24.8 120.306 24.8C119.786 24.8 119.546 24.44 119.546 23.92ZM144.958 15.64C145.878 14.6 146.278 13.52 146.278 12.56C146.278 10.04 143.758 8.24 140.838 8.24C137.838 8.24 135.238 10.12 135.238 13.68C135.238 15.28 135.758 16.72 136.438 17.88C137.718 19.96 140.078 21.8 140.078 23.52C140.078 24.28 139.598 24.92 138.718 24.92C137.638 24.92 136.518 23.92 136.158 21.64C134.998 22.4 134.598 23.6 134.598 25C134.598 28.28 136.918 30.44 140.318 30.44C143.918 30.44 146.518 28.08 146.518 24.24C146.518 22.6 146.038 21.08 145.318 19.64C143.758 16.76 141.638 15.48 141.638 13.88C141.638 13.16 142.078 12.84 142.638 12.84C143.878 12.84 144.798 14.56 144.958 15.64ZM151.616 10.2C153.656 10.96 154.496 14.76 154.496 19.16C154.496 23.28 153.736 27.8 152.496 30.24C153.696 30.12 155.136 30.04 156.776 30.04C158.336 30.04 160.176 30.12 161.016 30.2C159.976 28.44 159.496 27.2 159.496 23.68C159.496 20.64 160.496 16.8 160.496 13.88C160.496 11.04 159.536 8.96 155.856 8.96C154.256 8.96 152.816 9.32 151.616 10.2ZM153.416 3.88C153.416 5.6 154.736 6.88 156.416 6.88C158.096 6.88 159.456 5.6 159.456 3.88C159.456 2.2 158.096 0.879998 156.416 0.879998C154.736 0.879998 153.416 2.2 153.416 3.88Z" fill="#FFC261"/>
</svg>
