<svg width="179" height="31" viewBox="0 0 179 31" fill="none" xmlns="http://www.w3.org/2000/svg">
<path d="M12.84 10.84C13.84 9.68 14.48 8.16 14.48 6.64C14.48 3.96 12.6 1.04 8.36 1.04C4.56 1.04 1 3.36 1 8.2C1 10.2 1.64 12.32 2.52 13.84C3.92 16.48 6.8 18.88 6.8 21.16C6.8 22.16 6.28 23.16 5.04 23.16C3.64 23.16 2.64 21.8 2.12 18.84C0.72 19.76 0.24 21.44 0.24 23.24C0.24 27.64 2.92 30.52 7.16 30.52C11.12 30.52 14.72 28 14.72 22.28C14.72 19.88 14.12 17.8 13.28 16.16C11.6 12.76 8.92 11.12 8.92 8.96C8.92 8.04 9.4 7.32 10.4 7.32C12.08 7.32 12.68 9.28 12.84 10.84ZM27.0772 8.32C22.5572 8.32 20.3572 14.2 20.3572 19.44C20.3572 24.12 22.1172 30.28 27.3572 30.28C30.7172 30.28 32.6372 27.8 32.6372 24.4C32.6372 23.28 32.3972 22.32 31.8372 21.72C31.7172 22.84 29.7572 24.64 28.1172 24.64C27.2372 24.64 26.3572 24.12 26.3572 23.16C26.3572 21.08 30.1572 19.68 32.5972 19.52C32.6772 19 32.6772 18.36 32.6772 17.76C32.6772 15.16 31.9572 8.32 27.0772 8.32ZM25.9172 16.32C25.9172 14.96 26.0772 13.36 27.0372 13.36C27.7972 13.36 27.9972 14.4 27.9172 16.04C27.3172 16.36 26.5572 16.88 25.9572 17.36C25.9172 17.08 25.9172 16.68 25.9172 16.32ZM37.7687 1.84C38.6887 4.08 39.1287 9.92 39.1287 14.44C39.1287 19.36 38.6087 24.56 37.4487 29.8C39.8887 29.8 42.3287 30.04 45.0087 30.2C44.2887 28.48 43.7687 26.48 43.7687 24.56C43.7687 24.16 43.7687 23.72 43.8487 23.36C45.1287 26.12 47.3687 30.88 50.4088 30.88C52.5687 30.88 53.8888 28.44 53.8888 25.92C53.8888 24.56 53.4887 23.28 52.7687 22.52C52.6487 23.88 52.1688 24.36 51.6888 24.36C50.3687 24.36 48.4488 21.36 48.2087 19.84C50.4888 18.76 52.5687 17.16 52.5687 14.6C52.5687 12.72 51.4487 11.96 50.3687 11.32C49.0487 10.52 47.9687 9.84 47.9687 8.16C47.9687 7.84 48.0087 7.4 48.1287 7C46.0087 8.28 45.4087 9.92 45.4087 11.24C45.4087 13.12 46.6087 13.32 46.6087 15.36C46.6087 17.2 45.5287 18.2 43.8887 19C44.0487 14.12 44.3287 12.76 45.2087 9.12C45.7687 6.72 46.0087 5.76 46.0087 4.8C46.0087 2.12 44.3687 1.04 41.5687 1.04C40.2487 1.04 39.1287 1.28 37.7687 1.84ZM65.4941 13.16C65.5341 12.6 65.6941 11.88 65.6941 11.2C65.6941 9.52 64.6141 8.56 63.1341 8.56C61.2541 8.56 59.3341 9.6 58.4941 10.88C59.9741 11.4 60.5741 13.12 60.5741 19.48C60.5741 26.28 59.5341 28.08 58.7741 30.16C60.4941 30.08 62.2141 29.96 64.1341 29.96C65.2141 29.96 66.3741 30 67.5341 30.2C66.1341 27.24 65.5741 24.64 65.5741 22.48C65.5741 17.88 67.8941 15.24 69.4141 15.24C69.8541 15.24 70.2541 15.48 70.2541 16.76C70.2541 17.68 70.0541 18.32 69.4541 19.56C72.6941 18.44 73.9341 15.64 73.9341 13.12C73.9341 10.68 72.7341 8.56 70.8141 8.56C68.9341 8.56 67.3741 9.56 65.4941 13.16ZM85.5506 8.32C81.0306 8.32 78.8306 14.2 78.8306 19.44C78.8306 24.12 80.5906 30.28 85.8306 30.28C89.1906 30.28 91.1106 27.8 91.1106 24.4C91.1106 23.28 90.8706 22.32 90.3106 21.72C90.1906 22.84 88.2306 24.64 86.5906 24.64C85.7106 24.64 84.8306 24.12 84.8306 23.16C84.8306 21.08 88.6306 19.68 91.0706 19.52C91.1506 19 91.1506 18.36 91.1506 17.76C91.1506 15.16 90.4306 8.32 85.5506 8.32ZM84.3906 16.32C84.3906 14.96 84.5506 13.36 85.5106 13.36C86.2706 13.36 86.4706 14.4 86.3906 16.04C85.7906 16.36 85.0306 16.88 84.4306 17.36C84.3906 17.08 84.3906 16.68 84.3906 16.32ZM104.028 11.6C104.028 8.24 102.188 7.08 98.9875 7.08C97.1475 7.08 95.2275 7.48 94.1875 8.48C96.7475 10.4 97.3075 13.64 97.3075 16.8C97.3075 19.24 96.9875 22.36 96.9875 24C96.9875 27.88 98.8675 30.64 101.748 30.64C104.908 30.64 106.548 27.36 106.548 24.12C106.548 22.6 106.228 21.4 105.388 20.6C104.988 21.48 104.228 23.8 103.108 23.8C102.228 23.8 102.108 22.52 102.108 21.48C102.108 20.32 102.268 18.44 102.828 17.32C106.268 17.16 107.588 16.24 107.588 13.76C106.428 13.88 105.028 14.24 103.748 14.44C103.868 13.52 104.028 12.6 104.028 11.6ZM126.753 21.4C126.513 22.4 126.073 22.92 125.633 22.92C125.073 22.92 124.513 22.08 124.513 20.24C124.513 18.4 125.073 16.36 125.073 14.68C125.073 11.44 123.033 8.52 119.353 8.52C115.873 8.52 113.033 11.04 113.033 15.92C113.033 16.92 113.193 17.56 113.393 18.32C114.513 16.64 116.353 14.76 118.553 14.76C119.473 14.76 120.273 15.08 120.273 16C120.273 18.84 112.353 18.4 112.353 24.36C112.353 27.44 114.473 30.32 117.473 30.32C118.753 30.32 120.153 29.8 121.153 28.44C121.793 29.64 122.793 30.12 123.793 30.12C126.033 30.12 127.393 27.48 127.393 24.6C127.393 23.48 127.193 22.4 126.753 21.4ZM117.553 23.92C117.553 22.88 118.433 21.64 120.473 20.28C120.473 22.2 119.673 24.8 118.313 24.8C117.793 24.8 117.553 24.44 117.553 23.92ZM138.524 13.16C138.564 12.6 138.724 11.88 138.724 11.2C138.724 9.52 137.644 8.56 136.164 8.56C134.284 8.56 132.364 9.6 131.524 10.88C133.004 11.4 133.604 13.12 133.604 19.48C133.604 26.28 132.564 28.08 131.804 30.16C133.524 30.08 135.244 29.96 137.164 29.96C138.244 29.96 139.404 30 140.564 30.2C139.164 27.24 138.604 24.64 138.604 22.48C138.604 17.88 140.924 15.24 142.444 15.24C142.884 15.24 143.284 15.48 143.284 16.76C143.284 17.68 143.084 18.32 142.484 19.56C145.724 18.44 146.964 15.64 146.964 13.12C146.964 10.68 145.764 8.56 143.844 8.56C141.964 8.56 140.404 9.56 138.524 13.16ZM151.967 10.2C154.007 10.96 154.847 14.76 154.847 19.16C154.847 23.28 154.087 27.8 152.847 30.24C154.047 30.12 155.487 30.04 157.127 30.04C158.687 30.04 160.527 30.12 161.367 30.2C160.327 28.44 159.847 27.2 159.847 23.68C159.847 20.64 160.847 16.8 160.847 13.88C160.847 11.04 159.887 8.96 156.207 8.96C154.607 8.96 153.167 9.32 151.967 10.2ZM153.767 3.88C153.767 5.6 155.087 6.88 156.767 6.88C158.447 6.88 159.807 5.6 159.807 3.88C159.807 2.2 158.447 0.879998 156.767 0.879998C155.087 0.879998 153.767 2.2 153.767 3.88ZM177.001 15.64C177.921 14.6 178.321 13.52 178.321 12.56C178.321 10.04 175.801 8.24 172.881 8.24C169.881 8.24 167.281 10.12 167.281 13.68C167.281 15.28 167.801 16.72 168.481 17.88C169.761 19.96 172.121 21.8 172.121 23.52C172.121 24.28 171.641 24.92 170.761 24.92C169.681 24.92 168.561 23.92 168.201 21.64C167.041 22.4 166.641 23.6 166.641 25C166.641 28.28 168.961 30.44 172.361 30.44C175.961 30.44 178.561 28.08 178.561 24.24C178.561 22.6 178.081 21.08 177.361 19.64C175.801 16.76 173.681 15.48 173.681 13.88C173.681 13.16 174.121 12.84 174.681 12.84C175.921 12.84 176.841 14.56 177.001 15.64Z" fill="#FFC261"/>
</svg>
