<svg width="353" height="31" viewBox="0 0 353 31" fill="none" xmlns="http://www.w3.org/2000/svg">
<path d="M12.84 10.84C13.84 9.68 14.48 8.16 14.48 6.64C14.48 3.96 12.6 1.04 8.36 1.04C4.56 1.04 1 3.36 1 8.2C1 10.2 1.64 12.32 2.52 13.84C3.92 16.48 6.8 18.88 6.8 21.16C6.8 22.16 6.28 23.16 5.04 23.16C3.64 23.16 2.64 21.8 2.12 18.84C0.72 19.76 0.24 21.44 0.24 23.24C0.24 27.64 2.92 30.52 7.16 30.52C11.12 30.52 14.72 28 14.72 22.28C14.72 19.88 14.12 17.8 13.28 16.16C11.6 12.76 8.92 11.12 8.92 8.96C8.92 8.04 9.4 7.32 10.4 7.32C12.08 7.32 12.68 9.28 12.84 10.84ZM27.0772 8.32C22.5572 8.32 20.3572 14.2 20.3572 19.44C20.3572 24.12 22.1172 30.28 27.3572 30.28C30.7172 30.28 32.6372 27.8 32.6372 24.4C32.6372 23.28 32.3972 22.32 31.8372 21.72C31.7172 22.84 29.7572 24.64 28.1172 24.64C27.2372 24.64 26.3572 24.12 26.3572 23.16C26.3572 21.08 30.1572 19.68 32.5972 19.52C32.6772 19 32.6772 18.36 32.6772 17.76C32.6772 15.16 31.9572 8.32 27.0772 8.32ZM25.9172 16.32C25.9172 14.96 26.0772 13.36 27.0372 13.36C27.7972 13.36 27.9972 14.4 27.9172 16.04C27.3172 16.36 26.5572 16.88 25.9572 17.36C25.9172 17.08 25.9172 16.68 25.9172 16.32ZM37.7687 1.84C38.6887 4.08 39.1287 9.92 39.1287 14.44C39.1287 19.36 38.6087 24.56 37.4487 29.8C39.8887 29.8 42.3287 30.04 45.0087 30.2C44.2887 28.48 43.7687 26.48 43.7687 24.56C43.7687 24.16 43.7687 23.72 43.8487 23.36C45.1287 26.12 47.3687 30.88 50.4088 30.88C52.5687 30.88 53.8888 28.44 53.8888 25.92C53.8888 24.56 53.4887 23.28 52.7687 22.52C52.6487 23.88 52.1688 24.36 51.6888 24.36C50.3687 24.36 48.4488 21.36 48.2087 19.84C50.4888 18.76 52.5687 17.16 52.5687 14.6C52.5687 12.72 51.4487 11.96 50.3687 11.32C49.0487 10.52 47.9687 9.84 47.9687 8.16C47.9687 7.84 48.0087 7.4 48.1287 7C46.0087 8.28 45.4087 9.92 45.4087 11.24C45.4087 13.12 46.6087 13.32 46.6087 15.36C46.6087 17.2 45.5287 18.2 43.8887 19C44.0487 14.12 44.3287 12.76 45.2087 9.12C45.7687 6.72 46.0087 5.76 46.0087 4.8C46.0087 2.12 44.3687 1.04 41.5687 1.04C40.2487 1.04 39.1287 1.28 37.7687 1.84ZM65.4941 13.16C65.5341 12.6 65.6941 11.88 65.6941 11.2C65.6941 9.52 64.6141 8.56 63.1341 8.56C61.2541 8.56 59.3341 9.6 58.4941 10.88C59.9741 11.4 60.5741 13.12 60.5741 19.48C60.5741 26.28 59.5341 28.08 58.7741 30.16C60.4941 30.08 62.2141 29.96 64.1341 29.96C65.2141 29.96 66.3741 30 67.5341 30.2C66.1341 27.24 65.5741 24.64 65.5741 22.48C65.5741 17.88 67.8941 15.24 69.4141 15.24C69.8541 15.24 70.2541 15.48 70.2541 16.76C70.2541 17.68 70.0541 18.32 69.4541 19.56C72.6941 18.44 73.9341 15.64 73.9341 13.12C73.9341 10.68 72.7341 8.56 70.8141 8.56C68.9341 8.56 67.3741 9.56 65.4941 13.16ZM85.5506 8.32C81.0306 8.32 78.8306 14.2 78.8306 19.44C78.8306 24.12 80.5906 30.28 85.8306 30.28C89.1906 30.28 91.1106 27.8 91.1106 24.4C91.1106 23.28 90.8706 22.32 90.3106 21.72C90.1906 22.84 88.2306 24.64 86.5906 24.64C85.7106 24.64 84.8306 24.12 84.8306 23.16C84.8306 21.08 88.6306 19.68 91.0706 19.52C91.1506 19 91.1506 18.36 91.1506 17.76C91.1506 15.16 90.4306 8.32 85.5506 8.32ZM84.3906 16.32C84.3906 14.96 84.5506 13.36 85.5106 13.36C86.2706 13.36 86.4706 14.4 86.3906 16.04C85.7906 16.36 85.0306 16.88 84.4306 17.36C84.3906 17.08 84.3906 16.68 84.3906 16.32ZM104.028 11.6C104.028 8.24 102.188 7.08 98.9875 7.08C97.1475 7.08 95.2275 7.48 94.1875 8.48C96.7475 10.4 97.3075 13.64 97.3075 16.8C97.3075 19.24 96.9875 22.36 96.9875 24C96.9875 27.88 98.8675 30.64 101.748 30.64C104.908 30.64 106.548 27.36 106.548 24.12C106.548 22.6 106.228 21.4 105.388 20.6C104.988 21.48 104.228 23.8 103.108 23.8C102.228 23.8 102.108 22.52 102.108 21.48C102.108 20.32 102.268 18.44 102.828 17.32C106.268 17.16 107.588 16.24 107.588 13.76C106.428 13.88 105.028 14.24 103.748 14.44C103.868 13.52 104.028 12.6 104.028 11.6ZM126.753 21.4C126.513 22.4 126.073 22.92 125.633 22.92C125.073 22.92 124.513 22.08 124.513 20.24C124.513 18.4 125.073 16.36 125.073 14.68C125.073 11.44 123.033 8.52 119.353 8.52C115.873 8.52 113.033 11.04 113.033 15.92C113.033 16.92 113.193 17.56 113.393 18.32C114.513 16.64 116.353 14.76 118.553 14.76C119.473 14.76 120.273 15.08 120.273 16C120.273 18.84 112.353 18.4 112.353 24.36C112.353 27.44 114.473 30.32 117.473 30.32C118.753 30.32 120.153 29.8 121.153 28.44C121.793 29.64 122.793 30.12 123.793 30.12C126.033 30.12 127.393 27.48 127.393 24.6C127.393 23.48 127.193 22.4 126.753 21.4ZM117.553 23.92C117.553 22.88 118.433 21.64 120.473 20.28C120.473 22.2 119.673 24.8 118.313 24.8C117.793 24.8 117.553 24.44 117.553 23.92ZM138.524 13.16C138.564 12.6 138.724 11.88 138.724 11.2C138.724 9.52 137.644 8.56 136.164 8.56C134.284 8.56 132.364 9.6 131.524 10.88C133.004 11.4 133.604 13.12 133.604 19.48C133.604 26.28 132.564 28.08 131.804 30.16C133.524 30.08 135.244 29.96 137.164 29.96C138.244 29.96 139.404 30 140.564 30.2C139.164 27.24 138.604 24.64 138.604 22.48C138.604 17.88 140.924 15.24 142.444 15.24C142.884 15.24 143.284 15.48 143.284 16.76C143.284 17.68 143.084 18.32 142.484 19.56C145.724 18.44 146.964 15.64 146.964 13.12C146.964 10.68 145.764 8.56 143.844 8.56C141.964 8.56 140.404 9.56 138.524 13.16ZM151.967 10.2C154.007 10.96 154.847 14.76 154.847 19.16C154.847 23.28 154.087 27.8 152.847 30.24C154.047 30.12 155.487 30.04 157.127 30.04C158.687 30.04 160.527 30.12 161.367 30.2C160.327 28.44 159.847 27.2 159.847 23.68C159.847 20.64 160.847 16.8 160.847 13.88C160.847 11.04 159.887 8.96 156.207 8.96C154.607 8.96 153.167 9.32 151.967 10.2ZM153.767 3.88C153.767 5.6 155.087 6.88 156.767 6.88C158.447 6.88 159.807 5.6 159.807 3.88C159.807 2.2 158.447 0.879998 156.767 0.879998C155.087 0.879998 153.767 2.2 153.767 3.88ZM177.001 15.64C177.921 14.6 178.321 13.52 178.321 12.56C178.321 10.04 175.801 8.24 172.881 8.24C169.881 8.24 167.281 10.12 167.281 13.68C167.281 15.28 167.801 16.72 168.481 17.88C169.761 19.96 172.121 21.8 172.121 23.52C172.121 24.28 171.641 24.92 170.761 24.92C169.681 24.92 168.561 23.92 168.201 21.64C167.041 22.4 166.641 23.6 166.641 25C166.641 28.28 168.961 30.44 172.361 30.44C175.961 30.44 178.561 28.08 178.561 24.24C178.561 22.6 178.081 21.08 177.361 19.64C175.801 16.76 173.681 15.48 173.681 13.88C173.681 13.16 174.121 12.84 174.681 12.84C175.921 12.84 176.841 14.56 177.001 15.64ZM198.613 1.84C199.733 6.28 200.293 11.12 200.293 16C200.293 20.72 199.773 25.48 198.853 30.08C200.853 29.92 203.213 29.84 205.493 29.84C208.333 29.84 211.253 30 213.133 30.04C213.133 29.04 213.293 27.32 213.293 25.48C213.293 21.76 212.613 17.84 208.733 17.84C209.173 18.68 209.373 19.64 209.373 20.6C209.373 22.2 208.733 23.8 207.693 23.8C206.533 23.8 205.493 21.8 205.493 18.72C205.493 13.6 208.333 4.96 209.653 1.52C207.693 1.88 205.533 2 203.093 2C201.733 2 200.133 1.96 198.613 1.84ZM233.31 21.4C233.07 22.4 232.63 22.92 232.19 22.92C231.63 22.92 231.07 22.08 231.07 20.24C231.07 18.4 231.63 16.36 231.63 14.68C231.63 11.44 229.59 8.52 225.91 8.52C222.43 8.52 219.59 11.04 219.59 15.92C219.59 16.92 219.75 17.56 219.95 18.32C221.07 16.64 222.91 14.76 225.11 14.76C226.03 14.76 226.83 15.08 226.83 16C226.83 18.84 218.91 18.4 218.91 24.36C218.91 27.44 221.03 30.32 224.03 30.32C225.31 30.32 226.71 29.8 227.71 28.44C228.35 29.64 229.35 30.12 230.35 30.12C232.59 30.12 233.95 27.48 233.95 24.6C233.95 23.48 233.75 22.4 233.31 21.4ZM224.11 23.92C224.11 22.88 224.99 21.64 227.03 20.28C227.03 22.2 226.23 24.8 224.87 24.8C224.35 24.8 224.11 24.44 224.11 23.92ZM239.058 9.8C239.818 12.28 240.098 15.44 240.098 18.72C240.098 22.92 239.618 27.08 238.858 30.16C240.138 30 241.618 29.92 242.978 29.92C244.698 29.92 246.458 30.04 247.658 30.04C246.338 28.36 244.938 25.56 244.938 23.72C244.938 23.16 245.098 22.48 245.978 22.48C246.178 22.48 246.378 22.52 246.778 22.52C247.058 22.52 249.378 22.48 251.018 20.64C252.098 19.48 252.698 17.8 252.698 15.68C252.698 10.4 248.978 8.16 245.218 8.16C243.258 8.16 241.018 8.8 239.058 9.8ZM245.178 19.6C245.098 19.04 245.098 18.28 245.098 17.52C245.098 15.04 245.618 13 246.658 13C247.378 13 247.898 14.08 247.898 15.56C247.898 16.96 247.258 18.68 245.178 19.6ZM272.032 21.4C271.792 22.4 271.352 22.92 270.912 22.92C270.352 22.92 269.792 22.08 269.792 20.24C269.792 18.4 270.352 16.36 270.352 14.68C270.352 11.44 268.312 8.52 264.632 8.52C261.152 8.52 258.312 11.04 258.312 15.92C258.312 16.92 258.472 17.56 258.672 18.32C259.792 16.64 261.632 14.76 263.832 14.76C264.752 14.76 265.552 15.08 265.552 16C265.552 18.84 257.632 18.4 257.632 24.36C257.632 27.44 259.752 30.32 262.752 30.32C264.032 30.32 265.432 29.8 266.432 28.44C267.072 29.64 268.072 30.12 269.072 30.12C271.312 30.12 272.672 27.48 272.672 24.6C272.672 23.48 272.472 22.4 272.032 21.4ZM262.832 23.92C262.832 22.88 263.712 21.64 265.752 20.28C265.752 22.2 264.952 24.8 263.592 24.8C263.072 24.8 262.832 24.44 262.832 23.92ZM276.872 10.2C278.112 11.12 278.472 14.64 278.472 18.44C278.472 23.16 277.952 28.28 277.672 30.2C279.952 29.76 282.072 29.76 284.352 29.76C284.232 28.8 283.912 24.48 283.912 21.64C283.912 18.2 284.392 15.16 285.592 15.16C286.272 15.16 286.392 16.28 286.392 17.76C286.392 20.6 285.992 26.2 285.432 30.12C287.592 29.92 289.752 29.84 292.472 29.76C291.792 28.04 291.552 26.24 291.552 24.32C291.552 21.52 292.072 16.84 292.072 14.08C292.072 10.92 291.392 8.44 288.832 8.44C286.552 8.44 285.192 10.48 284.072 12.72C284.152 12.16 284.272 11.6 284.272 11.04C284.272 9.32 283.272 8.52 281.712 8.52C280.112 8.52 277.952 9.4 276.872 10.2ZM305.911 16.88C308.031 17.32 310.591 16.32 310.591 13.12C310.591 10.88 309.311 8.36 305.911 8.36C301.591 8.36 298.271 12.36 298.271 19.16C298.271 26.04 301.671 30.24 305.311 30.24C308.791 30.24 311.551 26.56 311.551 20.96C311.551 19.6 311.391 17.12 309.351 17.12C308.311 17.12 307.471 17.8 306.351 17.8C305.791 17.8 305.191 17.6 304.191 17.08C303.991 17.56 303.911 18.12 303.911 18.6C303.911 20.24 304.911 21.68 306.671 21.68C306.951 21.68 307.191 21.64 307.431 21.6C307.351 24.32 306.711 25.04 305.871 25.04C304.391 25.04 303.431 22.84 303.431 18.88C303.431 14.84 304.431 13.32 305.511 13.32C306.111 13.32 306.471 13.72 306.471 14.68C306.471 15.32 306.311 16.16 305.911 16.88ZM331.599 21.4C331.359 22.4 330.919 22.92 330.479 22.92C329.919 22.92 329.359 22.08 329.359 20.24C329.359 18.4 329.919 16.36 329.919 14.68C329.919 11.44 327.879 8.52 324.199 8.52C320.719 8.52 317.879 11.04 317.879 15.92C317.879 16.92 318.039 17.56 318.239 18.32C319.359 16.64 321.199 14.76 323.399 14.76C324.319 14.76 325.119 15.08 325.119 16C325.119 18.84 317.199 18.4 317.199 24.36C317.199 27.44 319.319 30.32 322.319 30.32C323.599 30.32 324.999 29.8 325.999 28.44C326.639 29.64 327.639 30.12 328.639 30.12C330.879 30.12 332.239 27.48 332.239 24.6C332.239 23.48 332.039 22.4 331.599 21.4ZM322.399 23.92C322.399 22.88 323.279 21.64 325.319 20.28C325.319 22.2 324.519 24.8 323.159 24.8C322.639 24.8 322.399 24.44 322.399 23.92ZM336.439 10.2C337.679 11.12 338.039 14.64 338.039 18.44C338.039 23.16 337.519 28.28 337.239 30.2C339.519 29.76 341.639 29.76 343.919 29.76C343.799 28.8 343.479 24.48 343.479 21.64C343.479 18.2 343.959 15.16 345.159 15.16C345.839 15.16 345.959 16.28 345.959 17.76C345.959 20.6 345.559 26.2 344.999 30.12C347.159 29.92 349.319 29.84 352.039 29.76C351.359 28.04 351.119 26.24 351.119 24.32C351.119 21.52 351.639 16.84 351.639 14.08C351.639 10.92 350.959 8.44 348.399 8.44C346.119 8.44 344.759 10.48 343.639 12.72C343.719 12.16 343.839 11.6 343.839 11.04C343.839 9.32 342.839 8.52 341.279 8.52C339.679 8.52 337.519 9.4 336.439 10.2Z" fill="#FFC261"/>
</svg>
