<svg width="378" height="32" viewBox="0 0 378 32" fill="none" xmlns="http://www.w3.org/2000/svg">
<path d="M16.6 0.479999C15 1.56 14.44 3.68 14.44 5.72C14.44 10.8 18.12 11.6 18.12 15.88C18.12 18.64 16.6 19.32 15.96 22.6C15.92 22.32 15.92 22.08 15.92 21.76C15.92 19.6 17.36 18.2 17.36 15.68C17.36 12.32 14.72 9.68 11.8 9.68C11.44 9.68 11.36 9.72 11.12 9.72C12.16 10.92 12.8 12.8 12.8 14.68C12.8 17.68 11 19.72 10.04 22C10.2 19.24 11.6 17.12 11.6 14.08C11.6 10.68 9.72 8.32 7.6 6.6C5.72 5.04 3.64 4 3.64 2.04C3.64 1.6 3.72 1.16 3.92 0.839999C1.6 1.4 0.2 4.84 0.2 8.2C0.2 11.76 1.72 14.72 3.92 17.4C5.72 19.56 6.92 21.08 6.92 24.24C6.92 26.36 6.4 28.64 5 30C5.92 29.96 6.8 29.96 7.76 29.96C9.4 29.96 11.2 30.04 13.12 30.28C12.2 29.16 11.8 27.52 11.8 25.96C11.8 24.28 12.24 22.92 13.16 21.36C12.88 22.52 12.76 23.6 12.76 24.2C12.76 26.16 14.08 31.04 18.28 31.04C19.84 31.04 21 30.36 21.48 29.08C20.2 28.52 19.32 27.68 19.32 25.48C19.32 20.72 23.6 17.2 23.6 11.12C23.6 7 21.56 5.16 19.32 4.24C17.16 3.36 16.72 3.2 16.6 0.479999ZM42.5659 21.4C42.3259 22.4 41.8859 22.92 41.4459 22.92C40.8859 22.92 40.3259 22.08 40.3259 20.24C40.3259 18.4 40.8859 16.36 40.8859 14.68C40.8859 11.44 38.8459 8.52 35.1659 8.52C31.6859 8.52 28.8459 11.04 28.8459 15.92C28.8459 16.92 29.0059 17.56 29.2059 18.32C30.3259 16.64 32.1659 14.76 34.3659 14.76C35.2859 14.76 36.0859 15.08 36.0859 16C36.0859 18.84 28.1659 18.4 28.1659 24.36C28.1659 27.44 30.2859 30.32 33.2859 30.32C34.5659 30.32 35.9659 29.8 36.9659 28.44C37.6059 29.64 38.6059 30.12 39.6059 30.12C41.8459 30.12 43.2059 27.48 43.2059 24.6C43.2059 23.48 43.0059 22.4 42.5659 21.4ZM33.3659 23.92C33.3659 22.88 34.2459 21.64 36.2859 20.28C36.2859 22.2 35.4859 24.8 34.1259 24.8C33.6059 24.8 33.3659 24.44 33.3659 23.92ZM48.6672 1.84C49.5872 4.08 50.0272 9.92 50.0272 14.44C50.0272 19.36 49.5072 24.56 48.3472 29.8C50.7872 29.8 53.2272 30.04 55.9072 30.2C55.1872 28.48 54.6672 26.48 54.6672 24.56C54.6672 24.16 54.6672 23.72 54.7472 23.36C56.0272 26.12 58.2672 30.88 61.3072 30.88C63.4672 30.88 64.7872 28.44 64.7872 25.92C64.7872 24.56 64.3872 23.28 63.6672 22.52C63.5472 23.88 63.0672 24.36 62.5872 24.36C61.2672 24.36 59.3472 21.36 59.1072 19.84C61.3872 18.76 63.4672 17.16 63.4672 14.6C63.4672 12.72 62.3472 11.96 61.2672 11.32C59.9472 10.52 58.8672 9.84 58.8672 8.16C58.8672 7.84 58.9072 7.4 59.0272 7C56.9072 8.28 56.3072 9.92 56.3072 11.24C56.3072 13.12 57.5072 13.32 57.5072 15.36C57.5072 17.2 56.4272 18.2 54.7872 19C54.9472 14.12 55.2272 12.76 56.1072 9.12C56.6672 6.72 56.9072 5.76 56.9072 4.8C56.9072 2.12 55.2672 1.04 52.4672 1.04C51.1472 1.04 50.0272 1.28 48.6672 1.84ZM84.3347 21.4C84.0947 22.4 83.6547 22.92 83.2147 22.92C82.6547 22.92 82.0947 22.08 82.0947 20.24C82.0947 18.4 82.6547 16.36 82.6547 14.68C82.6547 11.44 80.6147 8.52 76.9347 8.52C73.4547 8.52 70.6147 11.04 70.6147 15.92C70.6147 16.92 70.7747 17.56 70.9747 18.32C72.0947 16.64 73.9347 14.76 76.1347 14.76C77.0547 14.76 77.8547 15.08 77.8547 16C77.8547 18.84 69.9347 18.4 69.9347 24.36C69.9347 27.44 72.0547 30.32 75.0547 30.32C76.3347 30.32 77.7347 29.8 78.7347 28.44C79.3747 29.64 80.3747 30.12 81.3747 30.12C83.6147 30.12 84.9747 27.48 84.9747 24.6C84.9747 23.48 84.7747 22.4 84.3347 21.4ZM75.1347 23.92C75.1347 22.88 76.0147 21.64 78.0547 20.28C78.0547 22.2 77.2547 24.8 75.8947 24.8C75.3747 24.8 75.1347 24.44 75.1347 23.92ZM96.2778 12.32C96.6378 10.52 98.5578 6.32 98.5578 3.84C98.5578 1.04 96.1978 0.359998 94.3578 0.359998C92.6378 0.359998 90.9178 0.96 89.5978 1.8C91.3578 3.32 91.9178 5.64 91.9178 8.2C91.9178 12.4 90.4778 17.84 90.4778 21.88C90.4778 27.56 93.3978 30.36 96.7578 30.36C102.198 30.36 104.598 22.68 104.598 16.4C104.598 12.04 103.478 8.88 100.878 8.88C98.9978 8.88 97.3578 10.6 96.2778 12.32ZM95.7578 21.32C95.7578 18.88 96.6778 14.4 98.3578 14.4C99.2778 14.4 99.5178 15.64 99.5178 17.24C99.5178 20.44 98.4378 24.6 97.0378 24.6C96.1978 24.6 95.7578 23 95.7578 21.32ZM108.767 10.2C110.807 10.96 111.647 14.76 111.647 19.16C111.647 23.28 110.887 27.8 109.647 30.24C110.847 30.12 112.287 30.04 113.927 30.04C115.487 30.04 117.327 30.12 118.167 30.2C117.127 28.44 116.647 27.2 116.647 23.68C116.647 20.64 117.647 16.8 117.647 13.88C117.647 11.04 116.687 8.96 113.007 8.96C111.407 8.96 109.967 9.32 108.767 10.2ZM110.567 3.88C110.567 5.6 111.887 6.88 113.567 6.88C115.247 6.88 116.607 5.6 116.607 3.88C116.607 2.2 115.247 0.879998 113.567 0.879998C111.887 0.879998 110.567 2.2 110.567 3.88ZM140.921 23.96C140.521 24.44 140.241 24.64 139.801 24.64C138.361 24.64 137.801 21.96 137.801 19.04C137.801 13.96 139.441 9.4 139.441 5.92C139.441 2.36 137.761 1.08 134.641 1.08C132.881 1.08 131.321 1.48 130.321 2.08C132.961 3.2 133.721 5.48 133.721 8.12C133.721 9.4 133.561 10.6 133.401 11.68C132.401 9.8 130.841 8.72 129.201 8.72C125.521 8.72 123.881 14.4 123.881 19.36C123.881 25.28 125.721 30.36 130.001 30.36C131.561 30.36 132.961 29.64 133.881 28.36C134.401 30.04 135.481 30.72 136.681 30.72C138.841 30.72 141.361 28.52 141.361 25.92C141.361 25.28 141.241 24.6 140.921 23.96ZM129.641 20.24C129.641 16.96 130.201 14 131.401 14C132.441 14 132.761 16.6 132.761 18.84C132.761 21.56 132.281 25.24 131.041 25.24C130.201 25.24 129.641 23.52 129.641 20.24ZM172.595 14.12C174.355 12.04 175.955 9.24 175.955 6.56C175.955 3.12 173.435 1.2 170.875 1.2C167.955 1.2 165.315 3.8 165.315 8C165.315 9.68 165.755 11.48 166.275 12.88C162.235 15.76 160.635 19.2 160.635 22.24C160.635 26.8 164.195 30.52 168.275 30.52C170.155 30.52 172.115 29.76 173.955 27.92C175.635 29.64 177.115 30.32 178.475 30.32C181.275 30.32 183.115 27.24 183.115 24.56C183.115 23.8 182.915 23.04 182.635 22.4C182.075 23.8 181.395 24.28 180.715 24.28C179.875 24.28 178.955 23.52 178.035 22.56C179.755 19.28 180.355 16.52 183.675 16.52C184.275 16.52 184.915 16.6 185.595 16.72C184.955 13.92 182.235 12.44 179.795 12.44C177.075 12.44 175.435 14.36 173.715 16.64C173.275 15.84 172.795 15.04 172.595 14.12ZM169.995 7.52C169.995 6.88 170.235 5.4 171.155 5.4C171.475 5.4 171.635 5.8 171.635 6.32C171.635 7.28 171.075 8.88 170.275 9.6C170.075 8.84 169.995 8.16 169.995 7.52ZM169.995 21.96C169.355 22.6 168.795 22.88 168.235 22.88C167.155 22.88 166.555 21.88 166.555 20.84C166.555 20 167.035 18.84 168.075 17.96C168.515 19.4 169.235 20.68 169.995 21.96ZM217.426 10.84C218.426 9.68 219.066 8.16 219.066 6.64C219.066 3.96 217.186 1.04 212.946 1.04C209.146 1.04 205.586 3.36 205.586 8.2C205.586 10.2 206.226 12.32 207.106 13.84C208.506 16.48 211.386 18.88 211.386 21.16C211.386 22.16 210.866 23.16 209.626 23.16C208.226 23.16 207.226 21.8 206.706 18.84C205.306 19.76 204.826 21.44 204.826 23.24C204.826 27.64 207.506 30.52 211.746 30.52C215.706 30.52 219.306 28 219.306 22.28C219.306 19.88 218.706 17.8 217.866 16.16C216.186 12.76 213.506 11.12 213.506 8.96C213.506 8.04 213.986 7.32 214.986 7.32C216.666 7.32 217.266 9.28 217.426 10.84ZM231.663 8.32C227.143 8.32 224.943 14.2 224.943 19.44C224.943 24.12 226.703 30.28 231.943 30.28C235.303 30.28 237.223 27.8 237.223 24.4C237.223 23.28 236.983 22.32 236.423 21.72C236.303 22.84 234.343 24.64 232.703 24.64C231.823 24.64 230.943 24.12 230.943 23.16C230.943 21.08 234.743 19.68 237.183 19.52C237.263 19 237.263 18.36 237.263 17.76C237.263 15.16 236.543 8.32 231.663 8.32ZM230.503 16.32C230.503 14.96 230.663 13.36 231.623 13.36C232.383 13.36 232.583 14.4 232.503 16.04C231.903 16.36 231.143 16.88 230.543 17.36C230.503 17.08 230.503 16.68 230.503 16.32ZM242.355 1.84C243.275 4.08 243.715 9.92 243.715 14.44C243.715 19.36 243.195 24.56 242.035 29.8C244.475 29.8 246.915 30.04 249.595 30.2C248.875 28.48 248.355 26.48 248.355 24.56C248.355 24.16 248.355 23.72 248.435 23.36C249.715 26.12 251.955 30.88 254.995 30.88C257.155 30.88 258.475 28.44 258.475 25.92C258.475 24.56 258.075 23.28 257.355 22.52C257.235 23.88 256.755 24.36 256.275 24.36C254.955 24.36 253.035 21.36 252.795 19.84C255.075 18.76 257.155 17.16 257.155 14.6C257.155 12.72 256.035 11.96 254.955 11.32C253.635 10.52 252.555 9.84 252.555 8.16C252.555 7.84 252.595 7.4 252.715 7C250.595 8.28 249.995 9.92 249.995 11.24C249.995 13.12 251.195 13.32 251.195 15.36C251.195 17.2 250.115 18.2 248.475 19C248.635 14.12 248.915 12.76 249.795 9.12C250.355 6.72 250.595 5.76 250.595 4.8C250.595 2.12 248.955 1.04 246.155 1.04C244.835 1.04 243.715 1.28 242.355 1.84ZM269.862 12.32C270.222 10.52 272.142 6.32 272.142 3.84C272.142 1.04 269.782 0.359998 267.942 0.359998C266.222 0.359998 264.502 0.96 263.182 1.8C264.942 3.32 265.502 5.64 265.502 8.2C265.502 12.4 264.062 17.84 264.062 21.88C264.062 27.56 266.982 30.36 270.342 30.36C275.782 30.36 278.182 22.68 278.182 16.4C278.182 12.04 277.062 8.88 274.462 8.88C272.582 8.88 270.942 10.6 269.862 12.32ZM269.342 21.32C269.342 18.88 270.262 14.4 271.942 14.4C272.862 14.4 273.102 15.64 273.102 17.24C273.102 20.44 272.022 24.6 270.622 24.6C269.782 24.6 269.342 23 269.342 21.32ZM290.762 8.32C286.242 8.32 284.042 14.2 284.042 19.44C284.042 24.12 285.802 30.28 291.042 30.28C294.402 30.28 296.322 27.8 296.322 24.4C296.322 23.28 296.082 22.32 295.522 21.72C295.402 22.84 293.442 24.64 291.802 24.64C290.922 24.64 290.042 24.12 290.042 23.16C290.042 21.08 293.842 19.68 296.282 19.52C296.362 19 296.362 18.36 296.362 17.76C296.362 15.16 295.642 8.32 290.762 8.32ZM289.602 16.32C289.602 14.96 289.762 13.36 290.722 13.36C291.482 13.36 291.682 14.4 291.602 16.04C291.002 16.36 290.242 16.88 289.642 17.36C289.602 17.08 289.602 16.68 289.602 16.32ZM301.403 10.2C302.643 11.12 303.003 14.64 303.003 18.44C303.003 23.16 302.483 28.28 302.203 30.2C304.483 29.76 306.603 29.76 308.883 29.76C308.763 28.8 308.443 24.48 308.443 21.64C308.443 18.2 308.923 15.16 310.123 15.16C310.803 15.16 310.923 16.28 310.923 17.76C310.923 20.6 310.523 26.2 309.963 30.12C312.123 29.92 314.283 29.84 317.003 29.76C316.323 28.04 316.083 26.24 316.083 24.32C316.083 21.52 316.603 16.84 316.603 14.08C316.603 10.92 315.923 8.44 313.363 8.44C311.083 8.44 309.723 10.48 308.603 12.72C308.683 12.16 308.803 11.6 308.803 11.04C308.803 9.32 307.803 8.52 306.243 8.52C304.643 8.52 302.483 9.4 301.403 10.2ZM340.155 23.96C339.755 24.44 339.475 24.64 339.035 24.64C337.595 24.64 337.035 21.96 337.035 19.04C337.035 13.96 338.675 9.4 338.675 5.92C338.675 2.36 336.995 1.08 333.875 1.08C332.115 1.08 330.555 1.48 329.555 2.08C332.195 3.2 332.955 5.48 332.955 8.12C332.955 9.4 332.795 10.6 332.635 11.68C331.635 9.8 330.075 8.72 328.435 8.72C324.755 8.72 323.115 14.4 323.115 19.36C323.115 25.28 324.955 30.36 329.235 30.36C330.795 30.36 332.195 29.64 333.115 28.36C333.635 30.04 334.715 30.72 335.915 30.72C338.075 30.72 340.595 28.52 340.595 25.92C340.595 25.28 340.475 24.6 340.155 23.96ZM328.875 20.24C328.875 16.96 329.435 14 330.635 14C331.675 14 331.995 16.6 331.995 18.84C331.995 21.56 331.515 25.24 330.275 25.24C329.435 25.24 328.875 23.52 328.875 20.24ZM344.653 10.2C346.693 10.96 347.533 14.76 347.533 19.16C347.533 23.28 346.773 27.8 345.533 30.24C346.733 30.12 348.173 30.04 349.813 30.04C351.373 30.04 353.213 30.12 354.053 30.2C353.013 28.44 352.533 27.2 352.533 23.68C352.533 20.64 353.533 16.8 353.533 13.88C353.533 11.04 352.573 8.96 348.893 8.96C347.293 8.96 345.853 9.32 344.653 10.2ZM346.453 3.88C346.453 5.6 347.773 6.88 349.453 6.88C351.133 6.88 352.493 5.6 352.493 3.88C352.493 2.2 351.133 0.879998 349.453 0.879998C347.773 0.879998 346.453 2.2 346.453 3.88ZM376.807 23.96C376.407 24.44 376.127 24.64 375.687 24.64C374.247 24.64 373.687 21.96 373.687 19.04C373.687 13.96 375.327 9.4 375.327 5.92C375.327 2.36 373.647 1.08 370.527 1.08C368.767 1.08 367.207 1.48 366.207 2.08C368.847 3.2 369.607 5.48 369.607 8.12C369.607 9.4 369.447 10.6 369.287 11.68C368.287 9.8 366.727 8.72 365.087 8.72C361.407 8.72 359.767 14.4 359.767 19.36C359.767 25.28 361.607 30.36 365.887 30.36C367.447 30.36 368.847 29.64 369.767 28.36C370.287 30.04 371.367 30.72 372.567 30.72C374.727 30.72 377.247 28.52 377.247 25.92C377.247 25.28 377.127 24.6 376.807 23.96ZM365.527 20.24C365.527 16.96 366.087 14 367.287 14C368.327 14 368.647 16.6 368.647 18.84C368.647 21.56 368.167 25.24 366.927 25.24C366.087 25.24 365.527 23.52 365.527 20.24Z" fill="#FFC261"/>
</svg>
